<svg xmlns="http://www.w3.org/2000/svg" xmlns:xlink="http://www.w3.org/1999/xlink" width="20" height="20" viewBox="0 0 20 20">
    <defs>
        <linearGradient id="tab_ic_todo_s_svg__b" x1="99.807%" x2=".193%" y1="50.193%" y2="50.193%">
            <stop offset="0%" stop-color="#E19C5D"/>
            <stop offset="100%" stop-color="#F1BF91"/>
        </linearGradient>
        <linearGradient id="tab_ic_todo_s_svg__d" x1="3.561%" x2="96.439%" y1="16.513%" y2="100%">
            <stop offset="0%" stop-color="#767378"/>
            <stop offset="100%" stop-color="#45474D"/>
            <stop offset="100%" stop-color="#17181A"/>
        </linearGradient>
        <path id="tab_ic_todo_s_svg__a" d="M0 0H20V20H0z"/>
    </defs>
    <g fill="none" fill-rule="evenodd">
        <mask id="tab_ic_todo_s_svg__c" fill="#fff">
            <use xlink:href="#tab_ic_todo_s_svg__a"/>
        </mask>
        <path className="svg-fill--tone1" fill="url(#tab_ic_todo_s_svg__b)" d="M14.4070476,7.82476026 L13.3276809,7.1029228 L12.2205371,7.8293594 C12.1292671,7.88453174 12.0300607,7.91671554 11.9268854,7.91671554 C11.1610123,7.91671554 10.5379946,7.19487808 10.5379946,6.30752143 L10.5379946,1.02016381 L16.0935505,1.02016381 L16.0935505,6.30752143 C16.0935505,7.19487592 15.4705344,7.91671554 14.7046594,7.91671554 C14.6014921,7.91671554 14.4983181,7.88453045 14.4070476,7.82476026 Z M11.7284793,1.39947834 L11.7284793,6.30752876 C11.7284793,6.39028727 11.7641936,6.46385033 11.8237175,6.50522959 L13.0380043,5.70982756 C13.2205441,5.59028741 13.4467342,5.59028741 13.6292753,5.71442527 L14.8118154,6.50522959 C14.8673711,6.45925128 14.9030854,6.39028585 14.9030854,6.30752733 L14.9030854,1.39947834 L11.7284793,1.39947834 Z" mask="url(#tab_ic_todo_s_svg__c)"/>
        <path className="svg-fill--tone2" fill="url(#tab_ic_todo_s_svg__d)" d="M19.6023547,3.22827531 L19.6023547,17.2028754 C19.6023547,18.8567235 18.3063335,20.1974343 16.7076137,20.1974343 L3.25731368,20.1974343 C1.65859377,20.1974343 0.362572632,18.8567235 0.362572632,17.2028754 L0.362572632,3.22827531 C0.362572632,1.57442771 1.65859163,0.233716475 3.25731368,0.233716475 L16.7076137,0.233716475 C18.3063336,0.233716475 19.6023547,1.57442492 19.6023547,3.22827531 Z M3.25731368,1.73099569 C2.49090414,1.73099569 1.85731804,2.34896288 1.81235684,3.14043414 L1.80994421,3.22827461 L1.80994421,17.2028747 C1.80994421,17.9957954 2.40738975,18.6511944 3.17248316,18.6976639 L3.25731474,18.7001545 L16.7076158,18.7001545 C17.4740254,18.7001545 18.1076114,18.0821875 18.1525726,17.2907162 L18.1549853,17.2028758 L18.1549853,3.22827564 C18.1549853,2.43535472 17.5575397,1.77995575 16.7924463,1.73348628 L16.7076147,1.73099569 L3.25731368,1.73099569 Z M9.09357129,9.91611551 L9.09357129,11.0141196 C9.09357129,11.1243763 9.00717007,11.2137568 8.90058868,11.2137568 L4.46197946,11.2137568 C4.35539806,11.2137568 4.26899685,11.1243763 4.26899685,11.0141197 L4.26899685,9.91611551 C4.26899685,9.8063151 4.35583906,9.71647833 4.46197945,9.71647833 L8.90058865,9.71647833 C9.00672908,9.71647833 9.09357129,9.8063151 9.09357129,9.91611551 Z M13.9181308,14.0117032 L13.9181308,15.1097074 C13.9181308,15.219964 13.8317296,15.3093442 13.7251482,15.3093442 L4.46197946,15.3093442 C4.35539806,15.3093442 4.26899685,15.219964 4.26899685,15.1097074 L4.26899685,14.0117032 C4.26899685,13.9019027 4.35583906,13.8120663 4.46197945,13.8120663 L13.7251481,13.8120663 C13.8312886,13.8120663 13.9181308,13.9019027 13.9181308,14.0117032 Z" mask="url(#tab_ic_todo_s_svg__c)"/>
    </g>
</svg>
