<svg xmlns="http://www.w3.org/2000/svg" width="24" height="24" viewBox="0 0 24 24">
    <g fill="none" fill-rule="evenodd">
        <path d="M0 0H24V24H0z" transform="translate(-79.000000, -186.000000) translate(79.000000, 186.000000)"/>
        <path fill="#45474D" d="M0.833333333,18 C0.373096042,18 9.44541232e-16,17.626904 0,17.1666667 L-2.0206059e-14,-3.72524667e-14 C0.920474583,-3.74215551e-14 1.66666667,0.746192084 1.66666667,1.66666667 L1.666,16.299 L18.3333333,16.3 C19.2538079,16.3 20,17.0461921 20,17.9666667 L20,18 L0.833333333,18 Z" transform="translate(-79.000000, -186.000000) translate(79.000000, 186.000000) translate(2.000000, 3.000000)"/>
        <path fill="#E19C5D" fill-rule="nonzero" d="M17.065032 3 18.2435433 4.20208153 10.4639207 12.1372966 7.85675565 9.47794076 4.1785113 13.2500656 3 12.0479841 7.85688712 7.07395924 10.463839 9.73294076z" transform="translate(-79.000000, -186.000000) translate(79.000000, 186.000000) translate(2.000000, 3.000000)"/>
    </g>
</svg>
