<svg xmlns="http://www.w3.org/2000/svg" width="20" height="20" viewBox="0 0 20 20">
    <g fill="none">
        <path className="svg-fill--tone2" fill="#111" d="M11.0416667,0 C11.7478818,0 12.3432235,0.503814247 12.4759304,1.21389708 L12.4961991,1.35857573 L12.5,1.45833333 L12.5,2.5 L14.5833333,2.5 C15.9326654,2.5 17.0323216,3.56898954 17.081609,4.90627572 L17.0833333,5 L17.0833333,7.88124999 C17.0833333,8.1021639 16.9042472,8.28125 16.6833333,8.28125 L15.8166667,8.28125 C15.5957528,8.28125 15.4166667,8.1021639 15.4166667,7.88124999 L15.4166667,5 C15.4166667,4.56068259 15.0767176,4.20076453 14.645526,4.16895239 L14.5833333,4.16666667 L2.5,4.16666667 C2.06068259,4.16666667 1.70076453,4.50661575 1.66895239,4.93780736 L1.66666667,5 L1.66666667,17.5 C1.66666667,17.9393174 2.00661575,18.2992355 2.43780736,18.3310476 L2.5,18.3333333 L7.17812499,18.3333333 C7.3990389,18.3333333 7.578125,18.5124194 7.578125,18.7333333 L7.578125,19.6 C7.578125,19.8209139 7.3990389,20 7.17812499,20 L2.5,20 C1.15066794,20 0.0510117659,18.9310105 0.00172436336,17.5937243 L0,17.5 L0,5 C0,3.65066794 1.06898954,2.55101177 2.40627572,2.50172436 L2.5,2.5 L4.16666667,2.5 L4.16666667,1.66666667 C4.16666667,0.794638114 4.83637923,0.0790293121 5.68952695,0.00611766135 L5.83333333,0 L11.0416667,0 Z M5.84999999,10 C6.0709139,10 6.25,10.1790861 6.25,10.4 L6.25,11.2666667 C6.25,11.4875806 6.0709139,11.6666667 5.84999999,11.6666667 L3.31666667,11.6666667 C3.09575277,11.6666667 2.91666667,11.4875806 2.91666667,11.2666667 L2.91666667,10.4 C2.91666667,10.1790861 3.09575277,10 3.31666667,10 L5.84999999,10 Z M9.18333333,6.66666667 C9.40424723,6.66666667 9.58333333,6.84575277 9.58333333,7.06666667 L9.58333333,7.93333333 C9.58333333,8.15424723 9.40424723,8.33333333 9.18333333,8.33333333 L3.31666667,8.33333333 C3.09575277,8.33333333 2.91666667,8.15424723 2.91666667,7.93333333 L2.91666667,7.06666667 C2.91666667,6.84575277 3.09575277,6.66666667 3.31666667,6.66666667 L9.18333333,6.66666667 Z M10.8341667,1.66666667 L5.83333333,1.66666667 L5.83333333,2.5 L10.8333333,2.5 L10.8341667,1.66666667 Z" transform="translate(-284.000000, -317.000000) translate(284.000000, 317.000000) translate(1.000000, 0.000000)"/>
        <path fill="#E19C5D" d="M12.9166667,8.75 C15.9082091,8.75 18.3333333,11.1751243 18.3333333,14.1666667 C18.3333333,17.1582091 15.9082091,19.5833333 12.9166667,19.5833333 C9.92512427,19.5833333 7.5,17.1582091 7.5,14.1666667 C7.5,11.1751243 9.92512427,8.75 12.9166667,8.75 Z M12.9166667,10.4166667 C10.8455989,10.4166667 9.16666667,12.0955989 9.16666667,14.1666667 C9.16666667,16.2377345 10.8455989,17.9166667 12.9166667,17.9166667 C14.9877345,17.9166667 16.6666667,16.2377345 16.6666667,14.1666667 C16.6666667,12.0955989 14.9877345,10.4166667 12.9166667,10.4166667 Z" transform="translate(-284.000000, -317.000000) translate(284.000000, 317.000000) translate(1.000000, 0.000000)"/>
        <path fill="#E19C5D" d="M15.336667,12.4590482 L15.9494929,13.0718741 C16.1057026,13.2280838 16.1057026,13.4813498 15.9494929,13.6375595 L13.0540672,16.5329852 C12.7416477,16.8454046 12.2351157,16.8454046 11.9226963,16.5329852 L10.336667,14.9469559 C10.1804573,14.7907462 10.1804573,14.5374802 10.336667,14.3812705 L10.9494929,13.7684446 C11.105695,13.6122273 11.358961,13.6122273 11.5151708,13.7684371 C11.5151733,13.7684396 11.5151758,13.7684421 11.5151708,13.7684521 L12.4883333,14.7416667 L12.4883333,14.7416667 L14.7709799,12.4590466 C14.9271915,12.30284 15.1804563,12.3028408 15.336667,12.4590482 Z" transform="translate(-284.000000, -317.000000) translate(284.000000, 317.000000) translate(1.000000, 0.000000)"/>
    </g>
</svg>
