<svg xmlns="http://www.w3.org/2000/svg" width="20" height="20" viewBox="0 0 20 20">
    <path fill="#999" fill-rule="evenodd" d="M20,0 L20,9.46875 L18.495394,10.46875 L18.495394,1.5 L1.504606,1.5 L1.504606,18.5 L6.26013468,18.5 L7.26013468,20 L0,20 L0,0 L20,0 Z M13.5,9 C16.5378418,9 19,11.4621582 19,14.5 C19,17.5378418 16.5378418,20 13.5,20 C10.4621582,20 8,17.5378418 8,14.5 C8,11.4621582 10.4621582,9 13.5,9 Z M13.5,10.5 C12.4323609,10.5 11.4232193,10.9131631 10.6700193,11.6700193 C9.91681938,12.4268649 9.5,13.4287011 9.5,14.5 C9.5,15.5712954 9.91316307,16.5767807 10.6700193,17.3299807 C11.4268649,18.0831806 12.4287011,18.5 13.5,18.5 C14.5712954,18.5 15.5767807,18.0868369 16.3299807,17.3299807 C17.0831806,16.5731351 17.5,15.5712989 17.5,14.5 C17.5,13.4287046 17.0868369,12.4232193 16.3299807,11.6700193 C15.5731351,10.9168194 14.5676426,10.5 13.5,10.5 Z M13.595455,12.5045499 L13.5949091,14.7725499 L15.8636364,14.772732 L15.8636364,16.0272772 L12.3409091,16.0272772 L12.3409091,12.5045499 L13.595455,12.5045499 Z M6.95454555,10.0318271 L6.95454555,11.5318271 L3.04545455,11.5318271 L3.04545455,10.0318271 L6.95454555,10.0318271 Z M16.9545455,4.03182706 L16.9545455,5.53182706 L3.04545455,5.53182706 L3.04545455,4.03182706 L16.9545455,4.03182706 Z" transform="translate(0.000000, 0.004839)"/>
</svg>
