<svg xmlns="http://www.w3.org/2000/svg" xmlns:xlink="http://www.w3.org/1999/xlink" width="20" height="20" viewBox="0 0 20 20">
    <defs>
        <linearGradient id="tab_ic_order_s_svg__b" x1="2.775%" x2="97.225%" y1="16.513%" y2="100%">
            <stop offset="0%" stop-color="#767378"/>
            <stop offset="100%" stop-color="#45474D"/>
            <stop offset="100%" stop-color="#17181A"/>
        </linearGradient>
        <linearGradient id="tab_ic_order_s_svg__d" x1="99.807%" x2=".193%" y1="50.193%" y2="50.193%">
            <stop offset="0%" stop-color="#E19C5D"/>
            <stop offset="100%" stop-color="#F1BF91"/>
        </linearGradient>
        <path id="tab_ic_order_s_svg__a" d="M0 0H20V20H0z"/>
    </defs>
    <g fill="none" fill-rule="evenodd">
        <mask id="tab_ic_order_s_svg__c" fill="#fff">
            <use xlink:href="#tab_ic_order_s_svg__a"/>
        </mask>
        <path className="svg-fill--tone2" fill="url(#tab_ic_order_s_svg__b)" d="M15.4426547,0.565446352 L19.1363432,4.25913486 C19.4983983,4.62108142 19.7017832,5.1120565 19.7017832,5.62400487 L19.7017832,17.0526516 C19.7017832,18.6513714 18.4057629,19.9473916 16.8070432,19.9473916 L3.21052947,19.9473916 C1.61180969,19.9473916 0.315789474,18.6513714 0.315789474,17.0526516 L0.315789474,2.89473977 C0.315789474,1.29602042 1.61180742,2.05683424e-14 3.21052947,2.05683424e-14 L14.0777779,2.05683424e-14 C14.5897336,2.05683424e-14 15.0807082,0.203389661 15.4426547,0.565446352 Z M3.21054316,1.44737645 C2.44413355,1.44737645 1.81054751,2.04474454 1.76558632,2.80983342 L1.76317368,2.89474588 L1.76317368,17.0526579 C1.76317368,17.8191479 2.36061922,18.4526995 3.12571263,18.49762 L3.21054421,18.5000274 L16.8070579,18.5000274 C17.5734675,18.5000274 18.2070535,17.9026594 18.2520147,17.1375705 L18.2544274,17.0526589 L18.2544274,6.75440803 L14.8772379,6.75440803 C14.077878,6.75440799 13.4298674,6.10639782 13.4298674,5.30703792 L13.4298674,1.44737645 L3.21054316,1.44737645 Z M14.8772147,5.11259247 C14.8772147,5.21917929 14.9636165,5.3055805 15.0701979,5.3055805 L17.6523116,5.28627675 C17.7588905,5.28556363 17.844711,5.19858625 17.8440236,5.09200712 C17.8436582,5.04123405 17.8233227,4.99264041 17.7873989,4.95675875 L15.2062632,2.37562293 C15.1306749,2.30048294 15.0084861,2.30084636 14.9333463,2.37643474 C14.8973656,2.41263007 14.8772147,2.46160433 14.8772147,2.51264063 L14.8772147,5.11259247 Z" mask="url(#tab_ic_order_s_svg__c)"/>
        <path className="svg-fill--tone1" fill="url(#tab_ic_order_s_svg__d)" d="M16.0877356,11.1403773 C16.193876,11.1403773 16.2807183,11.227219 16.2807183,11.3333594 L16.2807183,12.3947636 C16.2807183,12.501345 16.1943171,12.5877468 16.0877357,12.5877468 L3.92982677,12.5877468 C3.82324537,12.5877468 3.73684416,12.501345 3.73684416,12.3947636 L3.73684416,11.3333594 C3.73684416,11.227219 3.82368637,11.1403773 3.92982677,11.1403773 L16.0877356,11.1403773 Z M9.81580607,7.71932119 C9.92194646,7.71932119 10.0087887,7.80616339 10.0087887,7.91230379 L10.0087887,8.97370778 C10.0087887,9.08028918 9.92238747,9.16669039 9.81580607,9.16669039 L3.92982677,9.16669039 C3.82324537,9.16669039 3.73684416,9.08028918 3.73684416,8.97370778 L3.73684416,7.91230379 C3.73684416,7.80616339 3.82368637,7.71932119 3.92982677,7.71932119 L9.81580607,7.71932119 Z" mask="url(#tab_ic_order_s_svg__c)"/>
    </g>
</svg>
