<svg xmlns="http://www.w3.org/2000/svg" xmlns:xlink="http://www.w3.org/1999/xlink" width="20" height="20" viewBox="0 0 20 20">
    <defs>
        <linearGradient id="tab_ic_reservation_s_svg__b" x1="8.48%" x2="91.52%" y1="16.513%" y2="100%">
            <stop offset="0%" stop-color="#767378"/>
            <stop offset="100%" stop-color="#45474D"/>
            <stop offset="100%" stop-color="#17181A"/>
        </linearGradient>
        <linearGradient id="tab_ic_reservation_s_svg__d" x1="99.807%" x2=".193%" y1="50.193%" y2="50.193%">
            <stop offset="0%" stop-color="#E19C5D"/>
            <stop offset="100%" stop-color="#F1BF91"/>
        </linearGradient>
        <path id="tab_ic_reservation_s_svg__a" d="M0 0H20V20H0z"/>
    </defs>
    <g fill="none" fill-rule="evenodd">
        <mask id="tab_ic_reservation_s_svg__c" fill="#fff">
            <use xlink:href="#tab_ic_reservation_s_svg__a"/>
        </mask>
        <path className="svg-fill--tone2" fill="url(#tab_ic_reservation_s_svg__b)" d="M18.7602664,3.01170322 L18.7602664,10.6438217 C18.7602664,10.7540783 18.6738652,10.8434589 18.5672838,10.8434589 L17.5058798,10.8434589 C17.3992984,10.8434589 17.3128971,10.7540783 17.3128971,10.6438217 L17.3128971,3.01170322 C17.3128972,2.21947322 16.7157327,1.56416549 15.9508405,1.51744335 L15.8655271,1.51542252 L3.4678581,1.51542252 C2.70162256,1.51536283 2.06810866,2.13308771 2.02290096,2.92436245 L2.02048867,3.01170367 L2.02048867,16.9828179 C2.02048873,17.7750482 2.61765317,18.4303559 3.3825453,18.477078 L3.46745775,18.4795735 L9.25400924,18.4795735 C9.34572796,18.4795541 9.42478852,18.5463189 9.44313235,18.6392834 L9.44699201,18.6792109 L9.44699201,19.7767167 C9.44699201,19.8869733 9.3605908,19.9763539 9.25400941,19.9763539 L3.46784238,19.9763539 C1.86949806,19.9763539 0.573644986,18.6362537 0.573102222,16.982801 L0.573102222,3.01171016 C0.573654272,1.35821437 1.86953425,0.0181446088 3.46788767,0.0181446088 L15.8655567,0.0181446088 C17.4638705,0.0181446088 18.7597236,1.35825288 18.7602664,3.01170322 Z M6.98833036,12.4954711 C7.09447076,12.4954711 7.18131297,12.5853078 7.18131297,12.6951082 L7.18131297,13.7931124 L7.18131297,13.7931124 C7.18131297,13.903369 7.09491176,13.9927496 6.98833036,13.9927496 C6.98833035,13.9927496 6.98833033,13.9927496 6.98833032,13.9927496 L4.47956301,13.9927496 L4.479563,13.9927496 C4.3729816,13.9927496 4.28658039,13.903369 4.28658039,13.7931124 C4.28658039,13.7931124 4.28658039,13.7931124 4.28658039,13.7931124 L4.28658039,12.6951082 C4.28658039,12.5853078 4.3734226,12.4954711 4.479563,12.4954711 L6.98833031,12.4954711 L6.98833036,12.4954711 Z M13.7427317,9.50091222 C13.8488721,9.50091222 13.9357143,9.59074899 13.9357143,9.7005494 L13.9357143,10.7985535 L13.9357143,10.7985535 C13.9357143,10.9088102 13.8493131,10.9981907 13.7427317,10.9981907 C13.7427317,10.9981907 13.7427317,10.9981907 13.7427317,10.9981907 L4.47956303,10.9981907 L4.47956302,10.9981907 C4.37298163,10.9981907 4.28658041,10.9088102 4.28658041,10.7985535 C4.28658041,10.7985535 4.28658041,10.7985535 4.28658041,10.7985535 L4.28658041,9.7005494 C4.28658041,9.59074899 4.37342262,9.50091222 4.47956302,9.50091222 L13.7427317,9.50091222 L13.7427317,9.50091222 Z M13.7427317,6.50635338 C13.8488721,6.50635338 13.9357143,6.59619015 13.9357143,6.70599056 L13.9357143,7.80399469 L13.9357143,7.80399471 C13.9357143,7.91425133 13.8493131,8.00363189 13.7427317,8.00363189 C13.7427317,8.00363189 13.7427317,8.00363189 13.7427317,8.00363189 L4.47956303,8.00363189 L4.47956302,8.00363189 C4.37298163,8.00363189 4.28658041,7.91425133 4.28658041,7.80399471 C4.28658041,7.8039947 4.28658041,7.80399469 4.28658041,7.80399469 L4.28658041,6.70599056 C4.28658041,6.59619015 4.37342262,6.50635338 4.47956302,6.50635338 L13.7427317,6.50635338 L13.7427317,6.50635338 Z" mask="url(#tab_ic_reservation_s_svg__c)"/>
        <path className="svg-fill--tone1" fill="url(#tab_ic_reservation_s_svg__d)" d="M14.9255954,11.2758622 C17.2574578,11.2758622 19.1478177,13.2314069 19.1478177,15.6436783 C19.1478177,18.0559497 17.2574578,20.0114944 14.9255954,20.0114944 C12.5937331,20.0114944 10.7033732,18.0559497 10.7033732,15.6436783 C10.7033732,13.2314069 12.5937331,11.2758622 14.9255954,11.2758622 Z M14.9222224,12.4217982 C13.2040106,12.4217982 11.8111113,13.8627285 11.8111113,15.640189 C11.8111113,17.4176495 13.2040106,18.8585798 14.9222224,18.8585798 C16.6404342,18.8585798 18.0333335,17.4176494 18.0333335,15.640189 C18.0333335,13.8627286 16.6404342,12.4217982 14.9222224,12.4217982 Z M14.5228886,13.7095701 L15.1434855,13.7167307 C15.2058079,13.7173932 15.2569054,13.7701953 15.2576155,13.8346678 L15.2733968,15.3228822 L16.7118785,15.3392062 C16.7742008,15.3398686 16.8252983,15.3926707 16.8260085,15.4571432 L16.8329318,16.0992699 C16.8333842,16.1546719 16.7961283,16.2019278 16.7437601,16.2123764 L16.7212465,16.2148065 L14.6321442,16.1908322 C14.5234243,16.1895846 14.4356166,16.1017108 14.4344507,15.99299 L14.4112033,13.8251066 C14.4107509,13.7697046 14.4480068,13.7224487 14.500375,13.7120002 L14.5228886,13.7095701 Z" mask="url(#tab_ic_reservation_s_svg__c)"/>
    </g>
</svg>
