<?xml version="1.0" encoding="UTF-8"?><svg version="1.1" width="24px" height="24px" viewBox="0 0 24.0 24.0" xmlns="http://www.w3.org/2000/svg" xmlns:xlink="http://www.w3.org/1999/xlink"><defs><clipPath id="i0"><path d="M15.6529864,0 C16.4988652,0.00158331279 17.3077924,0.346810499 17.8941615,0.956470039 C18.4882788,1.5705873 18.8212198,2.40235152 18.8212198,3.27293926 L18.794161,11.7988166 C18.7894551,12.1788164 18.4882788,12.4846986 18.1188673,12.4846986 C17.7445897,12.4776205 17.4456352,12.1707989 17.4482794,11.7964637 L17.4765147,3.26940984 C17.4765147,2.76588072 17.2882795,2.29293982 16.9435738,1.93764592 C16.6012211,1.5835285 16.1365155,1.38470508 15.6529864,1.38470508 L3.16711135,1.38470508 C2.68358221,1.38470506 2.21887661,1.58470494 1.87652387,1.93764592 C1.5353476,2.29176336 1.34358301,2.7705866 1.34358301,3.27058631 L1.34358301,16.1599905 C1.34240655,16.6588137 1.5353476,17.1388134 1.87652387,17.4917544 C2.21887661,17.8458719 2.68358223,18.0435188 3.16711135,18.0435188 L11.4271065,18.0435188 C11.6080847,18.0463053 11.7805409,18.1208822 11.9065258,18.2508386 C12.0325107,18.380795 12.1017009,18.5554821 12.0988708,18.7364596 C12.1020154,18.91784 12.0328047,19.0930068 11.9065322,19.2232528 C11.7802598,19.3534988 11.6073208,19.4281019 11.42593,19.4305828 L3.16711135,19.4305828 C2.32593538,19.4317533 1.5200535,19.0870476 0.925936196,18.4729303 C0.331818911,17.8599895 -0.0011220654,17.0270488 0,16.1599905 L0,3.27176279 C-0.00344693403,2.40944165 0.328587487,1.57956654 0.925936196,0.957646504 C1.5200535,0.343529219 2.32711184,0 3.16711135,0 Z"></path></clipPath><clipPath id="i1"><path d="M0.673108938,8.32705393 L3.36134265,8.32940687 C3.60551744,8.32762187 3.83115404,8.45939364 3.94957761,8.67293607 C4.07135956,8.88954117 4.07135956,9.15397764 3.94957761,9.37058273 C3.83135656,9.58375349 3.60627341,9.71546547 3.36251911,9.71412227 L0.673108938,9.71412227 C0.30252093,9.71412227 0.00252110618,9.40352389 0.00252110618,9.02117117 C-0.000626129749,8.84019225 0.0682630708,8.66537823 0.194028415,8.53520007 C0.31979376,8.4050219 0.492129084,8.33014736 0.673108938,8.32705393 Z M4.70604775,4.16705639 C4.94879386,4.16837954 5.17173023,4.3012406 5.28840034,4.514115 C5.40819959,4.72956161 5.40819959,4.99160915 5.28840034,5.20705576 C5.17173023,5.41993017 4.94879386,5.55279124 4.70604775,5.55411439 L0.673108938,5.55293791 C0.297164945,5.54649169 -0.00272035143,5.23713633 0.00252110618,4.86117361 C-0.00062612451,4.68019469 0.0682630784,4.50538068 0.194028422,4.37520252 C0.319793766,4.24502436 0.492129088,4.17014982 0.673108938,4.16705639 Z M0.671932473,0 L11.4295732,0.00352941406 C11.8068242,0.0112523452 12.1067234,0.322726575 12.1002667,0.69999959 C12.1002667,1.0823523 11.8001612,1.39411684 11.4295732,1.39411684 L0.670756009,1.39058742 C0.300167981,1.39058742 8.28637879e-05,1.07764643 8.28637879e-05,0.694117246 C-0.00572863232,0.317048514 0.294872708,0.00644467703 0.671932473,0 Z"></path></clipPath><clipPath id="i2"><path d="M6.64617257,0.985509485 C8.24970104,2.38550866 8.54617145,4.8196249 7.32970159,6.5855062 L9.89440597,9.23256347 C10.1570433,9.50689579 10.1570433,9.93940703 9.89440597,10.2137393 C9.63205317,10.4843274 9.20617108,10.4843274 8.94381829,10.2137393 L6.37911392,7.56668208 C4.66852669,8.82197546 2.31088101,8.51609329 0.95441122,6.86080015 C-0.4008821,5.205507 -0.302058624,2.75374374 1.18264638,1.22080347 C2.64567478,-0.310897064 5.05687592,-0.414738631 6.64617257,0.985509485 Z M3.01323354,1.60786206 C1.82735188,2.11492058 1.15323464,3.41491982 1.40382272,4.71491906 C1.65323434,6.01374183 2.75911604,6.95021187 4.04146823,6.95021187 C4.75999869,6.94923592 5.44733993,6.65551125 5.94382005,6.1360947 C6.85255646,5.185358 6.99073215,3.73548628 6.27793749,2.63021441 C5.56617321,1.52903859 4.19793872,1.10080355 3.01323354,1.60786206 Z"></path></clipPath></defs><g transform="translate(2.0 2.0)"><g transform="translate(0.9999730129927684 0.0)"><g clip-path="url(#i0)"><polygon points="-2.65714016e-05,0 18.8212198,0 18.8212198,19.4305858 -2.65714016e-05,19.4305858 -2.65714016e-05,0" stroke="none" fill="#44474D"></polygon></g><g transform="translate(3.3622371995095675 4.8576441992187265)"><g clip-path="url(#i1)"><polygon points="1.66533454e-15,0 12.1003691,0 12.1003691,9.71413244 1.66533454e-15,9.71413244 1.66533454e-15,0" stroke="none" fill="#44474D"></polygon></g></g><g transform="translate(8.732696304573096 9.014484636092789)"><g clip-path="url(#i2)"><polygon points="7.77156117e-16,0 10.091384,0 10.091384,10.4166804 7.77156117e-16,10.4166804 7.77156117e-16,0" stroke="none" fill="#E19C5D"></polygon></g></g></g></g></svg>