<svg xmlns="http://www.w3.org/2000/svg" width="20" height="20" viewBox="0 0 20 20">
    <g fill="none" fill-rule="evenodd">
        <path fill="#111" d="M20,0 L20,8.46875 L18.495394,9.46875 L18.495394,1.5 L1.504606,1.5 L1.504606,18.5 L9.26013468,18.5 L10.2601347,20 L0,20 L0,0 L20,0 Z M14.3775226,10 C16.7946553,10.0002243 18.7539412,11.9600542 18.7537274,14.3774012 C18.7536451,15.2860385 18.4708078,16.1721285 17.9444515,16.9127522 L20,18.9670266 L18.9671192,20 L16.9130308,17.9442654 C14.9430668,19.3450282 12.2106593,18.8834522 10.8100211,16.9133097 C9.409385,14.9431672 9.87091922,12.2105123 11.8408834,10.8097472 C12.581812,10.2829028 13.4684011,9.9998849 14.3775226,10 Z M14.3775186,11.4590089 C12.7660964,11.4590089 11.4597755,12.7654439 11.4597755,14.3770164 C11.4597755,15.9885846 12.7660922,17.2950239 14.3775188,17.2950239 C15.9889409,17.2950239 17.2952619,15.9885889 17.2952619,14.3770164 C17.2952619,12.7654482 15.9889452,11.4590089 14.3775186,11.4590089 Z M8,12.36787 L8,13.86787 L3,13.86787 L3,12.36787 L8,12.36787 Z" transform="translate(0.000000, 0.004839)"/>
        <path fill="#E19C5D" d="M3.02543793 10.151107 8.86944893 5.708513 11.3997 10.045435 16.9978407 4.836411 16.9978407 2.703134 11.8228392 7.61002 9.42090498 3.370102 3 8.304387z" transform="translate(0.000000, 0.004839)"/>
    </g>
</svg>
