<svg xmlns="http://www.w3.org/2000/svg" width="20" height="20" viewBox="0 0 20 20">
    <defs>
        <linearGradient id="tab_ic_account-center_s_svg__a" x1="24.624%" x2="75.376%" y1="16.513%" y2="100%">
            <stop offset="0%" stop-color="#767378"/>
            <stop offset="100%" stop-color="#45474D"/>
            <stop offset="100%" stop-color="#17181A"/>
        </linearGradient>
        <linearGradient id="tab_ic_account-center_s_svg__b" x1="99.807%" x2=".193%" y1="50.193%" y2="50.193%">
            <stop offset="0%" stop-color="#E19C5D"/>
            <stop offset="100%" stop-color="#F1BF91"/>
        </linearGradient>
    </defs>
    <g fill="none" fill-rule="evenodd">
        <path d="M0 .005H20V20.005H0z"/>
        <path className="svg-fill--tone2" fill="url(#tab_ic_account-center_s_svg__a)" d="M9.71492044,0 C12.3737525,0 14.5293615,2.22994737 14.5293615,4.98044264 L14.5293617,6.9983184 C14.5299557,8.77806426 13.6121044,10.4227602 12.1219329,11.3122144 L12.1219329,11.4791397 L13.5700933,12.28 L10.6755518,12.2809936 C10.6745654,12.2728364 10.6740601,12.2645629 10.6740588,12.2562122 L10.6764711,10.5622924 C10.676713,10.4912206 10.7134622,10.4256407 10.7729611,10.3901046 L11.3982253,10.0157846 C12.4010063,9.4177782 13.0362593,8.32854954 13.0800693,7.13202442 L13.0824816,6.99776829 L13.0824816,4.98043411 C13.0824816,3.05673186 11.5749959,1.49727089 9.71542383,1.49727089 L9.71493376,1.49727089 C7.90032063,1.49751402 6.41219349,2.98509089 6.34979827,4.86117498 L6.34786843,4.98045832 L6.3478683,6.99797208 C6.3470684,8.1961676 6.94223762,9.31050143 7.92323794,9.94751896 L8.03227308,10.0158948 L8.65753698,10.3902147 C8.7170361,10.4257505 8.75378596,10.4913299 8.75402839,10.5624018 L8.75644067,12.2562899 C8.75644067,12.3300541 8.7171215,12.3978074 8.65418826,12.4324874 L2.69518461,15.7274146 C2.05393407,16.0821411 1.68596509,16.8049153 1.765973,17.5525982 C1.81904331,18.0467004 2.20500784,18.4270094 2.6768505,18.4634424 L2.75211374,18.4664369 L11.6660933,18.466 L11.6660933,19.963 L2.75162968,19.9637072 C1.56227374,19.9637072 0.554964651,19.0785517 0.349762038,17.8827268 L0.32680981,17.7177879 C0.181487745,16.3613978 0.849084266,15.0501273 2.01251428,14.4068118 L7.30746904,11.4791392 L7.30746904,11.311943 C5.81739021,10.4223367 4.89970102,8.77754019 4.90049255,6.99778965 L4.90049255,4.98045596 C4.90049255,2.22995367 7.05610834,0 9.71492044,0 Z"/>
        <path className="svg-fill--tone1" fill="url(#tab_ic_account-center_s_svg__b)" d="M19.0117356,18.4559421 C19.3784023,18.4559421 19.6784022,18.5457789 19.6784022,18.6555793 L19.6784022,19.7535835 C19.6784022,19.8515894 19.442569,19.9331006 19.1315698,19.9500042 L19.0117356,19.9532207 L19.0117356,19.9532207 L13.6784017,19.9532207 C13.351122,19.9532207 13.0789243,19.882599 13.0224764,19.7894685 L13.0117356,19.7535834 L13.0117356,19.7535834 L13.0117356,18.6555793 C13.0117356,18.5457789 13.3117355,18.4559421 13.6784017,18.4559421 L19.0117356,18.4559421 Z M19.2974507,15.4613833 C19.506974,15.4613833 19.6784022,15.5512201 19.6784022,15.6610205 L19.6784022,16.7590246 C19.6784022,16.8535303 19.5530946,16.9326985 19.3847995,16.9533893 L19.2974507,16.9586618 L19.2974507,16.9586618 L13.3926869,16.9586618 C13.2123495,16.9586618 13.0612793,16.8929945 13.0217967,16.8047996 L13.0117356,16.7590246 L13.0117356,16.7590246 L13.0117356,15.6610205 C13.0117356,15.55122 13.1831637,15.4613833 13.3926869,15.4613833 L19.2974507,15.4613833 Z M19.2974507,12.4668244 C19.506974,12.4668244 19.6784022,12.5566612 19.6784022,12.6664616 L19.6784022,13.7644658 C19.6784022,13.8589715 19.5530946,13.9381396 19.3847995,13.9588304 L19.2974507,13.964103 L19.2974507,13.964103 L13.3926869,13.964103 C13.2123495,13.964103 13.0612793,13.8984356 13.0217967,13.8102408 L13.0117356,13.7644657 L13.0117356,13.7644657 L13.0117356,12.6664616 C13.0117356,12.5566612 13.1831637,12.4668244 13.3926869,12.4668244 L19.2974507,12.4668244 Z" transform="translate(16.345069, 16.210023) scale(-1, -1) translate(-16.345069, -16.210023)"/>
    </g>
</svg>
