<?xml version="1.0" encoding="UTF-8"?><svg version="1.1" width="24px" height="24px" viewBox="0 0 24.0 24.0" xmlns="http://www.w3.org/2000/svg" xmlns:xlink="http://www.w3.org/1999/xlink"><defs><clipPath id="i0"><path d="M15.6529594,0 C16.4988382,0.00158331279 17.3077654,0.346810499 17.8941345,0.956470039 C18.4882518,1.5705873 18.8211928,2.40235152 18.8211928,3.27058631 L18.794134,11.7988166 C18.7894281,12.1788164 18.4882518,12.4846986 18.1188403,12.4846986 C17.7445627,12.4776205 17.4456083,12.1707989 17.4482524,11.7964637 L17.4764877,3.26940984 C17.4764877,2.76588072 17.2882525,2.29293982 16.9435468,1.93764592 C16.6011941,1.5835285 16.1364885,1.38470508 15.6529594,1.38470508 L3.16708437,1.38470508 C2.68355522,1.38470506 2.21884962,1.58470494 1.87649689,1.93764592 C1.53532062,2.29176336 1.34355603,2.7705866 1.34355603,3.27058631 L1.34355603,16.1599905 C1.34237956,16.6588137 1.53532062,17.1388134 1.87649689,17.4917544 C2.21884962,17.8458719 2.68355524,18.0435188 3.16708437,18.0435188 L11.4270795,18.0435188 C11.6080577,18.0463053 11.7805139,18.1208822 11.9064988,18.2508386 C12.0324837,18.380795 12.1016739,18.5554821 12.0988438,18.7364596 C12.1019884,18.91784 12.0327777,19.0930068 11.9065053,19.2232528 C11.7802329,19.3534988 11.6072938,19.4281019 11.425903,19.4305798 L3.16708437,19.4305798 C2.32590839,19.4317533 1.52002651,19.0870476 0.925909209,18.4729303 C0.331791924,17.8599895 -0.00114905241,17.0270488 0,16.1599905 L0,3.27176279 C-0.00347392104,2.40944165 0.3285605,1.57956654 0.925909209,0.957646504 C1.52002651,0.343529219 2.32708485,0 3.16708437,0 Z"></path></clipPath><clipPath id="i1"><path d="M6.55310548,5.37764391 C8.01613388,3.84594337 10.427335,3.74210181 12.0166317,5.14234992 C13.6201601,6.5423491 13.9166306,8.97646533 12.7001607,10.7423466 L15.2648651,13.3894039 C15.5275024,13.6637362 15.5275024,14.0962475 15.2648651,14.3705798 C15.0025123,14.6411679 14.5766302,14.6411679 14.3142774,14.3705798 L11.749573,11.7235225 C10.0389858,12.9788159 7.68134011,12.6729337 6.32487032,11.0176406 C4.969577,9.36234744 5.06840048,6.91058418 6.55310548,5.37764391 Z M11.6483966,6.78705484 C10.9366323,5.68587902 9.56839782,5.25764398 8.38369265,5.7647025 C7.19781099,6.27176102 6.52369374,7.57176025 6.77428183,8.87175949 C7.02369345,10.1705823 8.12957515,11.1070523 9.41192734,11.1070523 C10.1304578,11.1060764 10.817799,10.8123517 11.3142792,10.2929351 C12.2230156,9.34219844 12.3611913,7.89232672 11.6483966,6.78705484 Z M0.673108938,8.32705393 L3.36134265,8.32940688 C3.60551744,8.32762187 3.83115404,8.45939364 3.94957761,8.67293607 C4.07135956,8.88954117 4.07135956,9.15397764 3.94957761,9.37058273 C3.83135656,9.58375349 3.60627341,9.71546547 3.36251911,9.71412227 L0.673108938,9.71412227 C0.30252093,9.71412227 0.00252110618,9.40352389 0.00252110618,9.02117117 C-0.000626129749,8.84019225 0.0682630708,8.66537823 0.194028415,8.53520007 C0.31979376,8.4050219 0.492129084,8.33014736 0.673108938,8.32705393 Z M4.70604775,4.16705639 C4.94879386,4.16837954 5.17173023,4.3012406 5.28840034,4.514115 C5.40819959,4.72956161 5.40819959,4.99160915 5.28840034,5.20705576 C5.17173023,5.41993017 4.94879386,5.55279124 4.70604775,5.55411439 L0.673108938,5.55293791 C0.297164945,5.54649169 -0.00272035143,5.23713633 0.00252110618,4.86117361 C-0.00062612451,4.68019469 0.0682630784,4.50538068 0.194028422,4.37520252 C0.319793766,4.24502436 0.492129088,4.17014982 0.673108938,4.16705639 Z M0.671932473,0 L11.4295732,0.00352941406 C11.8068242,0.0112523452 12.1067234,0.322726575 12.1002667,0.69999959 C12.1002667,1.0823523 11.8001612,1.39411684 11.4295732,1.39411684 L0.670756009,1.39058742 C0.300167981,1.39058742 8.28637879e-05,1.07764643 8.28637879e-05,0.694117246 C-0.00572863232,0.317048514 0.294872708,0.00644467703 0.671932473,0 Z"></path></clipPath></defs><g transform="translate(2.0 1.9999999999999982)"><g transform="translate(1.0000000000000142 0.0)"><g clip-path="url(#i0)"><polygon points="-2.69870073e-05,0 18.8211928,0 18.8211928,19.4305828 -2.69870073e-05,19.4305828 -2.69870073e-05,0" stroke="none" fill="#999999"></polygon></g><g transform="translate(3.3622102125023225 4.85764419921875)"><g clip-path="url(#i1)"><polygon points="-1.11022302e-16,0 15.4618431,0 15.4618431,14.5735208 -1.11022302e-16,14.5735208 -1.11022302e-16,0" stroke="none" fill="#999999"></polygon></g></g></g></g></svg>