<svg xmlns="http://www.w3.org/2000/svg" width="20" height="20" viewBox="0 0 20 20">
    <g fill="none" fill-rule="evenodd">
        <path fill="#E19C5D" d="M16.1346463 12.6 15.1000003 13.48125 15.3909507 13.80625 9.539758 13.80625 9.539758 15.30625 18.5000003 15.30625z" transform="translate(0.000000, 0.004839)"/>
        <path fill="#111" d="M20,0 L20,10.46875 L18.495394,11.46875 L18.495394,1.5 L1.504606,1.5 L1.504606,18.5 L6.26013468,18.5 L7.26013468,20 L0,20 L0,0 L20,0 Z M18.5000003,16.30625 L18.5000003,17.80625 L12.6488076,17.80625 L12.939758,18.13125 L11.905112,19.0125 L9.539758,16.30625 L18.5000003,16.30625 Z M5.84235641,3.15764653 L8.01515038,7.45716353 L10.1879444,3.15764653 L12.0151504,3.15764653 L9.31625098,8.07347928 L11.15678,8.07347928 L11.15678,8.94208141 L8.83183314,8.94208141 L8.81807859,8.95599991 L8.81807859,10.160384 L11.1567733,10.160384 L11.1567733,11.0285504 L8.81807859,11.0285504 L8.81807859,13.1576465 L7.21223577,13.1576465 L7.21223577,11.0285504 L4.88728887,11.0285504 L4.88728887,10.160384 L7.21223577,10.160384 L7.21223577,8.95599991 L7.19848122,8.94208141 L4.88728215,8.94208141 L4.88728215,8.07347928 L6.71404979,8.07347928 L4.01515038,3.15764653 L5.84235641,3.15764653 Z" transform="translate(0.000000, 0.004839)"/>
    </g>
</svg>
