<svg xmlns="http://www.w3.org/2000/svg" width="20" height="19" viewBox="0 0 20 19">
    <defs>
        <linearGradient id="tab_ic_bussiness_s_svg__a" x1="-10.281%" x2="108.978%" y1="7.399%" y2="92.601%">
            <stop offset="0%" stop-color="#767378"/>
            <stop offset="100%" stop-color="#45474D"/>
        </linearGradient>
        <linearGradient id="tab_ic_bussiness_s_svg__b" x1="117.326%" x2="-25.263%" y1="50%" y2="50%">
            <stop offset="0%" stop-color="#E19C5D"/>
            <stop offset="100%" stop-color="#F1BF91"/>
        </linearGradient>
    </defs>
    <g fill="none">
        <path className="svg-fill--tone2" fill="url(#tab_ic_bussiness_s_svg__a)" d="M15.7493304,0 C16.9922643,0 18.0000256,1.01337411 18.0000256,2.25069519 L18.0000256,2.25069519 L18.0004669,10.6195878 C18.8429097,10.9039034 19.4600838,11.67853 19.4993124,12.6004892 L19.5004805,12.7539309 L19.5004805,15.7493048 C19.5004805,16.9404497 18.5697949,17.9156116 17.403227,17.9948071 L17.2497854,18 L2.25069519,18 C1.05955025,18 0.0843883974,17.0693144 0.00519286949,15.9027464 L0,15.7493048 L0,12.7539565 C0,11.772653 0.631681768,10.9378953 1.50653292,10.6299718 L1.50609332,3.75676288 C1.50609332,2.51382903 2.51946743,1.50606769 3.7567885,1.50606769 L3.7567885,1.50606769 L4.62789682,1.50616169 C4.93480983,0.633079008 5.76674191,0.0044095593 6.75213683,0 L6.75213683,0 Z M7.14964397,12.0093034 L2.26750787,12.0093034 C1.89285974,12.0093034 1.57937257,12.2915698 1.52972643,12.6534228 L1.52288037,12.7539309 L1.52288037,15.7605047 C1.52288037,16.1351529 1.80514685,16.44864 2.16701951,16.4982862 L2.2675335,16.5051322 L17.2889979,16.5051322 C17.663646,16.5051322 17.9771332,16.2228657 18.0267793,15.8610128 L18.0336254,15.7604791 L18.0224255,12.7539309 C18.0224255,12.3792827 17.740159,12.0657956 17.378306,12.0161494 L17.2777979,12.0093034 L12.3452751,12.0093034 C11.8302073,12.9163168 10.8560201,13.515371 9.74745952,13.515371 C8.63889897,13.515371 7.66471174,12.910704 7.14964397,12.0093034 Z M15.7661175,1.50606769 L6.73532414,1.50606769 C6.32661709,1.50606769 5.99069664,1.84198813 5.99069664,2.25069519 L5.99069664,2.25069519 L5.99,10.503 L7.60315067,10.5032357 C7.92787121,10.5032357 8.21901764,10.6936342 8.32537835,10.9959549 C8.53253826,11.5838349 9.0867929,12.0037418 9.74745952,12.0037418 C10.4081261,12.0037418 10.9567936,11.5838349 11.1639535,10.9959549 C11.2584964,10.7272254 11.5078921,10.5469282 11.7823417,10.5101798 L11.8861812,10.5032357 L16.51,10.503 L16.5107706,2.25069519 C16.5107706,1.87604706 16.2285041,1.56255989 15.8666315,1.51291375 L15.7661175,1.50606769 Z M4.501,3.012 L3.7567885,3.01213537 C3.34808145,3.01213537 3.012161,3.34805582 3.012161,3.75676288 L3.012161,3.75676288 L3.012,10.503 L4.501,10.503 L4.501,3.012 Z" transform="translate(0.000000, -1.000000) translate(0.000000, 1.720000)"/>
        <path className="svg-fill--tone1" fill="url(#tab_ic_bussiness_s_svg__b)" d="M14.2768625,6.76328548 C14.6855695,6.76328548 15.0215593,7.09920593 15.0215593,7.50793861 C15.0271028,7.91664567 14.6911567,8.25256611 14.2824496,8.25256611 L8.25259174,8.25256611 C7.84388469,8.25256611 7.50796424,7.91664567 7.50796424,7.50793861 C7.50796424,7.09920593 7.84388469,6.76328548 8.25259174,6.76328548 L14.2768625,6.76328548 Z M14.2768625,3.75676288 C14.6855695,3.75676288 15.0215593,4.09268332 15.0215593,4.50139038 C15.0271028,4.91009743 14.6911567,5.24601788 14.2824496,5.24601788 L8.25259174,5.24601788 C7.84388469,5.24601788 7.50796424,4.91009743 7.50796424,4.50139038 C7.50796424,4.09268332 7.84388469,3.75676288 8.25259174,3.75676288 L14.2768625,3.75676288 Z" transform="translate(0.000000, -1.000000) translate(0.000000, 1.720000)"/>
    </g>
</svg>
