<svg xmlns="http://www.w3.org/2000/svg" width="24" height="24" viewBox="0 0 24 24">
    <g fill="none" fill-rule="evenodd">
        <path d="M0 0H24V24H0z"/>
        <path fill="#45474D" fill-rule="nonzero" d="M11,0 C17.0751322,0 22,4.92486775 22,11 C22,17.0751322 17.0751322,22 11,22 C4.92486775,22 0,17.0751322 0,11 C0,4.92486775 4.92486775,0 11,0 Z M11,1.65 C5.83613759,1.65 1.65,5.83613759 1.65,11 C1.65,16.1638624 5.83613759,20.35 11,20.35 C16.1638624,20.35 20.35,16.1638624 20.35,11 C20.35,5.83613759 16.1638624,1.65 11,1.65 Z" transform="translate(1.000000, 1.000000)"/>
        <path fill="#45474D" d="M10.417,13.2 L20.592,13.2 L20.592,13.2 L20.592,14.85 L10.417,14.85 C9.96136508,14.85 9.592,14.4806349 9.592,14.025 C9.592,13.5693651 9.96136508,13.2 10.417,13.2 Z" transform="translate(1.000000, 1.000000) translate(15.092000, 14.025000) rotate(-360.000000) translate(-15.092000, -14.025000)"/>
        <path fill="#45474D" d="M0.863505198,8.83333193 L12.4135052,8.83333193 C12.8691401,8.83333193 13.2385052,9.20269701 13.2385052,9.65833193 C13.2385052,10.1139668 12.8691401,10.4833319 12.4135052,10.4833319 L0.863505198,10.4833319 C0.407870279,10.4833319 0.0385051977,10.1139668 0.0385051977,9.65833193 C0.0385051977,9.20269701 0.407870279,8.83333193 0.863505198,8.83333193 Z" transform="translate(1.000000, 1.000000) translate(6.638505, 9.658332) rotate(-491.000000) translate(-6.638505, -9.658332)"/>
        <path fill="#E19C5D" fill-rule="nonzero" d="M14.6435275,7.88606998 L12.3652104,7.88606998 L12.3652104,6.74691141 L14.6435275,6.74691141 C14.9567961,6.74691141 15.2131068,6.49060073 15.2131068,6.17733212 C15.2131068,5.86406351 14.9567961,5.60775283 14.6435275,5.60775283 L13.0487055,5.60775283 L14.6150485,4.04140979 C14.8428803,3.81357807 14.8428803,3.4718305 14.6150485,3.24399879 C14.3872168,3.01616707 14.0454693,3.01616707 13.8176375,3.24399879 L11.7956311,5.26600526 L9.7736246,3.24399879 C9.54579288,3.01616707 9.20404531,3.01616707 8.97621359,3.24399879 C8.74838188,3.4718305 8.74838188,3.81357807 8.97621359,4.04140979 L10.5425566,5.60775283 L8.94773463,5.60775283 C8.63446602,5.60775283 8.37815534,5.86406351 8.37815534,6.17733212 C8.37815534,6.49060073 8.63446602,6.74691141 8.94773463,6.74691141 L11.2260518,6.74691141 L11.2260518,7.88606998 L8.94773463,7.88606998 C8.63446602,7.88606998 8.37815534,8.14238066 8.37815534,8.45564927 C8.37815534,8.76891788 8.63446602,9.02522856 8.94773463,9.02522856 L11.2260518,9.02522856 L11.2260518,11.3035457 C11.2260518,11.6168143 11.4823625,11.873125 11.7956311,11.873125 C12.1088997,11.873125 12.3652104,11.6168143 12.3652104,11.3035457 L12.3652104,9.02522856 L14.6435275,9.02522856 C14.9567961,9.02522856 15.2131068,8.76891788 15.2131068,8.45564927 C15.2131068,8.14238066 14.9567961,7.88606998 14.6435275,7.88606998 L14.6435275,7.88606998 Z" transform="translate(1.000000, 1.000000)"/>
    </g>
</svg>
