<svg
    version="1.1"
    width="24px"
    height="24px"
    viewBox="0 0 24.0 24.0"
    xmlns="http://www.w3.org/2000/svg"
    xmlns:xlink="http://www.w3.org/1999/xlink"
>
    <defs>
        <clipPath id="i0">
            <path d="M8.99986654,0 C13.1416165,0 16.4991165,3.35149999 16.4991165,7.48575 L16.4991165,12.7985 L17.9196165,15.63475 C18.1691165,16.1325 17.8063665,16.718 17.2488665,16.718 L0.750866546,16.718 C0.193366538,16.718 -0.169133446,16.1325 0.0801165383,15.63475 L1.50061654,12.7985 L1.50061654,7.48575 C1.50061654,3.35150002 4.85811653,0 8.99986654,0 Z M8.99986654,1.49725001 C5.68661655,1.49725001 3.00061654,4.17825 3.00061654,7.48575 L3.00061654,12.975 C3.00061654,13.09125 2.97336653,13.20575 2.92136655,13.31 L1.96411654,15.22075 L16.034,15.22 L15.0783665,13.31 C15.0262844,13.2060953 14.9991492,13.0914771 14.9991165,12.97525 L14.9991165,7.48575 C14.9991165,4.17825 12.3131165,1.49725001 8.99986654,1.49725001 Z"></path>
        </clipPath>
        <clipPath id="i1">
            <path d="M7.07584792,0.270250018 C7.20301556,0.422858288 7.26420864,0.619808304 7.24591521,0.817611852 C7.22762178,1.0154154 7.13134656,1.1978023 6.97834792,1.32450001 C6.03629577,2.10724021 4.84965056,2.53495973 3.62484791,2.53325513 C2.38309792,2.53325513 1.20609791,2.10075003 0.270597901,1.32400002 C0.117636154,1.19751662 0.0214087293,1.01511157 0.00316233139,0.817309344 C-0.0150840666,0.619507114 0.0461513174,0.422576812 0.173347909,0.27000001 C0.438418722,-0.0479160746 0.9107964,-0.0913068202 1.22934791,0.173000026 C1.90215516,0.732273726 2.74994608,1.0376094 3.62484791,1.03575001 C4.49954694,1.03756242 5.34713805,0.732323458 6.01984792,0.17325001 C6.33839943,-0.0910568302 6.81077711,-0.047666074 7.07584792,0.270250018 Z"></path>
        </clipPath>
    </defs>
    <g transform="translate(3.0 2.0)">
        <g clip-path="url(#i0)">
            <polygon
                points="-1.11022302e-16,0 17.9998335,0 17.9998335,16.718 -1.11022302e-16,16.718 -1.11022302e-16,0"
                stroke="none"
                fill="#44474D"
                className="svg-fill--tone2"
            ></polygon>
        </g>
    </g>
    <g transform="translate(8.375018629634466 19.46674998983358)">
        <g clip-path="url(#i1)">
            <polygon
                points="-2.15539392e-16,3.88578059e-16 7.24909371,3.88578059e-16 7.24909371,2.53326021 -2.15539392e-16,2.53326021 -2.15539392e-16,3.88578059e-16"
                stroke="none"
                fill="#E19C5D"
                className="svg-fill--tone1"
            ></polygon>
        </g>
    </g>
</svg>