<svg xmlns="http://www.w3.org/2000/svg" width="48" height="48" viewBox="0 0 48 48">
    <path fill="#E19C5D" d="M39.0116184,4.00000744 C41.6501944,3.99538182 43.7933817,6.14763523 43.8,8.80833405 L43.8,8.80833405 L43.7916492,39.3178951 C43.7893495,41.979038 41.650894,44.1359043 39.0118875,44.138806 L39.0118875,44.138806 L8.76651319,44.138806 C6.12945405,44.1268113 3.99842449,41.9669002 4.00000087,39.3076915 L4.00000087,39.3076915 L4.00000087,8.80829457 C4.00915679,6.15740961 6.13736627,4.01040802 8.76619535,4.00000744 L8.76619535,4.00000744 Z M39.0115791,6.81575615 L8.76620489,6.81575615 C7.68405959,6.83654336 6.81223857,7.71707638 6.79333903,8.80832846 L6.79333903,8.80832846 L6.79333903,39.3074031 C6.79993485,40.4076845 7.67525707,41.3020244 8.76620492,41.3231694 L8.76620492,41.3231694 L39.0115841,41.3231694 C40.1074886,41.3146335 40.9949328,40.4230136 41.007408,39.317956 L41.007408,39.317956 L41.007408,8.80832846 C40.9881882,7.70820987 40.1026836,6.82415018 39.0115791,6.81575615 L39.0115791,6.81575615 Z M18.5960379,14.6438473 C21.0862428,11.6877559 25.4814082,11.3270167 28.4129049,13.8381147 C31.3444064,16.3492077 31.702145,20.7812404 29.2119351,23.7373268 L29.2119351,23.7373268 L28.6712221,24.3762535 L29.4113061,24.7615052 C33.2508398,26.7299993 35.7581409,30.6135663 35.9896298,34.9506939 L35.9896298,34.9506939 L33.188997,34.9506939 C32.8634154,30.2847127 29.1816181,26.5720137 24.5544305,26.2436996 C19.4247199,25.8797138 14.9736835,29.7779695 14.6127425,34.9506939 L14.6127425,34.9506939 L11.8152405,34.9506939 C12.0466804,30.6119073 14.5549944,26.7280344 18.3956191,24.7604531 L18.3956191,24.7604531 L19.1367509,24.3762535 L18.5960379,23.7373268 C16.3872648,21.1153159 16.3872648,17.2658532 18.5960379,14.6438473 Z M23.8894059,14.9849372 L23.6815069,14.9909069 C21.4799981,15.1087148 19.7322668,16.9450956 19.7307277,19.1924115 L19.7307277,19.1924115 C19.7365037,21.521396 21.6077464,23.3989112 23.9102795,23.393112 C26.2128126,23.3872862 28.07471,21.5003473 28.068959,19.1785002 C28.0631817,16.8566532 26.191939,14.979138 23.8894059,14.9849372 L23.8894059,14.9849372 Z" transform="translate(-208.000000, -2827.000000) translate(208.000000, 2827.000000)"/>
</svg>
