<svg xmlns="http://www.w3.org/2000/svg" width="14" height="14" viewBox="0 0 14 14">
    <g fill="none">
        <path d="M0 0H16V16H0z" transform="translate(-12.000000, -9.000000) translate(12.000000, 9.000000)"/>
        <path fill="#E19C5D" d="M13.4166667,8.26145833 C13.0958333,8.26145833 12.8333333,8.52395833 12.8333333,8.84479167 L12.8333333,12.5708333 L1.16666667,12.5708333 L1.16666667,8.84479167 C1.16666667,8.52395833 0.904166667,8.26145833 0.583333333,8.26145833 C0.2625,8.26145833 0,8.52395833 0,8.84479167 L0,13.1541667 C0,13.475 0.2625,13.7375 0.583333333,13.7375 L13.4166667,13.7375 C13.7375,13.7375 14,13.475 14,13.1541667 L14,8.84479167 C14,8.52395833 13.7375,8.26145833 13.4166667,8.26145833 Z M11.1125,4.9875 L7.58333333,8.37083333 L7.58333333,0.845833333 C7.58333333,0.525 7.32083333,0.2625 7,0.2625 C6.67916667,0.2625 6.41666667,0.525 6.41666667,0.845833333 L6.41666667,8.37083333 L2.8875,4.9875 C2.77083333,4.878125 2.63229167,4.82708333 2.48645833,4.82708333 C2.33333333,4.82708333 2.18020833,4.88541667 2.06354167,5.009375 C1.8375,5.24270833 1.85208333,5.61458333 2.078125,5.83333333 L6.59166667,10.1572917 L6.60625,10.171875 L6.628125,10.19375 C6.63541667,10.2010417 6.64270833,10.2083333 6.65,10.2083333 C6.65729167,10.215625 6.66458333,10.2229167 6.671875,10.2229167 C6.67916667,10.2302083 6.68645833,10.2302083 6.69375,10.2375 C6.70104167,10.2447917 6.70833333,10.2447917 6.715625,10.2520833 C6.72291667,10.259375 6.73020833,10.259375 6.74479167,10.2666667 C6.75208333,10.2739583 6.759375,10.2739583 6.76666667,10.28125 C6.77395833,10.28125 6.78125,10.2885417 6.79583333,10.2885417 C6.803125,10.2885417 6.81041667,10.2958333 6.825,10.2958333 C6.83229167,10.2958333 6.846875,10.303125 6.85416667,10.303125 C6.86145833,10.303125 6.86875,10.3104167 6.88333333,10.3104167 C6.890625,10.3104167 6.90520833,10.3104167 6.9125,10.3177083 L6.934375,10.3177083 C6.97083333,10.325 7.00729167,10.325 7.05104167,10.3177083 L7.07291667,10.3177083 C7.08020833,10.3177083 7.09479167,10.3177083 7.10208333,10.3104167 C7.109375,10.3104167 7.11666667,10.303125 7.13125,10.303125 C7.13854167,10.303125 7.153125,10.2958333 7.16041667,10.2958333 C7.16770833,10.2958333 7.175,10.2885417 7.18958333,10.2885417 C7.196875,10.2885417 7.20416667,10.28125 7.21875,10.28125 C7.22604167,10.28125 7.23333333,10.2739583 7.240625,10.2666667 C7.24791667,10.259375 7.25520833,10.259375 7.26979167,10.2520833 C7.27708333,10.2447917 7.284375,10.2447917 7.29166667,10.2375 C7.29895833,10.2302083 7.30625,10.2302083 7.31354167,10.2229167 C7.32083333,10.215625 7.328125,10.215625 7.33541667,10.2083333 C7.34270833,10.2010417 7.35,10.2010417 7.35729167,10.19375 L7.37916667,10.171875 L7.39375,10.1572917 L11.921875,5.83333333 C12.1552083,5.60729167 12.1625,5.24270833 11.9364583,5.009375 C11.7177083,4.77604167 11.3458333,4.76875 11.1125,4.9875 L11.1125,4.9875 Z" transform="translate(-12.000000, -9.000000) translate(12.000000, 9.000000)"/>
    </g>
</svg>
