<svg xmlns="http://www.w3.org/2000/svg" width="14" height="14" viewBox="0 0 14 14">
    <path fill="#E19C5D" fill-rule="evenodd" d="M14.3711967,2.19287805 C14.3623387,1.83934175 14.0930493,1.61653281 13.7073108,1.6246553 C13.3209328,1.6327778 13.1218677,1.86850597 13.0583908,2.22218617 C13.0255011,2.40559781 13.0360859,2.59748372 13.0341832,2.78564414 C13.0309374,3.1066585 13.0333038,3.4277368 13.0333038,3.74881511 C12.9831138,3.77156769 12.9329078,3.79433625 12.8827179,3.8171208 C12.7141281,3.65511864 12.5483845,3.49006255 12.376533,3.33160997 C10.8276472,1.90366614 8.98993318,1.37207456 6.93190452,1.68802035 C4.02616262,2.13408591 1.87325429,4.55329369 1.62062557,7.57326216 C1.38363426,10.4061894 3.21122715,13.1433736 5.95448721,14.0641573 C8.72961368,14.9956538 11.8174081,13.9114609 13.3782059,11.4548225 C13.4786818,11.2966737 13.583091,11.1343198 13.6444094,10.9594623 C13.7634807,10.6198366 13.7036653,10.303651 13.3681807,10.122174 C13.0449599,9.94736452 12.7386076,10.0175729 12.5091152,10.3142678 C12.394345,10.4626472 12.3070921,10.6319084 12.1999488,10.7866035 C11.2322689,12.1839761 9.90297813,12.9453639 8.2020034,13.0282837 C5.9244116,13.1393124 3.83656316,11.661978 3.17278921,9.48446236 C2.48723801,7.23550716 3.43545912,4.81230208 5.46363602,3.63015958 C7.43514734,2.4810027 9.96616731,2.81077913 11.5616136,4.43112053 C11.6784464,4.54977608 11.757161,4.70597419 11.9465686,4.97839749 C11.3236949,4.97839749 10.844164,4.95303867 10.3686304,4.98581645 C9.92948818,5.01611591 9.69689388,5.27744274 9.70050743,5.64431399 C9.70402504,6.0015118 9.95292829,6.29707142 10.3754898,6.30746438 C11.478438,6.33459799 12.5825534,6.32474866 13.6860612,6.31299663 C14.0496227,6.30912725 14.3505867,6.10101235 14.3616192,5.74176792 C14.3978826,4.55959342 14.4007766,3.37524441 14.3711967,2.19287805 Z" transform="translate(-245.000000, -2788.000000) translate(244.000000, 2787.000000)"/>
</svg>
