<svg xmlns="http://www.w3.org/2000/svg" width="14" height="14" viewBox="0 0 14 14">
    <path fill="#e19c5d" d="M7,0 C10.8659932,0 14,3.13400675 14,7 C14,10.8659932 10.8659932,14 7,14 C3.13400675,14 0,10.8659932 0,7 C0,3.13400675 3.13400675,0 7,0 Z M7,0.636363636 C3.48546068,0.636363636 0.636363636,3.48546068 0.636363636,7 C0.636363636,10.5145393 3.48546068,13.3636364 7,13.3636364 C10.5145393,13.3636364 13.3636364,10.5145393 13.3636364,7 C13.3636364,3.48546068 10.5145393,0.636363636 7,0.636363636 Z M7,3.18181818 C9.10872359,3.18181818 10.8181818,4.89127641 10.8181818,7 C10.8181818,9.10872359 9.10872359,10.8181818 7,10.8181818 C4.89127641,10.8181818 3.18181818,9.10872359 3.18181818,7 C3.18181818,4.89127641 4.89127641,3.18181818 7,3.18181818 Z"/>
</svg>
