<svg xmlns="http://www.w3.org/2000/svg" width="15" height="15" viewBox="0 0 15 15">
    <path fill="#e19c5d" d="M12,0.5 L3,0.5 C1.61928813,0.5 0.5,1.61928813 0.5,3 L0.5,12 C0.5,13.3807119 1.61928813,14.5 3,14.5 L12,14.5 C13.3807119,14.5 14.5,13.3807119 14.5,12 L14.5,3 C14.5,1.61928813 13.3807119,0.5 12,0.5 Z M3,1.5 L12,1.5 C12.8284271,1.5 13.5,2.17157288 13.5,3 L13.5,12 C13.5,12.8284271 12.8284271,13.5 12,13.5 L3,13.5 C2.17157288,13.5 1.5,12.8284271 1.5,12 L1.5,3 C1.5,2.17157288 2.17157288,1.5 3,1.5 Z"/>
</svg>
