<svg xmlns="http://www.w3.org/2000/svg" width="12" height="14" viewBox="0 0 12 14">
    <path fill="#E19C5D" d="M8,1.046875 C8.7828125,1.046875 9.5421875,1.196875 10.2578125,1.49375 C10.95,1.7796875 11.5703125,2.1875 12.1046875,2.709375 C12.6390625,3.23125 13.059375,3.8390625 13.353125,4.5171875 C13.6578125,5.2203125 13.8125,5.9671875 13.8125,6.7359375 C13.8125,7.840625 13.5484375,8.9375 13.0265625,9.9953125 C12.609375,10.846875 12.0265625,11.678125 11.2921875,12.465625 C10.0375,13.8125 8.721875,14.6359375 8.3484375,14.85625 C8.240625,14.9203125 8.1203125,14.9515625 7.9984375,14.9515625 C7.878125,14.9515625 7.75625,14.9203125 7.6484375,14.85625 C7.275,14.6359375 5.959375,13.8125 4.7046875,12.465625 C3.9703125,11.6765625 3.3875,10.846875 2.9703125,9.9953125 C2.4515625,8.9359375 2.1875,7.8375 2.1875,6.734375 C2.1875,5.965625 2.3421875,5.21875 2.646875,4.515625 C2.940625,3.8390625 3.3609375,3.2296875 3.8953125,2.7078125 C4.4296875,2.1875 5.05,1.778125 5.7421875,1.4921875 C6.4578125,1.196875 7.2171875,1.046875 8,1.046875 Z M8,4.109375 C6.48125,4.109375 5.25,5.340625 5.25,6.859375 C5.25,8.378125 6.48125,9.609375 8,9.609375 C9.51875,9.609375 10.75,8.378125 10.75,6.859375 C10.75,5.340625 9.51875,4.109375 8,4.109375 Z" transform="translate(-324.000000, -2986.000000) translate(322.000000, 2985.000000)"/>
</svg>
