<svg version="1.1" width="20px" height="20px" viewBox="0 0 20.0 20.0" xmlns="http://www.w3.org/2000/svg" xmlns:xlink="http://www.w3.org/1999/xlink">
    <defs><clipPath id="i0"><path d="M1920,0 L1920,1080 L0,1080 L0,0 L1920,0 Z"></path></clipPath><clipPath id="i1"><path d="M1662,0 C1666.41828,-8.11624501e-16 1670,3.581722 1670,8 L1670,777 C1670,781.418278 1666.41828,785 1662,785 L8,785 C3.581722,785 2.54100788e-14,781.418278 0,777 L0,8 C-5.41083001e-16,3.581722 3.581722,-1.85291076e-15 8,0 L1662,0 Z"></path></clipPath><clipPath id="i2"><path d="M0.00821674687,6.87805884 C6.19884275,1.86486145 10.026194,-0.407866352 11.4902706,0.0598754235 C15.1849545,1.24024948 15.0686872,5.68781364 15.0585252,6.680694 L15.0588948,6.8268463 C15.0601295,6.86032313 15.062815,6.87797667 15.0679702,6.87805884 C15.207052,6.8802756 12.7152332,9.03390978 7.59251387,13.3389614 C3.30539791,9.80700132 0.83382324,7.72314489 0.177789865,7.08739208 L0.0947454187,7.00469253 C0.0129807415,6.92027007 -0.0158621491,6.87805884 0.00821674687,6.87805884 Z"></path></clipPath><clipPath id="i3"><path d="M16.0165306,0 L16.0586515,0.116683807 L16.0676318,0.177458951 L16.0676318,7.12478761 C16.0676318,7.6073249 15.5027103,8 14.8089444,8 L1.25853464,8.01121226 C0.56476877,8.01121226 0,7.61929231 0,7.13599988 L0,0.188671216 C0,0.143362545 0.0249322113,0.106360463 0.0336042775,0.063317231 L7.91597505,4.39720597 L16.0165306,0 Z"></path></clipPath></defs><g transform="translate(-262.0 -394.0)"><g clip-path="url(#i0)"><g transform="translate(226.0 260.0)"><g clip-path="url(#i1)"><g transform="translate(28.0 0.0)"><g transform="translate(0.0 112.00000000000011)"><g transform="translate(8.0 22.0)"><g transform="translate(1.9327914449359014 2.9999999999997735)"><g transform="translate(0.5125645076300316 13.33896137127001) scale(1.0 -1.0)"><g clip-path="url(#i2)"><polygon points="5.20417043e-18,0 15.0734846,0 15.0734846,13.3389614 5.20417043e-18,13.3389614 5.20417043e-18,0" stroke="none" fill="#FFFFFF"></polygon></g><path d="M15.0679702,6.87805884 C14.976895,6.87660723 15.6566163,1.39093553 11.4902706,0.0598754235 C10.026194,-0.407866352 6.19884275,1.86486145 0.00821674687,6.87805884 C-0.163775367,6.87805884 2.36432367,9.03169302 7.59251387,13.3389614 C12.7152332,9.03390978 15.207052,6.8802756 15.0679702,6.87805884 Z" stroke="#DEDDDD" stroke-width="1" fill="none" stroke-miterlimit="10"></path></g><g transform="translate(0.0 6.189417984375042)"><g clip-path="url(#i3)"><polygon points="0,0 16.0676502,0 16.0676502,8.01121226 0,8.01121226 0,0" stroke="none" fill="#DEDDDD"></polygon></g></g></g></g></g></g></g></g></g></g>
</svg>