<svg xmlns="http://www.w3.org/2000/svg" width="48" height="48" viewBox="0 0 48 48">
    <path fill="#E19C5D" d="M1.50359712,38.9352518 L1.50359712,5.0647482 C1.50359712,2.21582734 3.71942446,0 6.56834532,0 L26.5107914,0 C27.3021583,0 28.0935252,0.633093525 28.0935252,1.58273381 C28.0935252,2.37410072 27.4604317,3.16546763 26.6690647,3.16546763 L6.56834532,3.16546763 C5.46043165,3.16546763 4.66906475,3.95683453 4.66906475,5.0647482 L4.66906475,39.0935252 C4.66906475,40.2014388 5.46043165,40.9928058 6.56834532,40.9928058 L37.4316547,40.9928058 C38.5395683,40.9928058 39.3309353,40.2014388 39.3309353,39.0935252 L39.3309353,15.5107914 C39.3309353,14.7194245 39.9640288,13.9280576 40.9136691,13.9280576 C41.705036,13.9280576 42.4964029,14.5611511 42.4964029,15.352518 L42.4964029,38.618705 C42.4964029,41.4676259 40.2805755,43.6834532 37.4316547,43.6834532 L6.56834532,44 C3.71942446,44 1.50359712,41.7841727 1.50359712,38.9352518 Z M22.7122302,22.3165468 C21.6043165,22.4748201 20.6546763,21.6834532 20.8129496,20.5755396 L21.6043165,15.5107914 C21.6043165,15.1942446 21.7625899,14.8776978 22.0791367,14.7194245 L33.7913669,3.00719424 L34.1079137,2.69064748 L34.2661871,2.5323741 C36.1654676,0.949640288 38.6978417,1.10791367 40.2805755,2.69064748 L40.5971223,3.00719424 L40.7553957,3.16546763 C42.0215827,4.90647482 41.8633094,7.43884892 40.4388489,9.02158273 L28.7266187,20.7338129 C28.5683453,20.8920863 28.2517986,21.0503597 27.9352518,21.2086331 L22.7122302,22.3165468 L22.7122302,22.3165468 Z M36.323741,4.74820144 L36.0071942,4.90647482 L24.7697842,16.3021583 L24.4532374,18.676259 L26.8273381,18.2014388 L38.2230216,6.8057554 C38.6978417,6.33093525 38.6978417,5.69784173 38.381295,5.0647482 L38.2230216,4.74820144 C37.4316547,4.43165468 36.7985612,4.43165468 36.323741,4.74820144 L36.323741,4.74820144 Z M10.6834532,36.0863309 C9.89208633,35.9280576 9.25899281,35.1366906 9.41726619,34.1870504 L9.57553957,33.7122302 L9.73381295,32.9208633 L9.89208633,32.4460432 L10.0503597,31.8129496 L10.2086331,31.3381295 L10.2086331,31.0215827 L10.3669065,30.5467626 L10.5251799,30.0719424 L10.6834532,29.5971223 L10.8417266,29.2805755 L11,28.9640288 L10.8417266,28.4892086 L10.8417266,28.3309353 L11,28.0143885 L11.1582734,27.6978417 L11.3165468,27.381295 L11.4748201,27.0647482 C11.4748201,26.9064748 11.4748201,26.9064748 11.6330935,26.7482014 L11.7913669,26.4316547 C11.7913669,26.2733813 11.7913669,26.2733813 11.9496403,26.1151079 L12.1079137,25.7985612 L12.2661871,25.4820144 L12.2661871,25.323741 L12.4244604,25.0071942 C13.5323741,22.7913669 14.6402878,21.6834532 16.2230216,21.6834532 C17.647482,21.6834532 18.4388489,22.6330935 19.0719424,23.8992806 C19.3884892,24.6906475 19.5467626,25.4820144 19.5467626,26.5899281 L19.5467626,28.4892086 L20.4964029,28.0143885 L20.8129496,27.8561151 L20.971223,27.8561151 L21.2877698,27.6978417 C21.4460432,27.6978417 21.4460432,27.5395683 21.6043165,27.5395683 C22.5539568,27.0647482 23.3453237,26.9064748 24.1366906,26.7482014 C25.2446043,26.5899281 26.352518,26.9064748 26.9856115,27.8561151 C27.618705,28.8057554 27.7769784,29.5971223 27.9352518,30.705036 L27.9352518,31.3381295 C27.9352518,31.6546763 27.9352518,31.6546763 28.0935252,31.8129496 L28.2517986,31.8129496 C29.2014388,32.2877698 31.1007194,32.2877698 33.7913669,31.6546763 C34.5827338,31.4964029 35.5323741,31.971223 35.6906475,32.7625899 C35.8489209,33.5539568 35.3741007,34.5035971 34.5827338,34.6618705 C31.1007194,35.4532374 28.5683453,35.4532374 26.8273381,34.5035971 C25.4028777,33.7122302 24.9280576,32.7625899 24.7697842,31.1798561 L24.7697842,30.705036 C24.7697842,30.2302158 24.7697842,30.0719424 24.6115108,29.7553957 C24.294964,29.7553957 23.6618705,29.9136691 23.028777,30.2302158 L22.7122302,30.3884892 L21.9208633,30.8633094 L21.4460432,31.0215827 L20.1798561,31.6546763 L19.8633094,31.8129496 C19.0719424,32.1294964 18.5971223,32.2877698 18.1223022,32.2877698 C17.3309353,32.2877698 16.8561151,31.8129496 16.5395683,31.3381295 C16.381295,31.0215827 16.2230216,30.705036 16.2230216,30.3884892 L16.2230216,25.9568345 C16.2230216,25.6402878 16.0647482,25.323741 16.0647482,25.1654676 C15.7482014,25.4820144 15.5899281,25.9568345 15.2733813,26.5899281 L15.2733813,26.7482014 L15.1151079,27.0647482 L15.1151079,27.2230216 L14.9568345,27.5395683 C14.9568345,27.6978417 14.9568345,27.6978417 14.7985612,27.8561151 L14.6402878,28.1726619 L14.6402878,28.3309353 L14.4820144,28.647482 L14.4820144,28.8057554 L14.323741,29.1223022 L14.323741,29.2805755 L14.1654676,29.5971223 L14.0071942,30.0719424 L14.0071942,30.2302158 L13.8489209,30.705036 L13.8489209,30.8633094 L13.6906475,31.3381295 L13.5323741,31.8129496 L13.3741007,32.6043165 L13.2158273,33.0791367 L13.057554,33.5539568 L13.057554,33.8705036 L12.8992806,34.3453237 L12.8992806,34.6618705 C12.4244604,35.6115108 11.6330935,36.2446043 10.6834532,36.0863309 L10.6834532,36.0863309 Z" transform="translate(-148.000000, -2827.000000) translate(148.000000, 2827.000000) translate(2.000000, 2.000000)"/>
</svg>
