<svg xmlns="http://www.w3.org/2000/svg" width="12" height="10" viewBox="0 0 12 10">
    <path fill="#E19C5D" fill-rule="evenodd" d="M2.56790808,3.11111111 L13.4320919,3.11111111 C13.7942317,3.11111111 13.9753021,3.29444479 13.9753021,3.66111111 L13.9753021,3.66111111 C13.9753021,4.02777743 13.7942317,4.21111111 13.4320919,4.21111111 L2.56790808,4.21111111 C2.20576828,4.21111111 2.02469787,4.02777743 2.02469787,3.66111111 L2.02469787,3.66111111 C2.02469787,3.29444479 2.20576828,3.11111111 2.56790808,3.11111111 Z M2.56790808,7.45678464 L13.4320919,7.45678464 C13.7942317,7.45678464 13.9753021,7.63785506 13.9753021,7.99999486 L13.9753021,7.99999486 C13.9753021,8.36213467 13.7942317,8.54320508 13.4320919,8.54320508 L2.56790808,8.54320508 C2.20576828,8.54320508 2.02469787,8.36213467 2.02469787,7.99999486 L2.02469787,7.99999486 C2.02469787,7.63785506 2.20576828,7.45678464 2.56790808,7.45678464 L2.56790808,7.45678464 Z M2.56790808,11.8024685 L13.4320919,11.8024685 C13.7942317,11.8024685 13.9753021,11.9835389 13.9753021,12.3456787 L13.9753021,12.3456787 C13.9753021,12.7078185 13.7942317,12.8888889 13.4320919,12.8888889 L2.56790808,12.8888889 C2.20576828,12.8888889 2.02469787,12.7078185 2.02469787,12.3456787 L2.02469787,12.3456787 C2.02469787,11.9835389 2.20576828,11.8024685 2.56790808,11.8024685 Z" transform="translate(-402.000000, -2790.000000) translate(400.000000, 2787.000000)"/>
</svg>
