<svg xmlns="http://www.w3.org/2000/svg" xmlns:xlink="http://www.w3.org/1999/xlink" width="48" height="48" viewBox="0 0 48 48">
    <defs>
        <path id="plzldr_svg__a" d="M0 0 35.804257 0 35.804257 42 0 42z"/>
    </defs>
    <g fill="none" fill-rule="evenodd">
        <g transform="translate(-268.000000, -2827.000000) translate(268.000000, 2827.000000) translate(6.000000, 3.000000)">
            <mask id="plzldr_svg__b" fill="#fff">
                <use xlink:href="#plzldr_svg__a"/>
            </mask>
            <path fill="#E19C5D" d="M17.9018946,42 C17.6520551,42 17.4053929,41.945277 17.1792663,41.8395982 C11.5252188,39.1859794 7.16726569,36.2330944 4.22520748,33.0623794 C1.74817099,30.3928735 0.383997438,27.6193364 0.383997438,25.253039 C0.383997438,22.6164252 0.0367168865,8.68466163 -0.00282437588,7.10442333 C-0.0260666358,6.18644232 0.569935517,5.35278071 1.44613929,5.07693333 L17.2785314,0.095675733 L17.2790021,0.095675733 C17.6832997,-0.031891911 18.1170179,-0.031891911 18.5213156,0.095675733 L34.3546491,5.07693333 C35.2312648,5.35278071 35.8266197,6.18644232 35.8036128,7.10442333 C35.7640715,8.68466163 35.416791,22.622427 35.416791,25.2523329 C35.416791,27.6188657 34.052382,30.3924616 31.5755809,33.0619087 C28.6335227,36.2326825 24.2748635,39.1855087 18.6215221,41.8391275 C18.3962781,41.9451004 18.1505574,42 17.9018946,42 Z M3.40949242,8.01257786 C3.50787485,11.9698815 3.77289545,22.8780331 3.77289545,25.253039 C3.77289545,27.6356354 6.77102929,33.0411966 17.8998352,38.4286348 C29.0292884,33.0407259 32.0274222,27.6351647 32.0274222,25.253039 C32.0274222,22.8837407 32.2924428,11.9707641 32.3908252,8.01257786 L17.9002471,3.45350561 L3.40949242,8.01257786 Z" mask="url(#plzldr_svg__b)"/>
        </g>
        <path fill="#E19C5D" d="M16.2989436,26.5004128 C15.7684317,26.5004128 15.2383905,26.2983523 14.8345636,25.8945253 L10.5155045,21.5757016 C9.85371788,20.9137385 9.85371788,19.8410052 10.5155045,19.1790421 C11.1774676,18.5173144 12.250142,18.5173144 12.9121051,19.1790421 L16.2989436,22.5661161 L22.8877419,15.977259 C23.5494696,15.3152959 24.6224382,15.3152959 25.2841659,15.977259 C25.946129,16.6389867 25.946129,17.7119554 25.2841659,18.3736831 L17.7637356,25.8945253 C17.3599087,26.2983523 16.8293967,26.5004128 16.2989436,26.5004128 Z" transform="translate(-268.000000, -2827.000000) translate(268.000000, 2827.000000) translate(6.000000, 3.000000)"/>
    </g>
</svg>
