<svg xmlns="http://www.w3.org/2000/svg" width="14" height="14" viewBox="0 0 14 14">
    <g fill="none" fill-rule="evenodd">
        <path fill="#E19C5D" d="M8,1 C4.13215228,1 1,4.13215228 1,8 C1,11.8678477 4.13215228,15 8,15 C11.8678477,15 15,11.8678477 15,8 C15,4.13215228 11.8678477,1 8,1 Z" transform="translate(-167.000000, -2986.000000) translate(166.000000, 2985.000000)"/>
        <path fill="#FFF" fill-rule="nonzero" d="M7.41666667 5.66666667 8.58333333 5.66666667 8.58333333 11.5 7.41666667 11.5z" transform="translate(-167.000000, -2986.000000) translate(166.000000, 2985.000000)"/>
        <path fill="#FFF" fill-rule="nonzero" d="M6.25 5.66666667 8.58333333 5.66666667 8.58333333 6.83333333 6.25 6.83333333zM6.25 10.3333333 9.75 10.3333333 9.75 11.5 6.25 11.5zM7.417 3.333H8.584V4.5H7.417z" transform="translate(-167.000000, -2986.000000) translate(166.000000, 2985.000000)"/>
    </g>
</svg>
