<svg xmlns="http://www.w3.org/2000/svg" width="16" height="16" viewBox="0 0 16 16">
    <path fill="#e19c5d" d="M1.8188001,1.78635005 C4.2439615,-0.595450017 8.17546966,-0.595450017 10.6002734,1.78635005 L10.6002736,1.78635023 C12.9301441,4.05687737 13.03519,7.76748177 10.8375171,10.1661744 L13.4267264,12.7092584 L13.4267264,12.7092584 C13.4813205,12.7630229 13.4819931,12.8508649 13.4282286,12.9054591 C13.4277317,12.9059637 13.427231,12.9064644 13.4267264,12.9069613 L12.8925822,13.4317407 L12.8925822,13.4317407 C12.8386345,13.48462 12.7522953,13.48462 12.6983472,13.4317407 L10.0858882,10.8650656 C7.64755749,12.7831255 4.07884071,12.6322469 1.81878403,10.4124299 L1.8187836,10.4124295 C-0.563244082,8.09031429 -0.611808117,4.27684258 1.71030485,1.89481489 C1.74600275,1.85819595 1.78216548,1.82203322 1.81878442,1.78633532 L1.8188001,1.78635005 Z M2.55064726,2.5053644 L2.55064724,2.50536442 C0.565716302,4.44038187 0.525248983,7.61811509 2.46026774,9.60304603 C2.49000935,9.63355487 2.5201384,9.66368392 2.55064724,9.69342553 C4.57137932,11.6784378 7.84770387,11.6784378 9.86843595,9.69342553 L9.86843608,9.69342541 C11.853367,7.75840795 11.8938343,4.58067474 9.95881542,2.5957438 C9.92907382,2.56523495 9.89894477,2.5351059 9.86843592,2.50536429 C7.84770384,0.520352057 4.57137929,0.520352057 2.55064721,2.50536429 L2.55064726,2.5053644 Z" transform="translate(1.000000, 1.000000) translate(0.220437, 0.220631)"/>
</svg>
