<?xml version="1.0" encoding="UTF-8"?><svg version="1.1" width="106px" height="105px" viewBox="0 0 106.0 105.0" xmlns="http://www.w3.org/2000/svg" xmlns:xlink="http://www.w3.org/1999/xlink"><defs><clipPath id="i0"><path d="M1920,0 L1920,2079 L0,2079 L0,0 L1920,0 Z"></path></clipPath><clipPath id="i1"><path d="M83.5714286,0 C87.1167857,0 90,2.88321478 90,6.42857192 L90,65.8928577 C90,67.6680575 88.5609141,69.1071432 86.7857143,69.1071435 C85.0105145,69.1071435 83.5714288,67.6680575 83.5714286,65.8928577 L83.5714286,6.42857144 L6.4285713,6.42857144 L6.4285713,83.5714287 L65.8928571,83.5714287 C67.6680569,83.5714287 69.1071429,85.0105146 69.1071428,86.7857144 C69.1071428,88.5609142 67.6680569,90 65.8928571,90 L6.42857144,90 C2.88321429,90 0,87.1167859 0,83.5714287 L0,6.42857144 C0,2.88321429 2.88321429,0 6.42857144,0 Z"></path></clipPath><clipPath id="i2"><path d="M12.8571427,19.1507143 C14.6323425,19.1507143 16.0714285,20.5898003 16.0714285,22.365 C16.0714285,24.1401998 14.6323425,25.5792858 12.8571429,25.5792858 L3.21428572,25.5792858 C1.43908594,25.5792858 0,24.1401998 0,22.365 C0,20.5898003 1.43908594,19.1507143 3.21428558,19.1507143 Z M54.6428574,0 C56.4180571,0 57.8571431,1.43908594 57.8571431,3.21428572 C57.8571431,4.9894855 56.4180569,6.42857144 54.6428572,6.42857144 L3.21428572,6.42857144 C1.43908594,6.42857144 0,4.9894855 0,3.21428572 C0,1.43908594 1.43908594,0 3.21428586,0 Z"></path></clipPath><clipPath id="i3"><path d="M3.37680797,0 L3.37680797,13.5072319 L0,13.5072319 L0,0 L3.37680797,0 Z"></path></clipPath><linearGradient id="i4" x1="1.22582268px" y1="0.882805825px" x2="1.68840398px" y2="21.7196195px" gradientUnits="userSpaceOnUse"><stop stop-color="#C2C2C9" offset="0%"></stop><stop stop-color="#D7D7EC" offset="100%"></stop></linearGradient><clipPath id="i5"><path d="M4.22100996,0 C6.55220938,-4.28234388e-16 8.44201991,1.88981053 8.44201991,4.22100996 L8.44201991,16.8840398 C8.44201991,19.2152393 6.55220938,21.1050498 4.22100996,21.1050498 C1.88981053,21.1050498 2.85489592e-16,19.2152393 0,16.8840398 L0,4.22100996 C-2.85489592e-16,1.88981053 1.88981053,4.28234388e-16 4.22100996,0 Z"></path></clipPath><linearGradient id="i6" x1="2.52765203px" y1="19.0163107px" x2="8.44201991px" y2="1.46687632px" gradientUnits="userSpaceOnUse"><stop stop-color="#E1E2E8" offset="0%"></stop><stop stop-color="#E6E6EF" offset="100%"></stop></linearGradient><clipPath id="i7"><path d="M8.44201991,0 L8.44201991,1.68840398 L0,1.68840398 L0,0 L8.44201991,0 Z"></path></clipPath><linearGradient id="i8" x1="-3.59540451px" y1="1.53559448e-12px" x2="40.9494356px" y2="11.0031523px" gradientUnits="userSpaceOnUse"><stop stop-color="#D2D2DB" offset="0%"></stop><stop stop-color="#D6D7DD" offset="100%"></stop></linearGradient><clipPath id="i9"><path d="M36.007155,7.51095435 C43.0490975,16.207029 41.7081583,28.9652126 33.0120837,36.007155 C24.316009,43.0490975 11.5578254,41.7081583 4.51588297,33.0120837 C-2.52605944,24.316009 -1.18512031,11.5578254 7.51095435,4.51588297 C16.207029,-2.52605944 28.9652126,-1.18512031 36.007155,7.51095435 Z M9.63604846,7.14015564 C2.38931958,13.008441 1.2718703,23.6402607 7.14015564,30.8869895 C13.008441,38.1337184 23.6402607,39.2511677 30.8869895,33.3828824 C38.1337184,27.514597 39.2511677,16.8827773 33.3828824,9.63604846 C27.514597,2.38931958 16.8827773,1.2718703 9.63604846,7.14015564 Z"></path></clipPath><linearGradient id="i10" x1="20.261519px" y1="47.937455px" x2="25.6679046px" y2="-2.53507502px" gradientUnits="userSpaceOnUse"><stop stop-color="#D8D8E4" offset="0%"></stop><stop stop-color="#E9EAF2" offset="100%"></stop></linearGradient><clipPath id="i11"><path d="M16.8840398,0 C26.2088375,0 33.7680797,7.55924212 33.7680797,16.8840398 C33.7680797,26.2088375 26.2088375,33.7680797 16.8840398,33.7680797 C7.55924212,33.7680797 0,26.2088375 0,16.8840398 C0,7.55924212 7.55924212,0 16.8840398,0 Z"></path></clipPath><linearGradient id="i12" x1="6.53693694px" y1="2.75587503px" x2="30.9353261px" y2="31.1354775px" gradientUnits="userSpaceOnUse"><stop stop-color="#F3F3F8" offset="0%"></stop><stop stop-color="#FFFFFF" offset="44.2509162%"></stop><stop stop-color="#FFFFFF" offset="100%"></stop></linearGradient></defs><g transform="translate(-896.0 -1114.0)"><g clip-path="url(#i0)"><g transform="translate(848.0 1114.002265)"><g transform="translate(48.236000202487965 0.0)"><g clip-path="url(#i1)"><polygon points="0,0 90,0 90,90 0,90 0,0" stroke="none" fill="#F0F0F6"></polygon></g><g transform="translate(16.0714284560172 16.87500002634386)"><g clip-path="url(#i2)"><polygon points="0,0 57.8571431,0 57.8571431,25.5792858 0,25.5792858 0,0" stroke="none" fill="#F0F0F6"></polygon></g></g><g transform="translate(24.47200040497613 51.528341353752324) rotate(-39.99999999999999)"><g transform="translate(22.703828434446685 42.485536278019026)"><g clip-path="url(#i3)"><polygon points="-4.54747351e-13,-4.54747351e-13 3.37680797,-4.54747351e-13 3.37680797,13.5072319 -4.54747351e-13,13.5072319 -4.54747351e-13,-4.54747351e-13" stroke="none" fill="url(#i4)"></polygon></g></g><g transform="translate(20.17122246051531 48.39495021720359)"><g clip-path="url(#i5)"><polygon points="0,-4.54747351e-13 8.44201991,-4.54747351e-13 8.44201991,21.1050498 0,21.1050498 0,-4.54747351e-13" stroke="none" fill="url(#i6)"></polygon></g></g><g transform="translate(20.17122246051258 52.61596017375859)"><g clip-path="url(#i7)"><polygon points="0,-4.54747351e-13 8.44201991,-4.54747351e-13 8.44201991,1.68840398 0,1.68840398 0,-4.54747351e-13" stroke="none" fill="url(#i8)"></polygon></g></g><g transform="translate(3.485314906118674 3.4853149061145814)"><g clip-path="url(#i9)"><polygon points="-9.69002656e-13,-9.47686374e-13 40.523038,-9.47686374e-13 40.523038,40.523038 -9.69002656e-13,40.523038 -9.69002656e-13,-9.47686374e-13" stroke="none" fill="url(#i10)"></polygon></g></g><g transform="translate(26.242726728079703 -2.877698079828406e-13) rotate(51.0)"><g clip-path="url(#i11)"><polygon points="-9.09494702e-13,5.68434189e-14 33.7680797,5.68434189e-14 33.7680797,33.7680797 -9.09494702e-13,33.7680797 -9.09494702e-13,5.68434189e-14" stroke="none" fill="url(#i12)" opacity="55.70908%"></polygon></g></g><g transform="translate(25.709090765662175 6.640755364475168) rotate(51.0)"><path d="M11.1694411,-7.23032745e-14 C9.99089304,-7.23032745e-14 8.8549776,0.182531972 7.7884229,0.520867792 M3.28060597,3.26231168 C1.25395688,5.28430106 0,8.08043243 0,11.1694411" stroke="#FFFFFF" stroke-width="3" fill="none" stroke-linecap="round" stroke-miterlimit="10"></path></g></g></g></g></g></g></svg>