<svg xmlns="http://www.w3.org/2000/svg" width="48" height="48" viewBox="0 0 48 48">
    <path fill="#E19C5D" fill-rule="evenodd" d="M39,3 C39.7808824,3 40.4205882,3.59377163 40.4931457,4.35534297 L40.5,4.5 L40.5,43.5 C40.5,44.2808824 39.9062284,44.9205882 39.144657,44.9931457 L39,45 L9,45 C8.21911765,45 7.57941176,44.4062284 7.50685426,43.644657 L7.5,43.5 L7.5,4.5 C7.5,3.71911765 8.09377163,3.07941176 8.85534297,3.00685426 L9,3 L39,3 Z M15.4640625,32.203125 L10.875,32.203125 L10.875,41.625 L37.125,41.625 L37.125,32.203 L32.5359375,32.203125 C32.0310268,33.6308036 31.1704401,34.9251036 30.0329919,35.9434083 L29.765625,36.1734375 C28.1484375,37.5140625 26.1,38.25 24,38.25 C21.9,38.25 19.8515625,37.509375 18.234375,36.1734375 C16.9640625,35.1234375 16.0078125,33.740625 15.4640625,32.203125 Z M37.125,6.375 L10.875,6.375 L10.875,29.25 L17.8265625,29.25 L18.0703125,30.4078125 C18.6375,33.2109375 21.13125,35.25 24,35.25 C26.7867857,35.25 29.2196939,33.3257908 29.8720924,30.6461794 L29.925,30.4078125 L30.16875,29.25 L37.125,29.25 L37.125,6.375 Z M33,20.484375 C33.20625,20.484375 33.375,20.653125 33.375,20.859375 L33.375,20.859375 L33.375,23.109375 C33.375,23.315625 33.20625,23.484375 33,23.484375 L33,23.484375 L15,23.484375 C14.79375,23.484375 14.625,23.315625 14.625,23.109375 L14.625,23.109375 L14.625,20.859375 C14.625,20.653125 14.79375,20.484375 15,20.484375 L15,20.484375 Z M33,12.984375 C33.20625,12.984375 33.375,13.153125 33.375,13.359375 L33.375,13.359375 L33.375,15.609375 C33.375,15.815625 33.20625,15.984375 33,15.984375 L33,15.984375 L15,15.984375 C14.79375,15.984375 14.625,15.815625 14.625,15.609375 L14.625,15.609375 L14.625,13.359375 C14.625,13.153125 14.79375,12.984375 15,12.984375 L15,12.984375 Z" transform="translate(-88.000000, -2827.000000) translate(88.000000, 2827.000000)"/>
</svg>
