<svg version="1.1" width="20px" height="20px" viewBox="0 0 20.0 20.0" xmlns="http://www.w3.org/2000/svg" xmlns:xlink="http://www.w3.org/1999/xlink">
    <defs><clipPath id="i0"><path d="M1920,0 L1920,1080 L0,1080 L0,0 L1920,0 Z"></path></clipPath><clipPath id="i1"><path d="M1662,0 C1666.41828,-8.11624501e-16 1670,3.581722 1670,8 L1670,777 C1670,781.418278 1666.41828,785 1662,785 L8,785 C3.581722,785 2.54100788e-14,781.418278 0,777 L0,8 C-5.41083001e-16,3.581722 3.581722,-1.85291076e-15 8,0 L1662,0 Z"></path></clipPath><clipPath id="i2"><path d="M13.7714286,0 C13.9579747,0.00321078324 14.1412441,0.0495714129 14.3068783,0.135449742 L7.18730159,5.79365079 L0,0.168253969 C0.178836,0.0698412656 0.377777789,0 0.608465625,0 Z"></path></clipPath><clipPath id="i3"><path d="M15.5693122,0 C15.5862434,0.0825397031 15.6201058,0.16084657 15.6190718,0.248677266 L15.6190718,9.98412698 C15.6190718,10.6603175 15.0677249,11.210582 14.3904762,11.210582 L1.22857144,11.210582 C0.55132275,11.210582 0,10.6613757 0,9.98412698 L0,0.248677266 C0,0.185185195 0.024338625,0.133333336 0.0328042266,0.073015875 L7.81269841,6.16190477 Z"></path></clipPath></defs><g transform="translate(-262.0 -330.0)"><g clip-path="url(#i0)"><g transform="translate(226.0 260.0)"><g clip-path="url(#i1)"><g transform="translate(28.0 0.0)"><g transform="translate(0.0 48.00000000000023)"><g transform="translate(8.0 22.0)"><g transform="translate(1.9999999999999991 3.9999999999997735)"><g transform="translate(0.6201058124997871 0.0)"><g clip-path="url(#i2)"><polygon points="0,0 14.3068783,0 14.3068783,5.79365079 0,5.79365079 0,0" stroke="none" fill="#F1C768"></polygon></g></g><g transform="translate(0.0 0.9788359687499906)"><g clip-path="url(#i3)"><polygon points="0,0 15.619095,0 15.619095,11.210582 0,11.210582 0,0" stroke="none" fill="#F1C768"></polygon></g></g></g></g></g></g></g></g></g></g>
</svg>