<svg xmlns="http://www.w3.org/2000/svg" width="14" height="14" viewBox="0 0 14 14">
    <defs>
        <clipPath id="qcje_svg__a">
            <path d="M1998,0 L1998,3176 L0,3176 L0,0 L1998,0 Z"/>
        </clipPath>
        <clipPath id="qcje_svg__b">
            <path d="M12.7471757,3.00267509 C13.5369143,4.13600206 14,5.5139213 14,7 C14,10.8659932 10.8659932,14 7,14 C5.5139213,14 4.13600206,13.5369143 3.00267509,12.7471757 L3.84364305,11.906468 C4.75349315,12.4929895 5.8370008,12.8333333 7,12.8333333 C10.221661,12.8333333 12.8333333,10.221661 12.8333333,7 C12.8333333,5.8370008 12.4929895,4.75349315 11.906468,3.84364305 L12.7471757,3.00267509 Z M13.6997475,0.412478956 C13.9275533,0.640284793 13.9275533,1.00963103 13.6997475,1.23743687 L1.3253788,13.6118055 C1.09757296,13.8396114 0.728226723,13.8396114 0.500420886,13.6118055 C0.272615049,13.3839997 0.272615049,13.0146535 0.500420886,12.7868476 L12.8747896,0.412478956 C13.1025954,0.184673119 13.4719416,0.184673119 13.6997475,0.412478956 Z M7.477,8.272 L7.47754749,8.74697755 L10.1856649,8.74697755 C10.4395509,8.74697755 10.6088083,8.91623489 10.6088083,9.1701209 C10.6088083,9.4240069 10.4395509,9.59326424 10.1856649,9.59326424 L7.47754749,9.59326424 L7.47754749,11.2435233 C7.47754749,11.4974093 7.30829015,11.6666667 7.05440414,11.6666667 C6.80051814,11.6666667 6.6312608,11.4974093 6.6312608,11.2435233 L6.6312608,9.59326424 L6.156,9.593 L7.477,8.272 Z M7,0 C8.53789569,0 9.95995776,0.495942706 11.1149785,1.33662037 L10.2770633,2.17347817 C9.3430081,1.53804957 8.21487461,1.16666667 7,1.16666667 C3.77833896,1.16666667 1.16666667,3.77833896 1.16666667,7 C1.16666667,8.21487461 1.53804957,9.3430081 2.17347817,10.2770633 L1.33588667,11.1139702 C0.495654157,9.95913025 0,8.53744824 0,7 C0,3.13400675 3.13400675,0 7,0 Z M10.1856649,6.1658031 C10.4395509,6.16580312 10.6088083,6.33506046 10.6088083,6.58894646 C10.6088083,6.84283247 10.4395509,7.01208981 10.1856649,7.01208981 L10.1856649,6.96977547 L8.78,6.969 L9.584,6.165 L10.1856649,6.1658031 Z M4.98100172,3.62694301 L6.902,5.548 L5.48,6.969 L3.92314335,6.96977547 C3.6974669,6.96977547 3.53865754,6.83604127 3.5061527,6.62801031 L3.5,6.54663212 C3.5,6.29274612 3.66925734,6.12348878 3.92314335,6.12348878 L6.29274611,6.12348878 L4.38860103,4.21934369 C4.21934369,4.05008635 4.21934369,3.79620035 4.38860103,3.62694301 C4.55785837,3.45768566 4.81174438,3.45768566 4.98100172,3.62694301 Z"/>
        </clipPath>
    </defs>
    <g clip-path="url(#qcje_svg__a)" transform="translate(-765.0 -329.0)">
        <g clip-path="url(#qcje_svg__b)" transform="translate(56.0 248.0) translate(18.0 72.0) translate(691.0 9.0)">
            <path fill="#CF7E33" d="M0 0 14 0 14 14 0 14 0 0z"/>
        </g>
    </g>
</svg>
