<svg xmlns="http://www.w3.org/2000/svg" width="12" height="12" viewBox="0 0 12 12">
    <path fill="#E19C5D" d="M10.2168931,5.84721572 L10.2168931,5.84721572 C9.96615533,5.85062361 9.76482697,6.05512326 9.76533739,6.30588292 L9.76533739,9.23388633 L9.76533739,9.23388627 C9.76781043,9.51268659 9.54456526,9.74109623 9.2657816,9.74499832 L1.40088703,9.74499832 L1.40088705,9.74499832 C1.1221034,9.74109616 0.898858344,9.51268659 0.901331264,9.23388627 L0.901331264,1.59121071 L0.901331264,1.59121073 C0.89885823,1.3124104 1.1221034,1.08400076 1.40088705,1.08009868 L4.433776,1.08009868 L4.43377599,1.08009868 C4.68500232,1.07523695 4.88554943,0.869141138 4.88355464,0.617876262 L4.88355464,0.617876006 C4.8860258,0.366715297 4.68492628,0.160846308 4.43377599,0.15743172 L1.33688697,0.15743172 C0.599997573,0.158320601 -8.8817842e-16,0.77165431 -8.8817842e-16,1.52721456 L-8.8817842e-16,9.29789027 C-8.8817842e-16,10.0534464 0.600000698,10.6667773 1.33688697,10.6667773 L9.32978169,10.6667773 C10.0666711,10.6667773 10.6666724,10.0534432 10.6666724,9.29877569 L10.6666724,6.30588679 L10.6666724,6.30588659 C10.6676727,6.05561339 10.4671351,5.85111315 10.21689,5.84721939 L10.2168931,5.84721572 Z M3.36177057,5.27565985 L3.36177057,5.27565985 C3.35118035,5.28730237 3.343557,5.30132936 3.33954835,5.31654876 L2.752881,7.51033256 C2.71732544,7.65166606 2.75643656,7.80188811 2.85688113,7.90766635 L2.85688111,7.90766634 C2.93158547,7.98240736 3.03298548,8.02431126 3.13865956,8.02411198 C3.17421512,8.02411198 3.20888183,8.01966681 3.24177083,8.00988906 L5.36622122,7.41877691 L5.36622122,7.41877691 C5.36959524,7.42017325 5.37324339,7.42078127 5.3768879,7.4205547 L5.37688789,7.4205547 C5.41143387,7.42040693 5.44445338,7.40630155 5.46844352,7.38144351 L10.3386679,2.41343772 C10.5146681,2.23388231 10.6106682,1.98854869 10.6106682,1.72277025 C10.6106682,1.4232147 10.4853348,1.12276956 10.2675564,0.901435965 L9.7288891,0.350323865 L9.7288891,0.350323868 C9.51729406,0.130659029 9.22674372,0.00458388219 8.9217767,4.98091135e-05 C8.66844308,-0.00256508446 8.423998,0.0978795116 8.24533112,0.277435241 L3.37687754,5.24632644 L3.37687755,5.24632644 C3.36865198,5.25410181 3.3633219,5.26444833 3.36176638,5.27565981 L3.36177057,5.27565985 Z M8.84977696,0.897873504 L8.84977697,0.897873496 C8.88509024,0.864168874 8.93255279,0.846210103 8.98133233,0.848095626 L8.98133232,0.848095626 C9.0495076,0.848595002 9.11470851,0.8760817 9.16266586,0.924540194 L9.7022217,1.47565229 L9.70222169,1.47565229 C9.75101571,1.52462547 9.77903511,1.59053471 9.78044397,1.6596525 L9.78044397,1.65965258 C9.78163211,1.70917743 9.7630852,1.75714343 9.72888829,1.79298607 L9.18844287,2.34676484 L8.31733039,1.44365233 L8.85066435,0.897873572 L8.84977696,0.897873504 Z M4.62310537,5.21521186 L7.68710894,2.08809364 L8.55733183,2.99120615 L5.47910949,6.13165772 L5.47555393,6.13521329 L5.47555392,6.13521329 C5.39547612,6.21312484 5.26744952,6.21153442 5.18933172,6.13165771 L4.62399773,5.55654558 L4.62399771,5.55654557 C4.53176677,5.4611139 4.53176677,5.30975466 4.62399774,5.2143233 L4.62310537,5.21521186 Z M3.74221581,6.90409924 L3.97154941,6.04365345 L4.68088357,6.7672095 L3.83821592,7.00187644 L3.83821592,7.00187644 C3.79661129,7.01351166 3.75345187,6.98921663 3.74181664,6.947612 C3.73783139,6.93336167 3.73796981,6.91827332 3.74221585,6.90409851 L3.74221581,6.90409924 Z" transform="translate(-168.000000, -2789.000000) translate(166.000000, 2787.000000) translate(2.666667, 2.666667)"/>
</svg>
