<svg xmlns="http://www.w3.org/2000/svg" width="16" height="16" viewBox="0 0 16 16">
    <g fill="none" fill-rule="evenodd">
        <path d="M0 0H16V16H0z"/>
        <path fill="#e19c5d" d="M10.3031747,8.24017734 L10.5725366,8.40342618 C11.4152833,8.88791829 12.1268935,9.53440154 12.657273,10.2951298 L12.8272853,10.5528716 L12.9731005,10.8015954 C13.3856396,11.5466175 13.6236478,12.3601409 13.6724242,13.191408 L13.6818164,13.5038657 L13.6818164,13.8806398 L0.318180016,13.8806398 L0.318180016,13.5039105 C0.316581975,11.5143921 1.40034344,9.65723043 3.20510386,8.53001812 L3.43442776,8.39296163 L3.70146748,8.24017734 L3.93367603,8.43272718 C5.61371911,9.80238566 8.14037794,9.85130204 9.88089357,8.57947642 L10.0709661,8.43272731 L10.3031747,8.24017734 Z M9.32522538,2.76042396 L9.47484549,2.90163872 L9.62076461,3.0567022 C10.1837364,3.6926525 10.4979472,4.5139973 10.4999998,5.36816963 C10.5046121,7.30115629 8.94135692,8.87190709 7.00837052,8.87654098 C5.139817,8.88099948 3.60975272,7.42037279 3.50563901,5.57693304 L3.49999984,5.38491118 L3.50603634,5.17083181 C3.55623777,4.31770744 3.91732156,3.50948844 4.52509595,2.9016993 C5.84310108,1.58366111 7.95079048,1.53656369 9.32522538,2.76042396 Z M5.26420619,0.377459845 C8.18878071,-0.509850895 11.3370753,0.964313813 12.2961308,3.67008048 L12.2961308,3.67008048 C13.1138776,3.88445118 13.6798094,4.57334932 13.6818164,5.35910699 C13.6842831,6.32898055 12.836471,7.11707447 11.7881689,7.1193602 L11.7881689,7.1193602 L11.3507004,7.1193602 L11.3507004,3.63410094 C10.8733164,2.54200028 9.93723898,1.67594869 8.75682322,1.23427737 C6.35149126,0.334282145 3.61300355,1.40871713 2.64023476,3.63410094 L2.64023476,3.63410094 L2.64023478,7.1193602 L2.20276645,7.1193602 C1.35696541,7.11357636 0.617360597,6.59072573 0.389095277,5.83721949 C0.106177316,4.90332834 0.69512641,3.93407217 1.70453503,3.67232553 L1.70453503,3.67232553 L1.7930649,3.44091082 C2.38967668,1.9918578 3.6627197,0.863349365 5.26420619,0.377459845 Z" transform="translate(1.000000, 1.000000)"/>
    </g>
</svg>
