<svg xmlns="http://www.w3.org/2000/svg" width="16" height="16" viewBox="0 0 16 16">
    <g fill="none" fill-rule="evenodd">
        <path d="M0 0H16V16H0z"/>
        <path fill="#e19c5d" d="M3.18181818,12.7268027 C3.18181818,13.4277248 3.75410586,14 4.45404782,14 C5.15498505,14 5.72727273,13.4277248 5.72727273,12.7268027 C5.72727273,12.0277238 5.15498503,11.4545455 4.45404782,11.4545455 C3.75408745,11.4545455 3.18181818,12.0277238 3.18181818,12.7268027 Z M0,0 L0,1.35826261 L1.40057784,1.35826261 L3.92090427,6.51677811 L2.93963405,8.14546634 C2.87098284,8.34831506 2.80026358,8.62076584 2.80026358,8.82463697 C2.80026358,9.57132551 3.42980282,10.1818182 4.19976685,10.1818182 L12.5994019,10.1818182 L12.5994019,8.82463697 L4.47970398,8.82463697 C4.4089239,8.82463697 4.34029298,8.75601798 4.34029298,8.68838208 L4.34029298,8.62076584 L4.9708257,7.46737711 L10.1498555,7.46737711 C10.708635,7.46737711 11.1290172,7.19490667 11.3392488,6.78822614 L13.8585209,2.37645819 C14,2.23922023 14,2.17258707 14,2.03639117 C14,1.62872756 13.7190491,1.35826261 13.2996807,1.35826261 L2.9396138,1.35826261 L2.3089797,0 L0,0 Z M10.1818182,12.7268027 C10.1818182,13.4277248 10.754315,14 11.4544901,14 C12.1547943,14 12.7272727,13.4277248 12.7272727,12.7268027 C12.7272727,12.0277238 12.1547943,11.4545455 11.4544901,11.4545455 C10.7542966,11.4545455 10.1818182,12.0277238 10.1818182,12.7268027 Z" transform="translate(1.000000, 1.000000)"/>
    </g>
</svg>
