<svg xmlns="http://www.w3.org/2000/svg" width="16" height="16" viewBox="0 0 16 16">
    <path fill="#e19c5d" fill-rule="evenodd" d="M7.05481345,0 C10.8865469,0.00354789335 13.9928927,3.10700945 14,6.93873791 L14,7.05481345 C13.9964448,10.8890605 10.8890605,13.9964448 7.05481345,14 L6.93873791,14 C3.10700945,13.9928927 0.00354789335,10.8865469 0,7.05481345 L0,6.93873791 C0.00709772907,3.10952261 3.10952261,0.00709772907 6.93873791,0 L7.05481345,0 Z M7.05481345,0.896361129 L6.93873791,0.896361129 C3.60309868,0.899915356 0.899915356,3.60309868 0.896361129,6.93873791 L0.896361129,7.05481345 C0.899915356,10.3904527 3.60309868,13.093636 6.93873791,13.0971902 L7.05481345,13.0971902 C10.3904527,13.093636 13.093636,10.3904527 13.0971902,7.05481345 L13.0971902,6.93873791 C13.093636,3.60309868 10.3904527,0.899915356 7.05481345,0.896361129 Z M7.35460115,4.45454545 C7.475781,4.45454545 7.59186024,4.50125407 7.67666846,4.5841407 L10.6847772,7.46469242 C10.86265,7.6350227 10.86265,7.91118264 10.6847772,8.08151292 C10.5069043,8.25184319 10.2185154,8.25184319 10.0406425,8.08151292 L7.3481598,5.49703504 L4.57838092,8.14936317 C4.49408542,8.22845328 4.38076865,8.27272727 4.26275495,8.27272727 C4.08236336,8.27030067 3.92084708,8.1651402 3.85215624,8.00539351 C3.7834654,7.84564683 3.82082462,7.66206894 3.94712898,7.53871088 L7.03253384,4.5841407 C7.11734206,4.50125407 7.2334213,4.45454545 7.35460115,4.45454545 Z" transform="translate(1.000000, 1.000000)"/>
</svg>
