<svg xmlns="http://www.w3.org/2000/svg" width="16" height="16" viewBox="0 0 16 16">
    <g fill="none" fill-rule="evenodd">
        <path fill="#E19C5D" d="M13.1854497,2.81455027 C16.0492945,5.67839508 16.0492945,10.3216049 13.1854497,13.1854497 C10.3216049,16.0492945 5.67839508,16.0492945 2.81455027,13.1854497 C-0.0492945348,10.3216049 -0.0492945348,5.67839508 2.81455027,2.81455027 C5.67839508,-0.0492945348 10.3216049,-0.0492945348 13.1854497,2.81455027 Z" transform="translate(-226.000000, -3009.000000) translate(226.000000, 3009.000000)"/>
        <path fill="#F9F9FB" d="M11.0248457 5.83939595 10.1606041 4.97515432 8.00043212 7.13532626 5.83939595 4.97515432 4.97515432 5.83939595 7.13575838 7.99913576 4.97515432 10.1606041 5.83939595 11.0248457 7.99956788 8.8638095 10.1606041 11.0248457 11.0248457 10.1606041 8.86424162 8z" transform="translate(-226.000000, -3009.000000) translate(226.000000, 3009.000000)"/>
    </g>
</svg>
