<svg xmlns="http://www.w3.org/2000/svg" width="40" height="41" viewBox="0 0 40 41">
    <defs>
        <linearGradient id="open_accout_active_svg__a" x1="50%" x2="50%" y1="0%" y2="100%">
            <stop offset="0%" stop-color="#EEB987"/>
            <stop offset="100%" stop-color="#E3A165"/>
        </linearGradient>
    </defs>
    <path fill="url(#open_accout_active_svg__a)" d="M173.111439,28.0000074 C175.750015,27.9953818 177.893202,30.1476352 177.89982,32.808334 L177.89982,32.808334 L177.89147,63.3178951 C177.88917,65.979038 175.750714,68.1359043 173.111708,68.138806 L173.111708,68.138806 L142.866334,68.138806 C140.229274,68.1268113 138.098245,65.9669002 138.099821,63.3076915 L138.099821,63.3076915 L138.099821,32.8082946 C138.108977,30.1574096 140.237187,28.010408 142.866016,28.0000074 L142.866016,28.0000074 Z M173.1114,30.8157562 L142.866025,30.8157562 C141.78388,30.8365434 140.912059,31.7170764 140.893159,32.8083285 L140.893159,32.8083285 L140.893159,63.3074031 C140.899755,64.4076845 141.775077,65.3020244 142.866025,65.3231694 L142.866025,65.3231694 L173.111405,65.3231694 C174.207309,65.3146335 175.094753,64.4230136 175.107228,63.317956 L175.107228,63.317956 L175.107228,32.8083285 C175.088009,31.7082099 174.202504,30.8241502 173.1114,30.8157562 L173.1114,30.8157562 Z M152.695858,38.6438473 C155.186063,35.6877559 159.581229,35.3270167 162.512725,37.8381147 C165.444227,40.3492077 165.801965,44.7812404 163.311756,47.7373268 L163.311756,47.7373268 L162.771043,48.3762535 L163.511127,48.7615052 C167.35066,50.7299993 169.857961,54.6135663 170.08945,58.9506939 L170.08945,58.9506939 L167.288817,58.9506939 C166.963236,54.2847127 163.281438,50.5720137 158.654251,50.2436996 C153.52454,49.8797138 149.073504,53.7779695 148.712563,58.9506939 L148.712563,58.9506939 L145.915061,58.9506939 C146.146501,54.6119073 148.654815,50.7280344 152.495439,48.7604531 L152.495439,48.7604531 L153.236571,48.3762535 L152.695858,47.7373268 C150.487085,45.1153159 150.487085,41.2658532 152.695858,38.6438473 Z M157.989226,38.9849372 L157.781327,38.9909069 C155.579819,39.1087148 153.832087,40.9450956 153.830548,43.1924115 L153.830548,43.1924115 C153.836324,45.521396 155.707567,47.3989112 158.0101,47.393112 C160.312633,47.3872862 162.17453,45.5003473 162.168779,43.1785002 C162.163002,40.8566532 160.291759,38.979138 157.989226,38.9849372 L157.989226,38.9849372 Z" transform="translate(-1343.000000, -242.000000) translate(335.000000, 136.000000) translate(202.000000, 24.000000) translate(0.000000, 40.000000) translate(668.000000, 14.000000)"/>
</svg>
