<svg xmlns="http://www.w3.org/2000/svg" width="38" height="41" viewBox="0 0 38 41">
    <path fill="#DFDFDF" d="M141,64.0926641 L141,32.6949807 C141,30.0540541 143.054054,28 145.694981,28 L164.181467,28 C164.915058,28 165.648649,28.5868726 165.648649,29.4671815 C165.648649,30.2007722 165.061776,30.9343629 164.328185,30.9343629 L145.694981,30.9343629 C144.667954,30.9343629 143.934363,31.6679537 143.934363,32.6949807 L143.934363,64.2393822 C143.934363,65.2664093 144.667954,66 145.694981,66 L174.305019,66 C175.332046,66 176.065637,65.2664093 176.065637,64.2393822 L176.065637,42.3783784 C176.065637,41.6447876 176.65251,40.9111969 177.532819,40.9111969 C178.266409,40.9111969 179,41.4980695 179,42.2316602 L179,63.7992278 C179,66.4401544 176.945946,68.4942085 174.305019,68.4942085 L145.694981,68.7876448 C143.054054,68.7876448 141,66.7335907 141,64.0926641 Z M160.660232,48.6872587 C159.633205,48.8339768 158.752896,48.1003861 158.899614,47.0733591 L159.633205,42.3783784 C159.633205,42.0849421 159.779923,41.7915058 160.073359,41.6447876 L170.930502,30.7876448 L171.223938,30.4942085 L171.370656,30.3474903 C173.131274,28.8803089 175.478764,29.027027 176.945946,30.4942085 L177.239382,30.7876448 L177.3861,30.9343629 C178.559846,32.5482625 178.413127,34.8957529 177.092664,36.3629344 L166.235521,47.2200772 C166.088803,47.3667954 165.795367,47.5135135 165.501931,47.6602317 L160.660232,48.6872587 L160.660232,48.6872587 Z M173.277992,32.4015444 L172.984556,32.5482625 L162.567568,43.1119691 L162.274131,45.3127413 L164.474903,44.8725869 L175.03861,34.3088803 C175.478764,33.8687259 175.478764,33.2818533 175.185328,32.6949807 L175.03861,32.4015444 C174.305019,32.1081081 173.718147,32.1081081 173.277992,32.4015444 L173.277992,32.4015444 Z M149.509653,61.4517375 C148.776062,61.3050193 148.189189,60.5714286 148.335907,59.6911197 L148.482625,59.2509653 L148.629344,58.5173745 L148.776062,58.0772201 L148.92278,57.4903475 L149.069498,57.0501931 L149.069498,56.7567568 L149.216216,56.3166023 L149.362934,55.8764479 L149.509653,55.4362934 L149.656371,55.1428571 L149.803089,54.8494208 L149.656371,54.4092664 L149.656371,54.2625483 L149.803089,53.969112 L149.949807,53.6756757 L150.096525,53.3822394 L150.243243,53.0888031 C150.243243,52.9420849 150.243243,52.9420849 150.389961,52.7953668 L150.53668,52.5019305 C150.53668,52.3552124 150.53668,52.3552124 150.683398,52.2084942 L150.830116,51.9150579 L150.976834,51.6216216 L150.976834,51.4749035 L151.123552,51.1814672 C152.150579,49.1274131 153.177606,48.1003861 154.644788,48.1003861 C155.965251,48.1003861 156.698842,48.980695 157.285714,50.1544402 C157.579151,50.8880309 157.725869,51.6216216 157.725869,52.6486486 L157.725869,54.4092664 L158.606178,53.969112 L158.899614,53.8223938 L159.046332,53.8223938 L159.339768,53.6756757 C159.486486,53.6756757 159.486486,53.5289575 159.633205,53.5289575 C160.513514,53.0888031 161.247104,52.9420849 161.980695,52.7953668 C163.007722,52.6486486 164.034749,52.9420849 164.621622,53.8223938 C165.208494,54.7027027 165.355212,55.4362934 165.501931,56.4633205 L165.501931,57.0501931 C165.501931,57.3436293 165.501931,57.3436293 165.648649,57.4903475 L165.795367,57.4903475 C166.675676,57.9305019 168.436293,57.9305019 170.930502,57.3436293 C171.664093,57.1969112 172.544402,57.6370656 172.69112,58.3706564 C172.837838,59.1042471 172.397683,59.984556 171.664093,60.1312741 C168.436293,60.8648649 166.088803,60.8648649 164.474903,59.984556 C163.15444,59.2509653 162.714286,58.3706564 162.567568,56.9034749 L162.567568,56.4633205 C162.567568,56.023166 162.567568,55.8764479 162.420849,55.5830116 C162.127413,55.5830116 161.540541,55.7297297 160.953668,56.023166 L160.660232,56.1698842 L159.926641,56.6100386 L159.486486,56.7567568 L158.312741,57.3436293 L158.019305,57.4903475 C157.285714,57.7837838 156.84556,57.9305019 156.405405,57.9305019 C155.671815,57.9305019 155.23166,57.4903475 154.938224,57.0501931 C154.791506,56.7567568 154.644788,56.4633205 154.644788,56.1698842 L154.644788,52.0617761 C154.644788,51.7683398 154.498069,51.4749035 154.498069,51.3281853 C154.204633,51.6216216 154.057915,52.0617761 153.764479,52.6486486 L153.764479,52.7953668 L153.617761,53.0888031 L153.617761,53.2355212 L153.471042,53.5289575 C153.471042,53.6756757 153.471042,53.6756757 153.324324,53.8223938 L153.177606,54.1158301 L153.177606,54.2625483 L153.030888,54.5559846 L153.030888,54.7027027 L152.88417,54.996139 L152.88417,55.1428571 L152.737452,55.4362934 L152.590734,55.8764479 L152.590734,56.023166 L152.444015,56.4633205 L152.444015,56.6100386 L152.297297,57.0501931 L152.150579,57.4903475 L152.003861,58.2239382 L151.857143,58.6640927 L151.710425,59.1042471 L151.710425,59.3976834 L151.563707,59.8378378 L151.563707,60.1312741 C151.123552,61.011583 150.389961,61.5984556 149.509653,61.4517375 L149.509653,61.4517375 Z" transform="translate(-702.000000, -242.000000) translate(335.000000, 136.000000) translate(202.000000, 24.000000) translate(0.000000, 40.000000) translate(24.000000, 14.000000)"/>
</svg>
