<svg xmlns="http://www.w3.org/2000/svg" width="33" height="41" viewBox="0 0 33 41">
    <defs>
        <linearGradient id="modal-tips_svg__a" x1="50%" x2="50%" y1="0%" y2="100%">
            <stop offset="1.052%" stop-color="#F4CEA9"/>
            <stop offset="100%" stop-color="#E19C5E"/>
        </linearGradient>
    </defs>
    <path fill="url(#modal-tips_svg__a)" d="M275.285714,0 L246.714286,0 L246.714286,0 C245.925308,0 245.285714,0.63959375 245.285714,1.42857143 C245.285714,1.42857143 245.285714,1.42857143 245.285714,1.42857143 L245.285714,38.5714286 L245.285714,38.5714288 C245.285714,39.3604065 245.925308,40 246.714286,40 L275.285714,40 L275.285714,40 C276.074692,40 276.714286,39.3604065 276.714286,38.5714288 L276.714286,1.42857164 L276.714286,1.42857152 C276.714286,0.639593841 276.074692,0 275.285714,0 C275.285714,0 275.285714,0 275.285714,0 L275.285714,0 Z M273.500014,36.7857147 L248.5,36.7857147 L248.5,27.8142857 L252.871429,27.8142857 C253.385714,29.2771429 254.3,30.5942857 255.508572,31.5942857 L255.508572,31.5942863 C259.178755,34.6264425 264.612054,34.1092193 267.644242,30.4390363 C268.289398,29.6581255 268.791862,28.7696211 269.128586,27.8142863 L273.500014,27.8142863 L273.500014,25.0000005 L266.8743,25.0000005 L266.642871,26.1028577 L266.642871,26.1028576 C266.092907,28.783313 263.736304,30.7091522 261.000014,30.7142862 C258.268586,30.7142862 255.8943,28.771429 255.351443,26.1028576 L255.122871,25.0000005 L248.497157,25.0000005 L248.497157,3.21428618 L273.497157,3.21428618 L273.497157,36.7857147 L273.500014,36.7857147 Z M252.428572,12.3657143 L269.571429,12.3657143 L269.571429,12.3657143 C269.768673,12.3657143 269.928572,12.2058161 269.928572,12.0085714 L269.928572,9.86571429 L269.928572,9.86571427 C269.928572,9.66846963 269.768673,9.50857141 269.571429,9.50857141 C269.571429,9.50857141 269.571429,9.50857141 269.571429,9.50857141 L252.428571,9.50857141 L252.428571,9.50857141 C252.231327,9.50857141 252.071429,9.66846963 252.071429,9.86571427 C252.071429,9.86571427 252.071429,9.86571427 252.071429,9.86571427 L252.071429,12.0085714 C252.071429,12.2057143 252.231429,12.3657143 252.428571,12.3657143 L252.428572,12.3657143 Z M252.428572,19.5085714 L269.571429,19.5085714 L269.571429,19.5085714 C269.768673,19.5085714 269.928572,19.3486732 269.928572,19.1514286 L269.928572,17.0085714 L269.928572,17.0085714 C269.928572,16.8113268 269.768673,16.6514286 269.571429,16.6514286 C269.571429,16.6514286 269.571429,16.6514286 269.571429,16.6514286 L252.428571,16.6514286 L252.428571,16.6514286 C252.231327,16.6514286 252.071429,16.8113268 252.071429,17.0085714 C252.071429,17.0085714 252.071429,17.0085714 252.071429,17.0085714 L252.071429,19.1514286 C252.071429,19.3485714 252.231429,19.5085714 252.428571,19.5085714 L252.428572,19.5085714 Z" transform="translate(-4194.000000, -981.000000) translate(79.000000, 42.000000) translate(3681.500000, 690.000000) translate(165.000000, 180.000000) translate(24.000000, 69.500000)"/>
</svg>
