<svg xmlns="http://www.w3.org/2000/svg" width="43" height="42" viewBox="0 0 43 42">
    <defs>
        <linearGradient id="modal-timeout_svg__a" x1="50%" x2="50%" y1=".65%" y2="98.716%">
            <stop offset="0%" stop-color="#F4CEA8"/>
            <stop offset="100%" stop-color="#E19C5E"/>
        </linearGradient>
    </defs>
    <path fill="url(#modal-timeout_svg__a)" d="M260.5,3.46857202e-06 C272.097999,3.46857202e-06 281.5,9.40204964 281.5,21.0000035 C281.5,32.5980016 272.097999,42.0000035 260.5,42.0000035 C248.902005,42.0000035 239.5,32.5980016 239.5,21.0000035 L239.5,21.0000035 L239.5,20.973728 C239.506594,9.38366457 248.907546,-0.00658851802 260.497609,3.46857202e-06 L260.497609,3.46857202e-06 Z M259.519653,10.2540558 L255.615478,10.2540558 L255.615478,25.8845248 L271.245947,25.8845248 L271.245947,21.9803502 L259.519478,21.9800558 L259.519653,10.2540558 Z" transform="translate(-2406.000000, -1699.000000) translate(79.000000, 735.000000) translate(1899.500000, 716.500000) translate(164.500000, 179.500000) translate(24.000000, 18.000000) translate(0.000000, 50.000000)"/>
</svg>
