<?xml version="1.0" encoding="UTF-8"?><svg version="1.1" width="16px" height="16px" viewBox="0 0 16.0 16.0" xmlns="http://www.w3.org/2000/svg" xmlns:xlink="http://www.w3.org/1999/xlink"><defs><clipPath id="i0"><path d="M1920,0 L1920,1080 L0,1080 L0,0 L1920,0 Z"></path></clipPath><clipPath id="i1"><path d="M4.640625,0 C4.71796875,0 4.78125,0.06328125 4.78125,0.140625 L4.78125,1.265625 L9.28125,1.265625 L9.28125,0.140625 C9.28125,0.06328125 9.34453125,0 9.421875,0 L10.40625,0 C10.4835937,0 10.546875,0.06328125 10.546875,0.140625 L10.546875,1.265625 L13.5,1.265625 C13.8111328,1.265625 14.0625,1.51699219 14.0625,1.828125 L14.0625,13.5 C14.0625,13.8111328 13.8111328,14.0625 13.5,14.0625 L0.5625,14.0625 C0.251367187,14.0625 0,13.8111328 0,13.5 L0,1.828125 C0,1.51699219 0.251367187,1.265625 0.5625,1.265625 L3.515625,1.265625 L3.515625,0.140625 C3.515625,0.06328125 3.57890625,0 3.65625,0 Z M12.8169643,6.42857143 L1.24553571,6.42857143 L1.24553571,12.8571429 L12.8169643,12.8571429 L12.8169643,6.42857143 Z M3.50337544,2.53125 L1.24553571,2.53125 L1.24553571,5.23125 L12.8169643,5.23125 L12.8169643,2.53125 L10.5591246,2.53125 L10.5591246,3.43881303 C10.5591246,3.5220063 10.4956228,3.59007353 10.4180096,3.59007353 L9.4302047,3.59007353 C9.35259146,3.59007353 9.28908972,3.5220063 9.28908972,3.43881303 L9.28908972,2.53125 L4.77341028,2.53125 L4.77341028,3.43881303 C4.77341028,3.5220063 4.70990854,3.59007353 4.6322953,3.59007353 L3.64449042,3.59007353 C3.56687718,3.59007353 3.50337544,3.5220063 3.50337544,3.43881303 L3.50337544,2.53125 Z"></path></clipPath></defs><g transform="translate(-535.0 -310.0)"><g clip-path="url(#i0)"><g transform="translate(510.0 240.0)"><g transform="translate(24.0 67.0)"><g transform="translate(0.0 2.0)"><g transform="translate(1.96875 1.96875)"><g clip-path="url(#i1)"><polygon points="0,0 14.0625,0 14.0625,14.0625 0,14.0625 0,0" stroke="none" fill="#B3B3B3"></polygon></g></g></g></g></g></g></g></svg>