<?xml version="1.0" encoding="UTF-8"?><svg version="1.1" width="16px" height="16px" viewBox="0 0 16.0 16.0" xmlns="http://www.w3.org/2000/svg" xmlns:xlink="http://www.w3.org/1999/xlink"><defs><clipPath id="i0"><path d="M1920,0 L1920,1080 L0,1080 L0,0 L1920,0 Z"></path></clipPath><clipPath id="i1"><path d="M13.3714286,0 C13.7974768,-1.21348426e-15 14.1428571,0.345380315 14.1428571,0.771428525 L14.1428571,13.3714286 C14.1428571,13.7974768 13.7974768,14.1428571 13.3714286,14.1428571 L0.771428525,14.1428571 C0.345380315,14.1428571 5.21758577e-17,13.7974768 0,13.3714286 L0,0.771428525 C-5.21758577e-17,0.345380315 0.345380315,7.82637865e-17 0.771428525,0 L13.3714286,0 Z M12.9857143,1.15714286 L1.15714286,1.15714286 L1.15714286,12.9857143 L12.9857143,12.9857143 L12.9857143,1.15714286 Z M5.51572296,8.1011727 C5.59350863,8.1011727 5.65715147,8.16483315 5.65715147,8.2426403 L5.65715147,9.02071191 C5.65715147,9.08321625 5.61662689,9.13625291 5.56042535,9.1549674 L5.51572297,9.16217951 L3.67715775,9.16217951 C3.61467069,9.16217951 3.56164871,9.12164372 3.5429394,9.06542662 L3.53572928,9.02071189 L3.53572928,8.2426403 C3.53572928,8.16483315 3.59937212,8.1011727 3.67715775,8.1011727 L5.51572296,8.1011727 Z M10.4657267,5.97915778 C10.5435123,5.97915778 10.6071551,6.04281823 10.6071551,6.12062538 L10.6071551,6.89869699 C10.6071551,6.96120133 10.5666306,7.01423799 10.510429,7.03295248 L10.4657267,7.04016459 L3.67715776,7.04016459 C3.61467071,7.04016459 3.56164872,6.9996288 3.54293941,6.9434117 L3.5357293,6.89869697 L3.5357293,6.12062538 C3.5357293,6.04281823 3.59937213,5.97915778 3.67715776,5.97915778 L10.4657267,5.97915778 Z M10.4657267,3.85714286 C10.5435123,3.85714286 10.6071551,3.9208033 10.6071551,3.99861046 L10.6071551,4.77668206 C10.6071551,4.83918641 10.5666306,4.89222307 10.510429,4.91093756 L10.4657267,4.91814967 L3.67715776,4.91814967 C3.61467071,4.91814967 3.56164872,4.87761388 3.54293941,4.82139678 L3.5357293,4.77668205 L3.5357293,3.99861046 C3.5357293,3.9208033 3.59937213,3.85714286 3.67715776,3.85714286 L10.4657267,3.85714286 Z"></path></clipPath></defs><g transform="translate(-535.0 -348.0)"><g clip-path="url(#i0)"><g transform="translate(510.0 240.0)"><g transform="translate(24.0 105.0)"><g transform="translate(0.0 2.0)"><g transform="translate(1.928571428571428 1.928571428571428)"><g clip-path="url(#i1)"><polygon points="0,0 14.1428571,0 14.1428571,14.1428571 0,14.1428571 0,0" stroke="none" fill="#B3B3B3"></polygon></g></g></g></g></g></g></g></svg>