<?xml version="1.0" encoding="UTF-8"?><svg version="1.1" width="16px" height="16px" viewBox="0 0 16.0 16.0" xmlns="http://www.w3.org/2000/svg" xmlns:xlink="http://www.w3.org/1999/xlink"><defs><clipPath id="i0"><path d="M1920,0 L1920,1080 L0,1080 L0,0 L1920,0 Z"></path></clipPath><clipPath id="i1"><path d="M7.71428571,0 C9.76024149,0 11.7224002,0.812752769 13.1691095,2.25946197 C14.6158187,3.70617118 15.4285714,5.66832994 15.4285714,7.71428571 C15.4285714,11.9747681 11.9747681,15.4285714 7.71428571,15.4285714 C3.45380336,15.4285714 0,11.9747681 0,7.71428571 C0,3.45380336 3.45380336,0 7.71428571,0 Z M7.71428571,1.30016052 C4.17344641,1.30398226 1.30398226,4.17344641 1.30016052,7.71428571 C1.30016052,11.2567092 4.17186218,14.1284109 7.71428571,14.1284109 C11.2567092,14.1284109 14.1284109,11.2567092 14.1284109,7.71428571 C14.1284109,4.17186218 11.2567092,1.30016052 7.71428571,1.30016052 Z"></path></clipPath><clipPath id="i2"><path d="M5.02624959,0.157140278 L6.06021702,1.19110769 C6.20788239,1.33840019 6.25219043,1.56018427 6.17245336,1.75290724 C6.0927163,1.94563021 5.90466245,2.07127705 5.69609559,2.07118234 L0.515266156,2.07118234 C0.230692516,2.07118234 0,1.84048977 0,1.55591613 C0,1.27134249 0.230692516,1.04064997 0.515266156,1.04064997 L4.4525866,1.04064997 L4.29800676,0.886070127 C4.1640004,0.756762795 4.1101916,0.565211128 4.15726166,0.385037599 C4.20433171,0.204864069 4.3449555,0.0641076181 4.52508457,0.0168676856 C4.70521363,-0.0303722469 4.89681595,0.0232559056 5.02624959,0.157140278 Z"></path></clipPath><clipPath id="i3"><path d="M5.69703142,0 C5.98160506,0 6.21229758,0.230692516 6.21229758,0.515266156 C6.21229758,0.799839797 5.98160506,1.03053231 5.69703142,1.03053231 L1.75902396,1.03053231 L1.91291678,1.18511216 C2.06009075,1.33246922 2.10408616,1.55393423 2.02441143,1.74635621 C1.94473671,1.93877819 1.75706021,2.06431655 1.54879536,2.06450128 C1.41209348,2.06483617 1.2809531,2.01040054 1.18467395,1.91335499 L0.150706523,0.879387571 C0.00353255527,0.732030507 -0.040462859,0.510565497 0.0392118685,0.318143516 C0.118886596,0.125721535 0.306563094,0.000183177065 0.514827943,0 L5.69703142,0 Z"></path></clipPath></defs><g transform="translate(-753.0 -348.0)"><g clip-path="url(#i0)"><g transform="translate(510.0 240.0)"><g transform="translate(242.0 105.0)"><g transform="translate(0.0 2.0)"><g transform="translate(1.2857142857142856 1.2857142857142856)"><g clip-path="url(#i1)"><polygon points="0,0 15.4285714,0 15.4285714,15.4285714 0,15.4285714 0,0" stroke="none" fill="#B3B3B3"></polygon></g><g transform="translate(4.608351204653479 5.138642631473511)"><g clip-path="url(#i2)"><polygon points="0,1.83880688e-16 6.21161107,1.83880688e-16 6.21161107,2.07118239 0,2.07118239 0,1.83880688e-16" stroke="none" fill="#B3B3B3"></polygon></g></g><g transform="translate(4.608789417530421 8.216998496402075)"><g clip-path="url(#i3)"><polygon points="-1.11022302e-16,0 6.21229758,0 6.21229758,2.06450281 -1.11022302e-16,2.06450281 -1.11022302e-16,0" stroke="none" fill="#B3B3B3"></polygon></g></g></g></g></g></g></g></g></svg>