<?xml version="1.0" encoding="UTF-8"?><svg version="1.1" width="14px" height="13px" viewBox="0 0 14.0 13.0" xmlns="http://www.w3.org/2000/svg" xmlns:xlink="http://www.w3.org/1999/xlink"><defs><clipPath id="i0"><path d="M1920,0 L1920,1080 L0,1080 L0,0 L1920,0 Z"></path></clipPath><clipPath id="i1"><path d="M1.18292241,0 C1.21392313,0 1.24492386,0.0243097239 1.26287165,0.0632052821 L5.10696157,8.41602641 L5.19996374,8.41602641 L5.19996374,0.145858343 C5.19996374,0.0656362545 5.2440174,0 5.29786077,0 L6.3306744,0 C6.38451777,0 6.42857143,0.0656362545 6.42857143,0.145858343 L6.42857143,11.4255702 C6.42857143,11.5057923 6.38451777,11.5714286 6.3306744,11.5714286 L5.27991298,11.5714286 C5.24728064,11.5714286 5.21627991,11.5471188 5.19833212,11.5082233 L1.31182016,3.04114646 L1.21881798,3.04114646 L1.21881798,11.4255702 C1.21881798,11.5057923 1.17476432,11.5714286 1.12092096,11.5714286 L0.0978970268,11.5714286 C0.0440536621,11.5714286 0,11.5057923 0,11.4255702 L0,0.145858343 C0,0.0656362545 0.0440536621,0 0.0978970268,0 Z M12.7232143,10.2857143 C12.796875,10.2857143 12.8571429,10.3580357 12.8571429,10.4464286 L12.8571429,11.4107143 C12.8571429,11.4991071 12.796875,11.5714286 12.7232143,11.5714286 L7.63392857,11.5714286 C7.56026786,11.5714286 7.5,11.4991071 7.5,11.4107143 L7.5,10.4464286 C7.5,10.3580357 7.56026786,10.2857143 7.63392857,10.2857143 Z M10.1746312,0 C11.0099609,0 11.6766486,0.432596685 12.1636616,1.29779006 C12.6270332,2.11325967 12.8571429,3.19226519 12.8571429,4.51243094 C12.8571429,5.8301105 12.6270332,6.89668508 12.1636616,7.71464088 C11.6750725,8.57237569 11.0083848,9 10.1746312,9 C9.33614929,9 8.66788551,8.56491713 8.18560081,7.70220994 C7.72538141,6.87928177 7.5,5.81519337 7.5,4.51243094 C7.5,3.19972376 7.72380532,2.13563536 8.18402471,1.31270718 C8.66315723,0.435082873 9.32826882,0 10.1746312,0 Z M10.1785714,1.28571429 C9.6573812,1.28571429 9.26523164,1.57727873 8.98201251,2.16040762 C8.7088485,2.73221363 8.57310442,3.50217022 8.57142857,4.51556898 C8.57142857,5.51481412 8.7088485,6.28477071 8.98201251,6.85374599 C9.25685238,7.42272127 9.65570535,7.71428571 10.1785714,7.71428571 C10.6997617,7.71428571 11.0935871,7.43687488 11.3701028,6.88771466 C11.6449426,6.32723155 11.7857143,5.54029062 11.7857143,4.51273825 C11.7857143,3.48518588 11.6432668,2.68409134 11.3684269,2.10945461 C11.0969388,1.55746367 10.7064651,1.28571429 10.1785714,1.28571429 Z"></path></clipPath></defs><g transform="translate(-1082.0 -350.0)"><g clip-path="url(#i0)"><g transform="translate(510.0 240.0)"><g transform="translate(570.0 105.0)"><g transform="translate(0.0 2.0)"><g transform="translate(2.571428571428571 3.8571428571428568)"><g clip-path="url(#i1)"><polygon points="0,0 12.8571429,0 12.8571429,11.5714286 0,11.5714286 0,0" stroke="none" fill="#B3B3B3"></polygon></g></g></g></g></g></g></g></svg>