<?xml version="1.0" encoding="UTF-8"?><svg version="1.1" width="16px" height="16px" viewBox="0 0 16.0 16.0" xmlns="http://www.w3.org/2000/svg" xmlns:xlink="http://www.w3.org/1999/xlink"><defs><clipPath id="i0"><path d="M1920,0 L1920,1080 L0,1080 L0,0 L1920,0 Z"></path></clipPath><clipPath id="i1"><path d="M1.97999368,4.24402984 C2.05777935,4.24402984 2.12142218,4.30769029 2.12142218,4.38549745 L2.12142218,5.16356905 C2.12142218,5.2260734 2.08089761,5.27911006 2.02469607,5.29782454 L1.97999369,5.30503665 L0.141428463,5.30503665 C0.0789414104,5.30503665 0.0259194256,5.26450086 0.00721011383,5.20828377 L0,5.16356903 L0,4.38549745 C0,4.30769029 0.0636428334,4.24402984 0.141428463,4.24402984 L1.97999368,4.24402984 Z M6.92999738,2.12201492 C7.00778303,2.12201492 7.07142586,2.18567537 7.07142586,2.26348253 L7.07142586,3.04155413 C7.07142586,3.10405848 7.03090129,3.15709513 6.97469974,3.17580962 L6.92999738,3.18302173 L0.14142848,3.18302173 C0.078941427,3.18302173 0.0259194422,3.14248594 0.00721013041,3.08626885 L1.65732672e-08,3.04155411 L1.65732672e-08,2.26348253 C1.65732672e-08,2.18567537 0.06364285,2.12201492 0.14142848,2.12201492 L6.92999738,2.12201492 Z M6.92999738,0 C7.00778303,0 7.07142586,0.0636604476 7.07142586,0.141467606 L7.07142586,0.919539208 C7.07142586,0.982043555 7.03090129,1.03508021 6.97469974,1.0537947 L6.92999738,1.06100681 L0.14142848,1.06100681 C0.078941427,1.06100681 0.0259194422,1.02047102 0.00721013041,0.964253925 L1.65732672e-08,0.919539191 L1.65732672e-08,0.141467606 C1.65732672e-08,0.0636604476 0.06364285,0 0.14142848,0 L6.92999738,0 Z"></path></clipPath><clipPath id="i2"><path d="M13.3714286,0 C13.7974768,-1.21348426e-15 14.1428571,0.345380315 14.1428571,0.771428525 L14.1428571,13.3714286 C14.1428571,13.7974768 13.7974768,14.1428571 13.3714286,14.1428571 L0.771428525,14.1428571 C0.345380315,14.1428571 5.21758577e-17,13.7974768 0,13.3714286 L0,0.771428525 C-5.21758577e-17,0.345380315 0.345380315,7.82637865e-17 0.771428525,0 L13.3714286,0 Z M12.9857143,1.15714286 L1.15714286,1.15714286 L1.15714286,12.9857143 L12.9857143,12.9857143 L12.9857143,1.15714286 Z"></path></clipPath></defs><g transform="translate(-629.0 -348.0)"><g clip-path="url(#i0)"><g transform="translate(510.0 240.0)"><g transform="translate(118.0 105.0)"><g transform="translate(0.0 2.0)"><g transform="translate(1.928571428571428 1.928571428571428)"><g transform="translate(3.535729282375313 2.571428571428611)"><g clip-path="url(#i1)"><polygon points="0,0 7.07142586,0 7.07142586,5.30503665 0,5.30503665 0,0" stroke="none" fill="#B3B3B3"></polygon></g></g><g clip-path="url(#i2)"><polygon points="0,0 14.1428571,0 14.1428571,14.1428571 0,14.1428571 0,0" stroke="none" fill="#B3B3B3"></polygon></g><g transform="translate(6.110388762457335 8.164699713009524)"><path d="M0,2.46651071 L1.65791762,3.85714286 L5.39644865,0" stroke="#B3B3B3" stroke-width="1.02857143" fill="none" stroke-linecap="square" stroke-miterlimit="10"></path></g></g></g></g></g></g></g></svg>