<?xml version="1.0" encoding="UTF-8"?><svg version="1.1" width="16px" height="16px" viewBox="0 0 16.0 16.0" xmlns="http://www.w3.org/2000/svg" xmlns:xlink="http://www.w3.org/1999/xlink"><defs><clipPath id="i0"><path d="M1920,0 L1920,1080 L0,1080 L0,0 L1920,0 Z"></path></clipPath><clipPath id="i1"><path d="M7.71446578,0 C9.89472146,0 11.6623317,1.72337241 11.6623317,3.84904037 L11.6623319,5.40851727 C11.662819,6.78396001 10.9101763,8.05503199 9.68822814,8.74242972 L9.68822814,8.87143481 L14.0301179,11.1340309 C14.9280159,11.6019697 15.4657569,12.5271654 15.4265662,13.5083296 L15.4124041,13.6928555 C15.3001002,14.6808937 14.4436409,15.4285714 13.4240396,15.4285714 L2.00453219,15.4285714 C1.03858712,15.4285714 0.219078033,14.7575255 0.0399994826,13.8467902 L0.0161676569,13.6928554 C-0.10299717,12.6445951 0.444435348,11.6312046 1.39845383,11.1340305 L5.74034348,8.87143444 L5.74034348,8.74221997 C4.51847131,8.05470472 3.76596154,6.783555 3.7666106,5.40810864 L3.7666106,3.84905067 C3.7666106,1.72337728 5.53422644,0 7.71446578,0 Z M7.71447671,1.15713733 C6.22648478,1.15732523 5.006213,2.30697072 4.95504861,3.75686663 L4.95346613,3.84905249 L4.95346603,5.40824963 C4.9528101,6.33425225 5.44085187,7.19544396 6.24527708,7.68775084 L6.33468645,7.7405938 L6.847406,8.02987979 C6.89619558,8.05734297 6.92633065,8.10802479 6.92652945,8.16295134 L6.92850753,9.47204057 C6.92850753,9.52904781 6.89626561,9.58140965 6.84466004,9.60821146 L1.95824695,12.1546332 C1.43241827,12.4287769 1.13068185,12.9873592 1.19628874,13.5651917 C1.23980666,13.9470492 1.55629953,14.2409637 1.94321289,14.2691203 L2.00492913,14.2714346 L13.4248075,14.2714346 C13.8048629,14.2714346 14.1294039,14.0157138 14.2158978,13.6638141 L14.2334479,13.5655767 C14.2960787,13.0160672 14.0263684,12.4809749 13.5419089,12.1935892 L13.4714891,12.1546319 L8.58483492,9.60813782 C8.53322472,9.58134433 8.5009739,9.52898791 8.50096407,9.47198049 L8.50294216,8.16286682 C8.50314053,8.10794027 8.5332751,8.05725809 8.58206449,8.02979473 L9.09478425,7.74050863 C9.91706972,7.27835077 10.4379804,6.43656111 10.4739049,5.51184943 L10.4758829,5.40809213 L10.4758829,3.84903378 C10.4758829,2.41739992 9.32960774,1.24679753 7.88307103,1.16205007 L7.71447671,1.15713733 Z"></path></clipPath></defs><g transform="translate(-535.0 -386.0)"><g clip-path="url(#i0)"><g transform="translate(510.0 240.0)"><g transform="translate(24.0 143.0)"><g transform="translate(0.0 2.0)"><g transform="translate(1.2857142857142208 1.2857142857142767)"><g clip-path="url(#i1)"><polygon points="-3.46944695e-18,0 15.4285714,0 15.4285714,15.4285714 -3.46944695e-18,15.4285714 -3.46944695e-18,0" stroke="none" fill="#B3B3B3"></polygon></g></g></g></g></g></g></g></svg>