<?xml version="1.0" encoding="UTF-8"?><svg version="1.1" width="16px" height="16px" viewBox="0 0 16.0 16.0" xmlns="http://www.w3.org/2000/svg" xmlns:xlink="http://www.w3.org/1999/xlink"><defs><clipPath id="i0"><path d="M1920,0 L1920,1080 L0,1080 L0,0 L1920,0 Z"></path></clipPath><clipPath id="i1"><path d="M7.71428571,0 C11.9746784,0 15.4285714,3.45389308 15.4285714,7.71428571 C15.4285714,11.9746784 11.9746784,15.4285714 7.71428571,15.4285714 C3.45389308,15.4285714 0,11.9746784 0,7.71428571 C0,3.45389308 3.45389308,0 7.71428571,0 Z M7.71428507,1.30909114 C4.17692427,1.30909114 1.30909114,4.17694007 1.30909114,7.71428507 C1.30909114,11.2516459 4.17694007,14.119479 7.71428507,14.119479 C11.2516459,14.119479 14.119479,11.2516301 14.119479,7.71428507 C14.119479,4.17692427 11.2516301,1.30909114 7.71428507,1.30909114 Z M7.92467899,4.207785 C8.00181833,4.207785 8.06493526,4.27091212 8.06493526,4.34805498 L8.06493525,7.42393843 C8.064948,7.46083734 8.07660217,7.49679164 8.09823831,7.52668161 L8.11612144,7.54772059 L10.9676095,10.398847 C11.0114538,10.4426425 11.0202542,10.5082385 10.9939915,10.5607858 L10.9676095,10.5973155 L10.4219981,11.1429268 C10.3672537,11.1977322 10.2784461,11.1977815 10.22364,11.1430371 L7.37274841,8.29143873 C7.16074128,8.07968965 7.03352451,7.79769341 7.01508582,7.49861944 L7.01299064,7.42394307 L7.01299064,4.34804478 C7.01299064,4.27090193 7.07610756,4.207785 7.15325042,4.207785 L7.92467899,4.207785 Z"></path></clipPath></defs><g transform="translate(-817.0 -348.0)"><g clip-path="url(#i0)"><g transform="translate(510.0 240.0)"><g transform="translate(306.0 105.0)"><g transform="translate(0.0 2.0)"><g transform="translate(1.2857142857142208 1.2857142857142776)"><g clip-path="url(#i1)"><polygon points="0,0 15.4285714,0 15.4285714,15.4285714 0,15.4285714 0,0" stroke="none" fill="#B3B3B3"></polygon></g></g></g></g></g></g></g></svg>