<?xml version="1.0" encoding="UTF-8"?><svg version="1.1" width="16px" height="15px" viewBox="0 0 16.0 15.0" xmlns="http://www.w3.org/2000/svg" xmlns:xlink="http://www.w3.org/1999/xlink"><defs><clipPath id="i0"><path d="M1920,0 L1920,1080 L0,1080 L0,0 L1920,0 Z"></path></clipPath><clipPath id="i1"><path d="M8.35799586,0.518913309 L8.35799586,1.67691331 L1.15714286,1.67591331 L1.15714286,12.2187705 L12.9857143,12.2187705 L12.9859959,6.30491331 L14.1429959,6.30491331 L14.1428571,12.6044848 C14.1428571,13.030533 13.7974768,13.3759133 13.3714286,13.3759133 L0.771428525,13.3759133 C0.345380315,13.3759133 6.03961325e-14,13.030533 6.03961325e-14,12.6044848 L6.21724894e-14,1.29019898 C6.03961325e-14,0.864150767 0.345380315,0.518770452 0.771428525,0.518770452 L8.35799586,0.518913309 Z M10.1442858,9.63112419 C10.2223946,9.63112419 10.2857143,9.69446136 10.2857143,9.77259179 L10.2857143,10.5506634 C10.2857143,10.6284706 10.2220715,10.692131 10.1442858,10.692131 L3.35571693,10.692131 C3.27793127,10.692131 3.21428571,10.6284706 3.21428571,10.5506634 L3.21428571,9.77259181 C3.21428571,9.69446136 3.27760809,9.63112419 3.3557169,9.63112419 L10.1442858,9.63112419 Z M13.4919932,0.0219519708 L14.105122,0.500980681 C14.1664349,0.548883551 14.1596074,0.66102409 14.0899497,0.750181781 L8.01073469,8.53122221 C7.94107705,8.62037992 7.83391685,8.65413702 7.77260397,8.60623415 L7.1594752,8.12720545 C7.09790756,8.07910354 7.10470286,7.96752934 7.1746499,7.87800121 L13.253865,0.0969607683 C13.323812,0.00743263439 13.4304256,-0.0261499276 13.4919932,0.0219519708 Z M5.19427944,7.17204935 C5.25676649,7.17204935 5.30978847,7.21258514 5.32849778,7.26880224 L5.3357079,7.31351697 L5.3357079,8.09158856 C5.3357079,8.16939572 5.27206507,8.23305617 5.19427944,8.23305617 L3.35571422,8.23305617 C3.27792855,8.23305617 3.21428571,8.16939572 3.21428571,8.09158856 L3.21428571,7.31351696 C3.21428571,7.25101261 3.25481029,7.19797595 3.31101183,7.17926146 L3.35571421,7.17204935 L5.19427944,7.17204935 Z"></path></clipPath></defs><g transform="translate(-1001.0 -349.0)"><g clip-path="url(#i0)"><g transform="translate(510.0 240.0)"><g transform="translate(490.0 105.0)"><g transform="translate(0.0 2.0)"><g transform="translate(1.92857142856651 2.6955152626808303)"><g clip-path="url(#i1)"><polygon points="6.03961325e-14,-4.17282264e-10 14.1469959,-4.17282264e-10 14.1469959,13.3759133 6.03961325e-14,13.3759133 6.03961325e-14,-4.17282264e-10" stroke="none" fill="#B3B3B3"></polygon></g></g></g></g></g></g></g></svg>