<svg xmlns="http://www.w3.org/2000/svg" width="88" height="88" viewBox="0 0 88 88">
    <defs>
        <linearGradient id="yjkh_svg__a" x1="-.003%" x2="99.999%" y1="50%" y2="50%">
            <stop offset="0%" stop-color="#FFE5CD"/>
            <stop offset="21%" stop-color="#FBDFC5"/>
            <stop offset="49%" stop-color="#F9DDC1"/>
            <stop offset="67%" stop-color="#F7D9BC"/>
            <stop offset="90%" stop-color="#F2CFAD"/>
            <stop offset="100%" stop-color="#EEC8A3"/>
        </linearGradient>
        <linearGradient id="yjkh_svg__b" x1="31.298%" x2="68.698%" y1="70.745%" y2="29.255%">
            <stop offset="0%" stop-color="#F9DDC1"/>
            <stop offset="29%" stop-color="#FDF5EC"/>
            <stop offset="45%" stop-color="#FFF"/>
            <stop offset="80%" stop-color="#F4DDC6"/>
            <stop offset="100%" stop-color="#EEC8A3"/>
        </linearGradient>
        <linearGradient id="yjkh_svg__c" x1=".001%" x2="100.001%" y1="50.003%" y2="50.003%">
            <stop offset="0%" stop-color="#FFE5CD"/>
            <stop offset="21%" stop-color="#FBDFC5"/>
            <stop offset="49%" stop-color="#F9DDC1"/>
            <stop offset="67%" stop-color="#F7D9BC"/>
            <stop offset="90%" stop-color="#F2CFAD"/>
            <stop offset="100%" stop-color="#EEC8A3"/>
        </linearGradient>
        <linearGradient id="yjkh_svg__d" x1="31.301%" x2="68.7%" y1="70.744%" y2="29.26%">
            <stop offset="0%" stop-color="#F9DDC1"/>
            <stop offset="29%" stop-color="#FDF5EC"/>
            <stop offset="45%" stop-color="#FFF"/>
            <stop offset="80%" stop-color="#F4DDC6"/>
            <stop offset="100%" stop-color="#EEC8A3"/>
        </linearGradient>
        <linearGradient id="yjkh_svg__e" x1="31.178%" x2="68.819%" y1="29.122%" y2="70.878%">
            <stop offset="0%" stop-color="#F9DDC1"/>
            <stop offset="13%" stop-color="#F9DFC4"/>
            <stop offset="25%" stop-color="#FAE5CF"/>
            <stop offset="36%" stop-color="#FCEEE1"/>
            <stop offset="46%" stop-color="#FEFCF9"/>
            <stop offset="48%" stop-color="#FFF"/>
            <stop offset="81%" stop-color="#F4DDC6"/>
            <stop offset="100%" stop-color="#EEC8A3"/>
        </linearGradient>
        <linearGradient id="yjkh_svg__g" x1=".002%" x2="99.998%" y1="50%" y2="50%">
            <stop offset="0%" stop-color="#484A50"/>
            <stop offset="14%" stop-color="#58585F"/>
            <stop offset="29%" stop-color="#626169"/>
            <stop offset="49%" stop-color="#65646C"/>
            <stop offset="67%" stop-color="#616068"/>
            <stop offset="86%" stop-color="#55555C"/>
            <stop offset="100%" stop-color="#46484E"/>
        </linearGradient>
        <linearGradient id="yjkh_svg__f" x1="30.482%" x2="69.556%" y1="72.57%" y2="27.811%">
            <stop offset="0%" stop-color="#FFF" stop-opacity=".4"/>
            <stop offset="29%" stop-color="#FFF" stop-opacity=".4"/>
            <stop offset="31%" stop-color="#FFF" stop-opacity=".4"/>
            <stop offset="57%" stop-color="#FFF" stop-opacity=".4"/>
            <stop offset="82%" stop-color="#7E7F7E" stop-opacity=".82"/>
            <stop offset="100%" stop-color="#464846"/>
        </linearGradient>
        <linearGradient id="yjkh_svg__h" x1=".001%" x2="100.001%" y1="49.999%" y2="49.999%">
            <stop offset="0%" stop-color="#FFE5CD"/>
            <stop offset="21%" stop-color="#FBDFC5"/>
            <stop offset="49%" stop-color="#F9DDC1"/>
            <stop offset="67%" stop-color="#F7D9BC"/>
            <stop offset="90%" stop-color="#F2CFAD"/>
            <stop offset="100%" stop-color="#EEC8A3"/>
        </linearGradient>
        <linearGradient id="yjkh_svg__i" x1=".774%" x2="100.242%" y1="46.234%" y2="51.424%">
            <stop offset="0%" stop-color="#F0CDAA"/>
            <stop offset="4%" stop-color="#EFCCA8"/>
            <stop offset="27%" stop-color="#EECAA6"/>
            <stop offset="63%" stop-color="#D5A068"/>
            <stop offset="71%" stop-color="#CF9659"/>
            <stop offset="79%" stop-color="#D1995E"/>
            <stop offset="88%" stop-color="#D6A26B"/>
            <stop offset="98%" stop-color="#DFB181"/>
            <stop offset="100%" stop-color="#E1B587"/>
        </linearGradient>
        <linearGradient id="yjkh_svg__j" x1=".001%" x2="100%" y1="49.998%" y2="49.998%">
            <stop offset="0%" stop-color="#FFF"/>
            <stop offset="18%" stop-color="#FFFDFC"/>
            <stop offset="34%" stop-color="#FEF7F1"/>
            <stop offset="49%" stop-color="#FCEEE0"/>
            <stop offset="62%" stop-color="#FAE0C7"/>
            <stop offset="65%" stop-color="#F9DDC1"/>
            <stop offset="78%" stop-color="#F7D9BC"/>
            <stop offset="93%" stop-color="#F2CFAD"/>
            <stop offset="100%" stop-color="#EEC8A3"/>
        </linearGradient>
        <linearGradient id="yjkh_svg__k" x1="0%" x2="100%" y1="50.022%" y2="50.022%">
            <stop offset="0%" stop-color="#DAA66D"/>
            <stop offset="5%" stop-color="#D9A46A"/>
            <stop offset="32%" stop-color="#D49C5F"/>
            <stop offset="61%" stop-color="#D3995B"/>
            <stop offset="100%" stop-color="#D3995B"/>
        </linearGradient>
    </defs>
    <g fill="none" fill-rule="evenodd">
        <path d="M0 0H88V88H0z" transform="translate(-336.000000, -2451.000000) translate(336.000000, 2451.000000)"/>
        <path fill="url(#yjkh_svg__a)" fill-rule="nonzero" stroke="url(#yjkh_svg__b)" d="M35.6240599,0 C40.480388,0 45.1107005,0.6221875 49.328513,1.7496875 C53.5463255,2.8771875 57.3662474,4.51 60.5846068,6.538125 C63.8029662,8.56625 66.4412474,10.9914063 68.2803099,13.6898438 C70.1193724,16.3882813 71.1798412,19.3771875 71.2425755,22.5250781 C71.3053099,25.6729688 70.3642943,28.69625 68.606013,31.4488281 C66.8477318,34.2014063 64.2567162,36.7030469 61.0374974,38.7990625 C57.8182787,40.8950781 53.9510912,42.6095313 49.6507787,43.7903125 C45.3504662,44.9710938 40.6032787,45.6310938 35.6240599,45.6310938 C30.6448412,45.6310938 25.9002318,44.97625 21.5939037,43.79375 C17.2875755,42.61125 13.434138,40.90625 10.2071849,38.8025 C6.98023179,36.69875 4.40296617,34.2091406 2.63866929,31.4488281 C0.874372419,28.6885156 -0.0597682062,25.6807031 0.00296616879,22.5250781 C0.0657005438,19.3694531 1.12015367,16.3960156 2.96351304,13.6898437 C4.80687242,10.9836719 7.43226304,8.56796875 10.6609349,6.538125 C13.8896068,4.50828125 17.6957787,2.87804687 21.9187474,1.7496875 C26.1417162,0.621328125 30.7651537,0 35.6240599,0 Z" opacity=".3" transform="translate(-336.000000, -2451.000000) translate(336.000000, 2451.000000) translate(8.805628, 35.622813)"/>
        <path fill="url(#yjkh_svg__c)" fill-rule="nonzero" stroke="url(#yjkh_svg__d)" d="M35.626638,-1.33226763e-15 C40.4829662,-1.33226763e-15 45.1132787,0.623046875 49.3310912,1.7496875 C53.5489037,2.87632813 57.3705443,4.5134375 60.5889037,6.53898438 C63.807263,8.56453125 66.4438255,10.9957031 68.282888,13.6898438 C70.1219505,16.3839844 71.1815599,19.3814844 71.2442943,22.5259375 C71.3070287,25.6703906 70.3668724,28.6988281 68.6085912,31.4488281 C66.8503099,34.1988281 64.2592943,36.7030469 61.0400755,38.8016406 C57.8208568,40.9002344 53.9536693,42.6121094 49.6533568,43.79375 C45.3530443,44.9753906 40.6058568,45.6285156 35.626638,45.6285156 C30.6474193,45.6285156 25.9028099,44.9736719 21.5964818,43.7911719 C17.2901537,42.6086719 13.4367162,40.9036719 10.209763,38.7990625 C6.98280992,36.6944531 4.40296617,34.21 2.63866929,31.4488281 C0.874372419,28.6876563 -0.0597682062,25.6798438 0.00296616879,22.5250781 C0.0657005438,19.3703125 1.12015367,16.3960156 2.96351304,13.6889844 C4.80687242,10.9819531 7.43226304,8.56796875 10.6609349,6.538125 C13.8896068,4.50828125 17.6957787,2.8771875 21.9187474,1.74882812 C26.1417162,0.62046875 30.7677318,-1.33226763e-15 35.626638,-1.33226763e-15 Z" opacity=".4" transform="translate(-336.000000, -2451.000000) translate(336.000000, 2451.000000) translate(8.803049, 29.824609)"/>
        <path fill="url(#yjkh_svg__a)" fill-rule="nonzero" stroke="url(#yjkh_svg__e)" d="M35.6240599,-1.33226763e-15 C40.480388,-1.33226763e-15 45.1107005,0.6221875 49.328513,1.7496875 C53.5463255,2.8771875 57.3662474,4.51515625 60.5846068,6.538125 C63.8029662,8.56109375 66.4412474,10.9914063 68.2803099,13.6898438 C70.1193724,16.3882813 71.1798412,19.3823438 71.2425755,22.5250781 C71.3053099,25.6678125 70.3642943,28.6971094 68.606013,31.4488281 C66.8477318,34.2005469 64.2567162,36.7030469 61.0374974,38.8042188 C57.8182787,40.9053906 53.9510912,42.6146875 49.6507787,43.7954688 C45.3504662,44.97625 40.6032787,45.6310938 35.6240599,45.6310938 C30.6448412,45.6310938 25.9002318,44.97625 21.5939037,43.79375 C17.2875755,42.61125 13.434138,40.90625 10.2071849,38.8025 C6.98023179,36.69875 4.40296617,34.21 2.63866929,31.4488281 C0.874372419,28.6876563 -0.0597682062,25.6807031 0.00296616879,22.5250781 C0.0657005438,19.3694531 1.12015367,16.3960156 2.96351304,13.6898438 C4.80687242,10.9836719 7.43226304,8.56796875 10.6609349,6.538125 C13.8896068,4.50828125 17.6957787,2.87804688 21.9187474,1.7496875 C26.1417162,0.621328125 30.7651537,-1.33226763e-15 35.6240599,-1.33226763e-15 Z" opacity=".5" transform="translate(-336.000000, -2451.000000) translate(336.000000, 2451.000000) translate(8.805628, 23.500469)"/>
        <path fill="url(#yjkh_svg__g)" fill-rule="nonzero" stroke="url(#yjkh_svg__f)" stroke-width="2" d="M44.53625,28.674604 C47.5925942,28.6655081 50.6371468,29.0540577 53.5932031,29.830625 C56.3844531,30.5765625 58.9058594,31.6576563 61.0336719,32.9957031 C63.1614844,34.33375 64.9008594,35.9382031 66.1203125,37.7222656 C67.3397656,39.5063281 66.9796875,41.48375 67.0226562,43.5617187 C67.065625,45.6396875 67.4970312,47.6403125 66.3351562,49.45875 C65.1732812,51.2771875 63.4614062,52.930625 61.3335937,54.3185156 C59.2057812,55.7064063 56.6508594,56.5726562 53.8089062,57.3538281 C47.7338724,58.9717529 41.3412057,58.9717529 35.2661719,57.3538281 C32.4242188,56.5726563 29.8735938,55.7089844 27.7414844,54.3185156 C25.609375,52.9280469 23.9052344,51.2832031 22.7390625,49.45875 C21.5728906,47.6342969 22.0103125,45.6465625 22.0515625,43.5617188 C22.0928125,41.476875 21.7344531,39.5114844 22.9539063,37.7222656 C24.1733594,35.9330469 25.9084375,34.3380469 28.0405469,32.9957031 C30.1726563,31.6533594 32.6897656,30.5765625 35.4810156,29.830625 C38.4365101,29.0541768 41.4804791,28.6656281 44.53625,28.674604 Z" transform="translate(-336.000000, -2451.000000) translate(336.000000, 2451.000000)"/>
        <g fill-rule="nonzero">
            <path fill="url(#yjkh_svg__h)" d="M26.9780033,0 C30.4789858,-0.0102382187 33.9664247,0.435224899 37.3523783,1.32534046 C40.550972,2.17955921 43.4401908,3.41791858 45.8782377,4.95190296 C48.3162845,6.48588733 50.3126127,8.32323108 51.7056595,10.3659655 C53.0987064,12.4086998 53.9005033,14.6765905 53.9477689,17.0570592 C53.9950345,19.437528 53.283472,21.7303405 51.9523002,23.8143248 C50.6211283,25.8983092 48.6583158,27.7923717 46.2211283,29.3822155 C43.7839408,30.9720592 40.8551908,32.2679967 37.5990189,33.1634655 C30.6381008,35.0185698 23.3127496,35.0185698 16.3518314,33.1634655 C13.0956595,32.2697155 10.1729252,30.9772155 7.72972203,29.3822155 C5.28651891,27.7872155 3.33401891,25.9043248 1.99855016,23.8143248 C0.663081408,21.7243248 -0.0450435916,19.4461217 0.00222203345,17.0570592 C0.0494876584,14.6679967 0.846987658,12.4164342 2.24433141,10.3668248 C3.64167516,8.31721546 5.62940953,6.48846546 8.07261266,4.95276233 C10.5158158,3.41705921 13.4007377,2.18041858 16.5976127,1.32619983 C19.9854897,0.435353006 23.4749751,-0.0104021009 26.9780033,0 Z" transform="translate(-336.000000, -2451.000000) translate(336.000000, 2451.000000) translate(17.451684, 7.151535)"/>
            <path fill="url(#yjkh_svg__i)" d="M53.9494877,17.4377623 C53.9494877,17.5907311 53.9417533,17.7436998 53.9331595,17.8958092 C53.9331595,17.9465123 53.9254252,17.9963561 53.9219877,18.0470592 C53.9151127,18.1484655 53.9082377,18.2498717 53.8987845,18.351278 C53.8927689,18.4105748 53.8850345,18.4698717 53.8781595,18.530028 C53.8687064,18.6211217 53.8583939,18.7122155 53.8455033,18.8033092 C53.8369095,18.866903 53.826597,18.9296373 53.8171439,18.9932311 C53.8033939,19.0791686 53.7905033,19.1651061 53.7750345,19.2510436 C53.7638627,19.3103405 53.7526908,19.368778 53.7406595,19.4280748 C53.7208939,19.5303405 53.7002689,19.6326061 53.6770658,19.7348717 C53.6641752,19.7933092 53.6512845,19.8517467 53.6366752,19.9067467 C53.6117533,20.0098717 53.585972,20.1129967 53.5576127,20.2161217 C53.5438627,20.2702623 53.5292533,20.324403 53.5146439,20.3785436 C53.4794095,20.5005748 53.4424564,20.6234655 53.4029252,20.7446373 C53.3926127,20.7772936 53.3840189,20.8099498 53.3737064,20.8417467 C53.3227168,20.9958613 53.2688627,21.14883 53.2121439,21.300653 C53.200972,21.3315905 53.187222,21.362528 53.1760502,21.3943248 C53.1233418,21.530679 53.0683418,21.6667467 53.0110502,21.802528 C52.9904252,21.8523717 52.9680814,21.9022155 52.946597,21.9511998 C52.8893054,22.0789602 52.8320137,22.2067207 52.774722,22.3344811 C52.7566752,22.3722936 52.7394877,22.4101061 52.7205814,22.4479186 C52.6415189,22.6094811 52.5590189,22.7696113 52.4730814,22.9283092 C52.4541752,22.9635436 52.4335502,22.998778 52.4137845,23.0340123 C52.3441752,23.1603405 52.272847,23.2858092 52.1980814,23.411278 C52.1731595,23.4542467 52.1473783,23.4972155 52.1207377,23.5393248 C52.0064408,23.727528 51.8869877,23.9148717 51.7623783,24.0996373 C51.6016752,24.3385436 51.434097,24.5757311 51.2570658,24.8086217 C51.2373002,24.834403 51.2158158,24.8584655 51.1969095,24.8842467 C51.035347,25.0962259 50.8686283,25.3030488 50.6967533,25.5047155 C50.6305814,25.5820592 50.560972,25.6576842 50.4939408,25.7341686 C50.3607377,25.886278 50.2249564,26.037528 50.0848783,26.1870592 C50.0169877,26.2592467 49.9473783,26.3297155 49.8777689,26.4010436 C49.7333939,26.5497155 49.5864408,26.6958092 49.4351908,26.8410436 C49.3630033,26.910653 49.2925345,26.979403 49.2186283,27.0472936 C49.0375866,27.2191686 48.8513887,27.3864602 48.6600345,27.5491686 C48.6170658,27.5861217 48.574097,27.6239342 48.5337064,27.660028 C48.299097,27.859403 48.0567533,28.0553405 47.8092533,28.2478405 C47.7405033,28.3011217 47.6691752,28.3535436 47.5995658,28.4059655 C47.4148002,28.5460436 47.2274564,28.6852623 47.0358158,28.821903 L46.765972,29.0109655 C46.5794877,29.1398717 46.3887064,29.268778 46.1962064,29.392528 C46.1102689,29.4483873 46.0243314,29.5042467 45.9383939,29.5592467 C45.6651127,29.7311217 45.3875345,29.9029967 45.1030814,30.0679967 C45.0979443,30.0716483 45.0924779,30.0748131 45.0867533,30.0774498 C44.7971439,30.2493248 44.4998002,30.4091686 44.1990189,30.5698717 C44.1062064,30.6188561 44.0116752,30.6669811 43.9171439,30.7151061 C43.7017272,30.8296894 43.483446,30.939403 43.2623002,31.0442467 C43.1557377,31.0966686 43.0491752,31.1473717 42.9408939,31.1980748 C42.7105814,31.3072155 42.475972,31.4129186 42.2396439,31.5177623 C42.1494095,31.5572936 42.0600345,31.5985436 41.9680814,31.6380748 C41.6420918,31.7772936 41.3118054,31.9125019 40.977222,32.0436998 L40.7993314,32.1107311 C40.5191752,32.2184394 40.2355814,32.3227102 39.9485502,32.4235436 C39.8351127,32.4639342 39.7199564,32.5017467 39.6048002,32.541278 C39.3613106,32.623778 39.1158158,32.7042727 38.8683158,32.7827623 C38.749722,32.8197155 38.6311283,32.857528 38.5108158,32.8936217 C38.2607377,32.9692467 38.007222,33.0414342 37.7537064,33.1127623 C37.6282377,33.1479967 37.5044877,33.1840905 37.3781595,33.2184655 C37.0344095,33.310705 36.6860762,33.3986477 36.3331595,33.4822936 L36.233472,33.5063561 C35.8473262,33.5968769 35.4574564,33.6813821 35.0638627,33.7598717 C34.9401127,33.7847936 34.8155033,33.806278 34.6908939,33.8303405 C34.4073002,33.8844811 34.1219877,33.9377623 33.8315189,33.9858873 L33.5479252,34.0322936 C33.2041752,34.0895852 32.8567012,34.1408613 32.5055033,34.1861217 L32.3731595,34.2041686 C31.9873002,34.2548717 31.599722,34.2978405 31.207847,34.3373717 C31.1090189,34.3476842 31.0110502,34.3571373 30.912222,34.3657311 C30.5229252,34.4026842 30.1319095,34.4361998 29.7374564,34.4619811 L29.6867533,34.4619811 C29.2914408,34.486903 28.8918314,34.5058092 28.4905033,34.5204186 L28.2782377,34.528153 C27.8442533,34.5410436 27.4085502,34.548778 26.9702689,34.548778 C26.5170918,34.548778 26.0673522,34.5416165 25.6210502,34.5272936 L25.5686283,34.5272936 C25.1355033,34.5135436 24.7058158,34.4926321 24.2795658,34.4645592 L24.1867533,34.459403 C23.7857116,34.4324759 23.387821,34.4001061 22.9930814,34.3622936 L22.7627689,34.3399498 C22.3766231,34.3009915 21.9939147,34.2574498 21.6146439,34.2093248 L21.410972,34.1818248 C21.0546179,34.1336998 20.6999825,34.081278 20.3470658,34.0245592 L20.1975345,34.0004967 C19.8202689,33.9386217 19.4464408,33.8698717 19.080347,33.7968248 L18.8139408,33.7461217 C18.4564408,33.6739342 18.1006595,33.5974498 17.7500345,33.5158092 L17.6950345,33.503778 C17.3169095,33.4178405 16.9448002,33.3198717 16.577847,33.2210436 C16.4661283,33.1918248 16.3569877,33.160028 16.2469877,33.1290905 C15.9891752,33.056903 15.7313627,32.9821373 15.4735502,32.905653 L15.0980033,32.7896373 C14.8496439,32.7114342 14.604722,32.630653 14.3615189,32.548153 L14.0246439,32.4338561 C13.6952168,32.3192727 13.3698002,32.1995332 13.0483939,32.0746373 C12.9908158,32.0522936 12.9349564,32.0290905 12.8765189,32.0058873 C12.5980814,31.8970332 12.3233679,31.7847415 12.0523783,31.6690123 L11.8091752,31.5641686 C11.4946439,31.4266686 11.1835502,31.2865905 10.8793314,31.1413561 L10.7676127,31.0863561 C10.4954772,30.9551582 10.2273522,30.8205227 9.96323766,30.6824498 L9.73378453,30.5621373 C9.43987828,30.4057311 9.15026891,30.2467467 8.86753453,30.0826061 L8.82972203,30.0602623 C8.55901891,29.9021373 8.29433141,29.7388561 8.03308141,29.5738561 C7.96261266,29.530028 7.89214391,29.4879186 7.82253453,29.4397936 C7.56815953,29.2753665 7.31865433,29.1080748 7.07401891,28.9379186 C7.05940953,28.9276061 7.04308141,28.918153 7.02847203,28.9069811 C6.77065953,28.7273717 6.52401891,28.5426061 6.27995641,28.3561217 L6.09261266,28.210028 C5.87948766,28.0433092 5.67094599,27.8742988 5.46698766,27.7029967 C5.43690953,27.6763561 5.40425328,27.6514342 5.37417516,27.625653 C5.14730016,27.4314342 4.92815953,27.233778 4.71417516,27.0335436 C4.65917516,26.9828405 4.60589391,26.931278 4.55261266,26.8797155 C4.37328974,26.7078405 4.19855016,26.5342467 4.02839391,26.3589342 C3.99144078,26.3211217 3.95276891,26.2833092 3.91667516,26.2454967 C3.72016474,26.0381009 3.53052933,25.8281269 3.34776891,25.6155748 C3.30394078,25.5648717 3.26183141,25.5124498 3.21800328,25.4617467 C3.06675328,25.281278 2.91980016,25.0999498 2.77886266,24.916903 C2.74276891,24.8704967 2.70581578,24.8249498 2.67058141,24.7776842 C2.50558141,24.55883 2.34774287,24.3373977 2.19706578,24.1133873 C2.09823766,23.9672936 2.00198766,23.8211998 1.91003453,23.6733873 L1.89542516,23.6493248 C1.80261266,23.4997936 1.71323766,23.3476842 1.62644078,23.1955748 C1.59980016,23.1491686 1.57401891,23.1027623 1.54823766,23.0554967 C1.47948766,22.9317467 1.41331578,22.8077102 1.34972203,22.6833873 L1.28269078,22.5570592 C1.20190953,22.3954967 1.12370641,22.2322155 1.04980016,22.0680748 C1.03690953,22.0388561 1.02487828,22.0096373 1.01198766,21.9821373 C0.951831408,21.8446373 0.893393908,21.706278 0.840112658,21.5670592 C0.820347033,21.5180748 0.800581408,21.4682311 0.781675158,21.4183873 C0.730112658,21.2851842 0.681987658,21.1511217 0.635581408,21.0161998 C0.622690783,20.9801061 0.608940783,20.943153 0.596909533,20.9070592 C0.541050158,20.7351842 0.488628283,20.5701842 0.440503283,20.400028 C0.428472033,20.3596373 0.419018908,20.3192467 0.407847033,20.2797155 C0.370893908,20.145653 0.336518908,20.0107311 0.304722033,19.8758092 C0.292690783,19.8242467 0.280659533,19.7735436 0.269487658,19.7219811 C0.236831408,19.5735957 0.206753283,19.4240644 0.179253283,19.2733873 C0.179253283,19.2484655 0.168940783,19.2226842 0.164643908,19.1977623 C0.134565783,19.0258873 0.109643908,18.8497155 0.0881595334,18.674403 C0.0821439084,18.6271373 0.0769876584,18.5790123 0.0718314084,18.5317467 C0.0572220334,18.3976842 0.0443314084,18.2627623 0.0340189084,18.1278405 C0.0340189084,18.076278 0.0262845334,18.0247155 0.0228470334,17.973153 C0.0116751584,17.7961217 0.00394078345,17.6173717 0.00136265845,17.4386217 L0.141440783,27.4933092 C0.141440783,27.6729186 0.151753283,27.8516686 0.162925158,28.0295592 C0.162925158,28.0811217 0.169800158,28.1326842 0.174097033,28.1842467 C0.184409533,28.3191686 0.196440783,28.4540905 0.211909533,28.588153 C0.217065783,28.636278 0.221362658,28.684403 0.227378283,28.7316686 C0.248862658,28.9035436 0.273784533,29.0822936 0.303862658,29.2558873 C0.303862658,29.2816686 0.314175158,29.3065905 0.318472033,29.3315123 C0.345112658,29.481903 0.375190783,29.6322936 0.404409533,29.7809655 C0.415581408,29.832528 0.427612658,29.8840905 0.439643908,29.935653 C0.471440783,30.0714342 0.505815783,30.2054967 0.541909533,30.3404186 C0.553081408,30.3808092 0.563393908,30.4211998 0.574565783,30.4615905 C0.622690783,30.6334655 0.674539742,30.8024759 0.730112658,30.9686217 L0.768784533,31.0786217 C0.815190783,31.2135436 0.863315783,31.3484655 0.914018908,31.4816686 C0.932925158,31.5315123 0.952690783,31.5813561 0.972456408,31.6311998 C1.02974808,31.7704186 1.08703974,31.908778 1.14433141,32.046278 C1.15464391,32.0686217 1.16323766,32.0918248 1.17269078,32.115028 L1.18214391,32.1339342 C1.25519078,32.2980748 1.33339391,32.4613561 1.41417516,32.623778 C1.43480016,32.6658873 1.45714391,32.7097155 1.47862828,32.7501061 C1.54222203,32.8750019 1.60810745,32.9993248 1.67628453,33.1230748 C1.70206578,33.1703405 1.72784703,33.2176061 1.75448766,33.2640123 C1.84042516,33.4161217 1.92636266,33.5673717 2.02089391,33.716903 L2.03636266,33.7426842 C2.11714391,33.8741686 2.20050328,34.0004967 2.28644078,34.1336998 C2.29761266,34.150028 2.31050328,34.1663561 2.32081578,34.1826842 C2.47149287,34.4072675 2.62875849,34.6295592 2.79261266,34.8495592 C2.82784703,34.8959655 2.86480016,34.9423717 2.90089391,34.988778 C3.04097203,35.1726842 3.18706578,35.3540123 3.33745641,35.5336217 C3.38042516,35.5860436 3.42339391,35.6376061 3.46722203,35.6891686 C3.6345137,35.885679 3.80782099,36.0801842 3.98714391,36.2726842 C4.00175328,36.288153 4.01808141,36.3036217 4.03269078,36.3199498 C4.06878453,36.3577623 4.10659703,36.3955748 4.14355016,36.4333873 C4.31198766,36.6098457 4.48586787,36.7840123 4.66519078,36.9558873 C4.71847203,37.0074498 4.77175328,37.0590123 4.82589391,37.1097155 C5.03901891,37.3099498 5.25558141,37.5084655 5.48245641,37.7026842 L5.57526891,37.780028 C5.77722203,37.951903 5.98519078,38.123778 6.19659703,38.2879186 L6.38394078,38.4348717 C6.62714391,38.6222155 6.87378453,38.8069811 7.12815953,38.9865905 L7.17542516,39.0192467 C7.41690953,39.1911217 7.66612828,39.3569811 7.91792516,39.5211217 C7.95315953,39.5434655 7.98581578,39.567528 8.02105016,39.5898717 C8.05628453,39.6122155 8.09237828,39.6336998 8.12761266,39.6551842 C8.19550328,39.6990123 8.26081578,39.7411217 8.32956578,39.7858092 C8.52378453,39.9072675 8.72115433,40.0261477 8.92167516,40.1424498 L8.95776891,40.1647936 C9.23878453,40.3289342 9.52753453,40.488778 9.81714391,40.6451842 L10.0448783,40.7663561 C10.307847,40.9038561 10.5733939,41.038778 10.844097,41.1702623 L10.9566752,41.2261217 C11.2600345,41.3722155 11.5694095,41.5122936 11.8813627,41.6497936 L12.1237064,41.753778 C12.3935502,41.8683613 12.6668314,41.9829446 12.9435502,42.097528 L13.1154252,42.1654186 C13.3887064,42.2719811 13.6648522,42.375679 13.9438627,42.4765123 L14.0873783,42.5203405 C14.1982377,42.5598717 14.3108158,42.5976842 14.4225345,42.6354967 C14.5686283,42.6853405 14.7121439,42.736903 14.859097,42.785028 C14.9570658,42.8168248 15.0567533,42.8460436 15.154722,42.8769811 L15.5285502,42.9938561 C15.6144877,43.0204967 15.704722,43.0497155 15.7949564,43.0797936 C15.9608158,43.128778 16.1292533,43.1743248 16.2968314,43.2207311 C16.3767533,43.2430748 16.454097,43.2679967 16.5340189,43.2903405 L16.6268314,43.3135436 C16.6680814,43.3247155 16.7127689,43.3376061 16.749722,43.3479186 C17.0711283,43.4338561 17.395972,43.5154967 17.7242533,43.5928405 L17.7405814,43.5971373 L17.7964408,43.6091686 C18.0396439,43.6667467 18.2837064,43.7217467 18.530347,43.7741686 C18.6377689,43.7973717 18.7460502,43.8179967 18.853472,43.8403405 L19.1181595,43.8936217 C19.1946439,43.9082311 19.2711283,43.9254186 19.348472,43.940028 C19.6226127,43.9924498 19.8993314,44.0414342 20.1769095,44.0886998 L20.2344877,44.0972936 L20.3814408,44.1204967 C20.592847,44.1548717 20.8033939,44.1892467 21.0165189,44.2210436 L21.4410502,44.2786217 L21.6430033,44.3061217 L21.7873783,44.3258873 C22.0451908,44.3585436 22.304722,44.3871894 22.565972,44.4118248 L22.785972,44.4333092 L23.0145658,44.455653 L23.3523002,44.4883092 C23.6152689,44.510653 23.87967,44.5309915 24.1455033,44.5493248 L24.202222,44.5493248 L24.2950345,44.5544811 C24.477222,44.5665123 24.6611283,44.5776842 24.8450345,44.5871373 C25.0787845,44.5991686 25.3133939,44.6089082 25.5488627,44.6163561 L25.5780814,44.6163561 L25.6287845,44.6163561 C25.838472,44.6232311 26.0481595,44.6283873 26.257847,44.6318248 C26.4950345,44.6358352 26.7330814,44.6378405 26.9719877,44.6378405 L27.2976908,44.6378405 C27.5726908,44.6378405 27.845972,44.6309655 28.1192533,44.6232311 C28.1708158,44.6232311 28.2215189,44.6232311 28.2730814,44.6180748 L28.4844877,44.6103405 C28.6348783,44.6043248 28.7844095,44.600028 28.9339408,44.593153 C29.1823002,44.5819811 29.4289408,44.5673717 29.674722,44.551903 L29.7245658,44.551903 L29.7426127,44.551903 C30.0107377,44.5347155 30.2777168,44.5143769 30.5435502,44.4908873 C30.6612845,44.4814342 30.7773002,44.4685436 30.8941752,44.4573717 C30.9921439,44.4479186 31.0892533,44.4393248 31.1863627,44.4290123 L31.4287064,44.4058092 C31.7226127,44.3740123 32.0139408,44.3396373 32.3044095,44.3018248 L32.3465189,44.2958092 L32.4771439,44.276903 C32.7083158,44.2459655 32.9394877,44.2141686 33.1689408,44.1789342 C33.2858158,44.1617467 33.4001127,44.1411217 33.5126908,44.1222155 L33.792847,44.0766686 L34.0205814,44.0397155 C34.2302689,44.0027623 34.4365189,43.960653 34.6444877,43.9202623 C34.7682377,43.8970592 34.8937064,43.8747155 35.016597,43.8497936 L35.1025345,43.8334655 C35.4669095,43.7601321 35.8238366,43.681929 36.1733158,43.5988561 L36.1844877,43.5988561 L36.2807377,43.5747936 C36.5961283,43.4991686 36.9089408,43.4218248 37.2174564,43.3393248 L37.3231595,43.3101061 C37.3523783,43.3015123 37.381597,43.2954967 37.409097,43.2877623 C37.505347,43.2611217 37.5990189,43.2310436 37.6944095,43.2018248 C37.8757377,43.1502623 38.0587845,43.101278 38.2375345,43.0479967 C38.3088627,43.0265123 38.3776127,43.0033092 38.447222,42.9818248 C38.5675345,42.9457311 38.6852689,42.9079186 38.8038627,42.8701061 C39.0496439,42.791903 39.2937064,42.7119811 39.5351908,42.6286217 C39.6494877,42.5899498 39.7637845,42.551278 39.8789408,42.5108873 C40.1653991,42.4094811 40.4469877,42.3052102 40.7237064,42.1980748 L40.9024564,42.1301842 C41.2043835,42.0121634 41.5023002,41.8901321 41.7962064,41.7640905 L41.8881595,41.7236998 C41.9792533,41.6841686 42.0686283,41.6429186 42.1588627,41.602528 C42.393472,41.4985436 42.6263627,41.3919811 42.8549564,41.2836998 L43.1763627,41.1290123 C43.3955033,41.0207311 43.6129252,40.9107311 43.8269095,40.7990123 C43.9205814,40.7508873 44.0142533,40.7027623 44.1070658,40.6529186 C44.4061283,40.4930748 44.7008939,40.3297936 44.9887845,40.1613561 L44.9887845,40.1613561 L45.0016752,40.1527623 C45.2852689,39.986903 45.562847,39.815028 45.8352689,39.6371373 C45.8627689,39.6190905 45.8919877,39.6027623 45.9212064,39.5847155 C45.9787845,39.5477623 46.0329252,39.5082311 46.0930814,39.4704186 C46.2855814,39.3449498 46.4749304,39.2171894 46.6611283,39.0871373 C46.7513627,39.024403 46.8407377,38.9616686 46.9292533,38.8980748 C47.1200345,38.7614342 47.3065189,38.6222155 47.4904252,38.481278 C47.5600345,38.4288561 47.6305033,38.3764342 47.6983939,38.323153 C47.721597,38.3051061 47.7456595,38.288778 47.7680033,38.2707311 C47.990295,38.0942727 48.2074304,37.9155227 48.4194095,37.7344811 C48.4623783,37.697528 48.505347,37.6597155 48.5448783,37.6227623 C48.7350866,37.4577623 48.9204252,37.2901842 49.1008939,37.120028 C49.1739408,37.0521373 49.2444095,36.982528 49.316597,36.913778 C49.4661283,36.7676842 49.6130814,36.6207311 49.7574564,36.4729186 C49.8262064,36.4015905 49.8949564,36.3302623 49.962847,36.2580748 C50.0015189,36.2168248 50.0427689,36.1764342 50.0805814,36.1343248 C50.1802689,36.0260436 50.2739408,35.9143248 50.3701908,35.8043248 C50.437222,35.7269811 50.505972,35.6513561 50.5712845,35.5740123 C50.588472,35.5533873 50.6082377,35.5327623 50.6254252,35.511278 C50.7775345,35.3290905 50.9227689,35.1434655 51.0645658,34.9578405 C51.0843314,34.9320592 51.1058158,34.9071373 51.1255814,34.8813561 L51.131597,34.8736217 C51.2931595,34.658205 51.4481335,34.4404967 51.5965189,34.2204967 C51.6076908,34.2041686 51.6171439,34.1869811 51.6283158,34.170653 C51.6394877,34.1543248 51.6489408,34.1422936 51.6583939,34.1285436 C51.7718314,33.9566686 51.8792533,33.7847936 51.9849564,33.6129186 C51.9961283,33.5940123 52.0090189,33.5759655 52.0201908,33.5579186 C52.0313627,33.5398717 52.0476908,33.5080748 52.0623002,33.483153 C52.1362064,33.3582571 52.2075345,33.2327884 52.2762845,33.1067467 C52.2908939,33.0801061 52.307222,33.0534655 52.3218314,33.0268248 C52.3269877,33.0182311 52.3304252,33.008778 52.3355814,33.0001842 C52.4215189,32.8403405 52.5031595,32.6796373 52.582222,32.5180748 C52.582222,32.5086217 52.5925345,32.4983092 52.5968314,32.4888561 C52.6105814,32.4613561 52.6217533,32.4329967 52.6346439,32.4029186 C52.6953731,32.2757311 52.7526647,32.1476842 52.8065189,32.018778 C52.8176908,31.9921373 52.8305814,31.9663561 52.8417533,31.9405748 C52.8529252,31.9147936 52.8606595,31.8924498 52.870972,31.8692467 C52.9276908,31.7334655 52.9826908,31.5968248 53.0342533,31.4601842 L53.063472,31.3879967 C53.0656644,31.3804208 53.068246,31.372963 53.0712064,31.365653 C53.1270658,31.2135436 53.1812064,31.0605748 53.2310502,30.9067467 L53.2362064,30.8921373 C53.2448002,30.8646373 53.2525345,30.8371373 53.2611283,30.8061998 C53.2998002,30.6841686 53.3367533,30.5621373 53.3711283,30.4392467 L53.386597,30.389403 C53.3969095,30.3515905 53.4046439,30.3146373 53.4149564,30.2768248 C53.4424564,30.1736998 53.469097,30.0705748 53.4931595,29.9674498 C53.5000345,29.9390905 53.5077689,29.9115905 53.5146439,29.8815123 C53.5215189,29.8514342 53.5266752,29.818778 53.5335502,29.7878405 C53.5558939,29.6855748 53.5773783,29.5833092 53.5971439,29.4810436 C53.6040189,29.4449498 53.6126127,29.4079967 53.6194877,29.371903 C53.6194877,29.3486998 53.6263627,29.3263561 53.6306595,29.303153 C53.6461283,29.2172155 53.6590189,29.131278 53.6727689,29.0453405 C53.6796439,28.9997936 53.6882377,28.9542467 53.6951127,28.9078405 C53.6951127,28.890653 53.6951127,28.8734655 53.7011283,28.856278 C53.7131595,28.7651842 53.723472,28.6732311 53.7337845,28.5821373 C53.7389408,28.5340123 53.7466752,28.4858873 53.750972,28.4377623 L53.750972,28.402528 C53.7604252,28.3011217 53.7681595,28.1997155 53.7750345,28.0974498 C53.7750345,28.0527623 53.7827689,28.0115123 53.785347,27.9642467 L53.785347,27.9461998 C53.7939408,27.7940905 53.799097,27.6411217 53.8016752,27.4872936 L53.9494877,17.4377623 Z" transform="translate(-336.000000, -2451.000000) translate(336.000000, 2451.000000) translate(17.451684, 7.151535)"/>
            <path fill="url(#yjkh_svg__j)" d="M52.3467533,23.0004967 C51.0112845,25.0904967 49.0536283,26.9785436 46.6155814,28.5683873 C44.1775345,30.1582311 41.2496439,31.4541686 37.993472,32.3496373 C31.0325539,34.2047417 23.7072027,34.2047417 16.7462845,32.3496373 C13.4901127,31.4558873 10.5673783,30.1633873 8.12417516,28.5683873 C5.68097203,26.9733873 3.72847203,25.0904967 2.39300328,23.0004967 C1.05753453,20.9104967 0.350268908,18.6297155 0.397534533,16.2432311 C0.418406944,15.2265715 0.575348965,14.2172869 0.864175158,13.2422936 C0.408781678,14.4559594 0.16181325,15.7378708 0.133706408,17.0338561 C0.0864407834,19.4229186 0.798003283,21.7071373 2.13003453,23.7911217 C3.46206578,25.8751061 5.42315953,27.7691686 7.86120641,29.3590123 C10.2992533,30.9488561 13.2271439,32.2447936 16.4833158,33.1402623 C23.4439364,34.995414 30.7690233,34.995414 37.7296439,33.1402623 C40.9858158,32.2465123 43.9094095,30.9540123 46.3526127,29.3590123 C48.7958158,27.7640123 50.7474564,25.8811217 52.0829252,23.7911217 C52.7471266,22.7625652 53.2624185,21.6451832 53.613472,20.4722155 C53.2826323,21.3577503 52.8579748,22.2053367 52.3467533,23.0004967 Z" transform="translate(-336.000000, -2451.000000) translate(336.000000, 2451.000000) translate(17.451684, 7.151535)"/>
        </g>
        <path fill="#C88950" fill-rule="nonzero" d="M39.4255469,23.6775 L39.4358594,20.4264844 L42.810625,20.4264844 L42.810625,19.1503125 L26.1129688,19.1503125 L26.0966406,20.4264844 L29.7,20.4264844 L29.6673438,23.6775 L25.1324219,23.6775 L25.1152344,24.9665625 L29.6535938,24.9665625 C29.6779039,25.4306683 29.602294,25.8945846 29.431875,26.3269531 C29.2527967,26.76581 28.9844363,27.1626439 28.6438281,27.4922656 C28.2417885,27.880154 27.7848639,28.2067769 27.2877344,28.4616406 C26.6723851,28.7800025 26.0280913,29.0389862 25.3635938,29.2350781 C25.5552344,29.3596875 25.733125,29.4757031 25.8955469,29.583125 C26.0579688,29.6905469 26.2066406,29.7910938 26.3398438,29.8821875 C26.4730469,29.9732812 26.5933594,30.0540625 26.6982031,30.1314062 C26.8030469,30.20875 26.895,30.2723437 26.9714844,30.3307812 C27.7144636,30.0728895 28.4296244,29.7409329 29.1061719,29.3399219 C29.6686663,29.0084148 30.1794281,28.5960992 30.6221094,28.1161719 C31.4122984,27.2618865 31.8370068,26.1324151 31.8054688,24.9691406 L37.2676563,24.9691406 L37.2435938,30.1305469 L39.4057813,30.1305469 L39.4221094,24.9691406 L43.5763281,24.9691406 L43.5763281,23.6800781 L39.4255469,23.6775 Z M37.2771094,23.6775 L31.8200781,23.6775 L31.8484375,20.4264844 L37.2925781,20.4264844 L37.2771094,23.6775 Z" transform="translate(-336.000000, -2451.000000) translate(336.000000, 2451.000000)"/>
        <path fill="url(#yjkh_svg__k)" fill-rule="nonzero" d="M57.0925781,19.8678906 L63.2250781,19.8678906 L63.305,25.7365625 L61.1488281,25.7365625 L61.1419531,25.1427344 L49.9821094,25.1427344 C49.9730631,25.6018767 49.9136979,26.0586428 49.8050781,26.5048438 C49.6976918,26.9430216 49.5411525,27.3676668 49.3384375,27.7707031 C49.1276057,28.1858694 48.873542,28.5776229 48.5804688,28.9394531 C48.2639658,29.3277846 47.9127493,29.68648 47.5311719,30.0110938 C47.3764844,29.9274479 47.2252344,29.8440885 47.0774219,29.7610156 C46.9296094,29.6779427 46.784375,29.5948698 46.6417188,29.5117969 C46.5002083,29.428151 46.361849,29.3450781 46.2266406,29.2625781 C46.0917188,29.1766406 45.9602344,29.0967188 45.8321875,29.0133594 C46.1985534,28.7381597 46.5225519,28.4106867 46.7938281,28.0414063 C47.0679531,27.6652719 47.2878148,27.2524527 47.4469531,26.8150781 C47.6189948,26.3378177 47.7343689,25.8419973 47.7907031,25.3378125 C47.8544384,24.764267 47.8662311,24.1861363 47.8259375,23.6104688 L47.8173438,19.8678906 L54.7164063,19.8678906 L54.6304688,19.7295313 C54.5978125,19.6788281 54.5625781,19.6221094 54.5239063,19.5576563 C54.4852344,19.4932031 54.4422656,19.4296094 54.3975781,19.3582813 C54.3528906,19.2869531 54.3039063,19.2104688 54.2532031,19.1288281 C54.18875,19.0471875 54.1285938,18.9707031 54.0735938,18.8985156 L53.9240625,18.7 C53.8785156,18.638125 53.838125,18.5822656 53.8028906,18.528125 C53.7676563,18.4739844 53.7375781,18.4310156 53.7117969,18.3897656 L56.0071875,18.1448438 C56.0856771,18.2840625 56.1667448,18.4241406 56.2503906,18.5650781 C56.3340365,18.7060156 56.4214063,18.8492448 56.5125,18.9947656 C56.6035938,19.1379948 56.6975521,19.281224 56.794375,19.4244531 C56.890625,19.5739844 56.9885938,19.7200781 57.0925781,19.8678906 Z M61.1264844,23.8571094 L61.0938281,21.1457812 L49.9666406,21.1457812 L49.9760938,23.6104687 L49.9760938,23.8571094 L61.1264844,23.8571094" transform="translate(-336.000000, -2451.000000) translate(336.000000, 2451.000000)"/>
        <path fill="#C88950" fill-rule="nonzero" d="M57.0925781,19.8678906 L63.2250781,19.8678906 L63.305,25.7365625 L61.1488281,25.7365625 L61.1419531,25.1427344 L49.9821094,25.1427344 C49.9730631,25.6018767 49.9136979,26.0586428 49.8050781,26.5048438 C49.6976918,26.9430216 49.5411525,27.3676668 49.3384375,27.7707031 C49.1276057,28.1858694 48.873542,28.5776229 48.5804688,28.9394531 C48.2639658,29.3277846 47.9127493,29.68648 47.5311719,30.0110938 C47.3764844,29.9274479 47.2252344,29.8440885 47.0774219,29.7610156 C46.9296094,29.6779427 46.784375,29.5948698 46.6417188,29.5117969 C46.5002083,29.428151 46.361849,29.3450781 46.2266406,29.2625781 C46.0917188,29.1766406 45.9602344,29.0967188 45.8321875,29.0133594 C46.1985534,28.7381597 46.5225519,28.4106867 46.7938281,28.0414063 C47.0679531,27.6652719 47.2878148,27.2524527 47.4469531,26.8150781 C47.6189948,26.3378177 47.7343689,25.8419973 47.7907031,25.3378125 C47.8544384,24.764267 47.8662311,24.1861363 47.8259375,23.6104688 L47.8173438,19.8678906 L54.7164063,19.8678906 L54.6304688,19.7295313 C54.5978125,19.6788281 54.5625781,19.6221094 54.5239063,19.5576563 C54.4852344,19.4932031 54.4422656,19.4296094 54.3975781,19.3582813 C54.3528906,19.2869531 54.3039063,19.2104688 54.2532031,19.1288281 C54.18875,19.0471875 54.1285938,18.9707031 54.0735938,18.8985156 L53.9240625,18.7 C53.8785156,18.638125 53.838125,18.5822656 53.8028906,18.528125 C53.7676563,18.4739844 53.7375781,18.4310156 53.7117969,18.3897656 L56.0071875,18.1448438 C56.0856771,18.2840625 56.1667448,18.4241406 56.2503906,18.5650781 C56.3340365,18.7060156 56.4214063,18.8492448 56.5125,18.9947656 C56.6035938,19.1379948 56.6975521,19.281224 56.794375,19.4244531 C56.890625,19.5739844 56.9885938,19.7200781 57.0925781,19.8678906 Z M61.1264844,23.8571094 L61.0938281,21.1457812 L49.9666406,21.1457812 L49.9760938,23.6104687 L49.9760938,23.8571094 L61.1264844,23.8571094" transform="translate(-336.000000, -2451.000000) translate(336.000000, 2451.000000)"/>
    </g>
</svg>
