<svg xmlns="http://www.w3.org/2000/svg" width="88" height="88" viewBox="0 0 88 88">
    <defs>
        <linearGradient id="jjbmd_svg__a" x1="49.961%" x2="49.961%" y1="-.006%" y2="99.998%">
            <stop offset="0%" stop-color="#F8DBBE"/>
            <stop offset="42%" stop-color="#F9DDC1"/>
            <stop offset="64%" stop-color="#EDC7A2"/>
            <stop offset="86%" stop-color="#E3B589"/>
            <stop offset="100%" stop-color="#DFAF80"/>
        </linearGradient>
        <linearGradient id="jjbmd_svg__b" x1="50%" x2="50%" y1="-.005%" y2="100.005%">
            <stop offset="0%" stop-color="#F0CDAA"/>
            <stop offset="6%" stop-color="#EFCCA8"/>
            <stop offset="43%" stop-color="#EECAA6"/>
            <stop offset="56%" stop-color="#E9C29A"/>
            <stop offset="80%" stop-color="#DCAB79"/>
            <stop offset="100%" stop-color="#CF9659"/>
        </linearGradient>
        <linearGradient id="jjbmd_svg__c" x1="-.008%" x2="100.074%" y1="49.967%" y2="49.967%">
            <stop offset="0%" stop-color="#FFE5CD"/>
            <stop offset="9%" stop-color="#F9D8BB"/>
            <stop offset="21%" stop-color="#F3CBA8"/>
            <stop offset="34%" stop-color="#EFC39D"/>
            <stop offset="48%" stop-color="#EEC099"/>
            <stop offset="100%" stop-color="#F9DDC1"/>
        </linearGradient>
        <linearGradient id="jjbmd_svg__d" x1="50.004%" x2="50.004%" y1="-.004%" y2="100%">
            <stop offset="0%" stop-color="#FFF"/>
            <stop offset="18%" stop-color="#FFFDFC"/>
            <stop offset="34%" stop-color="#FEF7F1"/>
            <stop offset="49%" stop-color="#FCEEE0"/>
            <stop offset="62%" stop-color="#FAE0C7"/>
            <stop offset="65%" stop-color="#F9DDC1"/>
            <stop offset="78%" stop-color="#F7D9BC"/>
            <stop offset="93%" stop-color="#F2CFAD"/>
            <stop offset="100%" stop-color="#EEC8A3"/>
        </linearGradient>
        <linearGradient id="jjbmd_svg__e" x1="-.88%" x2="99.475%" y1="50.964%" y2="50.559%">
            <stop offset="0%" stop-color="#484A50"/>
            <stop offset="3%" stop-color="#54565B"/>
            <stop offset="10%" stop-color="#727378"/>
            <stop offset="18%" stop-color="#898B8F"/>
            <stop offset="27%" stop-color="#9A9B9F"/>
            <stop offset="37%" stop-color="#A4A5A8"/>
            <stop offset="49%" stop-color="#A7A8AB"/>
            <stop offset="59%" stop-color="#A3A4A7"/>
            <stop offset="70%" stop-color="#97989B"/>
            <stop offset="80%" stop-color="#828388"/>
            <stop offset="91%" stop-color="#66676C"/>
            <stop offset="100%" stop-color="#46484E"/>
        </linearGradient>
        <linearGradient id="jjbmd_svg__f" x1="23.857%" x2="124.119%" y1="136.183%" y2="136.183%">
            <stop offset="0%" stop-color="#484A50"/>
            <stop offset="3%" stop-color="#54565B"/>
            <stop offset="10%" stop-color="#727378"/>
            <stop offset="18%" stop-color="#898B8F"/>
            <stop offset="27%" stop-color="#9A9B9F"/>
            <stop offset="37%" stop-color="#A4A5A8"/>
            <stop offset="49%" stop-color="#A7A8AB"/>
            <stop offset="59%" stop-color="#A3A4A7"/>
            <stop offset="70%" stop-color="#97989B"/>
            <stop offset="80%" stop-color="#828388"/>
            <stop offset="91%" stop-color="#66676C"/>
            <stop offset="100%" stop-color="#46484E"/>
        </linearGradient>
        <linearGradient id="jjbmd_svg__g" x1="35.382%" x2="135.738%" y1="108.146%" y2="108.146%">
            <stop offset="0%" stop-color="#484A50"/>
            <stop offset="3%" stop-color="#54565B"/>
            <stop offset="10%" stop-color="#727378"/>
            <stop offset="18%" stop-color="#898B8F"/>
            <stop offset="27%" stop-color="#9A9B9F"/>
            <stop offset="37%" stop-color="#A4A5A8"/>
            <stop offset="49%" stop-color="#A7A8AB"/>
            <stop offset="59%" stop-color="#A3A4A7"/>
            <stop offset="70%" stop-color="#97989B"/>
            <stop offset="80%" stop-color="#828388"/>
            <stop offset="91%" stop-color="#66676C"/>
            <stop offset="100%" stop-color="#46484E"/>
        </linearGradient>
        <linearGradient id="jjbmd_svg__h" x1="15.302%" x2="115.705%" y1="124.892%" y2="124.892%">
            <stop offset="0%" stop-color="#484A50"/>
            <stop offset="3%" stop-color="#54565B"/>
            <stop offset="10%" stop-color="#727378"/>
            <stop offset="18%" stop-color="#898B8F"/>
            <stop offset="27%" stop-color="#9A9B9F"/>
            <stop offset="37%" stop-color="#A4A5A8"/>
            <stop offset="49%" stop-color="#A7A8AB"/>
            <stop offset="59%" stop-color="#A3A4A7"/>
            <stop offset="70%" stop-color="#97989B"/>
            <stop offset="80%" stop-color="#828388"/>
            <stop offset="91%" stop-color="#66676C"/>
            <stop offset="100%" stop-color="#46484E"/>
        </linearGradient>
        <linearGradient id="jjbmd_svg__i" x1="29.919%" x2="129.669%" y1="81.785%" y2="81.785%">
            <stop offset="0%" stop-color="#484A50"/>
            <stop offset="3%" stop-color="#54565B"/>
            <stop offset="10%" stop-color="#727378"/>
            <stop offset="18%" stop-color="#898B8F"/>
            <stop offset="27%" stop-color="#9A9B9F"/>
            <stop offset="37%" stop-color="#A4A5A8"/>
            <stop offset="49%" stop-color="#A7A8AB"/>
            <stop offset="59%" stop-color="#A3A4A7"/>
            <stop offset="70%" stop-color="#97989B"/>
            <stop offset="80%" stop-color="#828388"/>
            <stop offset="91%" stop-color="#66676C"/>
            <stop offset="100%" stop-color="#46484E"/>
        </linearGradient>
        <linearGradient id="jjbmd_svg__j" x1="5.96%" x2="105.775%" y1="68.91%" y2="68.91%">
            <stop offset="0%" stop-color="#484A50"/>
            <stop offset="3%" stop-color="#54565B"/>
            <stop offset="10%" stop-color="#727378"/>
            <stop offset="18%" stop-color="#898B8F"/>
            <stop offset="27%" stop-color="#9A9B9F"/>
            <stop offset="37%" stop-color="#A4A5A8"/>
            <stop offset="49%" stop-color="#A7A8AB"/>
            <stop offset="59%" stop-color="#A3A4A7"/>
            <stop offset="70%" stop-color="#97989B"/>
            <stop offset="80%" stop-color="#828388"/>
            <stop offset="91%" stop-color="#66676C"/>
            <stop offset="100%" stop-color="#46484E"/>
        </linearGradient>
        <linearGradient id="jjbmd_svg__l" x1=".127%" x2="99.892%" y1="50.162%" y2="49.831%">
            <stop offset="0%" stop-color="#AE713E"/>
            <stop offset="100%" stop-color="#D3995A"/>
        </linearGradient>
        <linearGradient id="jjbmd_svg__k" x1=".054%" x2="99.965%" y1="50.162%" y2="49.831%">
            <stop offset="0%" stop-color="#AE6C3E"/>
            <stop offset="40%" stop-color="#C49069"/>
            <stop offset="100%" stop-color="#E7CAAE"/>
        </linearGradient>
        <linearGradient id="jjbmd_svg__n" x1="99.833%" x2=".187%" y1="49.823%" y2="50.167%">
            <stop offset="0%" stop-color="#DAA56C"/>
            <stop offset="38%" stop-color="#D39C63"/>
            <stop offset="97%" stop-color="#C1854C"/>
            <stop offset="100%" stop-color="#C0844B"/>
        </linearGradient>
        <linearGradient id="jjbmd_svg__m" x1="29.918%" x2="70.155%" y1="38.939%" y2="61.041%">
            <stop offset="0%" stop-color="#E9CCAF"/>
            <stop offset="27%" stop-color="#C99B73"/>
            <stop offset="52%" stop-color="#AE713E"/>
            <stop offset="83%" stop-color="#D1A781"/>
            <stop offset="100%" stop-color="#E5C6A7"/>
        </linearGradient>
        <linearGradient id="jjbmd_svg__p" x1="60.64%" x2="77.436%" y1="142.115%" y2="196.397%">
            <stop offset="0%" stop-color="#DAA56C"/>
            <stop offset="38%" stop-color="#D39C63"/>
            <stop offset="97%" stop-color="#C1854C"/>
            <stop offset="100%" stop-color="#C0844B"/>
        </linearGradient>
        <linearGradient id="jjbmd_svg__o" x1="50.346%" x2="49.768%" y1="100.471%" y2="-.763%">
            <stop offset="0%" stop-color="#AE713E"/>
            <stop offset="28%" stop-color="#BA8456"/>
            <stop offset="88%" stop-color="#DAB693"/>
            <stop offset="100%" stop-color="#E1C0A0"/>
        </linearGradient>
        <linearGradient id="jjbmd_svg__r" x1="3.501%" x2="103.272%" y1="86.181%" y2="86.181%">
            <stop offset="0%" stop-color="#AE713E"/>
            <stop offset="100%" stop-color="#D3995A"/>
        </linearGradient>
        <linearGradient id="jjbmd_svg__q" x1="3.428%" x2="103.344%" y1="86.181%" y2="86.181%">
            <stop offset="0%" stop-color="#AE6C3E"/>
            <stop offset="40%" stop-color="#C49069"/>
            <stop offset="100%" stop-color="#E7CAAE"/>
        </linearGradient>
        <linearGradient id="jjbmd_svg__t" x1="103.319%" x2="3.667%" y1="86.248%" y2="86.248%">
            <stop offset="0%" stop-color="#DAA56C"/>
            <stop offset="38%" stop-color="#D39C63"/>
            <stop offset="97%" stop-color="#C1854C"/>
            <stop offset="100%" stop-color="#C0844B"/>
        </linearGradient>
        <linearGradient id="jjbmd_svg__s" x1="33.764%" x2="73.275%" y1="42.703%" y2="64.942%">
            <stop offset="0%" stop-color="#E9CCAF"/>
            <stop offset="27%" stop-color="#C99B73"/>
            <stop offset="52%" stop-color="#AE713E"/>
            <stop offset="83%" stop-color="#D1A781"/>
            <stop offset="100%" stop-color="#E5C6A7"/>
        </linearGradient>
        <linearGradient id="jjbmd_svg__v" x1="59.083%" x2="75.878%" y1="142.077%" y2="196.397%">
            <stop offset="0%" stop-color="#DAA56C"/>
            <stop offset="38%" stop-color="#D39C63"/>
            <stop offset="97%" stop-color="#C1854C"/>
            <stop offset="100%" stop-color="#C0844B"/>
        </linearGradient>
        <linearGradient id="jjbmd_svg__u" x1="110.846%" x2="110.846%" y1="219.837%" y2="118.597%">
            <stop offset="0%" stop-color="#AE713E"/>
            <stop offset="28%" stop-color="#BA8456"/>
            <stop offset="88%" stop-color="#DAB693"/>
            <stop offset="100%" stop-color="#E1C0A0"/>
        </linearGradient>
        <linearGradient id="jjbmd_svg__x" x1=".154%" x2="99.832%" y1="50.298%" y2="49.716%">
            <stop offset="0%" stop-color="#AE713E"/>
            <stop offset="100%" stop-color="#D3995A"/>
        </linearGradient>
        <linearGradient id="jjbmd_svg__w" x1=".035%" x2="99.951%" y1="50.299%" y2="49.715%">
            <stop offset="0%" stop-color="#AE6C3E"/>
            <stop offset="40%" stop-color="#C49069"/>
            <stop offset="100%" stop-color="#E7CAAE"/>
        </linearGradient>
        <linearGradient id="jjbmd_svg__z" x1="35.528%" x2="64.418%" y1="50.592%" y2="49.635%">
            <stop offset="0%" stop-color="#DAA56C"/>
            <stop offset="38%" stop-color="#D39C63"/>
            <stop offset="97%" stop-color="#C1854C"/>
            <stop offset="100%" stop-color="#C0844B"/>
        </linearGradient>
        <linearGradient id="jjbmd_svg__y" x1="50.466%" x2="49.5%" y1="100.569%" y2="-.343%">
            <stop offset="0%" stop-color="#AE713E"/>
            <stop offset="28%" stop-color="#BA8456"/>
            <stop offset="88%" stop-color="#DAB693"/>
            <stop offset="100%" stop-color="#E1C0A0"/>
        </linearGradient>
        <linearGradient id="jjbmd_svg__B" x1=".319%" x2="99.662%" y1="50.316%" y2="49.695%">
            <stop offset="0%" stop-color="#DAA56C"/>
            <stop offset="38%" stop-color="#D39C63"/>
            <stop offset="97%" stop-color="#C1854C"/>
            <stop offset="100%" stop-color="#C0844B"/>
        </linearGradient>
        <linearGradient id="jjbmd_svg__A" x1=".245%" x2="99.737%" y1="50.317%" y2="49.695%">
            <stop offset="0%" stop-color="#E9CCAF"/>
            <stop offset="27%" stop-color="#C99B73"/>
            <stop offset="52%" stop-color="#AE713E"/>
            <stop offset="83%" stop-color="#D1A781"/>
            <stop offset="100%" stop-color="#E5C6A7"/>
        </linearGradient>
        <linearGradient id="jjbmd_svg__C" x1="-.309%" x2="100.214%" y1="49.985%" y2="49.985%">
            <stop offset="0%" stop-color="#F9DDC1"/>
            <stop offset="36%" stop-color="#F7DABD"/>
            <stop offset="74%" stop-color="#F3D1B0"/>
            <stop offset="100%" stop-color="#EEC8A3"/>
        </linearGradient>
        <linearGradient id="jjbmd_svg__D" x1="-.005%" x2="100.004%" y1="49.997%" y2="49.997%">
            <stop offset="0%" stop-color="#FFE5CD"/>
            <stop offset="21%" stop-color="#FBDFC5"/>
            <stop offset="49%" stop-color="#F9DDC1"/>
            <stop offset="67%" stop-color="#F7D9BC"/>
            <stop offset="90%" stop-color="#F2CFAD"/>
            <stop offset="100%" stop-color="#EEC8A3"/>
        </linearGradient>
        <linearGradient id="jjbmd_svg__E" x1=".026%" x2="100.002%" y1="49.886%" y2="49.886%">
            <stop offset="0%" stop-color="#F9DDC1"/>
            <stop offset="15%" stop-color="#F9DFC4"/>
            <stop offset="29%" stop-color="#F9E4CF"/>
            <stop offset="41%" stop-color="#F8ECE0"/>
            <stop offset="48%" stop-color="#F8F3EE"/>
            <stop offset="88%" stop-color="#F0D2B5"/>
            <stop offset="100%" stop-color="#EEC8A3"/>
        </linearGradient>
        <linearGradient id="jjbmd_svg__F" x1="-.168%" x2="99.88%" y1="50.001%" y2="50.001%">
            <stop offset="0%" stop-color="#F9DDC1"/>
            <stop offset="36%" stop-color="#F7DABD"/>
            <stop offset="74%" stop-color="#F3D1B0"/>
            <stop offset="100%" stop-color="#EEC8A3"/>
        </linearGradient>
        <linearGradient id="jjbmd_svg__G" x1="-.002%" x2="100.004%" y1="49.997%" y2="49.997%">
            <stop offset="0%" stop-color="#FFE5CD"/>
            <stop offset="21%" stop-color="#FBDFC5"/>
            <stop offset="49%" stop-color="#F9DDC1"/>
            <stop offset="67%" stop-color="#F7D9BC"/>
            <stop offset="90%" stop-color="#F2CFAD"/>
            <stop offset="100%" stop-color="#EEC8A3"/>
        </linearGradient>
        <linearGradient id="jjbmd_svg__H" x1="-.027%" x2="100.005%" y1="49.82%" y2="49.82%">
            <stop offset="0%" stop-color="#F9DDC1"/>
            <stop offset="15%" stop-color="#F9DFC4"/>
            <stop offset="29%" stop-color="#F9E4CF"/>
            <stop offset="41%" stop-color="#F8ECE0"/>
            <stop offset="48%" stop-color="#F8F3EE"/>
            <stop offset="88%" stop-color="#F0D2B5"/>
            <stop offset="100%" stop-color="#EEC8A3"/>
        </linearGradient>
    </defs>
    <g fill="none" fill-rule="evenodd">
        <path d="M0 0H88V88H0z" transform="translate(-203.000000, -2451.000000) translate(203.000000, 2451.000000)"/>
        <g fill-rule="nonzero">
            <path fill="url(#jjbmd_svg__a)" d="M44.359299,16.8815625 L41.2337521,65.4723438 C41.2263042,65.5995313 41.2134136,65.7241406 41.1950803,65.8461719 L41.1950803,65.8461719 C41.1778928,65.9673438 41.155549,66.0867969 41.1289084,66.2028125 L41.1289084,66.2088281 C41.1031271,66.3239844 41.0721896,66.4374219 41.0369553,66.5474219 L41.0369553,66.5542969 C41.0020074,66.663724 40.9633355,66.7702865 40.9209396,66.8739844 L40.9166428,66.8842969 C40.8745334,66.9865625 40.8307053,67.08625 40.7782834,67.1842188 L40.7696896,67.1996875 C40.7198459,67.2950781 40.667424,67.38875 40.6107053,67.4789844 C40.6075347,67.4833692 40.6046636,67.487963 40.6021115,67.4927344 C40.5462521,67.5786719 40.4878146,67.6646094 40.4302365,67.7505469 L40.4147678,67.7720313 C40.3494553,67.8579688 40.2815646,67.9439063 40.2093771,68.0203906 L42.654299,65.2961719 C42.6869553,65.2600781 42.7196115,65.223125 42.750549,65.1853125 C42.7814865,65.1475 42.812424,65.1096875 42.8425021,65.0710156 L42.8596896,65.0478125 L42.8751584,65.0263281 L42.9301584,64.9524219 C42.9585178,64.9120313 42.9860178,64.8716406 43.0160959,64.8303906 C43.0289865,64.8114844 43.0410178,64.7917188 43.053049,64.7719531 L43.0582053,64.7642188 L43.0582053,64.7582031 C43.0625021,64.7504688 43.0676584,64.7427344 43.0728146,64.735 C43.0925803,64.7023438 43.1114865,64.6696875 43.1303928,64.6370313 C43.149299,64.604375 43.1682053,64.5708594 43.1862521,64.5373438 L43.2171896,64.4789063 L43.224924,64.4634375 L43.2395334,64.4359375 C43.252424,64.4092969 43.266174,64.3826563 43.2790646,64.3551563 C43.2919553,64.3276563 43.3039865,64.3010156 43.3160178,64.2735156 C43.328049,64.2460156 43.3409396,64.2185156 43.3521115,64.1875781 C43.3521115,64.1789844 43.3598459,64.1695313 43.3632834,64.1609375 L43.3632834,64.1557813 C43.3632834,64.1557813 43.3632834,64.1557813 43.3632834,64.1497656 C43.3701584,64.1342969 43.376174,64.1196875 43.3821896,64.1042188 L43.410549,64.0303125 C43.4200021,64.00625 43.4285959,63.9813281 43.4371896,63.9564063 C43.4457834,63.9314844 43.4552365,63.9065625 43.4629709,63.8816406 C43.4707053,63.8567188 43.4741428,63.848125 43.479299,63.8317969 L43.479299,63.8249219 C43.4807878,63.818467 43.4827996,63.812144 43.4853146,63.8060156 L43.5059396,63.7364063 C43.5128146,63.7132031 43.5196896,63.69 43.5257053,63.6667969 C43.5317209,63.6435938 43.5385959,63.6195313 43.5446115,63.5954688 L43.5626584,63.5241406 C43.5626584,63.5121094 43.5678146,63.4992188 43.5712521,63.4863281 L43.5712521,63.4863281 L43.5764084,63.4648438 C43.5815646,63.4425 43.5867209,63.4201563 43.5910178,63.3986719 L43.6039084,63.3316406 L43.616799,63.2646094 L43.6271115,63.1992969 L43.637424,63.1348438 L43.637424,63.1288281 L43.6451584,63.0686719 C43.6451584,63.0471875 43.651174,63.0248438 43.6537521,63.0025 C43.6563303,62.9801563 43.6537521,62.9621094 43.6606271,62.9414844 C43.6675021,62.9208594 43.664924,62.9002344 43.6666428,62.8796094 L43.671799,62.8177344 C43.671799,62.7971094 43.671799,62.7764844 43.6760959,62.7558594 L46.8265646,14.2630469 L44.359299,16.8815625 Z" transform="translate(-203.000000, -2451.000000) translate(203.000000, 2451.000000) translate(30.804217, 10.630469)"/>
            <path fill="url(#jjbmd_svg__b)" d="M39.1996115,10.2575 C39.9531424,10.4453684 40.6680215,10.7635448 41.3119553,11.1976562 C41.9503105,11.6246874 42.5160823,12.1512904 42.9877365,12.7574219 C43.4518935,13.3476797 43.8141,14.011386 44.0593771,14.7210937 C44.3002364,15.4142745 44.4021514,16.1481211 44.359299,16.8807031 L41.2337521,65.4723437 C41.1981756,66.1369074 41.0087178,66.7841235 40.6803146,67.3629687 C40.3692094,67.8985678 39.9360892,68.3531821 39.416174,68.6898437 C38.8753773,69.0372763 38.2648779,69.2617031 37.6278146,69.3472656 C36.9168752,69.4418136 36.1943028,69.3962696 35.5008615,69.2132031 L5.0695334,61.44875 C4.33636863,61.258894 3.64131655,60.9443619 3.01476777,60.5189062 C2.39465603,60.0989132 1.84377685,59.5848559 1.38195527,58.9952344 C0.926763443,58.4217177 0.568536139,57.7775472 0.321486524,57.0882812 C0.0814814893,56.4175526 -0.0256415717,55.7065123 0.00609589873,54.9948437 L2.5395334,6.63609375 C2.5688167,5.95741179 2.75094877,5.29409856 3.0723459,4.695625 C3.37378578,4.1418454 3.8012283,3.66671301 4.3201584,3.30859375 C4.85349282,2.94461099 5.46115303,2.70389535 6.09906465,2.60390625 C6.80992463,2.49390487 7.53566811,2.52839449 8.23289277,2.7053125 L39.1996115,10.2575 Z" transform="translate(-203.000000, -2451.000000) translate(203.000000, 2451.000000) translate(30.804217, 10.630469)"/>
            <path fill="url(#jjbmd_svg__c)" d="M10.7895334,0.133203125 L10.7285178,0.119453125 L10.6683615,0.105703125 L10.6090646,0.0928125 L10.5489084,0.079921875 L10.4818771,0.06703125 L10.458674,0.06703125 L10.4526584,0.06703125 L10.4157053,0.06015625 L10.3495334,0.048984375 L10.2833615,0.038671875 L10.218049,0.02921875 L10.1527365,0.019765625 L10.1303928,0.019765625 L10.1235178,0.019765625 L10.087424,0.019765625 L10.0229709,0.012890625 L9.9576584,0.006015625 L9.8923459,0 L9.8270334,0 L9.80554902,0 L9.7995334,0 L9.76258027,0 L9.69726777,0 L9.63281465,0 L9.56836152,0 L9.37070527,0 L9.30367402,0 L9.23750215,0 L9.17304902,0 L9.17304902,0 L9.1051584,0 L9.03812715,0.00515625 L8.9710959,0.011171875 L8.90148652,0.01890625 L8.87312715,0.01890625 L8.86539277,0.01890625 L8.83187715,0.01890625 L8.76312715,0.028359375 L8.69437715,0.038671875 L8.61875215,0.050703125 L8.57664277,0.059296875 L8.56718965,0.059296875 L8.5448459,0.059296875 L8.47008027,0.07390625 L8.3970334,0.090234375 L8.31625215,0.10828125 L8.2870334,0.116015625 L8.28101777,0.116015625 L8.27500215,0.116015625 L8.23633027,0.12546875 L8.15726777,0.146953125 L8.07906465,0.169296875 L8.00343965,0.193359375 L7.99742402,0.193359375 L7.98883027,0.193359375 L7.90289277,0.2234375 L7.81695527,0.255234375 L7.73101777,0.28703125 L7.7267209,0.28703125 L7.6167209,0.33171875 L7.50929902,0.37984375 L7.47664277,0.3953125 L7.4551584,0.405625 L7.40273652,0.430546875 L7.29875215,0.483828125 L7.26008027,0.506171875 C7.2454709,0.514765625 7.22914277,0.521640625 7.2145334,0.530234375 C7.17929902,0.549140625 7.1457834,0.571484375 7.1114084,0.592109375 C7.0770334,0.612734375 7.05898652,0.621328125 7.03406465,0.636796875 L7.00656465,0.655703125 C6.95586152,0.688359375 6.90773652,0.721875 6.85875215,0.75625 C6.83383027,0.774296875 6.80718965,0.790625 6.78226777,0.808671875 L6.76508027,0.822421875 C6.7126584,0.861953125 6.66281465,0.903203125 6.61211152,0.944453125 C6.59062715,0.9625 6.56742402,0.978828125 6.54593965,0.997734375 L6.5373459,1.00546875 C6.46343965,1.0690625 6.39211152,1.13523438 6.32336152,1.20398438 L3.75812715,3.77179688 C3.82687715,3.70304688 3.89820527,3.636875 3.97211152,3.57328125 C3.99617402,3.55265625 4.02195527,3.53289062 4.04687715,3.51226562 C4.09758027,3.47101563 4.14742402,3.42632812 4.1998459,3.39109375 C4.2307834,3.36789062 4.26343965,3.34640625 4.29523652,3.3240625 C4.34336152,3.2896875 4.39148652,3.25617187 4.44133027,3.224375 C4.47656465,3.20203125 4.5126584,3.18140625 4.54789277,3.15992187 C4.59687715,3.13070312 4.64586152,3.10148437 4.69570527,3.07398437 C4.7601584,3.03960937 4.8254709,3.00523437 4.89164277,2.9734375 L4.91312715,2.963125 C4.99906465,2.92445313 5.0798459,2.8875 5.16492402,2.85398437 L5.16492402,2.85398437 C5.25086152,2.81875 5.34281465,2.78695312 5.4339084,2.75773437 L5.43992402,2.75773437 C5.52586152,2.72851562 5.62039277,2.70273437 5.7123459,2.67953125 L5.72351777,2.67953125 C5.81633027,2.65632812 5.91000215,2.6365625 6.0045334,2.61851562 L6.01312715,2.61851562 C6.10851777,2.60132812 6.20562715,2.58671875 6.30273652,2.57554687 L6.31133027,2.57554687 C6.41101777,2.56351562 6.51156465,2.55492187 6.6129709,2.54890625 L6.6129709,2.54890625 C6.71495007,2.54317708 6.81807507,2.54059896 6.9223459,2.54117187 L6.92836152,2.54117187 C7.03148652,2.54117187 7.13633027,2.54546875 7.24117402,2.55234375 L7.24718965,2.55234375 C7.35289277,2.55921875 7.45945527,2.56867187 7.56601777,2.58242187 L7.5720334,2.58242187 C7.67945527,2.59617187 7.78687715,2.6125 7.89601777,2.63226562 L7.9020334,2.63226562 C8.0120334,2.65203125 8.1220334,2.67609375 8.23289277,2.70273437 L39.1996115,10.2575 C39.388674,10.3039062 39.5745855,10.3586198 39.7573459,10.4216406 L39.7573459,10.4216406 C39.9395334,10.4846615 40.1179969,10.5551302 40.2927365,10.6330469 L40.2987521,10.6330469 C40.4706271,10.71125 40.6425021,10.7963281 40.8092209,10.8908594 L40.818674,10.8960156 C40.983674,10.9871094 41.1443771,11.0850781 41.3007834,11.1899219 L41.3153928,11.199375 C41.4451584,11.2853125 41.5732053,11.3789844 41.6926584,11.474375 C41.7785959,11.5396875 41.8645334,11.6092969 41.9427365,11.6789062 C42.0106271,11.7364844 42.0793771,11.7932031 42.145549,11.8507812 C42.2263303,11.9238281 42.3028146,12.0003125 42.3801584,12.0776562 C42.4420334,12.1395312 42.5056271,12.2005469 42.564924,12.2641406 C42.640549,12.3449219 42.7110178,12.4291406 42.7823459,12.5133594 C42.8382053,12.5778125 42.894924,12.6414062 42.9482053,12.7084375 C43.0178146,12.794375 43.0831271,12.8897656 43.1484396,12.9808594 C43.2025803,13.055625 43.2584396,13.1286719 43.3091428,13.2051562 L43.3194553,13.220625 C43.4197157,13.3747396 43.5139605,13.5320052 43.6021896,13.6924219 L43.6073459,13.701875 C43.6932834,13.8642969 43.7792209,14.0301562 43.8522678,14.1977344 L43.8522678,14.1977344 C43.926174,14.3696094 43.9940646,14.5414844 44.0525021,14.7133594 L44.0525021,14.7185156 C44.0817209,14.8044531 44.1083615,14.8903906 44.1332834,14.9763281 L44.1332834,14.9832031 C44.1573459,15.0691406 44.180549,15.1550781 44.201174,15.2410156 L44.201174,15.2504687 C44.221799,15.3364062 44.2407053,15.4223437 44.2570334,15.5082812 L44.2570334,15.516875 C44.2742209,15.6028125 44.2879709,15.68875 44.3008615,15.7746875 L44.3008615,15.7832813 C44.3137521,15.8692188 44.3240646,15.9551563 44.331799,16.0471094 L44.331799,16.0539844 C44.3395334,16.1399219 44.345549,16.231875 44.3489865,16.32125 L44.3489865,16.32125 C44.3489865,16.4114844 44.3489865,16.5017188 44.3489865,16.5919531 L44.3489865,16.5919531 C44.3489865,16.6830469 44.3489865,16.7732813 44.338674,16.8635156 L46.8085178,14.2415625 L46.8085178,14.2269531 C46.8085178,14.2046094 46.8085178,14.183125 46.8085178,14.1616406 L46.8085178,14.0954688 C46.8085178,14.0739844 46.8085178,14.0525 46.8085178,14.0301563 C46.8085178,14.0078125 46.8085178,13.9897656 46.8085178,13.9691406 L46.8085178,13.9691406 L46.8085178,13.9003906 C46.8085178,13.8789063 46.8085178,13.8565625 46.8085178,13.8350781 C46.8085178,13.8135938 46.8085178,13.7921094 46.8085178,13.7697656 L46.8085178,13.7044531 L46.8085178,13.695 L46.8085178,13.64 C46.8085178,13.6185156 46.8085178,13.5970313 46.8085178,13.5755469 C46.8085178,13.5540625 46.8085178,13.5317188 46.8085178,13.5102344 L46.8033615,13.4457813 C46.8029371,13.4397731 46.8029371,13.4337425 46.8033615,13.4277344 L46.8033615,13.4217188 C46.8033615,13.4079688 46.8033615,13.3942188 46.8033615,13.3804688 C46.8033615,13.3667188 46.7982053,13.3366406 46.7964865,13.3142969 L46.7887521,13.2489844 C46.7887521,13.2275 46.7827365,13.2051563 46.7801584,13.1836719 C46.7775803,13.1621875 46.7801584,13.1664844 46.7801584,13.1578906 L46.7801584,13.1492969 C46.7801584,13.1389844 46.7801584,13.1286719 46.7801584,13.1175 L46.7698459,13.0521875 C46.7698459,13.0298438 46.7629709,13.0083594 46.758674,12.9860156 C46.7543771,12.9636719 46.751799,12.9421875 46.7475021,12.9207031 C46.7432053,12.8992188 46.7432053,12.8983594 46.7414865,12.8880469 L46.7414865,12.8803125 L46.7363303,12.8519531 C46.7363303,12.8296094 46.7268771,12.8064063 46.7225803,12.7840625 L46.7071115,12.7153125 C46.7028146,12.6929688 46.6976584,12.6697656 46.6916428,12.6474219 C46.6856271,12.6250781 46.6916428,12.629375 46.6856271,12.6199219 L46.6856271,12.6113281 L46.6778928,12.5769531 L46.6598459,12.505625 C46.6538303,12.4824219 46.6469553,12.4592188 46.6409396,12.4360156 C46.634924,12.4128125 46.628049,12.38875 46.621174,12.3655469 C46.621174,12.36125 46.621174,12.3569531 46.621174,12.3526563 L46.621174,12.3457813 L46.6057053,12.2925 C46.5988303,12.2684375 46.5910959,12.2435156 46.5833615,12.2194531 L46.5601584,12.1472656 C46.5541428,12.1283594 46.5472678,12.1094531 46.5412521,12.0905469 L46.5412521,12.0905469 L46.5412521,12.0905469 C46.5408788,12.0868323 46.5408788,12.0830896 46.5412521,12.079375 L46.5128928,11.9994531 C46.5034396,11.9728125 46.4939865,11.9461719 46.483674,11.9195313 C46.4733615,11.8928906 46.4639084,11.8671094 46.4535959,11.8404688 L46.4226584,11.7614063 L46.3865646,11.6754688 C46.3745334,11.64625 46.3616428,11.6170313 46.3487521,11.5895313 C46.3492232,11.5863978 46.3492232,11.5832116 46.3487521,11.5800781 L46.3487521,11.5757813 C46.3384396,11.5517188 46.3272678,11.5267969 46.3160959,11.5027344 C46.304924,11.4786719 46.2894553,11.4451563 46.2757053,11.4167969 C46.2619553,11.3884375 46.2439084,11.3497656 46.2275803,11.3171094 C46.2112521,11.2844531 46.1940646,11.2500781 46.1768771,11.2174219 C46.1596896,11.1847656 46.1425021,11.15125 46.1253146,11.1177344 C46.1184396,11.1057031 46.1115646,11.0936719 46.105549,11.0816406 L46.1003928,11.0721875 C46.0909396,11.055 46.0814865,11.0369531 46.071174,11.0197656 C46.0479709,10.9776563 46.0247678,10.9338281 45.9998459,10.8951563 C45.974924,10.8564844 45.9517209,10.8092188 45.9259396,10.7722656 C45.9001584,10.7353125 45.8752365,10.690625 45.8494553,10.6502344 L45.8185178,10.6021094 L45.8082053,10.5866406 L45.7703928,10.5290625 C45.7317209,10.4723438 45.6844553,10.4190625 45.6475021,10.3632031 C45.5933615,10.2867188 45.541799,10.2085156 45.4833615,10.13375 C45.4721896,10.1191406 45.459299,10.1053906 45.4472678,10.0916406 L45.4171896,10.0495313 C45.3742209,9.99710938 45.3269553,9.948125 45.2831271,9.8965625 C45.211799,9.810625 45.1413303,9.72898438 45.0657053,9.64820313 L45.0227365,9.59835938 C44.9771896,9.55109375 44.9282053,9.51242188 44.881799,9.46171875 C44.8044553,9.38523438 44.7279709,9.30875 44.648049,9.23570313 C44.6282834,9.21765625 44.6102365,9.19789063 44.5896115,9.17984375 C44.5432053,9.13859375 44.4925021,9.10164063 44.4452365,9.06125 C44.359299,8.9925 44.2810959,8.92375 44.1960178,8.85757813 C44.1710959,8.83867188 44.1478928,8.8171875 44.1221115,8.79742188 L44.0052365,8.71148438 L43.8866428,8.62554688 L43.8196115,8.58085938 L43.8127365,8.57484375 L43.8058615,8.57484375 L43.7663303,8.54820313 C43.7259396,8.5215625 43.6803928,8.49492188 43.6434396,8.47 C43.6064865,8.44507813 43.5807053,8.43046875 43.5489084,8.41070313 L43.451799,8.35398438 L43.3546896,8.298125 L43.3237521,8.2809375 L43.3151584,8.27664063 L43.2567209,8.24398438 L43.1707834,8.19929688 L43.0848459,8.15546875 L42.9989084,8.1125 L42.9129709,8.07125 L42.8347678,8.03515625 L42.805549,8.02226563 L42.7995334,8.02226563 L42.7548459,8.0025 L42.6757834,7.968125 L42.5950021,7.93460938 L42.5228146,7.90625 L42.4497678,7.87789063 L42.3767209,7.85039063 L42.3028146,7.82460938 L42.2658615,7.81171875 L42.2658615,7.81171875 L42.2357834,7.80140625 L42.1644553,7.77820313 L42.0707834,7.76015625 L41.9985959,7.7378125 L41.9289865,7.71804688 L41.8585178,7.69828125 L41.788049,7.679375 L41.7175803,7.66132813 L41.7098459,7.66132813 L41.7021115,7.66132813 L41.6952365,7.66132813 L41.6875021,7.66132813" transform="translate(-203.000000, -2451.000000) translate(203.000000, 2451.000000) translate(30.804217, 10.630469)"/>
            <path fill="url(#jjbmd_svg__d)" d="M2.53437715,7.39921875 C2.56348329,6.720618 2.74531525,6.0573279 3.06633027,5.45875 C3.36806739,4.90491346 3.79580148,4.4297842 4.31500215,4.07171875 C4.84914124,3.70637707 5.45803516,3.46475716 6.0973459,3.36445313 C6.80831847,3.25358705 7.53434546,3.28719941 8.2320334,3.46328125 L39.1978928,11.0180469 C39.9515182,11.2051275 40.6666688,11.5224229 41.3110959,11.955625 C41.9494637,12.383668 42.5152119,12.9111194 42.9868771,13.5179688 C43.4513689,14.1092701 43.813589,14.7741634 44.0585178,15.4850781 C44.2193835,15.9573428 44.3187428,16.4483626 44.3541428,16.9460156 L44.3541428,16.8841406 C44.3979972,16.1507305 44.2975593,15.4158403 44.0585178,14.7210938 C43.813589,14.010179 43.4513689,13.3452857 42.9868771,12.7539844 C42.5147276,12.1492773 41.9490053,11.6238808 41.3110959,11.1976563 C40.6666688,10.7644541 39.9515182,10.4471588 39.1978928,10.2600781 L8.2320334,2.70273438 C7.53434546,2.52665253 6.80831847,2.49304017 6.0973459,2.60390625 C5.45803516,2.70421028 4.84914124,2.9458302 4.31500215,3.31117188 C3.79560895,3.66901811 3.36782923,4.14419806 3.06633027,4.69820313 C2.7452047,5.29673688 2.56336568,5.96005273 2.53437715,6.63867188 L0.00523652373,54.9905469 C-0.00392985154,55.192778 -0.00106020161,55.3953753 0.0138302737,55.5972656 L2.53437715,7.39921875 Z" transform="translate(-203.000000, -2451.000000) translate(203.000000, 2451.000000) translate(30.804217, 10.630469)"/>
        </g>
        <g fill-rule="nonzero">
            <path fill="url(#jjbmd_svg__e)" d="M4.69262889,4.16367188 L4.66684764,4.15765625 L4.64106639,4.1525 L4.61614451,4.14734375 L4.59036326,4.1421875 L4.56200389,4.13703125 L4.53450389,4.131875 L4.50614451,4.131875 L4.47778514,4.131875 L4.45028514,4.131875 L4.42278514,4.131875 L4.40559764,4.131875 L4.40559764,4.131875 L4.39614451,4.131875 L4.36864451,4.131875 L4.34114451,4.131875 L4.31364451,4.131875 L4.28614451,4.131875 L4.25864451,4.131875 L4.06442576,4.131875 L4.03692576,4.131875 L4.00770701,4.131875 L3.97934764,4.131875 L3.95098826,4.131875 L3.92262889,4.131875 L3.89341014,4.131875 L3.86419139,4.131875 L3.86419139,4.131875 L3.83755076,4.131875 L3.80833201,4.131875 L3.77653514,4.13703125 L3.74559764,4.14304688 L3.71380076,4.1490625 L3.68286326,4.1559375 L3.64934764,4.16367188 L3.61583201,4.17226563 L3.61583201,4.17226563 L3.61583201,4.17226563 L3.58661326,4.18 L3.55395701,4.18945313 L3.51528514,4.20148438 L3.47833201,4.214375 L3.44137889,4.228125 L3.40442576,4.241875 L3.38122264,4.2521875 L3.38122264,4.2521875 L3.36231639,4.25992188 L3.31762889,4.2796875 L3.27294139,4.30117188 L3.22911326,4.324375 L3.18270701,4.35101563 L3.16466014,4.36046875 L3.14833201,4.37164063 L3.10880076,4.39484375 C3.06926951,4.420625 3.03145701,4.44726563 2.99450389,4.47476563 L2.97559764,4.49023438 L2.94981639,4.51171875 C2.92919139,4.52890625 2.90770701,4.54523438 2.88794139,4.56328125 C2.85442576,4.59421875 2.82091014,4.626875 2.78911326,4.66039063 L0.584816386,7.01078125 C0.635525512,6.95791145 0.689484542,6.90825766 0.746378886,6.86210938 L0.771300761,6.840625 C0.826135834,6.79764675 0.883533406,6.75804242 0.943175761,6.72203125 L0.977550761,6.70140625 C1.04142039,6.66402847 1.10774342,6.6310105 1.17606639,6.60257813 L1.18036326,6.60257813 C1.25679224,6.57122612 1.33515681,6.54481754 1.41497264,6.52351563 L1.41497264,6.52351563 C1.49802707,6.50146423 1.58242244,6.48481481 1.66762889,6.47367188 L1.66762889,6.47367188 C1.75571003,6.46241316 1.84438125,6.45638696 1.93317576,6.455625 L1.93317576,6.455625 C2.02593605,6.45489643 2.11864891,6.46006309 2.21075389,6.47109375 L2.21075389,6.47109375 C2.30734022,6.4823669 2.40318197,6.49929703 2.49778514,6.52179687 L6.87372264,7.55304687 L9.06426951,5.1975 L4.69262889,4.16367188 Z" transform="translate(-203.000000, -2451.000000) translate(203.000000, 2451.000000) translate(41.958543, 6.101562)"/>
            <path fill="url(#jjbmd_svg__f)" d="M19.6560664 10.5539844 21.8173945 8.18382812 26.2156758 9.2159375 24.0646601 11.5921094z" transform="translate(-203.000000, -2451.000000) translate(203.000000, 2451.000000) translate(41.958543, 6.101562)"/>
            <path fill="url(#jjbmd_svg__g)" d="M28.3572383,11.6625781 C28.3572383,11.653125 28.3572383,11.6445312 28.3572383,11.6350781 L28.3572383,11.6075781 C28.3572383,11.5989844 28.3572383,11.5895312 28.3572383,11.5800781 C28.3572383,11.570625 28.3572383,11.5620313 28.3572383,11.5525781 C28.3572383,11.543125 28.3572383,11.5345313 28.3529414,11.5259375 C28.3486445,11.5173438 28.3529414,11.5173438 28.3529414,11.5139063 L28.3529414,11.5139063 L28.3529414,11.4992969 C28.3529414,11.4907031 28.3529414,11.48125 28.3486445,11.4717969 L28.3434883,11.4442969 L28.338332,11.4167969 C28.338332,11.4073438 28.338332,11.3978906 28.3323164,11.3884375 C28.3263008,11.3789844 28.3323164,11.3695313 28.3254414,11.3600781 C28.3185664,11.350625 28.3254414,11.3411719 28.3194258,11.3317188 C28.3134101,11.3222656 28.3142695,11.3119531 28.3125508,11.3025 C28.3120564,11.2985048 28.3120564,11.2944639 28.3125508,11.2904688 L28.3125508,11.2904688 C28.3125508,11.2853125 28.3125508,11.2801563 28.3125508,11.275 L28.303957,11.2457813 L28.2962226,11.2157031 C28.2962226,11.20625 28.290207,11.1967969 28.2867695,11.1864844 C28.283332,11.1761719 28.2807539,11.1667188 28.2773164,11.1564063 C28.2738789,11.1460938 28.2713008,11.1357813 28.2678633,11.1254688 L28.2575508,11.0953906 L28.248957,11.0713281 L28.248957,11.0713281 L28.248957,11.0670313 C28.248957,11.0558594 28.2412226,11.0446875 28.2369258,11.0335156 L28.2240351,11 L28.2111445,10.9673438 L28.1973945,10.9338281 L28.1819258,10.896875 C28.1759101,10.8848438 28.1707539,10.8728125 28.1655976,10.8607813 L28.1655976,10.8607813 L28.1655976,10.8607813 C28.1604414,10.8513281 28.1561445,10.8410156 28.1509883,10.8307031 L28.1338008,10.7946094 L28.0805195,10.7421875 L28.0590351,10.7009375 C28.0513008,10.6871875 28.0435664,10.6734375 28.0366914,10.6596875 C28.0335017,10.6547187 28.0306313,10.649552 28.0280976,10.6442188 L28.0280976,10.6442188 L28.015207,10.6227344 L27.9851289,10.5703125 C27.973957,10.553125 27.9636445,10.5359375 27.9524726,10.5196094 C27.9413008,10.5032813 27.9309883,10.4852344 27.9198164,10.4680469 L27.9060664,10.4482813 L27.9017695,10.4422656 C27.8966133,10.4345313 27.891457,10.4259375 27.8854414,10.4182031 C27.8691133,10.3941406 27.850207,10.3717969 27.8330195,10.3485938 C27.815832,10.3253906 27.7874726,10.2841406 27.7625508,10.2532031 L27.747082,10.2360156 L27.7341914,10.2179688 L27.6766133,10.154375 C27.6456758,10.12 27.6155976,10.0847656 27.5838008,10.05125 L27.5648945,10.030625 C27.5459883,10.0108594 27.5245039,9.9928125 27.5047383,9.97390625 C27.472082,9.94210938 27.4394258,9.9103125 27.4050508,9.88023438 C27.396457,9.8725 27.3887226,9.86390625 27.3801289,9.85703125 C27.3715351,9.85015625 27.3388789,9.824375 27.3182539,9.8071875 C27.2830195,9.77882812 27.2486445,9.75046875 27.2125508,9.72125 C27.2013789,9.71351562 27.1919258,9.7040625 27.1807539,9.69632812 C27.169582,9.68859375 27.1480976,9.67226562 27.1309101,9.66109375 C27.1137226,9.64992188 27.0973945,9.63789062 27.080207,9.62671875 L27.0518476,9.6078125 L27.0518476,9.6078125 L27.0518476,9.6078125 L27.0355195,9.5975 C27.018332,9.58632812 27.0011445,9.57515625 26.9830976,9.56484375 L26.942707,9.53992187 L26.9023164,9.51671875 L26.8610664,9.49351562 L26.8473164,9.48664062 L26.8473164,9.48664062 L26.8223945,9.47289062 L26.7863008,9.45484375 L26.750207,9.4359375 L26.7132539,9.41875 L26.6771601,9.4015625 L26.6436445,9.38695312 L26.6307539,9.38179687 L26.6307539,9.38179687 L26.6118476,9.3740625 L26.5774726,9.35945312 L26.543957,9.3465625 L26.5130195,9.33453125 L26.482082,9.3225 L26.4511445,9.31132813 L26.420207,9.30101563 L26.4047383,9.29585938 L26.4047383,9.29585938 L26.392707,9.2915625 L26.3626289,9.28210937 L26.3316914,9.27265625 L26.3016133,9.26320312 L26.2715351,9.25546875 L26.2423164,9.246875 L26.2122383,9.23914062 L26.1821601,9.23226562 L26.1701289,9.23226562 L24.0216914,11.6084375 C24.1016133,11.6273437 24.1798164,11.6496875 24.2571601,11.6754687 L24.2571601,11.6754687 C24.3345039,11.70125 24.4101289,11.7298958 24.4840351,11.7614062 L24.4840351,11.7614062 C24.5579414,11.7932031 24.6301289,11.8284375 24.7005976,11.86625 L24.7005976,11.86625 C24.7710664,11.9040625 24.838957,11.9444531 24.9059883,11.9874219 L24.9120039,11.9874219 C24.9670039,12.0235156 25.0202851,12.0621875 25.072707,12.1017187 C25.1088008,12.1283594 25.1440351,12.1575781 25.1784101,12.1876562 C25.2127851,12.2177344 25.2368476,12.2357812 25.2643476,12.2607031 C25.2918476,12.285625 25.3313789,12.3225781 25.3640351,12.354375 C25.3966914,12.3861719 25.4181758,12.4059375 25.443957,12.4325781 C25.4697383,12.4592187 25.5066914,12.5004687 25.5367695,12.5357031 C25.5668476,12.5709375 25.5848945,12.5889844 25.6080976,12.6173437 C25.6313008,12.6457031 25.6656758,12.6929687 25.6940351,12.7307812 C25.7223945,12.7685937 25.7413008,12.7926562 25.7627851,12.8235937 L25.7627851,12.8304687 C25.8066133,12.8949219 25.8487226,12.9602344 25.8856758,13.0272656 L25.8856758,13.0272656 C25.9243476,13.0951562 25.959582,13.1647656 25.9922383,13.234375 L25.9922383,13.234375 C26.0240351,13.3048437 26.0541133,13.3770312 26.0781758,13.4500781 L26.0781758,13.4500781 C26.1045645,13.5221984 26.1272247,13.5956289 26.1460664,13.6700781 L26.1460664,13.6700781 C26.1649726,13.7439844 26.1804414,13.81875 26.1924726,13.8935156 L26.1924726,13.8935156 C26.2043121,13.9686867 26.2123431,14.0444084 26.2165351,14.1203906 L26.2165351,14.1203906 C26.2204013,14.1965395 26.2204013,14.2728355 26.2165351,14.3489844" transform="translate(-203.000000, -2451.000000) translate(203.000000, 2451.000000) translate(41.958543, 6.101562)"/>
            <path fill="url(#jjbmd_svg__h)" d="M12.8016914,0.0928125 L12.7630195,0.083359375 L12.7243476,0.075625 L12.6856758,0.06703125 L12.6470039,0.059296875 L12.6040351,0.0515625 L12.5842695,0.0515625 L12.5791133,0.0515625 L12.5610664,0.0515625 L12.518957,0.0446875 L12.4759883,0.0378125 L12.4338789,0.031796875 L12.3917695,0.026640625 L12.3659883,0.026640625 L12.353957,0.026640625 L12.3118476,0.021484375 L12.2697383,0.021484375 L12.2276289,0.021484375 L12.182082,0 L12.1502851,0 L12.1399726,0 L12.0961445,0 L12.0540351,0 L11.8821601,0 L11.8391914,0 L11.797082,0 L11.7532539,0 L11.7300508,0 L11.7102851,0 L11.6673164,0 L11.6243476,0 L11.5788008,0.00515625 L11.5349726,0.011171875 L11.5255195,0.011171875 L11.4902851,0.016328125 L11.446457,0.023203125 L11.398332,0.0309375 L11.350207,0.040390625 L11.3338789,0.040390625 L11.3287226,0.040390625 L11.3029414,0.045546875 L11.2556758,0.055859375 L11.2041133,0.067890625 L11.1525508,0.081640625 L11.143957,0.081640625 L11.143957,0.081640625 L11.1052851,0.091953125 L11.0554414,0.1065625 L10.9970039,0.12546875 L10.9402851,0.144375 L10.8835664,0.165 L10.827707,0.186484375 L10.7873164,0.203671875 L10.7804414,0.203671875 L10.7580976,0.213125 L10.6884883,0.2440625 L10.6205976,0.277578125 C10.5982539,0.28875 10.5759101,0.299921875 10.5544258,0.311953125 C10.5329414,0.323984375 10.504582,0.341171875 10.4796601,0.35578125 L10.449582,0.370390625 L10.4263789,0.38671875 C10.4074726,0.39875 10.3868476,0.4090625 10.3688008,0.42109375 C10.3086445,0.459765625 10.250207,0.501015625 10.1969258,0.543984375 L10.1668476,0.56890625 L10.1255976,0.60328125 C10.0946601,0.6290625 10.0628633,0.653125 10.0336445,0.680625 C9.98036326,0.727890625 9.93051951,0.777734375 9.88153514,0.83015625 L7.69012889,3.17710938 C7.76665638,3.09645272 7.84817079,3.02067876 7.93419139,2.95023438 L7.97544139,2.91671875 C8.05913892,2.85046567 8.14697313,2.78961321 8.23841014,2.73453125 L8.29169139,2.70273438 C8.38941301,2.64606612 8.49042546,2.59527293 8.59419139,2.550625 L8.60020701,2.550625 C8.71641824,2.50175574 8.83586985,2.4609814 8.95770701,2.42859375 L8.95770701,2.42859375 C9.01872264,2.41140625 9.07973826,2.39765625 9.14247264,2.38476563 L9.14848826,2.38476563 C9.21122264,2.371875 9.27567576,2.36070313 9.34012889,2.35210938 L9.34012889,2.35210938 C9.40544139,2.34351563 9.47161326,2.33664063 9.53864451,2.33148438 L9.53864451,2.33148438 C9.60567576,2.32632813 9.67356639,2.32375 9.74145701,2.32375 L9.74145701,2.32375 C9.81020701,2.32375 9.87981639,2.32375 9.94942576,2.32375 L9.94942576,2.32375 C10.0198945,2.32833333 10.0903633,2.33434896 10.160832,2.34179688 L10.160832,2.34179688 C10.2313008,2.35039063 10.3034883,2.36070313 10.3748164,2.37273438 L10.3748164,2.37273438 C10.4478633,2.385625 10.5209101,2.40023438 10.593957,2.41742188 L16.4016133,3.77695313 L18.5741133,1.42226563 L12.8016914,0.0928125 Z" transform="translate(-203.000000, -2451.000000) translate(203.000000, 2451.000000) translate(41.958543, 6.101562)"/>
            <path fill="url(#jjbmd_svg__i)" d="M21.9420039,5.3521875 C21.9420039,5.3384375 21.9420039,5.3246875 21.9420039,5.3109375 L21.9420039,5.2696875 L21.9420039,5.2696875 L21.9420039,5.2696875 L21.9420039,5.23359375 L21.9420039,5.19234375 C21.9420039,5.17945313 21.9420039,5.16570313 21.9420039,5.15195313 C21.9420039,5.13820313 21.9420039,5.12445313 21.9420039,5.11070313 C21.9420039,5.09695313 21.9420039,5.08320313 21.9420039,5.06945313 L21.9368476,5.02734375 C21.9368476,5.01359375 21.9368476,4.99984375 21.930832,4.98609375 C21.9248164,4.97234375 21.930832,4.95859375 21.9248164,4.94484375 L21.9248164,4.9259375 L21.9248164,4.9259375 C21.9252293,4.91878199 21.9252293,4.91160863 21.9248164,4.90445313 C21.9248164,4.89070313 21.9248164,4.87695313 21.9179414,4.86320313 L21.910207,4.82109375 L21.9024726,4.77984375 C21.9024726,4.76523438 21.896457,4.750625 21.8930195,4.73601563 C21.889582,4.72140625 21.8870039,4.70765625 21.8835664,4.69304688 L21.8732539,4.64921875 L21.8629414,4.60625 L21.8577851,4.58734375 L21.8577851,4.58734375 C21.856184,4.5795102 21.8541761,4.57176534 21.8517695,4.56414063 C21.8517695,4.54953125 21.8440351,4.5340625 21.8397383,4.51945313 L21.8268476,4.47476563 L21.813957,4.4309375 C21.8088008,4.41546875 21.8045039,4.4 21.7993476,4.38453125 C21.7941914,4.3690625 21.7898945,4.35359375 21.7847383,4.338125 C21.779582,4.32265625 21.7744258,4.3071875 21.7684101,4.29257813 L21.7555195,4.25476563 L21.7555195,4.25476563 L21.7555195,4.24789063 C21.7486445,4.2315625 21.7426289,4.214375 21.7366133,4.1971875 C21.7305976,4.18 21.7237226,4.16367188 21.7168476,4.14734375 C21.7099726,4.13101563 21.703957,4.11382813 21.697082,4.09664063 L21.676457,4.04679688 C21.6687226,4.02789063 21.6601289,4.00984375 21.6523945,3.9909375 C21.6446601,3.97203125 21.6360664,3.95398438 21.6274726,3.9359375 L21.6274726,3.9290625 L21.6274726,3.9290625 C21.6205976,3.91359375 21.6137226,3.898125 21.6059883,3.88265625 L21.580207,3.82851563 C21.5690351,3.80703125 21.5587226,3.78554688 21.5475508,3.76492188 C21.5363789,3.74429688 21.5260664,3.7228125 21.5148945,3.70132813 C21.5037226,3.67984375 21.4925508,3.66007813 21.4805195,3.63945313 C21.4684883,3.61882813 21.4719258,3.62398438 21.4676289,3.61625 L21.4676289,3.609375 C21.4607539,3.5990625 21.4547383,3.58789063 21.4487226,3.57671875 L21.4023164,3.49851563 L21.353332,3.4203125 C21.3370039,3.39453125 21.3206758,3.36875 21.3034883,3.34296875 L21.2828633,3.31289063 C21.2807888,3.3095872 21.2784918,3.30642886 21.2759883,3.3034375 L21.2519258,3.26734375 C21.2270039,3.23125 21.1977851,3.19773438 21.1720039,3.1625 C21.1359101,3.11351563 21.1023945,3.06453125 21.064582,3.01726563 L21.0413789,2.990625 L21.0216133,2.96484375 C20.9941133,2.93132813 20.9631758,2.90039063 20.9356758,2.86773438 C20.8892695,2.8153125 20.8437226,2.76203125 20.7947383,2.71132813 C20.7852851,2.70101563 20.7766914,2.68984375 20.7663789,2.68039063 C20.7380195,2.6503125 20.7053633,2.62367188 20.6752851,2.59445313 C20.6263008,2.54632813 20.576457,2.49820313 20.5248945,2.45179688 L20.487082,2.4165625 C20.4570039,2.39078125 20.4243476,2.36757813 20.3942695,2.34265625 C20.3409883,2.29882813 20.287707,2.25671875 20.232707,2.21460938 C20.2163789,2.20257813 20.2017695,2.18882813 20.1854414,2.17679688 C20.1691133,2.16476563 20.1355976,2.14070313 20.1098164,2.12351563 L19.9938008,2.0625 L19.950832,2.03414063 L19.9456758,2.03414063 L19.9413789,2.03414063 L19.9155976,2.0178125 L19.8373945,1.96882813 L19.7763789,1.931875 L19.7145039,1.89578125 L19.6517695,1.86140625 L19.6320039,1.85109375 L19.6259883,1.85109375 L19.5890351,1.83132813 L19.5340351,1.80296875 L19.4790351,1.77546875 L19.4240351,1.74882813 L19.3681758,1.72304688 L19.3174726,1.70070313 L19.2994258,1.69296875 L19.2994258,1.69296875 L19.270207,1.68007812 L19.2195039,1.65945313 C19.2023164,1.65200521 19.1851289,1.64513021 19.1679414,1.63882813 L19.1215351,1.62078125 L19.0751289,1.60273438 L19.0278633,1.58640625 L18.9805976,1.57007813 L18.953957,1.546875 L18.953957,1.546875 L18.9341914,1.54 L18.8886445,1.52539063 L18.8430976,1.51164063 L18.7966914,1.49789063 L18.7520039,1.485 L18.7073164,1.47296875 L18.6617695,1.46179688 L18.617082,1.450625 L18.6119258,1.450625 L18.6119258,1.450625 L18.6024726,1.450625 L16.4299726,3.8053125 C16.5502851,3.83395833 16.6688789,3.86747396 16.7857539,3.90585938 L16.7857539,3.90585938 C16.9017695,3.94453125 17.0160664,3.99179688 17.1295039,4.03734375 L17.1295039,4.03734375 C17.2403633,4.08546875 17.3495039,4.13875 17.4569258,4.19632813 L17.4629414,4.19632813 C17.5686445,4.25390625 17.6717695,4.31578125 17.7723164,4.38109375 L17.7817695,4.38710938 C17.867707,4.44125 17.9450508,4.4996875 18.0249726,4.55898438 C18.0799726,4.60023438 18.1332539,4.64492188 18.1856758,4.68789063 C18.2380976,4.73085938 18.2716133,4.75921875 18.3171601,4.79703125 C18.362707,4.83484375 18.4185664,4.8915625 18.4684101,4.9396875 C18.5182539,4.9878125 18.5491914,5.01703125 18.5878633,5.05742188 C18.6265351,5.0978125 18.6832539,5.16140625 18.7296601,5.2146875 C18.7648945,5.25507813 18.8018476,5.29546875 18.8362226,5.33757813 C18.8826289,5.3934375 18.9221601,5.451875 18.967707,5.50945313 C19.0132539,5.56703125 19.0390351,5.60226563 19.0716914,5.65039063 L19.0785664,5.66070313 C19.1438789,5.7578125 19.2057539,5.85664063 19.263332,5.95804688 L19.263332,5.9640625 C19.3217695,6.0671875 19.3750508,6.17117188 19.4240351,6.27773438 L19.4240351,6.27773438 C19.4730195,6.38515625 19.517707,6.49429688 19.5572383,6.60429688 L19.5572383,6.60429688 C19.5967695,6.71429688 19.6311445,6.82515625 19.6603633,6.93773438 L19.6603633,6.93773438 C19.689582,7.04945313 19.7136445,7.16289063 19.7316914,7.27632813 L19.7316914,7.27632813 C19.750358,7.39016319 19.7629799,7.50490737 19.7695039,7.62007813 L19.7695039,7.62007813 C19.7754325,7.73458477 19.7754325,7.84932148 19.7695039,7.96382813 L19.648332,10.5419531 L21.8096601,8.1709375 L21.9316914,5.59796875 L21.9316914,5.58851563 C21.9316914,5.57476563 21.9316914,5.56101563 21.9316914,5.54726563 C21.9316914,5.53351563 21.9316914,5.51976563 21.9316914,5.50601563 L21.9316914,5.38140625 C21.9420039,5.38054688 21.9420039,5.3659375 21.9420039,5.3521875 Z" transform="translate(-203.000000, -2451.000000) translate(203.000000, 2451.000000) translate(41.958543, 6.101562)"/>
            <path fill="url(#jjbmd_svg__j)" d="M16.4230976,3.80015625 C16.9045316,3.91475441 17.3624742,4.11188778 17.7766133,4.3828125 C18.1867482,4.65051877 18.5519186,4.9814635 18.8585664,5.36335937 C19.1602802,5.73566026 19.3978558,6.15562885 19.5615351,6.60601562 C19.7223712,7.04411877 19.7956574,7.50952973 19.7772383,7.97585937 L19.6560664,10.5539844 L24.0646601,11.59125 C24.3829453,11.6675653 24.6856171,11.7984032 24.9592695,11.9779687 C25.230314,12.1545165 25.4716448,12.3729324 25.6742695,12.6250781 C25.8733733,12.8710357 26.030199,13.1483847 26.138332,13.4457813 C26.2436415,13.7356375 26.2903776,14.0435119 26.275832,14.3515625 L26.1529414,16.8678125 C26.1486292,16.9703637 26.1210026,17.0705834 26.0721601,17.1608594 C26.0255094,17.244746 25.9598804,17.3165553 25.8805195,17.3705469 C25.7984845,17.4261115 25.7051517,17.4627989 25.6072383,17.4779687 C25.4979989,17.4954898 25.3863486,17.4908133 25.278957,17.4642187 L0.795363261,11.6711719 C0.681922284,11.6437274 0.57406512,11.5969214 0.476535136,11.5328125 C0.379042087,11.4693622 0.292056475,11.3910751 0.218722636,11.3007812 C0.147970818,11.2126987 0.0919585483,11.113734 0.0528632611,11.0077344 C0.0147009398,10.9044182 -0.00310048137,10.7946914 0.000441386095,10.6846094 L0.101847636,8.1778125 C0.110244539,7.89312414 0.183738379,7.61414152 0.316691386,7.36226562 C0.441853806,7.12918777 0.620290053,6.92896228 0.837472636,6.77789062 C1.06217842,6.62328599 1.31843342,6.52054916 1.58770701,6.47710937 C1.8880244,6.42983318 2.19474149,6.44268608 2.49005076,6.51492187 L6.86598826,7.54617187 L6.97598826,4.97234375 C6.9901855,4.54007678 7.10306372,4.11678344 7.30598826,3.73484375 C7.49674058,3.37982565 7.76885243,3.07502504 8.10005076,2.84539063 C8.44172634,2.60984159 8.83158601,2.45336929 9.24130076,2.38734375 C9.69872541,2.31396086 10.1661988,2.3326598 10.6163008,2.44234375 L16.4230976,3.80015625 Z" transform="translate(-203.000000, -2451.000000) translate(203.000000, 2451.000000) translate(41.958543, 6.101562)"/>
        </g>
        <path fill="#FFF" fill-rule="nonzero" d="M66.0859375,26.1714062 C66.6631506,26.3200619 67.2089397,26.5712704 67.6972656,26.9130469 C68.1865491,27.2533351 68.6180065,27.6699947 68.9751562,28.1471094 C69.3309117,28.6179797 69.6070006,29.1440293 69.7924219,29.7042969 C69.9762585,30.2544263 70.0538336,30.8344899 70.0210156,31.4135937 L67.6371094,69.8671875 C67.6094756,70.3903792 67.4650014,70.9007373 67.2142969,71.3607812 C66.9804974,71.7830831 66.6504547,72.144334 66.2509375,72.4152344 C65.8412875,72.689203 65.3751038,72.8672164 64.8871094,72.9360156 C64.3446356,73.0106086 63.792667,72.9743564 63.2646094,72.8294531 L40.0589062,66.6875 C39.4972848,66.5357588 38.9667105,66.2864703 38.4914062,65.9510156 C38.0154807,65.6172468 37.5944899,65.2113328 37.2435937,64.7478906 C36.8954372,64.2883856 36.6232789,63.7759853 36.4375,63.2302344 C36.2541432,62.6982202 36.1727989,62.1363904 36.1977344,61.5742187 L38.1261719,23.3045312 C38.1481237,22.7695019 38.2865515,22.2457053 38.5317969,21.7696875 C38.759297,21.3344129 39.0853613,20.9583207 39.4839844,20.6714062 C39.8881744,20.3824812 40.3532966,20.1901993 40.8435156,20.109375 C41.3857093,20.0223034 41.9401168,20.0495261 42.4711719,20.1892969 L66.0859375,26.1714062 Z" transform="translate(-203.000000, -2451.000000) translate(203.000000, 2451.000000)"/>
        <path fill="#C98A50" fill-rule="nonzero" d="M58.5414844,58.3816406 L63.078125,59.5082813 L62.583125,67.7797656 L61.3989063,67.4832813 L61.4375781,66.8361719 L55.2311719,65.2832813 L55.1942188,65.9303906 L53.96875,65.6244531 L54.443125,57.3615625 L57.193125,58.0447656 C57.2421094,57.9339063 57.2902344,57.8239063 57.3357812,57.715625 C57.3813281,57.6073438 57.4217187,57.4990625 57.468125,57.3933594 C57.5145312,57.2876563 57.5540625,57.1819531 57.5884375,57.0779688 C57.6228125,56.9739844 57.6632031,56.8708594 57.6975781,56.7694531 L59.0390625,57.2275 L58.5414844,58.3816406 Z M61.4908594,65.8650781 L61.6283594,63.5567969 L55.4159375,62.0099219 L55.2827344,64.3164844 L61.4908594,65.8685156 M61.6885156,62.5470313 L61.8234375,60.2739844 L55.6058594,58.7271094 L55.474375,60.9975781 L61.6885156,62.5444531" transform="translate(-203.000000, -2451.000000) translate(203.000000, 2451.000000)"/>
        <g fill-rule="nonzero" stroke-width=".5">
            <path fill="url(#jjbmd_svg__l)" stroke="url(#jjbmd_svg__k)" d="M22.4589062 5.86523438 21.3554688 6.99617188 0 1.11546875 1.11804687 0z" transform="translate(-203.000000, -2451.000000) translate(203.000000, 2451.000000) translate(41.677109, 32.555703)"/>
            <path fill="url(#jjbmd_svg__n)" stroke="url(#jjbmd_svg__m)" d="M21.3554688 6.99617187 21.4414062 8.08328125.09625 2.1965625 0 1.11546875z" transform="translate(-203.000000, -2451.000000) translate(203.000000, 2451.000000) translate(41.677109, 32.555703)"/>
            <path fill="url(#jjbmd_svg__p)" stroke="url(#jjbmd_svg__o)" d="M22.4589062 5.86523438 22.5439844 6.95234375 21.4414062 8.08328125 21.3554688 6.99617188z" transform="translate(-203.000000, -2451.000000) translate(203.000000, 2451.000000) translate(41.677109, 32.555703)"/>
        </g>
        <g fill-rule="nonzero" stroke-width=".5">
            <path fill="url(#jjbmd_svg__r)" stroke="url(#jjbmd_svg__q)" d="M22.4589062 5.86523437 21.3554688 6.99617187 0 1.11546875 1.11804687 0z" transform="translate(-203.000000, -2451.000000) translate(203.000000, 2451.000000) translate(41.677109, 38.661562)"/>
            <path fill="url(#jjbmd_svg__t)" stroke="url(#jjbmd_svg__s)" d="M21.3554688 6.99617187 21.4414062 8.08328125.09625 2.1965625 0 1.11546875z" transform="translate(-203.000000, -2451.000000) translate(203.000000, 2451.000000) translate(41.677109, 38.661562)"/>
            <path fill="url(#jjbmd_svg__v)" stroke="url(#jjbmd_svg__u)" d="M22.4589062 5.86523437 22.5439844 6.95148437 21.4414062 8.08328125 21.3554688 6.99617187z" transform="translate(-203.000000, -2451.000000) translate(203.000000, 2451.000000) translate(41.677109, 38.661562)"/>
        </g>
        <g fill-rule="nonzero" stroke-width=".5">
            <path fill="url(#jjbmd_svg__x)" stroke="url(#jjbmd_svg__w)" d="M13.7302344 3.37132813 12.6319531 4.5065625 0 1.12578125 1.106875 0z" transform="translate(-203.000000, -2451.000000) translate(203.000000, 2451.000000) translate(42.193594, 26.930234)"/>
            <path fill="url(#jjbmd_svg__z)" stroke="url(#jjbmd_svg__y)" d="M13.7302344 3.37132812 13.825625 4.455 12.7282031 5.59195312 12.6319531 4.5065625z" transform="translate(-203.000000, -2451.000000) translate(203.000000, 2451.000000) translate(42.193594, 26.930234)"/>
            <path fill="url(#jjbmd_svg__B)" stroke="url(#jjbmd_svg__A)" d="M12.6319531 4.5065625 12.7282031 5.59195312.102265625 2.20773437 0 1.12578125z" transform="translate(-203.000000, -2451.000000) translate(203.000000, 2451.000000) translate(42.193594, 26.930234)"/>
        </g>
        <g fill-rule="nonzero">
            <path fill="url(#jjbmd_svg__C)" d="M35.1061247,11.64625 L32.6534685,50.1780469 C32.6474529,50.2785938 32.6371404,50.3774219 32.622531,50.4736719 L32.622531,50.4736719 C32.608781,50.5690625 32.5915935,50.6635938 32.5709685,50.7546875 L32.5709685,50.7598438 C32.5503435,50.8509375 32.526281,50.9394531 32.498781,51.02625 L32.498781,51.033125 C32.471281,51.1190625 32.4412029,51.205 32.4068279,51.2849219 L32.4068279,51.2917969 C32.3733122,51.3725781 32.3372185,51.4516406 32.2976872,51.528125 C32.2950635,51.5322363 32.2927648,51.5365463 32.2908122,51.5410156 C32.251281,51.6166406 32.210031,51.6896875 32.1653435,51.7601563 L32.1576091,51.7730469 C32.113781,51.8417969 32.0665154,51.9088281 32.017531,51.9741406 L32.0063591,51.9896094 C31.9547966,52.0575 31.900656,52.1228125 31.8430779,52.1864063 L32.2040154,51.7876563 C32.2309424,51.7584375 32.2567237,51.7297917 32.2813591,51.7017188 C32.3059945,51.6736458 32.3309164,51.6427083 32.3561247,51.6089063 L32.3664372,51.5951563 L32.3784685,51.5796875 L32.4274529,51.5135156 C32.450656,51.4808594 32.4729997,51.4482031 32.4953435,51.4146875 C32.5022185,51.4026563 32.5099529,51.390625 32.5176872,51.3785938 L32.5219841,51.3725781 L32.5219841,51.3665625 L32.5391716,51.3390625 C32.5546404,51.3141406 32.5701091,51.2883594 32.5847185,51.2625781 C32.5993279,51.2367969 32.6139372,51.2110156 32.6276872,51.184375 L32.6474529,51.1474219 L32.6543279,51.1345313 L32.6697966,51.1044531 C32.6801091,51.0838281 32.6904216,51.0632031 32.6998747,51.0417188 L32.7299529,50.9772656 C32.739406,50.9557813 32.7488591,50.9342969 32.7574529,50.9128125 C32.7574529,50.9076563 32.7574529,50.9025 32.7634685,50.8982031 L32.7634685,50.8982031 C32.7634685,50.8982031 32.7634685,50.8982031 32.7634685,50.8982031 L32.7815154,50.8535156 C32.7883904,50.8346094 32.7961247,50.8157031 32.8029997,50.7959375 C32.8098747,50.7761719 32.8176091,50.7572656 32.8244841,50.7383594 L32.8442497,50.6790625 C32.8442497,50.66875 32.8511247,50.6575781 32.8554216,50.6464063 L32.8554216,50.6395313 C32.8554216,50.6326563 32.8554216,50.6266406 32.8614372,50.6197656 C32.8674529,50.6128906 32.8726091,50.5836719 32.8777654,50.565625 C32.8829216,50.5475781 32.8889372,50.5286719 32.8932341,50.510625 C32.897531,50.4925781 32.9035466,50.4736719 32.9078435,50.4547656 C32.9121404,50.4358594 32.9172966,50.4169531 32.9224529,50.3989063 L32.9276091,50.373125 L32.9276091,50.3679688 C32.9276091,50.3610938 32.9276091,50.3542188 32.931906,50.3473438 C32.9362029,50.3404688 32.9396404,50.3121094 32.9430779,50.2949219 L32.9533904,50.2425 C32.9533904,50.2253125 32.9602654,50.2072656 32.9628435,50.1900781 C32.9654216,50.1728906 32.9688591,50.1557031 32.9714372,50.139375 L32.9791716,50.0878125 L32.9791716,50.0878125 L32.9791716,50.0878125 C32.9791716,50.0714844 32.9834685,50.0542969 32.9860466,50.0379688 C32.9886247,50.0216406 32.9860466,50.0035938 32.9920622,49.9864063 L32.9972185,49.9382813 C32.9972185,49.9219531 32.9972185,49.905625 32.9972185,49.8892969 C32.9972185,49.8729688 32.9972185,49.8575 33.0015154,49.8411719 C33.0058122,49.8248438 33.0015154,49.8085156 33.0015154,49.7921875 L35.461906,11.2732813 L35.1061247,11.64625 Z" transform="translate(-203.000000, -2451.000000) translate(203.000000, 2451.000000) translate(24.237157, 22.464062)"/>
            <path fill="url(#jjbmd_svg__D)" d="M31.0816716,6.1323519 C31.6695527,6.27854265 32.2273682,6.5263314 32.7299529,6.8645394 C33.2273469,7.19773095 33.6683199,7.60824206 34.0362029,8.08055503 C34.398044,8.54153385 34.6803643,9.05970192 34.8715154,9.61368003 C35.059179,10.1540812 35.1388904,10.7260762 35.1061247,11.2971957 L32.6534685,49.8289925 C32.6257747,50.3481816 32.4787365,50.8539929 32.223781,51.3071175 C31.9818186,51.7285668 31.643434,52.0866832 31.2363591,52.3521175 C30.8142781,52.6242592 30.3375327,52.8002883 29.8398747,52.8677425 C29.2841584,52.9421885 28.7192441,52.907155 28.1769841,52.7646175 L3.97010911,46.6114925 C3.39619364,46.4630298 2.85203563,46.2171123 2.36135911,45.8844613 C1.87509697,45.5562137 1.4430705,45.1540522 1.08089036,44.6925082 C0.725117197,44.2423321 0.446081145,43.7365248 0.255030988,43.1954769 C0.0648980197,42.670004 -0.0203560629,42.1123489 0.00409348817,41.5540707 L2.05284349,3.18469565 C2.07718868,2.65781797 2.2199429,2.14319784 2.47049974,1.67907065 C2.70670644,1.24718606 3.04111472,0.876864214 3.44674974,0.5979769 C3.86466766,0.313200137 4.34088144,0.125298276 4.84065599,0.0479769003 C5.39649476,-0.0366095245 5.96363888,-0.00914350317 6.50870286,0.12875815 L31.0816716,6.1323519 Z" opacity=".5" transform="translate(-203.000000, -2451.000000) translate(203.000000, 2451.000000) translate(24.237157, 22.464062) translate(0.000000, 0.349054)"/>
            <path fill="url(#jjbmd_svg__E)" d="M35.4776165,10.9432812 C35.4776165,10.9260937 35.4776165,10.9089062 35.4776165,10.8917187 C35.4776165,10.8745312 35.4776165,10.8582031 35.4776165,10.8410156 L35.4776165,10.8341406 L35.4776165,10.7903125 L35.4776165,10.7396094 C35.4776165,10.7224219 35.4776165,10.7060938 35.4776165,10.6889063 C35.4776165,10.6717188 35.4776165,10.6553906 35.4730779,10.6382031 L35.4679216,10.5875 L35.4627654,10.5359375 C35.4627654,10.51875 35.4627654,10.5024219 35.4567497,10.4852344 C35.4507341,10.4680469 35.4567497,10.4508594 35.4498747,10.4336719 L35.4498747,10.4121875 L35.4498747,10.4121875 C35.4498747,10.4027344 35.4498747,10.3941406 35.4498747,10.3846875 L35.4421404,10.3339844 C35.4421404,10.3167969 35.4361247,10.2996094 35.4335466,10.2824219 C35.4309685,10.2652344 35.427531,10.2480469 35.4240935,10.2308594 L35.413781,10.1775781 C35.413781,10.1595313 35.406906,10.1414844 35.4026091,10.1242969 C35.3983122,10.1071094 35.3948747,10.0882031 35.3914372,10.0710156 C35.3879997,10.0538281 35.3837029,10.0349219 35.379406,10.0177344 C35.3751091,10.0005469 35.379406,10.0022656 35.3733904,9.99539063 L35.3733904,9.99539063 C35.3733904,9.98507813 35.3733904,9.975625 35.3665154,9.9653125 C35.3596404,9.955 35.3570622,9.92921875 35.3527654,9.9103125 C35.3484685,9.89140625 35.3424529,9.87421875 35.338156,9.8553125 L35.3226872,9.8003125 C35.3166716,9.78140625 35.3115154,9.7625 35.3054997,9.74359375 C35.2994841,9.7246875 35.2943279,9.70578125 35.2883122,9.686875 C35.2822966,9.66796875 35.276281,9.6490625 35.269406,9.63015625 C35.262531,9.61125 35.2599529,9.60007812 35.2547966,9.58546875 L35.2547966,9.58546875 L35.2547966,9.58546875 L35.2547966,9.57601563 C35.2479216,9.55539062 35.2410466,9.53390625 35.2333122,9.51328125 L35.2101091,9.45140625 L35.186906,9.38953125 C35.1791716,9.36804687 35.1705779,9.34828125 35.1619841,9.32765625 C35.1533904,9.30703125 35.1439372,9.28125 35.1344841,9.25890625 C35.125031,9.2365625 35.1147185,9.21335937 35.104406,9.19101562 L35.104406,9.18328125 L35.104406,9.18328125 C35.0958122,9.16351562 35.0863591,9.14375 35.0777654,9.12484375 L35.0468279,9.05695312 L35.008156,8.97875 L34.9694841,8.90054687 L34.9282341,8.82320312 L34.9136247,8.79570312 L34.9136247,8.78882812 L34.8904216,8.74671875 C34.8723747,8.7140625 34.8543279,8.68140625 34.8354216,8.64960937 C34.8165154,8.6178125 34.7967497,8.58515625 34.7769841,8.55335937 L34.7176872,8.45796875 L34.6927654,8.42101562 L34.685031,8.40898437 L34.6549529,8.3634375 C34.6248747,8.31960937 34.5904997,8.2775 34.5595622,8.23367187 C34.5165935,8.174375 34.4736247,8.11335937 34.4315154,8.05492187 C34.4229216,8.04375 34.4126091,8.0334375 34.403156,8.02226562 L34.3790935,7.98875 C34.3455779,7.9475 34.3086247,7.9096875 34.2742497,7.86929687 C34.2183904,7.80398437 34.1642497,7.73867187 34.1023747,7.6759375 L34.0688591,7.63640625 C34.0327654,7.59945312 33.9940935,7.5659375 33.9579997,7.52984375 C33.8978435,7.47054687 33.8385466,7.41039062 33.7758122,7.35796875 C33.7603435,7.34335937 33.7465935,7.32789062 33.7302654,7.31414062 C33.6941716,7.28148437 33.6546404,7.253125 33.6176872,7.22132812 C33.5532341,7.1671875 33.4896404,7.11390625 33.4226091,7.06234375 C33.4028435,7.04773437 33.3847966,7.03054687 33.365031,7.0159375 C33.3452654,7.00132812 33.3048747,6.97039062 33.2739372,6.94890625 L33.1811247,6.88359375 L33.1287029,6.84835937 L33.1226872,6.8440625 L33.117531,6.8440625 L33.0874529,6.8234375 C33.055656,6.8028125 33.0238591,6.7821875 32.9912029,6.76242187 L32.9172966,6.716875 L32.8416716,6.6721875 L32.7660466,6.62835938 L32.7411247,6.61460937 L32.7342497,6.61460937 L32.6887029,6.5896875 L32.622531,6.55445312 L32.5554997,6.52007812 L32.4884685,6.4865625 L32.4205779,6.45390625 L32.3587029,6.42554688 L32.3363591,6.41523437 L32.3312029,6.41523437 L32.2968279,6.39976562 L32.2349529,6.373125 L32.1722185,6.34734375 L32.1154997,6.32414062 L32.0579216,6.30265625 L32.0012029,6.28117187 L31.9436247,6.26054687 L31.9135466,6.25023437 L31.9135466,6.25023437 L31.8903435,6.2425 L31.8344841,6.22359375 L31.7777654,6.20554687 L31.7210466,6.18835938 L31.666906,6.17203125 L31.611906,6.15742187 L31.556906,6.14195312 L31.5010466,6.12820312 L31.4958904,6.12820312 L31.4898747,6.12820312 L31.4503435,6.12820312 L31.4443279,6.12820312 L6.88253099,0.09453125 L6.83526536,0.083359375 L6.78799974,0.073046875 L6.74159349,0.062734375 L6.69432786,0.05328125 C6.67704385,0.0489401675 6.65954641,0.0454980481 6.64190599,0.04296875 L6.62299974,0.04296875 L6.61784349,0.04296875 L6.59034349,0.04296875 L6.53792161,0.033515625 L6.48635911,0.024921875 L6.43565599,0.018046875 L6.38409349,0.011171875 L6.36432786,0.011171875 L6.35659349,0.011171875 L6.33081224,0.011171875 L6.28010911,0.00515625 L6.22854661,0 L6.17784349,0 L6.12628099,0 L6.10651536,0 L6.10135911,0 L6.07557786,0 L6.02487474,0 L5.97417161,0 L5.71635911,0 L5.66393724,0 L5.61151536,0 L5.60549974,0 L5.55823411,0 L5.50581224,0 L5.45339036,0.004296875 L5.39839036,0.0103125 L5.37003099,0.0103125 L5.36401536,0.0103125 L5.34424974,0.0103125 L5.29010911,0.018046875 L5.23682786,0.02578125 L5.17753099,0.035234375 L5.13628099,0.04296875 L5.13026536,0.04296875 L5.11909349,0.04296875 L5.06151536,0.055 L5.00393724,0.06703125 L4.94034349,0.081640625 L4.90940599,0.089375 L4.90081224,0.089375 L4.87846849,0.095390625 L4.81659349,0.11171875 L4.75471849,0.129765625 L4.68424974,0.15125 L4.68424974,0.15125 L4.61549974,0.17359375 L4.54674974,0.198515625 L4.47799974,0.224296875 L4.47284349,0.224296875 L4.46596849,0.224296875 L4.39292161,0.254375 L4.30698411,0.2921875 L4.27089036,0.308515625 L4.25456224,0.31625 L4.22362474,0.33171875 C4.19612474,0.344609375 4.16862474,0.35921875 4.13768724,0.37296875 L4.10245286,0.39359375 L4.06034349,0.415078125 L4.03026536,0.43484375 C3.99589036,0.454609375 3.96065599,0.473515625 3.92628099,0.495 C3.85839036,0.53796875 3.79135911,0.5809375 3.72690599,0.63078125 L3.70370286,0.6496875 L3.66932786,0.6771875 C3.62549974,0.7115625 3.58339036,0.745078125 3.53870286,0.78203125 C3.47768724,0.834453125 3.41839036,0.889453125 3.36253099,0.946171875 L2.98698411,1.32515625 C3.08311153,1.22872642 3.18560788,1.13886268 3.29378099,1.05617188 L3.32901536,1.0278125 C3.43296247,0.949688075 3.54174739,0.878217243 3.65471849,0.813828125 L3.72690599,0.77171875 C3.77589036,0.7459375 3.82487474,0.719296875 3.87471849,0.695234375 L3.89190599,0.6875 C3.95549974,0.657421875 4.01909349,0.6290625 4.08526536,0.6015625 L4.09128099,0.6015625 C4.16089036,0.5740625 4.23135911,0.54828125 4.30268724,0.5259375 L4.30268724,0.5259375 C4.37430182,0.50359375 4.44648932,0.48296875 4.51924974,0.4640625 L4.52784349,0.4640625 C4.60089036,0.44515625 4.67479661,0.4296875 4.74956224,0.4159375 L4.75471849,0.4159375 C4.83034349,0.4021875 4.90596849,0.391015625 4.98331224,0.3815625 L4.98932786,0.3815625 C5.06753099,0.37296875 5.14573411,0.36609375 5.22565599,0.3609375 L5.22565599,0.3609375 C5.30557786,0.356640625 5.38635911,0.354921875 5.46714036,0.354921875 L5.47315599,0.354921875 C5.55393724,0.354921875 5.63557786,0.354921875 5.71807786,0.363515625 L5.72323411,0.363515625 C5.80917161,0.368671875 5.88909349,0.377265625 5.97331224,0.387578125 L5.97846849,0.387578125 C6.06440599,0.39875 6.15034349,0.411640625 6.23198411,0.427109375 L6.23714036,0.427109375 C6.32307786,0.4434375 6.40901536,0.46234375 6.49495286,0.48296875 L31.0679216,6.49085937 C31.2157341,6.52695312 31.3601091,6.56992187 31.5027654,6.61890625 L31.5070622,6.61890625 C31.6491456,6.66760417 31.7880779,6.72231771 31.9238591,6.78304687 L31.9290154,6.78304687 C32.0647966,6.84320312 32.1971404,6.91023437 32.326906,6.9815625 L32.3346404,6.98585937 C32.4629737,7.05747396 32.5884424,7.13395833 32.7110466,7.2153125 L32.7222185,7.22304687 C32.8227654,7.29007812 32.9198747,7.363125 33.0161247,7.43703125 C33.0822966,7.48859375 33.1467497,7.541875 33.2112029,7.59601562 C33.275656,7.65015625 33.3177654,7.68195312 33.3693279,7.73265625 C33.4208904,7.78335937 33.4913591,7.84953125 33.5515154,7.90882812 C33.6116716,7.968125 33.6494841,8.00507812 33.6958904,8.05492187 C33.7551872,8.11765625 33.8101872,8.18296875 33.8677654,8.24828125 C33.9115935,8.29898437 33.9537029,8.34882812 33.997531,8.40125 C34.0516716,8.47 34.1023747,8.54132812 34.1530779,8.61265625 C34.203781,8.68398437 34.2390154,8.72867187 34.279406,8.78882812 L34.2871404,8.80085937 C34.3653435,8.9203125 34.4392497,9.04320312 34.5079997,9.1678125 L34.5079997,9.17554687 C34.5773227,9.30273437 34.6409164,9.43192708 34.698781,9.563125 L34.698781,9.563125 C34.7560727,9.69546875 34.8084945,9.82953125 34.8560466,9.9653125 L34.8560466,9.9653125 C34.901307,10.1005208 34.9408383,10.2371615 34.9746404,10.3752344 L34.9746404,10.3752344 C35.008156,10.5135937 35.0347966,10.6519531 35.0545622,10.7920312 L35.0545622,10.7920312 C35.0743279,10.9321094 35.0872185,11.0730469 35.0932341,11.2139844 L35.0932341,11.2139844 C35.0988144,11.3554893 35.0970934,11.4971879 35.0880779,11.6385156 L35.4515935,11.2535156 L35.4515935,11.2414844 L35.4515935,11.1907812 L35.4515935,11.1392187 C35.4515935,11.1220312 35.4515935,11.1057031 35.4515935,11.0885156 C35.4515935,11.0713281 35.4515935,11.0541406 35.4515935,11.0369531 L35.4515935,10.98625 C35.4782341,10.9767969 35.4782341,10.9596094 35.4776165,10.9432812 Z" transform="translate(-203.000000, -2451.000000) translate(203.000000, 2451.000000) translate(24.237157, 22.464062)"/>
        </g>
        <g fill-rule="nonzero">
            <path fill="url(#jjbmd_svg__F)" d="M34.6561384,11.488125 L32.2301227,49.5240625 C32.2241071,49.6228906 32.2137946,49.72 32.2000446,49.8153906 L32.2000446,49.8153906 C32.1862946,49.9099219 32.1691071,50.0027344 32.1484821,50.0938281 L32.1484821,50.0989844 C32.1278571,50.1849219 32.1037946,50.2760156 32.077154,50.3619531 L32.077154,50.3679688 C32.0505134,50.4539063 32.0195759,50.5398438 31.9869196,50.6171875 L31.9869196,50.6232031 C31.953404,50.703125 31.9173102,50.7813281 31.877779,50.8569531 L31.8717634,50.8698438 C31.832805,50.94375 31.791555,51.0159375 31.7480134,51.0864063 L31.740279,51.0984375 C31.6964509,51.1663281 31.6543415,51.2325 31.6019196,51.2969531 C31.5986839,51.3021776 31.5949419,51.307071 31.5907477,51.3115625 C31.5400446,51.3785937 31.4867634,51.4439062 31.4300446,51.5057812 L31.7858259,51.1130469 C31.8116071,51.0838281 31.8373884,51.0546094 31.8623102,51.0271094 C31.8872321,50.9996094 31.912154,50.9660937 31.9362165,50.9351562 L31.946529,50.9214062 L31.9577009,50.9059375 L32.0066852,50.840625 L32.0728571,50.7426562 C32.0805915,50.7314844 32.0883259,50.7194531 32.0952009,50.7074219 L32.0952009,50.7014062 C32.095483,50.699411 32.095483,50.6973859 32.0952009,50.6953906 L32.1123884,50.66875 C32.1278571,50.6438281 32.1424665,50.6180469 32.1570759,50.593125 C32.1716852,50.5682031 32.1862946,50.5415625 32.2000446,50.5157812 C32.2069196,50.50375 32.2129352,50.4917188 32.2189509,50.4788281 C32.2215746,50.4747168 32.2238733,50.4704068 32.2258259,50.4659375 L32.2412946,50.4367188 C32.2516071,50.4160938 32.2619196,50.3954688 32.2713727,50.3748438 C32.2808259,50.3542188 32.2911384,50.3327344 32.3005915,50.31125 C32.3100446,50.2897656 32.3194977,50.2691406 32.3280915,50.2476563 C32.3304613,50.2429447 32.3324722,50.238061 32.3341071,50.2330469 L32.3341071,50.2330469 L32.3341071,50.2330469 L32.352154,50.1892188 C32.3598884,50.1703125 32.3667634,50.1514063 32.3736384,50.1325 C32.3805134,50.1135938 32.3882477,50.0946875 32.3951227,50.0749219 C32.4019977,50.0551563 32.4080134,50.0371094 32.4148884,50.0173438 L32.4252009,49.9846875 L32.4252009,49.9778125 C32.4275936,49.9716403 32.4296026,49.9653262 32.4312165,49.9589063 C32.4372321,49.9408594 32.4423884,49.9228125 32.4475446,49.9047656 L32.4630134,49.850625 C32.4681696,49.8325781 32.4733259,49.8136719 32.4776227,49.795625 C32.4819196,49.7775781 32.4870759,49.7586719 32.4913727,49.7397656 C32.4956696,49.7208594 32.4913727,49.7234375 32.4973884,49.7148438 L32.4973884,49.7105469 C32.4973884,49.7028125 32.4973884,49.6959375 32.5016852,49.6890625 C32.5059821,49.6821875 32.5094196,49.6546875 32.5128571,49.6375 L32.5231696,49.5859375 C32.5231696,49.56875 32.5300446,49.5515625 32.5326227,49.534375 C32.5352009,49.5171875 32.5386384,49.5008594 32.5412165,49.4836719 L32.5489509,49.4329688 L32.5489509,49.4329688 C32.5489509,49.4166406 32.5532477,49.4003125 32.5558259,49.3839844 C32.558404,49.3676562 32.5601227,49.3504688 32.5618415,49.3332812 L32.5669977,49.2851563 L32.572154,49.2378906 C32.572154,49.2215625 32.572154,49.2052344 32.572154,49.1897656 C32.572154,49.1742969 32.572154,49.1571094 32.572154,49.1416406 L35.0187946,11.1074219 L34.6561384,11.488125 Z" transform="translate(-203.000000, -2451.000000) translate(203.000000, 2451.000000) translate(10.699955, 29.009063)"/>
            <path fill="url(#jjbmd_svg__G)" d="M30.6832477,6.05844978 C31.2634334,6.20244583 31.8139839,6.44674719 32.3100446,6.78032478 C32.801066,7.110154 33.236238,7.51631452 33.5991071,7.98344978 C33.9559261,8.43865517 34.2344492,8.95010371 34.4232477,9.49680916 C34.6088593,10.0305344 34.6876989,10.5955515 34.655279,11.1596998 L32.2292634,49.1956373 C32.2009209,49.7092894 32.0538385,50.2093697 31.7995759,50.6565748 C31.5613272,51.0726274 31.227598,51.4260917 30.825904,51.6878248 C30.4093083,51.957415 29.9383373,52.1317183 29.4466071,52.1982935 C28.8981025,52.2720909 28.3404506,52.2376391 27.8052009,52.0968873 L3.91457587,46.0228248 C3.34777414,45.8762657 2.81031715,45.6335526 2.32559149,45.3052467 C1.84553541,44.9809439 1.41902462,44.5837177 1.06145087,44.1279029 C0.710909053,43.6832183 0.435426654,43.1842149 0.245903993,42.6506373 C0.0613314279,42.1319753 -0.020683741,41.5823861 0.00441961805,41.0324342 L2.02738837,3.15118416 C2.05084798,2.62874798 2.19153461,2.11828168 2.43902899,1.65759041 C2.67243286,1.23122169 3.00270557,0.865625699 3.40324774,0.590246657 C3.8157734,0.309906305 4.28541544,0.124691228 4.77824774,0.0479810318 C5.32688866,-0.0364379544 5.88692434,-0.00925459439 6.42481024,0.127902907 L30.6832477,6.05844978 Z" opacity=".2" transform="translate(-203.000000, -2451.000000) translate(203.000000, 2451.000000) translate(10.699955, 29.009063) translate(0.000000, 0.331003)"/>
            <path fill="url(#jjbmd_svg__H)" d="M35.0187946,10.7928906 C35.0187946,10.7765625 35.0187946,10.759375 35.0187946,10.7430469 C35.0187946,10.7267187 35.0187946,10.7095312 35.0187946,10.6923437 L35.0187946,10.6854687 L35.0187946,10.6425 L35.0187946,10.5926562 C35.0187946,10.5754687 35.0187946,10.5591406 35.0187946,10.5428125 C35.0187946,10.5264844 35.0187946,10.5092969 35.0187946,10.4929687 C35.0187946,10.4766406 35.0187946,10.4585937 35.0144977,10.4422656 L35.0093415,10.3915625 C35.0093415,10.374375 35.0093415,10.3580469 35.0033259,10.3408594 C34.9973102,10.3236719 35.0033259,10.3073437 34.9964509,10.2910156 C34.9969301,10.2838622 34.9969301,10.2766847 34.9964509,10.2695312 L34.9964509,10.2695312 C34.9959775,10.2606573 34.9959775,10.2517645 34.9964509,10.2428906 C34.9964509,10.2265625 34.9912946,10.209375 34.9878571,10.1921875 L34.9801227,10.1414844 C34.9801227,10.1251562 34.9741071,10.1079688 34.9706696,10.0907813 L34.9603571,10.0383594 L34.9500446,9.9859375 C34.9457477,9.96789063 34.9423102,9.95070312 34.9380134,9.93265625 C34.9337165,9.91460938 34.930279,9.89742187 34.9259821,9.88023437 L34.9208259,9.85875 L34.9208259,9.85875 C34.9190393,9.84889844 34.9167446,9.83914584 34.9139509,9.82953125 C34.9139509,9.81148437 34.9053571,9.79257812 34.9002009,9.77453125 C34.8950446,9.75648437 34.8907477,9.7384375 34.8855915,9.72039062 L34.8469196,9.6628125 C34.8417634,9.64390625 34.8366071,9.625 34.8305915,9.60695312 C34.8245759,9.58890625 34.8194196,9.56914062 34.813404,9.55023437 L34.7953571,9.494375 C34.7902009,9.47976562 34.7850446,9.46515625 34.7807477,9.45054687 L34.7807477,9.45054687 L34.7807477,9.45054687 L34.7807477,9.44109375 C34.7738727,9.42046875 34.7669977,9.39984375 34.7592634,9.37921875 L34.7369196,9.31820312 L34.7137165,9.2571875 C34.7059821,9.2365625 34.6973884,9.2159375 34.689654,9.19617187 L34.6612946,9.12828125 C34.6518415,9.1059375 34.6423884,9.08359375 34.6320759,9.06125 L34.6320759,9.05351562 L34.6320759,9.05351562 L34.6062946,8.9959375 L34.5753571,8.92890625 L34.5375446,8.8515625 L34.4988727,8.77507812 C34.4851227,8.74929687 34.4722321,8.72351562 34.4584821,8.69859375 C34.4533259,8.68914062 34.4481696,8.68054687 34.4438727,8.67109375 L34.4438727,8.66421875 L34.421529,8.62296875 C34.4034821,8.5903125 34.3845759,8.55851562 34.366529,8.52671875 C34.3484821,8.49492187 34.3287165,8.463125 34.3089509,8.43132812 L34.2505134,8.33765625 L34.2264509,8.3015625 L34.2187165,8.28953125 L34.1886384,8.24484375 C34.1594196,8.20101562 34.1250446,8.15890625 34.0941071,8.1159375 C34.0519977,8.0575 34.0124665,7.99734375 33.967779,7.93976562 C33.9591852,7.92859375 33.9488727,7.91828125 33.940279,7.90710937 C33.9316852,7.8959375 33.9248102,7.885625 33.9162165,7.87445312 C33.8835602,7.8340625 33.8466071,7.79625 33.8130915,7.75585937 C33.7580915,7.69226562 33.7039509,7.6278125 33.6412165,7.5659375 C33.6300446,7.55304688 33.6197321,7.53929687 33.6077009,7.52726562 C33.5733259,7.4903125 33.534654,7.45679687 33.4985602,7.4215625 C33.4392634,7.36226562 33.3808259,7.30382812 33.3189509,7.2496875 C33.3034821,7.2359375 33.2897321,7.22046875 33.2742634,7.20671875 C33.2381696,7.17492187 33.1994977,7.1465625 33.1625446,7.115625 C33.0989509,7.06234375 33.0362165,7.0090625 32.9700446,6.95835937 C32.9511384,6.94375 32.9330915,6.9265625 32.9133259,6.91195312 C32.8935602,6.89734375 32.854029,6.868125 32.8230915,6.84578125 C32.792154,6.8234375 32.7629352,6.8028125 32.7319977,6.7821875 L32.6804352,6.74695312 C32.6781122,6.74602808 32.6760481,6.74455368 32.6744196,6.74265625 L32.6692634,6.74265625 L32.6391852,6.72289062 L32.544654,6.66273437 L32.4716071,6.6171875 L32.3968415,6.5725 L32.3220759,6.52953125 L32.2980134,6.51664062 L32.290279,6.51234375 L32.2464509,6.48828125 L32.180279,6.45304687 L32.1149665,6.41953125 L32.0479352,6.386875 L31.980904,6.35421875 L31.9198884,6.32671875 L31.8975446,6.31640625 L31.8932477,6.31640625 L31.8588727,6.3009375 L31.7978571,6.27429688 L31.7359821,6.249375 L31.6792634,6.22703125 L31.623404,6.2046875 L31.5666852,6.1840625 L31.5099665,6.1634375 L31.4807477,6.153125 L31.4807477,6.153125 L31.458404,6.14539063 L31.403404,6.12734375 L31.3475446,6.10929688 L31.2916852,6.09210938 L31.2375446,6.07664063 L31.183404,6.06117188 L31.1292634,6.0465625 L31.0742634,6.0328125 L31.0691071,6.0328125 L31.0630915,6.0328125 L31.0570759,6.0328125 L31.0519196,6.0328125 L6.80293524,0.103125 L6.75652899,0.091953125 L6.71012274,0.081640625 L6.66371649,0.071328125 L6.61731024,0.061875 L6.56574774,0.0515625 L6.54684149,0.0515625 L6.54168524,0.0515625 L6.51418524,0.04640625 L6.46262274,0.0378125 L6.41191962,0.030078125 L6.36121649,0.02234375 L6.31051337,0.01546875 L6.29074774,0.01546875 L6.28645087,0.01546875 L6.26066962,0.01546875 L6.20996649,0.009453125 L6.16012274,0.004296875 L6.10941962,0.004296875 L6.05871649,0 L6.00887274,0 L5.95902899,0 L5.90832587,0 L5.85848212,0 L5.65481024,0 L5.60324774,0 L5.55082587,0 L5.54223212,0 L5.49582587,0 L5.44340399,0 L5.39184149,0.004296875 L5.33770087,0.009453125 L5.31020087,0.009453125 L5.30332587,0.009453125 L5.28441962,0.009453125 L5.23113837,0.016328125 L5.17785712,0.0240625 L5.11941962,0.033515625 L5.07816962,0.04125 L5.07301337,0.04125 L5.06184149,0.04125 L5.00512274,0.052421875 L4.94840399,0.064453125 L4.88566962,0.0790625 L4.85473212,0.086796875 L4.85473212,0.086796875 L4.85043524,0.086796875 L4.82809149,0.091953125 L4.76707587,0.10828125 L4.70691962,0.12546875 L4.63731024,0.1478125 L4.63731024,0.1478125 L4.56941962,0.17015625 L4.50066962,0.195078125 C4.47832587,0.202526042 4.45598212,0.211119792 4.43363837,0.220859375 L4.42848212,0.220859375 L4.42160712,0.220859375 L4.34941962,0.2509375 L4.26348212,0.287890625 L4.22824774,0.30421875 L4.21191962,0.311953125 L4.18098212,0.3265625 L4.10106024,0.3678125 L4.06582587,0.387578125 L4.02457587,0.4090625 C4.01426337,0.415078125 4.00566962,0.4228125 3.99449774,0.428828125 C3.96098212,0.44859375 3.92574774,0.466640625 3.89223212,0.488125 C3.82520087,0.530234375 3.75902899,0.5740625 3.69543524,0.6221875 L3.67309149,0.640234375 C3.66106024,0.648828125 3.64988837,0.659140625 3.63871649,0.667734375 C3.59488837,0.70125 3.55277899,0.734765625 3.50895087,0.77171875 C3.44879462,0.82328125 3.39121649,0.877421875 3.33707587,0.93328125 L2.96582587,1.30796875 C3.06118907,1.21281828 3.16251383,1.1238362 3.26918524,1.0415625 C3.28121649,1.03296875 3.29238837,1.02265625 3.30356024,1.0140625 C3.40670676,0.937282544 3.51431769,0.866689772 3.62582587,0.80265625 L3.69715399,0.76140625 C3.74527899,0.735625 3.79340399,0.70984375 3.84324774,0.68578125 L3.85957587,0.678046875 C3.92231024,0.648828125 3.98590399,0.62046875 4.05035712,0.592109375 L4.05723212,0.592109375 C4.12512274,0.56546875 4.19473212,0.540546875 4.26520087,0.51734375 L4.26520087,0.51734375 C4.33566962,0.495 4.40699774,0.474375 4.47918524,0.45546875 L4.48777899,0.45546875 C4.55910712,0.437421875 4.63215399,0.421953125 4.70606024,0.408203125 L4.71207587,0.408203125 C4.78598212,0.394453125 4.86074774,0.38328125 4.93723212,0.373828125 L4.94324774,0.373828125 C5.01973212,0.365234375 5.09793524,0.358359375 5.17613837,0.3540625 L5.17613837,0.3540625 C5.25520087,0.349765625 5.33426337,0.348046875 5.41504462,0.348046875 L5.42020087,0.348046875 C5.50012274,0.348046875 5.58090399,0.348046875 5.66254462,0.3575 L5.66770087,0.3575 C5.75363837,0.36265625 5.83184149,0.370390625 5.91434149,0.380703125 L5.91949774,0.380703125 C6.00543524,0.391015625 6.08621649,0.40390625 6.17043524,0.419375 L6.17043524,0.419375 C6.25637274,0.435703125 6.34231024,0.45375 6.42824774,0.475234375 L30.6858259,6.40492187 C30.8313467,6.43986979 30.9745759,6.48197917 31.1155134,6.53125 L31.1155134,6.53125 C31.2555915,6.579375 31.3930915,6.634375 31.527154,6.69367187 L31.5323102,6.69367187 C31.6663727,6.75382812 31.7972842,6.81914062 31.9250446,6.88960937 L31.9319196,6.89390625 C32.0591071,6.964375 32.1837165,7.04 32.304029,7.11992187 L32.3152009,7.12765625 C32.4148884,7.1946875 32.510279,7.26601562 32.6048102,7.3390625 C32.6709821,7.38976562 32.7345759,7.44304687 32.7973102,7.49632812 C32.8600446,7.54960937 32.9030134,7.58226562 32.9537165,7.63125 C33.0044196,7.68023437 33.0748884,7.74640625 33.1333259,7.803125 C33.1917634,7.85984375 33.2304352,7.89765625 33.2768415,7.9475 C33.3232477,7.99734375 33.3885602,8.07382812 33.4435602,8.13828125 C33.486529,8.188125 33.5294977,8.23796875 33.5716071,8.28953125 C33.6248884,8.35742187 33.6747321,8.42789062 33.7254352,8.49835937 C33.7761384,8.56882812 33.8113727,8.61265625 33.8500446,8.67023437 L33.8569196,8.68140625 C33.9351227,8.8 34.0073102,8.92117187 34.0752009,9.04492187 L34.0794977,9.05179687 C34.1471019,9.17726562 34.2098363,9.30473958 34.2677009,9.43421875 L34.2677009,9.43421875 C34.3249925,9.56484375 34.376555,9.6971875 34.4223884,9.83125 L34.4223884,9.83125 C34.4679352,9.96445312 34.5083259,10.099375 34.5401227,10.2360156 L34.5401227,10.2360156 C34.572779,10.3726562 34.5985602,10.5092969 34.6183259,10.6476562 L34.6183259,10.6476562 C34.6382047,10.7858323 34.6508261,10.9249555 34.6561384,11.0644531 L34.6561384,11.0644531 C34.6620103,11.2045107 34.6605761,11.3447792 34.6518415,11.4846875 L35.0102009,11.1039844 L35.0102009,11.0919531 L35.0102009,11.0421094 L35.0102009,10.9914062 C35.0102009,10.9742187 35.0102009,10.9578906 35.0102009,10.9407031 C35.0102009,10.9235156 35.0102009,10.9071875 35.0102009,10.89 L35.0102009,10.8401562 C35.0230915,10.8264062 35.0230915,10.8100781 35.0187946,10.7928906 Z" transform="translate(-203.000000, -2451.000000) translate(203.000000, 2451.000000) translate(10.699955, 29.009063)"/>
        </g>
    </g>
</svg>
