<svg xmlns="http://www.w3.org/2000/svg" width="88" height="88" viewBox="0 0 88 88">
    <defs>
        <linearGradient id="plzldr_svg__a" x1="0%" x2="100%" y1="49.997%" y2="49.997%">
            <stop offset="0%" stop-color="#FFE5CD"/>
            <stop offset="21%" stop-color="#FBDFC5"/>
            <stop offset="49%" stop-color="#F9DDC1"/>
            <stop offset="67%" stop-color="#F7D9BC"/>
            <stop offset="90%" stop-color="#F2CFAD"/>
            <stop offset="100%" stop-color="#EEC8A3"/>
        </linearGradient>
        <linearGradient id="plzldr_svg__b" x1="-.003%" x2="100.007%" y1="50.03%" y2="50.03%">
            <stop offset="0%" stop-color="#F0CDAA"/>
            <stop offset="4%" stop-color="#EFCCA8"/>
            <stop offset="27%" stop-color="#EECAA6"/>
            <stop offset="63%" stop-color="#D5A068"/>
            <stop offset="71%" stop-color="#CF9659"/>
            <stop offset="79%" stop-color="#D1995E"/>
            <stop offset="88%" stop-color="#D6A26B"/>
            <stop offset="98%" stop-color="#DFB181"/>
            <stop offset="100%" stop-color="#E1B587"/>
        </linearGradient>
        <linearGradient id="plzldr_svg__c" x1="0%" x2="100%" y1="49.998%" y2="49.998%">
            <stop offset="0%" stop-color="#FFF"/>
            <stop offset="18%" stop-color="#FFFDFC"/>
            <stop offset="34%" stop-color="#FEF7F1"/>
            <stop offset="49%" stop-color="#FCEEE0"/>
            <stop offset="62%" stop-color="#FAE0C7"/>
            <stop offset="65%" stop-color="#F9DDC1"/>
            <stop offset="78%" stop-color="#F7D9BC"/>
            <stop offset="93%" stop-color="#F2CFAD"/>
            <stop offset="100%" stop-color="#EEC8A3"/>
        </linearGradient>
        <linearGradient id="plzldr_svg__e" x1=".009%" x2="99.997%" y1="50.013%" y2="50.013%">
            <stop offset="0%" stop-color="#484A50"/>
            <stop offset="14%" stop-color="#58585F"/>
            <stop offset="29%" stop-color="#626169"/>
            <stop offset="49%" stop-color="#65646C"/>
            <stop offset="67%" stop-color="#616068"/>
            <stop offset="86%" stop-color="#55555C"/>
            <stop offset="100%" stop-color="#46484E"/>
        </linearGradient>
        <linearGradient id="plzldr_svg__d" x1="34.175%" x2="65.604%" y1="60.93%" y2="38.812%">
            <stop offset="0%" stop-color="#FFF" stop-opacity=".4"/>
            <stop offset="29%" stop-color="#FFF" stop-opacity=".4"/>
            <stop offset="31%" stop-color="#FFF" stop-opacity=".4"/>
            <stop offset="57%" stop-color="#FFF" stop-opacity=".4"/>
            <stop offset="82%" stop-color="#7E7F7E" stop-opacity=".82"/>
            <stop offset="100%" stop-color="#464846"/>
        </linearGradient>
        <linearGradient id="plzldr_svg__g" x1="46.791%" x2="57.487%" y1="45.784%" y2="54.076%">
            <stop offset="0%" stop-color="#FBE0C5"/>
            <stop offset="6%" stop-color="#F7DABC"/>
            <stop offset="32%" stop-color="#EAC49C"/>
            <stop offset="57%" stop-color="#E1B485"/>
            <stop offset="80%" stop-color="#DBAA77"/>
            <stop offset="100%" stop-color="#D9A772"/>
        </linearGradient>
        <linearGradient id="plzldr_svg__f" x1="62.806%" x2="36.799%" y1="54.709%" y2="41.996%">
            <stop offset="0%" stop-color="#FADFC3"/>
            <stop offset="2%" stop-color="#FAE2C9"/>
            <stop offset="8%" stop-color="#FCEEE1"/>
            <stop offset="15%" stop-color="#FDF5F0"/>
            <stop offset="20%" stop-color="#FDF8F5"/>
            <stop offset="35%" stop-color="#EFD8C2"/>
            <stop offset="59%" stop-color="#DAA975"/>
            <stop offset="69%" stop-color="#DBAB79"/>
            <stop offset="78%" stop-color="#E0B384"/>
            <stop offset="87%" stop-color="#E8C096"/>
            <stop offset="96%" stop-color="#F2D2B0"/>
            <stop offset="100%" stop-color="#F9DDC1"/>
        </linearGradient>
        <linearGradient id="plzldr_svg__i" x1=".001%" x2="100%" y1="49.991%" y2="49.991%">
            <stop offset="0%" stop-color="#FADFC3"/>
            <stop offset="2%" stop-color="#FAE2C9"/>
            <stop offset="8%" stop-color="#FCEEE1"/>
            <stop offset="15%" stop-color="#FDF5F0"/>
            <stop offset="20%" stop-color="#FDF8F5"/>
            <stop offset="37%" stop-color="#EBCFB5"/>
            <stop offset="59%" stop-color="#D59F68"/>
            <stop offset="69%" stop-color="#D6A26C"/>
            <stop offset="77%" stop-color="#DBA977"/>
            <stop offset="85%" stop-color="#E3B689"/>
            <stop offset="93%" stop-color="#EDC8A3"/>
            <stop offset="100%" stop-color="#F9DDC1"/>
        </linearGradient>
        <linearGradient id="plzldr_svg__h" x1="47.341%" x2="55.619%" y1="38.878%" y2="60.956%">
            <stop offset="0%" stop-color="#FADFC3"/>
            <stop offset="1%" stop-color="#FAE1C7" stop-opacity=".98"/>
            <stop offset="8%" stop-color="#FCEEE0" stop-opacity=".88"/>
            <stop offset="14%" stop-color="#FDF5F0" stop-opacity=".82"/>
            <stop offset="20%" stop-color="#FDF8F5" stop-opacity=".8"/>
            <stop offset="26%" stop-color="#F1DCC8" stop-opacity=".87"/>
            <stop offset="33%" stop-color="#E7C6A3" stop-opacity=".93"/>
            <stop offset="40%" stop-color="#E0B689" stop-opacity=".97"/>
            <stop offset="48%" stop-color="#DBAC7A" stop-opacity=".99"/>
            <stop offset="59%" stop-color="#DAA975"/>
            <stop offset="69%" stop-color="#DBAB79"/>
            <stop offset="78%" stop-color="#E0B384"/>
            <stop offset="87%" stop-color="#E8C096"/>
            <stop offset="96%" stop-color="#F2D2B0"/>
            <stop offset="100%" stop-color="#F9DDC1"/>
        </linearGradient>
        <linearGradient id="plzldr_svg__k" x1="0%" x2="99.972%" y1="50.004%" y2="50.004%">
            <stop offset="0%" stop-color="#FADFC3"/>
            <stop offset="5%" stop-color="#FAE0C5" stop-opacity=".98"/>
            <stop offset="11%" stop-color="#FBE3CC" stop-opacity=".93"/>
            <stop offset="17%" stop-color="#FBE9D7" stop-opacity=".84"/>
            <stop offset="23%" stop-color="#FCF1E6" stop-opacity=".72"/>
            <stop offset="28%" stop-color="#FDF8F5" stop-opacity=".6"/>
            <stop offset="35%" stop-color="#EDD4BB" stop-opacity=".76"/>
            <stop offset="43%" stop-color="#E0B68D" stop-opacity=".89"/>
            <stop offset="51%" stop-color="#D8A571" stop-opacity=".97"/>
            <stop offset="59%" stop-color="#D59F68"/>
            <stop offset="69%" stop-color="#D6A26C"/>
            <stop offset="77%" stop-color="#DBA977"/>
            <stop offset="85%" stop-color="#E3B689"/>
            <stop offset="93%" stop-color="#EDC8A3"/>
            <stop offset="100%" stop-color="#F9DDC1"/>
        </linearGradient>
        <linearGradient id="plzldr_svg__j" x1="50.027%" x2="50.027%" y1="-.172%" y2="101.432%">
            <stop offset="0%" stop-color="#DAA975"/>
            <stop offset="11%" stop-color="#DDAF7D"/>
            <stop offset="28%" stop-color="#E7BE94"/>
            <stop offset="49%" stop-color="#F6D8B9"/>
            <stop offset="54%" stop-color="#FADFC3"/>
            <stop offset="59%" stop-color="#F7DABC"/>
            <stop offset="85%" stop-color="#EAC49C"/>
            <stop offset="100%" stop-color="#E5BC90"/>
        </linearGradient>
        <linearGradient id="plzldr_svg__m" x1="0%" x2="100%" y1="50.003%" y2="50.003%">
            <stop offset="0%" stop-color="#FFE5CD"/>
            <stop offset="8%" stop-color="#FCE0C6"/>
            <stop offset="38%" stop-color="#F4D3B3"/>
            <stop offset="69%" stop-color="#F0CBA7"/>
            <stop offset="100%" stop-color="#EEC8A3"/>
        </linearGradient>
        <linearGradient id="plzldr_svg__l" x1="49.999%" x2="49.999%" y1="-.204%" y2="100.21%">
            <stop offset="0%" stop-color="#D0985B"/>
            <stop offset="32%" stop-color="#F0DFCC"/>
            <stop offset="48%" stop-color="#FFF"/>
            <stop offset="55%" stop-color="#FBF7F2"/>
            <stop offset="67%" stop-color="#F1E0CF"/>
            <stop offset="84%" stop-color="#E1BD96"/>
            <stop offset="100%" stop-color="#CF9659"/>
        </linearGradient>
        <linearGradient id="plzldr_svg__n" x1="0%" x2="100%" y1="50%" y2="50%">
            <stop offset="0%" stop-color="#FFE5CD"/>
            <stop offset="21%" stop-color="#FBDFC5"/>
            <stop offset="49%" stop-color="#F9DDC1"/>
            <stop offset="67%" stop-color="#F7D9BC"/>
            <stop offset="90%" stop-color="#F2CFAD"/>
            <stop offset="100%" stop-color="#EEC8A3"/>
        </linearGradient>
        <linearGradient id="plzldr_svg__o" x1="-.003%" x2="100.007%" y1="50.011%" y2="50.011%">
            <stop offset="0%" stop-color="#F0CDAA"/>
            <stop offset="4%" stop-color="#EFCCA8"/>
            <stop offset="27%" stop-color="#EECAA6"/>
            <stop offset="63%" stop-color="#D5A068"/>
            <stop offset="71%" stop-color="#CF9659"/>
            <stop offset="79%" stop-color="#D1995E"/>
            <stop offset="88%" stop-color="#D6A26B"/>
            <stop offset="98%" stop-color="#DFB181"/>
            <stop offset="100%" stop-color="#E1B587"/>
        </linearGradient>
        <linearGradient id="plzldr_svg__q" x1="0%" x2="100%" y1="50%" y2="50%">
            <stop offset="0%" stop-color="#FFE5CD"/>
            <stop offset="21%" stop-color="#FBDFC5"/>
            <stop offset="49%" stop-color="#F9DDC1"/>
            <stop offset="67%" stop-color="#F7D9BC"/>
            <stop offset="90%" stop-color="#F2CFAD"/>
            <stop offset="100%" stop-color="#EEC8A3"/>
        </linearGradient>
        <linearGradient id="plzldr_svg__p" x1="-2.471%" x2="102.471%" y1="49.818%" y2="49.818%">
            <stop offset="0%" stop-color="#F9DDC1"/>
            <stop offset="13%" stop-color="#F9DFC4"/>
            <stop offset="25%" stop-color="#FAE5CF"/>
            <stop offset="36%" stop-color="#FCEEE1"/>
            <stop offset="46%" stop-color="#FEFCF9"/>
            <stop offset="48%" stop-color="#FFF"/>
            <stop offset="81%" stop-color="#F4DDC6"/>
            <stop offset="100%" stop-color="#EEC8A3"/>
        </linearGradient>
        <linearGradient id="plzldr_svg__s" x1="0%" x2="100%" y1="50.005%" y2="50.005%">
            <stop offset="0%" stop-color="#FFE5CD"/>
            <stop offset="21%" stop-color="#FBDFC5"/>
            <stop offset="49%" stop-color="#F9DDC1"/>
            <stop offset="67%" stop-color="#F7D9BC"/>
            <stop offset="90%" stop-color="#F2CFAD"/>
            <stop offset="100%" stop-color="#EEC8A3"/>
        </linearGradient>
        <linearGradient id="plzldr_svg__r" x1="-.577%" x2="100.577%" y1="50.252%" y2="50.252%">
            <stop offset="0%" stop-color="#F9DDC1"/>
            <stop offset="13%" stop-color="#F9DFC4"/>
            <stop offset="25%" stop-color="#FAE5CF"/>
            <stop offset="36%" stop-color="#FCEEE1"/>
            <stop offset="46%" stop-color="#FEFCF9"/>
            <stop offset="48%" stop-color="#FFF"/>
            <stop offset="81%" stop-color="#F4DDC6"/>
            <stop offset="100%" stop-color="#EEC8A3"/>
        </linearGradient>
        <linearGradient id="plzldr_svg__u" x1="99.975%" x2="0%" y1="50%" y2="50%">
            <stop offset="0%" stop-color="#FFE5CD"/>
            <stop offset="21%" stop-color="#FBDFC5"/>
            <stop offset="49%" stop-color="#F9DDC1"/>
            <stop offset="67%" stop-color="#F7D9BC"/>
            <stop offset="90%" stop-color="#F2CFAD"/>
            <stop offset="100%" stop-color="#EEC8A3"/>
        </linearGradient>
        <linearGradient id="plzldr_svg__t" x1="102.446%" x2="-2.47%" y1="49.818%" y2="49.818%">
            <stop offset="0%" stop-color="#F9DDC1"/>
            <stop offset="13%" stop-color="#F9DFC4"/>
            <stop offset="25%" stop-color="#FAE5CF"/>
            <stop offset="36%" stop-color="#FCEEE1"/>
            <stop offset="46%" stop-color="#FEFCF9"/>
            <stop offset="48%" stop-color="#FFF"/>
            <stop offset="81%" stop-color="#F4DDC6"/>
            <stop offset="100%" stop-color="#EEC8A3"/>
        </linearGradient>
        <linearGradient id="plzldr_svg__w" x1="99.994%" x2="0%" y1="50.005%" y2="50.005%">
            <stop offset="0%" stop-color="#FFE5CD"/>
            <stop offset="21%" stop-color="#FBDFC5"/>
            <stop offset="49%" stop-color="#F9DDC1"/>
            <stop offset="67%" stop-color="#F7D9BC"/>
            <stop offset="90%" stop-color="#F2CFAD"/>
            <stop offset="100%" stop-color="#EEC8A3"/>
        </linearGradient>
        <linearGradient id="plzldr_svg__v" x1="100.571%" x2="-.576%" y1="50.252%" y2="50.252%">
            <stop offset="0%" stop-color="#F9DDC1"/>
            <stop offset="13%" stop-color="#F9DFC4"/>
            <stop offset="25%" stop-color="#FAE5CF"/>
            <stop offset="36%" stop-color="#FCEEE1"/>
            <stop offset="46%" stop-color="#FEFCF9"/>
            <stop offset="48%" stop-color="#FFF"/>
            <stop offset="81%" stop-color="#F4DDC6"/>
            <stop offset="100%" stop-color="#EEC8A3"/>
        </linearGradient>
    </defs>
    <g fill="none" fill-rule="evenodd">
        <path d="M0 0H88V88H0z"/>
        <g fill-rule="nonzero">
            <path fill="url(#plzldr_svg__a)" d="M24.7345313,0 C38.3925781,0 49.4690625,7.11734375 49.4690625,15.8984375 C49.4690625,24.6795313 38.3925781,31.796875 24.7345313,31.796875 C11.0764844,31.796875 -1.11022302e-15,24.6821094 -1.11022302e-15,15.8967188 C-1.11022302e-15,7.11132813 11.0764844,0 24.7345313,0 Z" transform="translate(19.102188, 44.927266)"/>
            <path fill="url(#plzldr_svg__b)" d="M49.4621875,16.218125 C49.4621875,16.3040625 49.4553125,16.3985938 49.4501563,16.4888281 C49.4501563,16.5446875 49.4441406,16.6014062 49.4398437,16.6607031 C49.4329687,16.7595312 49.4226562,16.8583594 49.4132031,16.9563281 C49.4080469,17.0027344 49.4046094,17.0491406 49.3994531,17.0955469 C49.3822656,17.2399219 49.3633594,17.3834375 49.3410156,17.5252344 C49.3410156,17.53125 49.3410156,17.538125 49.3410156,17.5441406 C49.3186719,17.6816406 49.29375,17.8174219 49.2671094,17.9532031 C49.2585156,17.9970313 49.2482031,18.0391406 49.23875,18.0829688 C49.2164062,18.1860938 49.1940625,18.2883594 49.1691406,18.3897656 C49.15625,18.4439063 49.1416406,18.4971875 49.1278906,18.5504688 C49.1038281,18.6424219 49.0789063,18.7335156 49.0522656,18.8246094 C49.0367969,18.8804688 49.0196094,18.9354688 49.0032813,18.9904688 C48.9749219,19.0815625 48.9457031,19.1717969 48.9173437,19.2620313 C48.9001562,19.3144531 48.8821094,19.3677344 48.8640625,19.4201563 C48.8288281,19.5189844 48.791875,19.6178125 48.7540625,19.7157813 C48.7385938,19.7570313 48.723125,19.8017188 48.7067969,19.8403906 C48.6466406,19.9916406 48.5833333,20.1423177 48.516875,20.2924219 L48.4653125,20.4015625 C48.4131771,20.5161458 48.3581771,20.6307292 48.3003125,20.7453125 C48.2779688,20.7917188 48.2539063,20.838125 48.2307031,20.8845313 C48.1705469,20.9991146 48.1086719,21.1151302 48.0450781,21.2325781 C48.0261719,21.2652344 48.0089844,21.2978906 47.9909375,21.3305469 C47.9084375,21.4760677 47.8225,21.6192969 47.733125,21.7602344 L47.6841406,21.8367188 C47.5758594,22.0085938 47.461276,22.1804688 47.3403906,22.3523438 L47.3017187,22.4082031 C47.1788281,22.5800781 47.0490625,22.7579688 46.9167188,22.9307031 L46.839375,23.03125 C46.7070313,23.203125 46.5701042,23.3704167 46.4285938,23.533125 L46.3546875,23.6190625 C46.2085937,23.7909375 46.0590625,23.9559375 45.9035156,24.1200781 L45.890625,24.1338281 C45.7488281,24.2842188 45.6010156,24.4328906 45.4514844,24.5798438 L45.3509375,24.6821094 C45.2005469,24.8273438 45.0475781,24.9708594 44.8903125,25.1117969 L44.8404687,25.1564844 C44.694375,25.2871094 44.5451302,25.4163021 44.3927344,25.5440625 L44.2810156,25.6377344 C44.1160156,25.7735156 43.9484375,25.9084375 43.7774219,26.0407813 L43.6854687,26.1103906 C43.5316406,26.228125 43.3752344,26.345 43.21625,26.4592969 L43.1096875,26.5366406 C42.9297917,26.664974 42.7470312,26.7910156 42.5614062,26.9147656 L42.4410937,26.9938281 C42.2692187,27.1055469 42.0973437,27.2146875 41.9254687,27.3229687 C41.89625,27.3410156 41.8678906,27.3599219 41.8395312,27.3771094 C41.6453125,27.496276 41.4479427,27.613724 41.2474219,27.7294531 L41.1073437,27.809375 C40.9114062,27.9210937 40.71375,28.0302344 40.5117969,28.1376562 L40.48,28.1557031 C40.2694531,28.2665625 40.0554687,28.3757031 39.8397656,28.483125 L39.689375,28.5570312 C39.4736719,28.6627344 39.2553906,28.7667187 39.0328125,28.868125 L38.974375,28.8939062 C38.7664062,28.9884375 38.5567187,29.0795312 38.3444531,29.1697656 L38.1897656,29.2350781 C37.9634635,29.3296094 37.7342969,29.421849 37.5022656,29.5117969 L37.38625,29.555625 C37.1782812,29.6355469 36.9694531,29.7128906 36.7580469,29.7885156 L36.6128125,29.8409375 C36.3767708,29.9240104 36.138151,30.0047917 35.8969531,30.0832813 L35.743125,30.1322656 C35.5254167,30.2015885 35.3059896,30.2694792 35.0848437,30.3359375 L34.9688281,30.3703125 C34.6998437,30.449375 34.4274219,30.5241406 34.1532812,30.5971875 L33.9865625,30.6410156 C33.7124219,30.7114844 33.4365625,30.7802344 33.158125,30.8446875 L33.0266406,30.8747656 C32.7533594,30.9377865 32.4780729,30.9973698 32.2007812,31.0535156 L32.1234375,31.0698438 C31.8369792,31.1271354 31.5459375,31.1815625 31.2503125,31.233125 L31.0603906,31.2657813 C30.8678906,31.2984375 30.6745312,31.3296615 30.4803125,31.3594531 L30.3522656,31.3792188 C30.1173698,31.4147396 29.8810417,31.4476823 29.6432812,31.4780469 L29.4499219,31.50125 C29.2720312,31.5235938 29.0924219,31.5450781 28.9128125,31.5648438 L28.6799219,31.5889063 C28.4934375,31.6086719 28.3060937,31.6258594 28.11875,31.6430469 L27.9580469,31.6567969 C27.4939844,31.6963281 27.0247656,31.7264063 26.5529687,31.74875 L26.4670312,31.74875 C26.015,31.7682292 25.5601042,31.7802604 25.1023437,31.7848438 C24.9803125,31.7848438 24.8582812,31.7848438 24.73625,31.7848438 C24.3048437,31.7848438 23.8751562,31.7776823 23.4471875,31.7633594 L23.4205469,31.7633594 C23.0028906,31.7490365 22.588099,31.7284115 22.1761719,31.7014844 L22.1349219,31.7014844 C21.6803125,31.6714063 21.23,31.631875 20.783125,31.5863281 L20.6550781,31.5725781 C20.2253906,31.5261719 19.7994271,31.4731771 19.3771875,31.4135938 L19.2740625,31.3989844 C18.7888021,31.3290885 18.3086979,31.2497396 17.83375,31.1609375 L17.7375,31.1428906 C17.2688542,31.0535156 16.8065104,30.9564063 16.3504687,30.8515625 L16.2817187,30.8360938 C16.0204687,30.7742188 15.761224,30.7100521 15.5039844,30.6435938 L15.3321094,30.5980469 C15.0742969,30.5284375 14.8121875,30.4579688 14.5586719,30.3832031 L14.5475,30.3832031 C14.2939844,30.3092969 14.0439062,30.2319531 13.7946875,30.1528906 L13.6279687,30.0996094 C13.3821875,30.0196875 13.138125,29.9380469 12.8975,29.8538281 L12.7651562,29.8057031 C12.5932812,29.744974 12.4214062,29.682526 12.2495312,29.6183594 L12.0630469,29.5470313 C11.8848698,29.4794271 11.7086979,29.4098177 11.5345312,29.3382031 L11.4348437,29.2986719 C11.2303125,29.2127344 11.0283594,29.1267969 10.8272656,29.0408594 L10.6691406,28.9703906 C10.515026,28.9016406 10.3623437,28.8317448 10.2110937,28.7607031 L10.044375,28.6825 C9.8484375,28.5896875 9.65421875,28.4960156 9.4634375,28.3989063 L9.44710937,28.3903125 C9.26148437,28.2966406 9.0784375,28.2003906 8.89710937,28.1032813 L8.73640625,28.0173438 C8.59375,27.9388542 8.45223958,27.8597917 8.311875,27.7801563 L8.17265625,27.7010938 C7.99276042,27.5973958 7.81572917,27.4916927 7.6415625,27.3839844 L7.54703125,27.3246875 C7.40265625,27.23875 7.25914062,27.1442188 7.11734375,27.0514063 L6.96609375,26.9525781 C6.82859375,26.860625 6.6928125,26.7686719 6.55875,26.675 L6.45992187,26.6071094 C6.29778646,26.492526 6.13794271,26.3779427 5.98039062,26.2633594 C5.94085937,26.2341406 5.9021875,26.2040625 5.86351562,26.1774219 C5.74148437,26.0851823 5.62088542,25.9917969 5.50171875,25.8972656 L5.369375,25.7915625 C5.22757812,25.6764063 5.0875,25.56125 4.95,25.4435156 L4.92164062,25.4194531 C4.77640625,25.2948438 4.63460937,25.1685156 4.49195312,25.0404688 L4.37421875,24.9313281 C4.26851562,24.8325 4.16367187,24.7336719 4.06140625,24.6339844 L3.953125,24.5274219 C3.82078125,24.3967969 3.69101562,24.2644531 3.56554687,24.1303906 C3.5475,24.1123438 3.53117187,24.0934375 3.51398437,24.0745313 C3.40513021,23.9599479 3.29828125,23.8422135 3.1934375,23.7213281 L3.08773437,23.5992969 C2.9940625,23.4901563 2.90125,23.3810156 2.81101562,23.2701563 C2.78609375,23.2383594 2.75945312,23.2074219 2.73453125,23.1764844 C2.61994792,23.0372656 2.51138021,22.896901 2.40882812,22.7553906 L2.3375,22.6565625 C2.255,22.5419792 2.17450521,22.4273958 2.09601562,22.3128125 C2.06679687,22.2707031 2.03757812,22.226875 2.01007812,22.1847656 C1.92414062,22.0575781 1.84078125,21.9289583 1.76,21.7989063 C1.74882812,21.78 1.7359375,21.7619531 1.72476562,21.7430469 C1.63453125,21.5960938 1.54773437,21.4474219 1.46695312,21.29875 L1.3990625,21.1758594 C1.33661458,21.061276 1.27559896,20.9466927 1.21601562,20.8321094 L1.1515625,20.7049219 C1.07679687,20.5528125 1.00460937,20.3998438 0.93671875,20.2460156 C0.930703125,20.233125 0.925546875,20.219375 0.920390625,20.2064844 C0.858515625,20.064401 0.799791667,19.9211719 0.74421875,19.7767969 C0.726171875,19.73125 0.708984375,19.6857031 0.691796875,19.6392969 C0.64625,19.5172656 0.605859375,19.394375 0.561171875,19.2714844 L0.521640625,19.1554688 C0.4709375,18.9982031 0.4228125,18.8392188 0.37984375,18.6802344 C0.370390625,18.6475781 0.36265625,18.6140625 0.3540625,18.5805469 C0.3196875,18.4507813 0.287890625,18.3227344 0.258671875,18.1895313 C0.2475,18.1422656 0.2371875,18.0941406 0.226875,18.0460156 C0.198515625,17.9102344 0.172734375,17.7727344 0.14953125,17.6352344 L0.1340625,17.5492969 C0.10828125,17.3860156 0.086796875,17.2227344 0.067890625,17.0577344 C0.062734375,17.0147656 0.059296875,16.9717969 0.055,16.9288281 C0.0423958333,16.8016406 0.0320833333,16.6735938 0.0240625,16.5446875 C0.0240625,16.4974219 0.018046875,16.4492969 0.01546875,16.4011719 C0.007734375,16.2344531 0.00171875,16.0660156 0.00171875,15.8975781 L0.00171875,15.8975781 L0.00171875,20.0844531 C0.00171875,20.2563281 0.007734375,20.4204687 0.01546875,20.5871875 C0.01546875,20.6353125 0.021484375,20.6834375 0.0240625,20.7315625 C0.031796875,20.8596094 0.042109375,20.989375 0.055,21.1148438 C0.055,21.1578125 0.062734375,21.2007813 0.067890625,21.24375 C0.0856510417,21.40875 0.107708333,21.5726042 0.1340625,21.7353125 L0.14953125,21.82125 C0.173020833,21.95875 0.198802083,22.0953906 0.226875,22.2311719 C0.2371875,22.2792969 0.2475,22.3274219 0.258671875,22.3755469 C0.287890625,22.5061719 0.3196875,22.6333594 0.3540625,22.7657031 C0.36265625,22.7992187 0.370390625,22.8327344 0.37984375,22.8653906 C0.4228125,23.0252344 0.4709375,23.1833594 0.521640625,23.340625 L0.561171875,23.4566406 C0.602421875,23.5803906 0.647109375,23.7024219 0.691796875,23.8253125 C0.708984375,23.8708594 0.726171875,23.9164062 0.74421875,23.9619531 C0.801510417,24.1051823 0.860234375,24.2484115 0.920390625,24.3916406 C0.925546875,24.4045312 0.930703125,24.4182812 0.93671875,24.4311719 C1.00460937,24.5858594 1.07679687,24.7379688 1.15242187,24.8900781 C1.17304687,24.9330469 1.19453125,24.9760156 1.21601562,25.0172656 C1.27330729,25.131849 1.33432292,25.2464323 1.3990625,25.3610156 C1.42140625,25.4022656 1.44375,25.4469531 1.46695312,25.4839062 C1.55059896,25.6334375 1.63653646,25.7815365 1.72476562,25.9282031 C1.7359375,25.9471094 1.74882812,25.9660156 1.76,25.9849219 C1.84078125,26.1138281 1.92414062,26.2424479 2.01007812,26.3707812 L2.09601562,26.4979687 C2.17450521,26.6125521 2.255,26.7271354 2.3375,26.8417187 C2.3615625,26.8752344 2.38476562,26.9078906 2.4096875,26.9414062 C2.51453125,27.0823437 2.6228125,27.2224219 2.73453125,27.3616406 C2.75945312,27.3934375 2.78609375,27.424375 2.811875,27.4561719 C2.90182292,27.5661719 2.99377604,27.6758854 3.08773437,27.7853125 L3.1934375,27.9064844 C3.29828125,28.0250781 3.40513021,28.1428125 3.51398437,28.2596875 C3.53117187,28.2785937 3.5475,28.2975 3.56554687,28.3155469 C3.69101562,28.4496094 3.82335937,28.5819531 3.953125,28.7125781 C3.98835937,28.7486719 4.0253125,28.7830469 4.06140625,28.8182812 C4.16367187,28.9188281 4.26851562,29.0185156 4.37421875,29.1164844 L4.49195312,29.2264844 C4.63203125,29.3536719 4.77382812,29.48 4.92164062,29.6054687 L4.95,29.6295312 C5.0875,29.7441146 5.22729167,29.8586979 5.369375,29.9732812 L5.50257812,30.0798437 C5.62117187,30.174375 5.74148437,30.2671875 5.86351562,30.36 L5.97953125,30.4459375 C6.13765625,30.5636719 6.2975,30.6796875 6.46078125,30.7948437 L6.55703125,30.8610156 C6.69195312,30.9546875 6.82773437,31.0475 6.96609375,31.1394531 L7.11734375,31.2391406 C7.25828125,31.3310937 7.40179687,31.4221875 7.54703125,31.5115625 C7.57882812,31.5313281 7.60976562,31.5519531 7.6415625,31.5708594 C7.8134375,31.6785677 7.99046875,31.7842708 8.17265625,31.8879687 L8.311875,31.9670312 C8.45166667,32.0478125 8.59346354,32.1271615 8.73726562,32.2050781 L8.89625,32.2910156 C9.0784375,32.388125 9.26148437,32.484375 9.44710937,32.5789062 L9.4634375,32.5866406 C9.65421875,32.68375 9.8484375,32.7774219 10.044375,32.8710937 L10.2110937,32.9492969 C10.3623437,33.0197656 10.515026,33.089375 10.6691406,33.158125 L10.8272656,33.2285937 C11.0283594,33.3145312 11.2303125,33.4004687 11.4357031,33.4864062 L11.5319531,33.5259375 C11.7072656,33.5969792 11.8842969,33.666875 12.0630469,33.735625 L12.2495312,33.8060937 C12.4214062,33.8705469 12.5932812,33.9324219 12.7651562,33.9942969 L12.8657031,34.0303906 L12.8975,34.0415625 C13.138125,34.1275 13.3821875,34.2074219 13.6279687,34.2873437 L13.7946875,34.340625 C14.0439062,34.4196875 14.2939844,34.4970312 14.5475,34.5709375 L14.5586719,34.5709375 C14.8164844,34.6448437 15.0742969,34.7161719 15.3321094,34.7849219 L15.5039844,34.8304687 C15.761224,34.8975 16.0204687,34.9616667 16.2817187,35.0229687 L16.3126562,35.0307031 L16.3504687,35.0384375 C16.8088021,35.1444271 17.2714323,35.2415365 17.7383594,35.3297656 L17.83375,35.3478125 C18.308125,35.4360417 18.7885156,35.5156771 19.2749219,35.5867187 L19.3135937,35.5927344 C19.3342187,35.5927344 19.3557031,35.5978906 19.3763281,35.6004687 C19.7991406,35.660625 20.2256771,35.7136198 20.6559375,35.7594531 L20.7822656,35.7732031 C21.2291406,35.8196094 21.680026,35.8579948 22.1349219,35.8883594 L22.1624219,35.8883594 L22.1761719,35.8883594 C22.5886719,35.9158594 23.0040365,35.9364844 23.4222656,35.9502344 L23.4463281,35.9502344 C23.873151,35.9645573 24.3028385,35.9717188 24.7353906,35.9717188 L25.031875,35.9717188 L25.100625,35.9717188 C25.5589583,35.9671354 26.0141406,35.9548177 26.4661719,35.9347656 L26.5521094,35.9347656 C27.0247656,35.9124219 27.4934115,35.8820573 27.9580469,35.8436719 L27.9855469,35.8436719 L28.1144531,35.8307813 C28.3035156,35.8147396 28.4922917,35.7969792 28.6807812,35.7775 L28.9102344,35.7525781 C29.091276,35.732526 29.2720312,35.7113281 29.4525,35.6889844 C29.5152344,35.68125 29.5788281,35.674375 29.6415625,35.6657813 C29.8793229,35.6348438 30.116224,35.601901 30.3522656,35.5669531 L30.4751562,35.5480469 C30.6710937,35.5179688 30.8661719,35.4870313 31.0603906,35.4535156 L31.1540625,35.4389063 L31.2477344,35.4208594 C31.5416406,35.3692969 31.8346875,35.3160156 32.1234375,35.2575781 L32.1973437,35.2421094 C32.4766406,35.1853906 32.7525,35.1252344 33.0275,35.0625 L33.1564062,35.0332813 C33.4359896,34.9679688 33.7127083,34.8997917 33.9865625,34.82875 L34.1507031,34.7849219 C34.4257031,34.7127344 34.6984115,34.6371094 34.9688281,34.5580469 L34.9997656,34.5494531 L35.0857031,34.5245313 C35.3082812,34.4583594 35.5282812,34.3904688 35.7474219,34.32 L35.8986719,34.271875 C36.1398698,34.1928125 36.3790625,34.1117448 36.61625,34.0286719 L36.7589062,33.9771094 C36.9711719,33.9014844 37.1808594,33.8232813 37.3888281,33.7442188 L37.5048437,33.6995313 C37.736875,33.6135938 37.9646094,33.5173438 38.1923437,33.4228125 L38.3453125,33.3583594 C38.5578646,33.2684115 38.768125,33.1764583 38.9760937,33.0825 L39.0345312,33.0558594 C39.2571094,32.9544531 39.4753906,32.8504688 39.6910937,32.7447656 L39.8414844,32.6708594 C40.0571875,32.5634375 40.2711719,32.4551563 40.4817187,32.3434375 L40.5135156,32.32625 C40.7154687,32.2188281 40.913125,32.1088281 41.1090625,31.9971094 L41.2491406,31.9180469 C41.449375,31.8020313 41.6470312,31.6851563 41.8421094,31.5648438 L41.9280469,31.5115625 C42.0999219,31.4032813 42.2717969,31.2932813 42.4436719,31.1815625 L42.5639844,31.1025 C42.7496094,30.97875 42.9326562,30.8524219 43.1122656,30.7252344 L43.2188281,30.6478906 C43.3778125,30.5327344 43.5350781,30.4158594 43.6889062,30.298125 C43.7189844,30.2749219 43.7499219,30.2525781 43.7748437,30.229375 C43.9467187,30.0961719 44.1185937,29.96125 44.2792969,29.8246094 C44.3171094,29.7945313 44.3532031,29.7627344 44.3901562,29.7317969 C44.543125,29.60375 44.6926562,29.4739844 44.8396094,29.3433594 L44.8885937,29.3003906 C45.0458594,29.1585938 45.1988281,29.0142188 45.3492187,28.8707031 L45.4540625,28.7684375 C45.6035937,28.620625 45.7514062,28.4728125 45.8932031,28.3215625 L45.8932031,28.3215625 L45.9026562,28.31125 C46.0582031,28.14625 46.2077344,27.9786719 46.3538281,27.809375 C46.37875,27.7810156 46.4036719,27.7535156 46.4277344,27.7234375 C46.5698177,27.5578646 46.7067448,27.3902865 46.8385156,27.2207031 L46.9158594,27.1210156 C47.0482031,26.9491406 47.1736719,26.7772656 47.3008594,26.5976562 C47.31375,26.5796094 47.3257812,26.5607031 47.3386719,26.5417969 C47.4572656,26.3699219 47.571849,26.1980469 47.6824219,26.0261719 L47.7142188,25.9771875 C47.7202344,25.9685937 47.7245312,25.96 47.7305469,25.9505469 C47.819349,25.8078906 47.9052865,25.6646615 47.9883594,25.5208594 C48.0064063,25.4882031 48.0235937,25.4546875 48.0425,25.4220313 C48.1060937,25.3074479 48.1679688,25.1914323 48.228125,25.0739844 C48.2513281,25.0275781 48.2753906,24.9820312 48.2977344,24.935625 C48.3553125,24.8204688 48.4103125,24.7053125 48.4627344,24.591875 L48.5142969,24.4827344 C48.5804687,24.3332031 48.6440625,24.1819531 48.7042187,24.0307031 L48.7145312,24.0075 C48.7274219,23.9739844 48.7385937,23.9404688 48.7514844,23.9069531 C48.7892969,23.808125 48.82625,23.7092969 48.8614844,23.6104688 C48.8795312,23.5580469 48.8967187,23.505625 48.9147656,23.4523438 C48.9448437,23.3664063 48.9740625,23.271875 49.0007031,23.1807813 C49.0170312,23.1257813 49.0342187,23.0707813 49.0496875,23.0157813 C49.0763281,22.9238281 49.10125,22.8327344 49.1253125,22.7407813 C49.1390625,22.6875 49.1536719,22.6342188 49.1665625,22.5809375 C49.1914844,22.4786719 49.2138281,22.3764063 49.2361719,22.2732813 C49.2439062,22.2389063 49.2525,22.2045313 49.259375,22.1692969 L49.2645312,22.144375 C49.2920312,22.0077344 49.3160937,21.8710938 49.3384375,21.7335938 C49.3384375,21.7275781 49.3384375,21.7215625 49.3384375,21.7155469 C49.3607812,21.5728906 49.3796875,21.4285156 49.396875,21.2858594 C49.4020312,21.2403125 49.4054687,21.1930469 49.410625,21.1475 C49.4200781,21.0486719 49.4303906,20.9498438 49.4372656,20.8510156 C49.4372656,20.7951562 49.4441406,20.7392969 49.4475781,20.6791406 C49.4527344,20.5932031 49.4570312,20.4986719 49.4596094,20.4084375 C49.4596094,20.384375 49.4596094,20.3594531 49.4596094,20.3353906 C49.4596094,20.2494531 49.4596094,20.1703906 49.4596094,20.0878906 L49.4596094,15.8967187 C49.4690625,16.0024219 49.4657377,16.1107031 49.4621875,16.218125 Z" transform="translate(19.102188, 44.927266)"/>
            <path fill="url(#plzldr_svg__c)" d="M25.2810937,31.2494531 C11.6230469,31.2494531 0.5465625,24.13125 0.5465625,15.3510156 C0.5465625,12.3019531 1.88460938,9.453125 4.200625,7.033125 C1.54859375,9.56570313 1.33226763e-15,12.6190625 1.33226763e-15,15.8975781 C1.33226763e-15,24.6786719 11.0764844,31.7960156 24.7345312,31.7960156 C33.6479687,31.7960156 41.4605469,28.7641406 45.8132812,24.2171875 C41.3711719,28.4633594 33.8353125,31.2494531 25.2810937,31.2494531 Z" transform="translate(19.102188, 44.927266)"/>
        </g>
        <path fill="url(#plzldr_svg__e)" fill-rule="nonzero" stroke="url(#plzldr_svg__d)" stroke-width="2" d="M44.2921875,58.196875 C46.5078039,58.1910945 48.7204152,58.3603449 50.909375,58.7030469 C52.9495312,59.02875 54.7911719,59.5022656 56.3457812,60.0883594 C57.9003906,60.6744531 59.1739844,61.3774219 60.0625781,62.156875 C60.9511719,62.9363281 60.9460156,63.8025781 60.9769531,64.7126562 C61.0078906,65.6227344 61.0680469,66.4975781 60.2189844,67.2907812 C59.3699219,68.0839844 58.1186719,69.0490625 56.5649219,69.6557813 C55.0111719,70.2625 53.1428906,70.88125 51.0649219,71.2232812 C46.5766654,71.9314072 42.0051315,71.9314072 37.516875,71.2232812 C35.4397656,70.8795312 33.5766406,70.2642187 32.016875,69.6557813 C30.7632129,69.1834178 29.6194289,68.4595964 28.6558594,67.5288281 C27.8067969,66.7330469 27.5936719,65.621875 27.6246094,64.7092188 C27.6555469,63.7965625 27.6246094,62.9363281 28.5200781,62.1534375 C29.4155469,61.3705469 30.6796875,60.671875 32.2385938,60.0883594 C33.7975,59.5048437 35.6357031,59.02875 37.675,58.7030469 C39.8639639,58.3603805 42.0765724,58.1911303 44.2921875,58.196875 Z"/>
        <path fill="url(#plzldr_svg__g)" fill-rule="nonzero" stroke="url(#plzldr_svg__f)" d="M28.4263994,55.2139844 C28.4263994,55.2139844 29.82375,53.2374219 34.0389844,53.4144531 C38.2542188,53.5914844 38.4140625,54.4551562 42.8742188,54.4551562 C47.334375,54.4551562 49.3195313,52.5473437 54.0314844,52.7209375 C58.7434375,52.8945312 59.8013281,54.7361719 59.8013281,54.7361719 C59.8013281,54.7361719 54.1346094,61.5639063 41.2388281,61.5639063 C28.3430469,61.5639063 28.4263994,55.2139844 28.4263994,55.2139844 Z"/>
        <path fill="url(#plzldr_svg__i)" fill-rule="nonzero" stroke="url(#plzldr_svg__h)" d="M28.3241406,55.4717969 C28.3679688,55.3128125 28.5914063,55.2354688 28.7632813,55.3214063 C29.8254688,55.8482031 33.2217188,57.4028125 36.3326562,57.4028125 C40.0795313,57.4028125 43.2394531,56.3621094 47.2364063,54.1079687 C51.2084375,51.8675781 57.4698437,52.4751562 59.7600781,54.6957813 C59.7874797,54.7216466 59.8076276,54.7542388 59.8185156,54.7903125 C60.0900781,55.6720313 63.7896875,66.8696875 43.1389062,67.8528125 C43.0084922,67.8588394 42.8778018,67.8519307 42.74875,67.8321875 C25.9239063,65.2394531 27.84375,57.2120313 28.3241406,55.4717969 Z"/>
        <path fill="url(#plzldr_svg__k)" fill-rule="nonzero" stroke="url(#plzldr_svg__j)" stroke-width=".4" d="M35.9038281,44.4795312 C35.9038281,44.4795312 39.2390625,44.9092187 41.9194531,44.5989844 C43.9725,44.3600781 44.3746875,43.1672656 47.1985938,43.1672656 C49.6821875,43.1672656 51.1147656,44.0266406 51.4954688,44.2844531 C51.5435937,44.3179687 51.528125,44.3789844 51.4688281,44.3944531 C50.8114063,44.5663281 47.7846875,45.3646875 45.4892969,45.7617187 C45.0596094,45.835625 44.6814844,46.0384375 44.6024219,46.3890625 C44.3446094,47.5320312 43.6803125,53.1867187 43.6803125,53.1867187 C43.6803125,53.1867187 42.9661719,47.4211719 42.6292969,46.330625 C42.5373437,46.0341406 42.2099219,45.8785937 41.8446875,45.8072656 C38.1029687,45.0759375 35.9038281,44.4795312 35.9038281,44.4795312 Z"/>
        <path fill="url(#plzldr_svg__m)" fill-opacity=".3" fill-rule="nonzero" stroke="url(#plzldr_svg__l)" stroke-width="2" d="M45.2744531,47.685 C44.8447656,47.4383594 44.8232813,46.8995312 45.230625,46.6279688 C48.1989063,44.6453906 57.674375,45.1996875 59.2599219,40.0107813 C61.5802344,32.4199219 52.6289844,26.7050781 43.1457813,26.7050781 C33.6625781,26.7050781 23.9078125,32.8985937 27.0325,40.0125 C29.2110156,44.9728125 38.72,44.9925781 42.0165625,46.7482813 C42.4823438,46.9966406 42.50125,47.5784375 42.0500781,47.8448438 C38.9073438,49.7002344 28.2321875,51.4765625 27.0325,55.5740625 C24.87375,62.9449219 34.71875,67.9765625 44.2028125,67.9765625 C53.686875,67.9765625 63.3453906,62.981875 61.373125,55.5732031 C60.1510938,50.985 48.7497656,49.6916406 45.2744531,47.685 Z"/>
        <path fill="#FDF8F5" fill-opacity=".3" fill-rule="nonzero" d="M42.3345312 48.654375C42.3345312 48.654375 30.7707812 50.6309375 30.6255047 61.483125 30.6241329 61.6338938 30.658286 61.782872 30.7252344 61.9179687 31.1102344 62.7103125 32.7172656 65.3142187 37.4042969 65.9501562 37.4042969 65.9501562 35.2472656 61.1875 37.0957813 56.9267187 38.5644531 53.5390625 42.3345312 48.654375 42.3345312 48.654375ZM43.4353906 46.0298437C43.4353906 46.0298437 31.0732812 43.9140625 30.919365 32.3167969 30.9173305 32.1553592 30.9535579 31.9957233 31.0251562 31.8510156 31.4376562 31.0045312 33.1546875 28.2210156 38.1648437 27.54125 38.1648437 27.54125 35.8591406 32.6321875 37.8357031 37.1877344 39.4049219 40.8057031 43.4353906 46.0298437 43.4353906 46.0298437Z"/>
        <g fill-rule="nonzero">
            <path fill="url(#plzldr_svg__n)" d="M24.7345312,0 C38.3925781,0 49.4690625,7.11820312 49.4690625,15.8984375 C49.4690625,24.6786719 38.3925781,31.796875 24.7345312,31.796875 C11.0764844,31.796875 0,24.6795313 0,15.8984375 C0,7.11734375 11.0764844,0 24.7345312,0 Z" transform="translate(19.102188, 6.917969)"/>
            <path fill="url(#plzldr_svg__o)" d="M49.4621875,16.218125 C49.4621875,16.3040625 49.4553125,16.3985938 49.4501562,16.4888281 C49.4501562,16.5455469 49.4441406,16.6014063 49.4398437,16.6607031 C49.4329687,16.7595312 49.4226562,16.8575 49.4132031,16.9554688 C49.4080469,17.001875 49.4046094,17.0491406 49.3994531,17.0955469 C49.3822656,17.2390625 49.3633594,17.3834375 49.3410156,17.5252344 C49.3410156,17.5321094 49.3410156,17.538125 49.3410156,17.545 C49.3186719,17.6816406 49.29375,17.8174219 49.2671094,17.9532031 C49.2585156,17.9970313 49.2482031,18.0391406 49.23875,18.0838281 C49.2164062,18.1860938 49.1940625,18.2883594 49.1691406,18.390625 C49.15625,18.4439063 49.1416406,18.4971875 49.1278906,18.5504688 C49.1038281,18.6424219 49.0789063,18.7335156 49.0522656,18.8246094 C49.0367969,18.8804687 49.0196094,18.9354688 49.0032812,18.9913281 C48.9746354,19.081276 48.9459896,19.1715104 48.9173437,19.2620312 C48.9001562,19.3144531 48.8821094,19.3677344 48.8640625,19.4201562 C48.8288281,19.5189844 48.791875,19.6178125 48.7540625,19.7157812 C48.7385937,19.7578906 48.723125,19.8017187 48.7067969,19.8403906 C48.6466406,19.9916406 48.5830469,20.1428906 48.516875,20.2924219 L48.4653125,20.4024219 C48.4131771,20.5170052 48.3581771,20.6315885 48.3003125,20.7461719 C48.2779688,20.7925781 48.2539063,20.8389844 48.2307031,20.8845312 C48.1705469,20.9991146 48.1086719,21.1151302 48.0450781,21.2325781 C48.0261719,21.2652344 48.0089844,21.29875 47.9909375,21.3314062 C47.905,21.4766406 47.8233594,21.6201562 47.733125,21.7610937 L47.6841406,21.8375781 C47.5758594,22.0094531 47.461276,22.1813281 47.3403906,22.3532031 L47.3017187,22.4099219 C47.1788281,22.5817969 47.0490625,22.7596875 46.9167187,22.9315625 L46.839375,23.0321094 C46.7070313,23.2039844 46.5701042,23.3715625 46.4285938,23.5348437 L46.3546875,23.6207812 C46.2085937,23.7926562 46.0590625,23.9567969 45.9035156,24.1217969 L45.890625,24.1346875 C45.7488281,24.2859375 45.6010156,24.43375 45.4514844,24.5815625 L45.3509375,24.6855469 C45.2005469,24.8307813 45.0475781,24.9751563 44.8903125,25.1152344 L44.8404687,25.1590625 C44.694375,25.2896875 44.5451302,25.4188802 44.3927344,25.5466406 L44.2810156,25.6403125 C44.1160156,25.7760937 43.948151,25.9107292 43.7774219,26.0442187 L43.6854687,26.1138281 C43.5313542,26.231849 43.3749479,26.348151 43.21625,26.4627344 L43.1096875,26.5400781 C42.9300781,26.6672656 42.7470312,26.7935937 42.5614062,26.9173437 L42.4410937,26.9964062 C42.2692187,27.108125 42.0973437,27.218125 41.9254687,27.3264062 L41.8395312,27.3805469 C41.6453125,27.4997135 41.4479427,27.616875 41.2474219,27.7320312 L41.1073437,27.8128125 C40.9114062,27.9236719 40.71375,28.0336719 40.5117969,28.1410937 L40.48,28.1582812 C40.2694531,28.27 40.0554687,28.3782812 39.8397656,28.4857031 L39.689375,28.5596094 C39.4736719,28.6653125 39.2553906,28.7692969 39.0328125,28.8707031 L38.974375,28.8973437 C38.7664062,28.9913021 38.5564323,29.0829687 38.3444531,29.1723437 L38.1897656,29.2376562 C37.96375,29.3321875 37.7351562,29.425 37.5022656,29.514375 L37.38625,29.5590625 C37.1782812,29.638125 36.9694531,29.7154687 36.7580469,29.7919531 L36.6128125,29.8435156 C36.3767708,29.9265885 36.138151,30.0076562 35.8969531,30.0867187 L35.743125,30.1357031 C35.5254167,30.205026 35.3059896,30.2726302 35.0848437,30.3385156 L34.9688281,30.3728906 C34.6995573,30.4519531 34.4277083,30.5275781 34.1532812,30.5997656 L33.9865625,30.6435937 C33.7121354,30.7152083 33.4359896,30.7833854 33.158125,30.848125 L33.0266406,30.8782031 C32.7533594,30.9400781 32.4783594,31.0002344 32.2007812,31.0560937 L32.1234375,31.0724219 C31.8346875,31.1308594 31.5433594,31.1841406 31.2503125,31.2357031 L31.0603906,31.2692187 C30.8678906,31.3010156 30.6745312,31.3328125 30.4803125,31.3620312 L30.3522656,31.3826562 C30.1173698,31.4170312 29.8810417,31.4496875 29.6432812,31.480625 L29.4499219,31.5046875 C29.2720312,31.5270312 29.0924219,31.5476562 28.9128125,31.5674219 L28.6799219,31.5923437 C28.493724,31.61125 28.3066667,31.6290104 28.11875,31.645625 L27.9580469,31.6602344 C27.4939844,31.6989062 27.0247656,31.7289844 26.5529687,31.7513281 L26.4670312,31.7513281 C26.015,31.7719531 25.5601042,31.7842708 25.1023437,31.7882812 L24.73625,31.7882812 C24.3048437,31.7882812 23.8751562,31.7811198 23.4471875,31.7667969 L23.4205469,31.7667969 C23.0028906,31.7530469 22.588099,31.7324219 22.1761719,31.7049219 L22.1349219,31.7049219 C21.680026,31.6745573 21.2294271,31.6361719 20.783125,31.5897656 L20.6550781,31.5760156 C20.2253906,31.5301823 19.7994271,31.477474 19.3771875,31.4178906 L19.2740625,31.4032812 C18.7888021,31.3328125 18.3086979,31.2531771 17.83375,31.164375 L17.7375,31.1463281 C17.2688542,31.057526 16.8065104,30.9604167 16.3504687,30.855 L16.2817187,30.8395312 C16.0204687,30.7788021 15.761224,30.7146354 15.5039844,30.6470312 L15.3321094,30.6014844 C15.0742969,30.5327344 14.8121875,30.4614062 14.5586719,30.3875 L14.5475,30.3875 C14.2939844,30.3135937 14.0439062,30.23625 13.7946875,30.1571875 L13.6279687,30.1039062 C13.3821875,30.0248437 13.138125,29.9423437 12.8975,29.858125 L12.7651562,29.8108594 C12.5932812,29.7489844 12.4214062,29.6871094 12.2495312,29.6226562 L12.0630469,29.5521875 C11.8848698,29.4834375 11.7086979,29.4138281 11.5345312,29.3433594 L11.4348437,29.3029687 C11.2303125,29.2170312 11.0283594,29.1310937 10.8272656,29.0451562 L10.6691406,28.9746875 C10.515026,28.9059375 10.3623437,28.8363281 10.2110937,28.7658594 L10.044375,28.6876562 C9.8484375,28.5939844 9.65421875,28.5003125 9.4634375,28.4032031 L9.44710937,28.3954687 C9.26148437,28.3009375 9.07815104,28.204974 8.89710937,28.1075781 C8.84296875,28.0792187 8.7896875,28.0491406 8.73640625,28.0216406 C8.59375,27.9442969 8.45223958,27.8655208 8.311875,27.7853125 L8.17265625,27.7053906 C7.99276042,27.6016927 7.81572917,27.4959896 7.6415625,27.3882812 L7.54703125,27.3298437 C7.40265625,27.2396094 7.25914062,27.1485156 7.11734375,27.0557031 C7.06664062,27.0230469 7.0159375,26.9903906 6.96609375,26.956875 C6.82859375,26.8657812 6.6928125,26.7732552 6.55875,26.6792969 L6.45992187,26.6114062 C6.29778646,26.4968229 6.13794271,26.3808073 5.98039062,26.2633594 L5.86351562,26.1774219 C5.74148437,26.0846094 5.62088542,25.9909375 5.50171875,25.8964062 L5.369375,25.7907031 C5.22786458,25.6761198 5.08807292,25.5615365 4.95,25.4469531 L4.92164062,25.4228906 C4.77640625,25.2982812 4.63460937,25.1710937 4.49195312,25.0439062 L4.37421875,24.9339062 C4.26851562,24.8359375 4.16367187,24.73625 4.06140625,24.6365625 L3.953125,24.53 C3.82078125,24.399375 3.69101562,24.2670312 3.56554687,24.1338281 C3.5475,24.1149219 3.53117187,24.0960156 3.51398437,24.0771094 C3.40513021,23.962526 3.29828125,23.8447917 3.1934375,23.7239062 L3.08773437,23.6027344 C2.9940625,23.4935937 2.90125,23.3835937 2.81101562,23.2727344 C2.78609375,23.2417969 2.75945312,23.2108594 2.73453125,23.1790625 C2.61994792,23.0398437 2.51138021,22.8994792 2.40882812,22.7579687 L2.3375,22.66 C2.255,22.5454167 2.17450521,22.4308333 2.09601562,22.31625 L2.01007812,22.1873437 C1.92414062,22.0601562 1.83820312,21.9295312 1.76,21.8023437 C1.74882812,21.7834375 1.7359375,21.7645312 1.72476562,21.745625 C1.63424479,21.5983854 1.54830729,21.4502865 1.46695312,21.3013281 C1.44375,21.2609375 1.42140625,21.2196875 1.3990625,21.1784375 C1.33632812,21.0632812 1.2753125,20.948125 1.21601562,20.8346875 L1.1515625,20.7075 C1.07679687,20.5553906 1.00460937,20.4032812 0.93671875,20.2485937 C0.930703125,20.2357031 0.925546875,20.2219531 0.920390625,20.2090625 C0.858515625,20.0675521 0.799791667,19.9243229 0.74421875,19.779375 C0.726171875,19.7338281 0.708984375,19.6882812 0.691796875,19.6427344 C0.64625,19.5198437 0.605859375,19.3969531 0.561171875,19.2740625 L0.521640625,19.1580469 C0.4709375,19.0007812 0.4228125,18.8426562 0.37984375,18.6828125 C0.370390625,18.6501562 0.36265625,18.6166406 0.3540625,18.5839844 C0.3196875,18.4542187 0.287890625,18.3261719 0.258671875,18.1929687 C0.2475,18.1448437 0.2371875,18.0967187 0.226875,18.0485937 C0.198229167,17.9128125 0.172447917,17.7761719 0.14953125,17.6386719 L0.1340625,17.5527344 C0.10828125,17.3903125 0.086796875,17.2261719 0.067890625,17.0611719 C0.062734375,17.0190625 0.059296875,16.9752344 0.055,16.9322656 C0.0423958333,16.8050781 0.0320833333,16.6770312 0.0240625,16.548125 C0.0240625,16.5008594 0.018046875,16.4527344 0.01546875,16.4046094 C0.007734375,16.2378906 0.00171875,16.0703125 0.00171875,15.901875 L0.00171875,15.901875 L0.00171875,20.08875 C0.00171875,20.260625 0.007734375,20.4247656 0.01546875,20.5923437 C0.01546875,20.6404687 0.021484375,20.6877344 0.0240625,20.7358594 C0.0320833333,20.8641927 0.0423958333,20.9922396 0.055,21.12 C0.055,21.1629687 0.062734375,21.2059375 0.067890625,21.2489062 C0.0856510417,21.4133333 0.107708333,21.5771875 0.1340625,21.7404687 L0.14953125,21.8264062 C0.172734375,21.9639062 0.198515625,22.1005469 0.226875,22.2371875 C0.2371875,22.2853125 0.2475,22.3325781 0.258671875,22.3807031 C0.287890625,22.5113281 0.3196875,22.6385156 0.3540625,22.7717187 C0.36265625,22.804375 0.370390625,22.8378906 0.37984375,22.8714062 C0.4228125,23.0303906 0.4709375,23.1885156 0.521640625,23.3466406 L0.561171875,23.4626562 C0.602421875,23.5855469 0.647109375,23.7084375 0.691796875,23.8304687 C0.708984375,23.8760156 0.726171875,23.9215625 0.74421875,23.9671094 C0.801510417,24.1109115 0.860234375,24.2541406 0.920390625,24.3967969 C0.925546875,24.4105469 0.930703125,24.4234375 0.93671875,24.4371875 C1.00432292,24.5913021 1.07622396,24.7442708 1.15242187,24.8960937 C1.17304687,24.9382031 1.19453125,24.9820312 1.21601562,25.0224219 C1.27330729,25.1370052 1.33432292,25.2530208 1.3990625,25.3704687 L1.46695312,25.4933594 C1.55289062,25.6420312 1.63882812,25.7907031 1.72476562,25.9376562 C1.7359375,25.9557031 1.74882812,25.9746094 1.76,25.9935156 C1.84078125,26.1232812 1.92414062,26.2513281 2.01007812,26.379375 C2.0384375,26.4223437 2.06765625,26.4653125 2.09601562,26.5065625 C2.17450521,26.6211458 2.255,26.7357292 2.3375,26.8503125 C2.3615625,26.8829687 2.38476562,26.9164844 2.4096875,26.9491406 C2.51453125,27.0900781 2.6228125,27.2310156 2.73453125,27.369375 C2.75945312,27.4011719 2.78609375,27.4321094 2.811875,27.4639062 C2.8978125,27.5747656 2.9940625,27.6839062 3.08773437,27.7930469 L3.1934375,27.9150781 C3.29828125,28.0336719 3.40513021,28.1511198 3.51398437,28.2674219 C3.53117187,28.2863281 3.5475,28.3052344 3.56554687,28.3241406 C3.69101562,28.4573437 3.82335937,28.5896875 3.953125,28.7211719 L4.06140625,28.826875 C4.16367187,28.9265625 4.26851562,29.02625 4.37421875,29.1250781 L4.49195312,29.2342187 C4.63203125,29.3622656 4.77382812,29.4920312 4.92164062,29.6132031 L4.95,29.6372656 C5.0875,29.751849 5.22729167,29.8664323 5.369375,29.9810156 C5.41320312,30.0171094 5.4553125,30.0523437 5.50257812,30.0875781 C5.62117187,30.1821094 5.74148437,30.2754948 5.86351562,30.3677344 L5.97953125,30.4536719 C6.13765625,30.5714062 6.2975,30.6882812 6.46078125,30.8025781 L6.55703125,30.8696094 C6.69195312,30.9632812 6.82773437,31.0560937 6.96609375,31.1471875 L7.11734375,31.246875 C7.25828125,31.3388281 7.40179687,31.4299219 7.54703125,31.5201562 L7.6415625,31.5794531 C7.8134375,31.686875 7.99304687,31.7917187 8.17265625,31.8957031 L8.311875,31.975625 C8.45166667,32.0552604 8.59346354,32.1343229 8.73726562,32.2128125 L8.89625,32.29875 C9.0784375,32.3958594 9.26148437,32.4921094 9.44710937,32.5866406 L9.4634375,32.5952344 C9.65421875,32.6914844 9.8484375,32.7860156 10.044375,32.8788281 L10.2110937,32.9570312 C10.3623437,33.0275 10.515026,33.0971094 10.6691406,33.1658594 L10.8272656,33.2363281 C11.0283594,33.3222656 11.2303125,33.4082031 11.4357031,33.4941406 L11.5319531,33.5328125 C11.7072656,33.6038542 11.8842969,33.67375 12.0630469,33.7425 L12.2495312,33.8138281 C12.4214062,33.8774219 12.5932812,33.9398698 12.7651562,34.0011719 L12.8657031,34.038125 L12.8975,34.0484375 C13.138125,34.134375 13.3821875,34.2151562 13.6279687,34.2950781 L13.7946875,34.3475 C14.0439062,34.4265625 14.2939844,34.5039062 14.5475,34.5778125 L14.5586719,34.5778125 C14.8164844,34.6525781 15.0742969,34.7230469 15.3321094,34.7917969 L15.5039844,34.8382031 C15.7617969,34.904375 16.0196094,34.9688281 16.2817187,35.0298438 L16.3126562,35.0375781 L16.3504687,35.0453125 C16.8088021,35.1507292 17.2714323,35.2478385 17.7383594,35.3366406 L17.83375,35.3555469 C18.308125,35.443776 18.7885156,35.523125 19.2749219,35.5935937 L19.3135937,35.6004687 C19.3342187,35.6004687 19.3557031,35.6047656 19.3763281,35.6082031 C19.7991406,35.6654948 20.2256771,35.7184896 20.6559375,35.7671875 L20.7822656,35.7800781 C21.2291406,35.8264844 21.680026,35.8651562 22.1349219,35.8960937 L22.1624219,35.8960937 L22.1761719,35.8960937 C22.5886719,35.9235937 23.0040365,35.9442187 23.4222656,35.9579687 L23.4463281,35.9579687 C23.873151,35.9717188 24.3028385,35.9785938 24.7353906,35.9785938 L25.031875,35.9785938 L25.100625,35.9785938 C25.5589583,35.9745833 26.0141406,35.9625521 26.4661719,35.9425 L26.5521094,35.9382031 C27.0247656,35.9170052 27.4934115,35.8866406 27.9580469,35.8471094 L27.9855469,35.8471094 L28.1144531,35.8350781 C28.3035156,35.8178906 28.4922917,35.7998437 28.6807812,35.7809375 L28.9102344,35.7560156 C29.091276,35.7359635 29.2720312,35.7150521 29.4525,35.6932812 L29.6415625,35.6700781 C29.8793229,35.6391406 30.116224,35.6061979 30.3522656,35.57125 L30.4751562,35.5514844 C30.6710937,35.5211198 30.8661719,35.4898958 31.0603906,35.4578125 C31.0913281,35.4517969 31.123125,35.4475 31.1540625,35.4423437 L31.2477344,35.4251563 C31.5416406,35.3735937 31.8346875,35.3194531 32.1234375,35.2610156 L32.1973437,35.2455469 C32.4766406,35.1888281 32.7525,35.1286719 33.0275,35.0659375 L33.1564062,35.0367187 C33.4359896,34.9725521 33.7127083,34.904375 33.9865625,34.8321875 L34.1507031,34.7892188 C34.4257031,34.7164583 34.6984115,34.6405469 34.9688281,34.5614844 L34.9997656,34.55375 L35.0857031,34.5279688 C35.3082812,34.4617969 35.5282812,34.3939063 35.7474219,34.3234375 L35.8986719,34.2753125 C36.1401562,34.1971094 36.3790625,34.1154688 36.61625,34.0321094 L36.7589062,33.9805469 C36.9714583,33.9049219 37.1814323,33.8272917 37.3888281,33.7476563 L37.5048437,33.7038281 C37.736875,33.6135938 37.9646094,33.5207813 38.1923437,33.42625 L38.3453125,33.3617969 C38.5575781,33.2758594 38.768125,33.1804688 38.9760937,33.0859375 L39.0345312,33.0592969 C39.2571094,32.95875 39.4753906,32.8539063 39.6910937,32.7482031 L39.8414844,32.6742969 C40.0571875,32.5677344 40.2711719,32.4585938 40.4817187,32.346875 C40.4928906,32.3417188 40.5032031,32.3357031 40.5135156,32.3296875 C40.7154687,32.2222656 40.913125,32.1122656 41.1090625,32.0005469 C41.1563281,31.9747656 41.2027344,31.948125 41.2491406,31.9214844 C41.449375,31.8054688 41.6470312,31.6885938 41.8421094,31.5691406 L41.9280469,31.5158594 C42.0999219,31.4075781 42.2717969,31.2967188 42.4436719,31.1858594 L42.5639844,31.1059375 C42.7496094,30.9821875 42.9323698,30.8564323 43.1122656,30.7286719 L43.2188281,30.6513281 C43.3778125,30.5361719 43.5350781,30.4192969 43.6889062,30.3015625 C43.7189844,30.2783594 43.7499219,30.2560156 43.7748437,30.2328125 C43.9467187,30.1004688 44.1185937,29.9655469 44.2792969,29.8289063 L44.3901562,29.7360938 C44.543125,29.6077604 44.6929427,29.4779948 44.8396094,29.3467969 L44.8885937,29.3038281 C45.0458594,29.1620313 45.1988281,29.0185156 45.3492187,28.8741406 L45.4540625,28.771875 C45.6035937,28.6249219 45.7514062,28.47625 45.8932031,28.3258594 C45.8932031,28.3258594 45.8932031,28.3258594 45.8932031,28.3258594 L45.9026562,28.3155469 C46.0582031,28.1505469 46.2077344,27.9829688 46.3538281,27.8145313 L46.4277344,27.7285938 C46.5698177,27.5630208 46.7067448,27.3954427 46.8385156,27.2258594 L46.9158594,27.1261719 C47.0482031,26.9542969 47.1736719,26.7824219 47.3008594,26.6036719 C47.31375,26.5847656 47.3257812,26.5658594 47.3386719,26.5478125 C47.4572656,26.3759375 47.571849,26.2040625 47.6824219,26.0321875 C47.6927344,26.015 47.7039062,25.9995313 47.7142187,25.9832031 C47.7245312,25.966875 47.7245312,25.9651563 47.7305469,25.9565625 C47.819349,25.8133333 47.9052865,25.6701042 47.9883594,25.526875 C48.0064062,25.4942188 48.0235937,25.4607031 48.0425,25.4280469 C48.1060937,25.3134635 48.1679687,25.1974479 48.228125,25.08 C48.2513281,25.0344531 48.2753906,24.9880469 48.2977344,24.9416406 C48.355026,24.8270573 48.410026,24.712474 48.4627344,24.5978906 L48.5142969,24.4878906 C48.5801823,24.3383594 48.6434896,24.1876823 48.7042187,24.0358594 L48.7145312,24.0126563 C48.7274219,23.9791406 48.7385937,23.945625 48.7514844,23.9121094 C48.7892969,23.8132813 48.82625,23.7153125 48.8614844,23.615625 L48.9147656,23.4583594 C48.9448437,23.368125 48.9740625,23.2770313 49.0007031,23.1867969 C49.0170312,23.1309375 49.0342187,23.0759375 49.0496875,23.0209375 C49.0763281,22.9298438 49.10125,22.8378906 49.1253125,22.7459375 C49.1390625,22.6926563 49.1536719,22.639375 49.1665625,22.5860938 C49.1914844,22.4838281 49.2138281,22.3815625 49.2361719,22.2784375 C49.2439062,22.2440625 49.2525,22.2096875 49.259375,22.1753125 L49.2645312,22.1495313 C49.2920312,22.0128906 49.3160937,21.87625 49.3384375,21.7396094 C49.3384375,21.7335938 49.3384375,21.7275781 49.3384375,21.7215625 C49.3607812,21.5780469 49.3796875,21.4345313 49.396875,21.291875 C49.4020312,21.2454688 49.4054687,21.1990625 49.410625,21.1526563 C49.4200781,21.0538281 49.4303906,20.9558594 49.4372656,20.8570313 C49.4372656,20.8011719 49.4441406,20.7444531 49.4475781,20.6851563 C49.4527344,20.5949219 49.4570312,20.5046875 49.4596094,20.4135938 C49.4596094,20.3895313 49.4596094,20.3654688 49.4596094,20.3405469 C49.4596094,20.2546094 49.4596094,20.1755469 49.4596094,20.0930469 L49.4596094,15.8975781 C49.4690625,16.0041406 49.4657377,16.1132812 49.4621875,16.218125 Z" transform="translate(19.102188, 6.917969)"/>
            <path fill="url(#plzldr_svg__c)" d="M25.4564062,31.2116406 C11.7983594,31.2116406 0.721875,24.0934375 0.721875,15.3132031 C0.721875,12.2641406 2.05992187,9.4153125 4.37679687,6.9953125 C1.72390625,9.52789062 0.1753125,12.58125 0.1753125,15.8597656 C0.1753125,24.6408594 11.2517969,31.7582031 24.9098438,31.7582031 C33.8232813,31.7582031 41.6358594,28.7263281 45.9885937,24.179375 C41.5464844,28.42125 34.0071875,31.2116406 25.4564062,31.2116406 Z" transform="translate(19.102188, 6.917969)"/>
        </g>
        <path fill="url(#plzldr_svg__q)" fill-opacity=".5" fill-rule="nonzero" stroke="url(#plzldr_svg__p)" stroke-width="2" d="M74.8240625,32.7189844 L74.8240625,47.6257031 C74.8240625,47.6257031 75.8175,47.1289844 76.8117969,48.1224219 C77.8060938,49.1158594 78.3019531,51.6011719 78.3019531,51.6011719 L78.3019531,35.7027344 C78.3019531,35.7027344 78.3019531,34.7092969 77.3085156,33.715 C76.3150781,32.7207031 74.8240625,32.7189844 74.8240625,32.7189844 Z"/>
        <path fill="url(#plzldr_svg__s)" fill-opacity=".5" fill-rule="nonzero" stroke="url(#plzldr_svg__r)" stroke-width="2" d="M63.3952344,45.14125 C63.3952344,45.14125 65.8796875,44.6445312 71.8428906,42.1600781 C78.3019531,39.1789062 78.3019531,35.7001562 78.3019531,35.7001562 L78.3019531,51.5985937 C78.3019531,51.5985937 76.8117969,54.5797656 72.3396094,56.5675 C67.8674219,58.5552344 63.3952344,60.0453906 63.3952344,60.0453906 L63.3952344,45.14125 Z"/>
        <path fill="url(#plzldr_svg__u)" fill-opacity=".5" fill-rule="nonzero" stroke="url(#plzldr_svg__t)" stroke-width="2" d="M13.035,32.7189844 L13.035,47.6257031 C13.035,47.6257031 12.0407031,47.1289844 11.0472656,48.1224219 C10.0538281,49.1158594 9.55625,51.6011719 9.55625,51.6011719 L9.55625,35.7027344 C9.55625,35.7027344 9.55625,34.7092969 10.5505469,33.715 C11.5448438,32.7207031 13.035,32.7189844 13.035,32.7189844 Z"/>
        <path fill="url(#plzldr_svg__w)" fill-opacity=".5" fill-rule="nonzero" stroke="url(#plzldr_svg__v)" stroke-width="2" d="M24.4638281,45.14125 C24.4638281,45.14125 21.979375,44.6445312 16.0161719,42.1600781 C9.55625,39.1789062 9.55625,35.7001562 9.55625,35.7001562 L9.55625,51.5985937 C9.55625,51.5985937 11.0472656,54.5797656 15.5194531,56.5675 C19.9916406,58.5552344 24.4638281,60.0453906 24.4638281,60.0453906 L24.4638281,45.14125 Z"/>
    </g>
</svg>
