<svg xmlns="http://www.w3.org/2000/svg" width="88" height="88" viewBox="0 0 88 88">
    <defs>
        <linearGradient id="zncd_svg__a" x1="90.552%" x2="25.579%" y1="28.797%" y2="62.945%">
            <stop offset="40%" stop-color="#F9DDC1"/>
            <stop offset="58%" stop-color="#F8D9BC"/>
            <stop offset="80%" stop-color="#F3CEAD"/>
            <stop offset="100%" stop-color="#EEC099"/>
        </linearGradient>
        <linearGradient id="zncd_svg__b" x1="82.008%" x2="22.196%" y1="37.019%" y2="64.632%">
            <stop offset="40%" stop-color="#F9DDC1"/>
            <stop offset="58%" stop-color="#F8D9BC"/>
            <stop offset="80%" stop-color="#F3CEAD"/>
            <stop offset="100%" stop-color="#EEC099"/>
        </linearGradient>
        <linearGradient id="zncd_svg__c" x1="42.031%" x2="62.062%" y1="13.813%" y2="73.985%">
            <stop offset="0%" stop-color="#FFE5CD"/>
            <stop offset="18%" stop-color="#FBDFC5"/>
            <stop offset="42%" stop-color="#F9DDC1"/>
            <stop offset="64%" stop-color="#EDC7A2"/>
            <stop offset="86%" stop-color="#E3B589"/>
            <stop offset="100%" stop-color="#DFAF80"/>
        </linearGradient>
        <linearGradient id="zncd_svg__d" x1="49.996%" x2="49.996%" y1="-.005%" y2="100.012%">
            <stop offset="0%" stop-color="#F0CDAA"/>
            <stop offset="7%" stop-color="#EFCCA8"/>
            <stop offset="48%" stop-color="#EECAA6"/>
            <stop offset="77%" stop-color="#DCAC7A"/>
            <stop offset="100%" stop-color="#CF9659"/>
        </linearGradient>
        <linearGradient id="zncd_svg__e" x1="0%" x2="99.974%" y1="48.74%" y2="50.719%">
            <stop offset="0%" stop-color="#FFE5CD"/>
            <stop offset="9%" stop-color="#F9D8BB"/>
            <stop offset="21%" stop-color="#F3CBA8"/>
            <stop offset="34%" stop-color="#EFC39D"/>
            <stop offset="48%" stop-color="#EEC099"/>
            <stop offset="100%" stop-color="#F9DDC1"/>
        </linearGradient>
        <linearGradient id="zncd_svg__f" x1="0%" x2="100%" y1="50.004%" y2="50.004%">
            <stop offset="0%" stop-color="#FFF"/>
            <stop offset="18%" stop-color="#FFFDFC"/>
            <stop offset="34%" stop-color="#FEF7F1"/>
            <stop offset="49%" stop-color="#FCEEE0"/>
            <stop offset="62%" stop-color="#FAE0C7"/>
            <stop offset="65%" stop-color="#F9DDC1"/>
            <stop offset="78%" stop-color="#F7D9BC"/>
            <stop offset="93%" stop-color="#F2CFAD"/>
            <stop offset="100%" stop-color="#EEC8A3"/>
        </linearGradient>
        <linearGradient id="zncd_svg__g" x1="-.007%" x2="100%" y1="49.987%" y2="49.987%">
            <stop offset="0%" stop-color="#FFF"/>
            <stop offset="18%" stop-color="#FFFDFC"/>
            <stop offset="34%" stop-color="#FEF7F1"/>
            <stop offset="49%" stop-color="#FCEEE0"/>
            <stop offset="62%" stop-color="#FAE0C7"/>
            <stop offset="65%" stop-color="#F9DDC1"/>
            <stop offset="78%" stop-color="#F7D9BC"/>
            <stop offset="93%" stop-color="#F2CFAD"/>
            <stop offset="100%" stop-color="#EEC8A3"/>
        </linearGradient>
        <linearGradient id="zncd_svg__h" x1="-1.184%" x2="100.371%" y1="51.593%" y2="48.602%">
            <stop offset="0%" stop-color="#484A50"/>
            <stop offset="14%" stop-color="#58585F"/>
            <stop offset="29%" stop-color="#626169"/>
            <stop offset="49%" stop-color="#65646C"/>
            <stop offset="67%" stop-color="#616068"/>
            <stop offset="86%" stop-color="#55555C"/>
            <stop offset="100%" stop-color="#46484E"/>
        </linearGradient>
        <linearGradient id="zncd_svg__i" x1=".044%" x2="100.329%" y1="49.83%" y2="50.199%">
            <stop offset="0%" stop-color="#FFF" stop-opacity=".4"/>
            <stop offset="29%" stop-color="#FFF" stop-opacity=".4"/>
            <stop offset="31%" stop-color="#FFF" stop-opacity=".4"/>
            <stop offset="57%" stop-color="#FFF" stop-opacity=".4"/>
            <stop offset="82%" stop-color="#7E7F7E" stop-opacity=".82"/>
            <stop offset="100%" stop-color="#464846"/>
        </linearGradient>
        <linearGradient id="zncd_svg__j" x1="0%" x2="100%" y1="50%" y2="50%">
            <stop offset="0%" stop-color="#FFE5CD"/>
            <stop offset="21%" stop-color="#FBDFC5"/>
            <stop offset="49%" stop-color="#F9DDC1"/>
            <stop offset="67%" stop-color="#F7D9BC"/>
            <stop offset="90%" stop-color="#F2CFAD"/>
            <stop offset="100%" stop-color="#EEC8A3"/>
        </linearGradient>
        <linearGradient id="zncd_svg__k" x1="100%" x2="0%" y1="50.003%" y2="50.003%">
            <stop offset="0%" stop-color="#F9DDC1"/>
            <stop offset="36%" stop-color="#F7DABD"/>
            <stop offset="74%" stop-color="#F3D1B0"/>
            <stop offset="100%" stop-color="#EEC8A3"/>
        </linearGradient>
        <linearGradient id="zncd_svg__l" x1="0%" x2="100%" y1="50%" y2="50%">
            <stop offset="0%" stop-color="#F9DDC1"/>
            <stop offset="13%" stop-color="#F9DFC4"/>
            <stop offset="25%" stop-color="#FAE5CF"/>
            <stop offset="36%" stop-color="#FCEEE1"/>
            <stop offset="46%" stop-color="#FEFCF9"/>
            <stop offset="48%" stop-color="#FFF"/>
            <stop offset="81%" stop-color="#F4DDC6"/>
            <stop offset="100%" stop-color="#EEC8A3"/>
        </linearGradient>
        <linearGradient id="zncd_svg__m" x1="0%" x2="100%" y1="50.002%" y2="50.002%">
            <stop offset="0%" stop-color="#FFE5CD"/>
            <stop offset="21%" stop-color="#FBDFC5"/>
            <stop offset="49%" stop-color="#F9DDC1"/>
            <stop offset="67%" stop-color="#F7D9BC"/>
            <stop offset="90%" stop-color="#F2CFAD"/>
            <stop offset="100%" stop-color="#EEC8A3"/>
        </linearGradient>
        <linearGradient id="zncd_svg__n" x1="100%" x2="0%" y1="49.997%" y2="49.997%">
            <stop offset="0%" stop-color="#F9DDC1"/>
            <stop offset="36%" stop-color="#F7DABD"/>
            <stop offset="74%" stop-color="#F3D1B0"/>
            <stop offset="100%" stop-color="#EEC8A3"/>
        </linearGradient>
        <linearGradient id="zncd_svg__o" x1="0%" x2="100%" y1="49.996%" y2="49.996%">
            <stop offset="0%" stop-color="#F9DDC1"/>
            <stop offset="13%" stop-color="#F9DFC4"/>
            <stop offset="25%" stop-color="#FAE5CF"/>
            <stop offset="36%" stop-color="#FCEEE1"/>
            <stop offset="46%" stop-color="#FEFCF9"/>
            <stop offset="48%" stop-color="#FFF"/>
            <stop offset="81%" stop-color="#F4DDC6"/>
            <stop offset="100%" stop-color="#EEC8A3"/>
        </linearGradient>
        <linearGradient id="zncd_svg__p" x1="-.078%" x2="100.089%" y1="50.64%" y2="49.366%">
            <stop offset="0%" stop-color="#FFE5CD"/>
            <stop offset="21%" stop-color="#FBDFC5"/>
            <stop offset="49%" stop-color="#F9DDC1"/>
            <stop offset="67%" stop-color="#F7D9BC"/>
            <stop offset="90%" stop-color="#F2CFAD"/>
            <stop offset="100%" stop-color="#EEC8A3"/>
        </linearGradient>
        <linearGradient id="zncd_svg__q" x1="90.309%" x2="9.681%" y1="48.766%" y2="51.244%">
            <stop offset="0%" stop-color="#F9DDC1"/>
            <stop offset="36%" stop-color="#F7DABD"/>
            <stop offset="74%" stop-color="#F3D1B0"/>
            <stop offset="100%" stop-color="#EEC8A3"/>
        </linearGradient>
        <linearGradient id="zncd_svg__r" x1=".422%" x2="99.573%" y1="50.384%" y2="49.616%">
            <stop offset="0%" stop-color="#F9DDC1"/>
            <stop offset="13%" stop-color="#F9DFC4"/>
            <stop offset="25%" stop-color="#FAE5CF"/>
            <stop offset="36%" stop-color="#FCEEE1"/>
            <stop offset="46%" stop-color="#FEFCF9"/>
            <stop offset="48%" stop-color="#FFF"/>
            <stop offset="81%" stop-color="#F4DDC6"/>
            <stop offset="100%" stop-color="#EEC8A3"/>
        </linearGradient>
        <linearGradient id="zncd_svg__t" x1=".128%" x2="99.893%" y1="50.163%" y2="49.833%">
            <stop offset="0%" stop-color="#AE713E"/>
            <stop offset="100%" stop-color="#D3995A"/>
        </linearGradient>
        <linearGradient id="zncd_svg__s" x1=".067%" x2="99.951%" y1="50.164%" y2="49.832%">
            <stop offset="0%" stop-color="#AE6C3E"/>
            <stop offset="40%" stop-color="#C49069"/>
            <stop offset="100%" stop-color="#E7CAAE"/>
        </linearGradient>
        <linearGradient id="zncd_svg__v" x1="99.833%" x2=".189%" y1="49.826%" y2="50.171%">
            <stop offset="0%" stop-color="#DAA56C"/>
            <stop offset="38%" stop-color="#D39C63"/>
            <stop offset="97%" stop-color="#C1854C"/>
            <stop offset="100%" stop-color="#C0844B"/>
        </linearGradient>
        <linearGradient id="zncd_svg__u" x1="29.924%" x2="70.146%" y1="38.946%" y2="61.041%">
            <stop offset="0%" stop-color="#E9CCAF"/>
            <stop offset="27%" stop-color="#C99B73"/>
            <stop offset="52%" stop-color="#AE713E"/>
            <stop offset="83%" stop-color="#D1A781"/>
            <stop offset="100%" stop-color="#E5C6A7"/>
        </linearGradient>
        <linearGradient id="zncd_svg__x" x1="54.614%" x2="71.422%" y1="32.733%" y2="87.062%">
            <stop offset="0%" stop-color="#DAA56C"/>
            <stop offset="38%" stop-color="#D39C63"/>
            <stop offset="97%" stop-color="#C1854C"/>
            <stop offset="100%" stop-color="#C0844B"/>
        </linearGradient>
        <linearGradient id="zncd_svg__w" x1="50.34%" x2="49.764%" y1="100.393%" y2="-.532%">
            <stop offset="0%" stop-color="#AE713E"/>
            <stop offset="28%" stop-color="#BA8456"/>
            <stop offset="88%" stop-color="#DAB693"/>
            <stop offset="100%" stop-color="#E1C0A0"/>
        </linearGradient>
        <linearGradient id="zncd_svg__z" x1=".149%" x2="99.827%" y1="50.294%" y2="49.712%">
            <stop offset="0%" stop-color="#AE713E"/>
            <stop offset="100%" stop-color="#D3995A"/>
        </linearGradient>
        <linearGradient id="zncd_svg__y" x1=".054%" x2="99.922%" y1="50.295%" y2="49.711%">
            <stop offset="0%" stop-color="#AE6C3E"/>
            <stop offset="40%" stop-color="#C49069"/>
            <stop offset="100%" stop-color="#E7CAAE"/>
        </linearGradient>
        <linearGradient id="zncd_svg__B" x1="35.503%" x2="64.388%" y1="50.544%" y2="49.586%">
            <stop offset="0%" stop-color="#DAA56C"/>
            <stop offset="38%" stop-color="#D39C63"/>
            <stop offset="97%" stop-color="#C1854C"/>
            <stop offset="100%" stop-color="#C0844B"/>
        </linearGradient>
        <linearGradient id="zncd_svg__A" x1="50.435%" x2="49.473%" y1="100.351%" y2="-.222%">
            <stop offset="0%" stop-color="#AE713E"/>
            <stop offset="28%" stop-color="#BA8456"/>
            <stop offset="88%" stop-color="#DAB693"/>
            <stop offset="100%" stop-color="#E1C0A0"/>
        </linearGradient>
        <linearGradient id="zncd_svg__D" x1=".314%" x2="99.655%" y1="50.314%" y2="49.693%">
            <stop offset="0%" stop-color="#DAA56C"/>
            <stop offset="38%" stop-color="#D39C63"/>
            <stop offset="97%" stop-color="#C1854C"/>
            <stop offset="100%" stop-color="#C0844B"/>
        </linearGradient>
        <linearGradient id="zncd_svg__C" x1=".254%" x2="99.714%" y1="50.314%" y2="49.693%">
            <stop offset="0%" stop-color="#E9CCAF"/>
            <stop offset="27%" stop-color="#C99B73"/>
            <stop offset="52%" stop-color="#AE713E"/>
            <stop offset="83%" stop-color="#D1A781"/>
            <stop offset="100%" stop-color="#E5C6A7"/>
        </linearGradient>
    </defs>
    <g fill="none" fill-rule="evenodd">
        <path d="M0 0H88V88H0z" transform="translate(-80.000000, -2451.000000) translate(80.000000, 2451.000000)"/>
        <g fill-rule="nonzero">
            <path fill="url(#zncd_svg__a)" d="M3.11649241,20.08875 C3.17063304,20.0475 3.22477366,20.0079688 3.27977366,19.9684375 C3.38547679,19.8928125 3.49289866,19.820625 3.60289866,19.7492969 C3.65532054,19.7157813 3.70774241,19.6805469 3.76102366,19.6478906 C3.90310699,19.5619531 4.04776845,19.4797396 4.19500804,19.40125 L4.26719554,19.3617188 L4.28524241,19.3522656 C4.42617991,19.280651 4.56940908,19.2127604 4.71492991,19.1485938 L4.75875804,19.1296875 C4.90370595,19.0672396 5.05123199,19.0082292 5.20133616,18.9526563 L5.22024241,18.9457813 C5.37578929,18.8890625 5.53305491,18.8366406 5.69375804,18.789375 L5.71867991,18.7816406 C5.88310699,18.7329427 6.04925283,18.6888281 6.21711741,18.6492969 L6.21711741,18.6492969 C6.38899241,18.6097656 6.56086741,18.5753906 6.73274241,18.5461719 L6.75164866,18.5461719 C6.92352366,18.5169531 7.09539866,18.4920313 7.27242991,18.473125 L7.28875804,18.473125 C7.46578929,18.4542188 7.64367991,18.4396094 7.82414866,18.4301563 L7.83875804,18.4301563 C8.02180491,18.4207031 8.20742991,18.4155469 8.39391429,18.4164063 L8.39391429,18.4164063 C8.58068512,18.4164063 8.76946116,18.4224219 8.96024241,18.4344531 L8.97399241,18.4344531 C9.16305491,18.445625 9.35469554,18.4619531 9.54719554,18.4842969 L9.55407054,18.4842969 C9.74828929,18.5066406 9.94422679,18.5352865 10.141883,18.5702344 L18.8696955,9.57859375 L18.8447737,9.57859375 L18.8189924,9.57429688 L18.7932112,9.57429688 L18.7682893,9.57429688 L18.6419612,9.55453125 L18.515633,9.53734375 L18.3901643,9.52101563 L18.2861799,9.50898438 L18.2793049,9.50898438 L18.2655549,9.50898438 L18.1392268,9.49609375 L18.013758,9.4840625 L17.8882893,9.47375 L17.7628205,9.46515625 L17.7103987,9.46515625 L17.6966487,9.46515625 L17.6373518,9.46515625 L17.5127424,9.45914063 L17.388133,9.45484375 L17.264383,9.45484375 L17.0065705,9.45484375 L16.879383,9.45484375 L16.7521955,9.45914063 L16.6207112,9.46515625 L16.5811799,9.46515625 L16.5674299,9.46515625 L16.4900862,9.46515625 L16.3594612,9.47460938 L16.2296955,9.48578125 L16.095633,9.49867188 L16.0354768,9.50554688 L16.020008,9.50554688 L15.9615705,9.51242188 L15.8283674,9.52960938 L15.6951643,9.54851563 L15.552508,9.57085938 L15.5018049,9.57945313 L15.4828987,9.57945313 L15.415008,9.57859375 L15.2740705,9.60609375 C15.2268049,9.6146875 15.1803987,9.625 15.1339924,9.63445313 L14.9784455,9.6696875 L14.9732893,9.6696875 C14.9234455,9.68085938 14.8736018,9.69289063 14.8246174,9.70578125 L14.6716487,9.7453125 L14.5203987,9.78828125 L14.4791487,9.80117188 L14.4679768,9.80117188 L14.4533674,9.80632813 L14.3476643,9.838125 L14.1757893,9.89398438 L14.0039143,9.95328125 L13.9807112,9.96273438 L13.9618049,9.96960938 L13.8363362,10.0160156 C13.7658674,10.0435156 13.696258,10.0721615 13.627508,10.1019531 C13.5914143,10.1165625 13.5570393,10.1320313 13.5218049,10.1475 L13.4788362,10.1664063 L13.421258,10.1913281 C13.352508,10.2222656 13.2846174,10.2532031 13.2175862,10.2858594 L13.0508674,10.3717969 L13.0328205,10.3803906 L13.0182112,10.388125 C12.9984455,10.3975781 12.9803987,10.4104688 12.960633,10.4207813 C12.8386018,10.4852344 12.7165705,10.5514063 12.5979768,10.6227344 C12.5747737,10.6364844 12.5524299,10.6519531 12.5292268,10.6665625 C12.5060237,10.6811719 12.4939924,10.6854688 12.4768049,10.6966406 C12.4407112,10.7189844 12.4080549,10.7447656 12.3719612,10.7671094 C12.263107,10.8375781 12.1559716,10.910625 12.0505549,10.98625 C12.0221955,11.0060156 11.9921174,11.0240625 11.9646174,11.0446875 C11.9371174,11.0653125 11.915633,11.0859375 11.8898518,11.1048438 C11.785008,11.1850521 11.682456,11.2672656 11.5821955,11.3514844 C11.5503987,11.3789844 11.5160237,11.4030469 11.4842268,11.4305469 L11.4464143,11.4657813 C11.3054768,11.5903906 11.1679768,11.7192969 11.0364924,11.8533594 L6.66828929,16.3272656 L6.47750804,16.5240625 L6.34516429,16.6598438 L5.94555491,17.0689063 L5.60180491,17.4229688 L5.40328929,17.6266406 L4.03860179,19.0239844 L3.59172679,19.4820313 L3.15000804,19.9340625 L3.06407054,20.0260156 L2.76758616,20.329375 L2.66360179,20.4359375 L2.26914866,20.8398438 C2.40149241,20.7049219 2.53985179,20.5760156 2.68164866,20.4505469 C2.72633616,20.4110156 2.77274241,20.3740625 2.81828929,20.3353906 C2.90938304,20.2511719 3.01164866,20.1678125 3.11649241,20.08875 Z" transform="translate(-80.000000, -2451.000000) translate(80.000000, 2451.000000) translate(12.772492, 6.921406)"/>
            <path fill="url(#zncd_svg__b)" d="M18.7734455,15.5701562 L18.783758,15.5701562 C18.955633,15.6371875 19.127508,15.7085156 19.292508,15.7858594 L19.3011018,15.7901562 C19.4695393,15.8675 19.6353987,15.9497135 19.7986799,16.0367969 L28.4663362,7.04859375 C28.4319612,7.0296875 28.3967268,7.01164062 28.3623518,6.99445312 L28.2583674,6.94117187 L28.1535237,6.88960937 L28.0478205,6.83890625 L27.9721955,6.80453125 L27.9678987,6.80453125 L27.9636018,6.80453125 L27.9386799,6.79335937 C27.9025862,6.77617187 27.865633,6.75984375 27.8295393,6.744375 L27.7195393,6.69625 L27.6086799,6.65070312 L27.5064143,6.60945312 L27.4591487,6.59140625 L27.4539924,6.59140625 L27.4488362,6.59140625 L27.4032893,6.57421875 C27.3700601,6.56046875 27.3356851,6.54757812 27.3001643,6.53554687 L27.1970393,6.49773437 L27.0999299,6.46421875 L27.0019612,6.4315625 L26.930633,6.39890625 L26.923758,6.39890625 L26.9039924,6.39203125 L26.8051643,6.36195312 L26.710633,6.33445312 L26.6169612,6.3078125 L26.5215705,6.28203125 L26.4270393,6.25710937 L26.4167268,6.25710937 L26.4072737,6.25710937 L26.3978205,6.25710937 L26.387508,6.25710937 L26.3015705,6.23648437 L26.215633,6.21671875 L26.1296955,6.19867187 L26.043758,6.180625 L25.9500862,6.16257812 L25.9096955,6.15484375 L25.9002424,6.15484375 L25.8572737,6.14710937 L25.7644612,6.13078125 L25.672508,6.1153125 L25.5805549,6.1015625 L25.4894612,6.08867187 L25.4396174,6.08265625 L25.4310237,6.08265625 L25.3983674,6.08265625 L25.3072737,6.07148437 L25.2161799,6.06203125 L25.1250862,6.05429687 L25.040008,6.029375 L24.9824299,6.029375 L24.9755549,6.029375 L24.9497737,6.029375 L24.8578205,6.02421875 L24.7667268,6.02421875 L24.675633,6.02421875 L24.5845393,6.02421875 L24.3989143,6.02421875 L24.3061018,6.02421875 C24.2751643,6.02421875 24.2450862,6.02421875 24.2141487,6.02421875 L24.1196174,6.02421875 L24.0835237,6.02421875 L24.0749299,6.02421875 L24.0250862,6.02421875 L23.9305549,6.03109375 L23.836883,6.03882812 L23.7389143,6.04828125 L23.6452424,6.05945312 L23.6452424,6.05945312 L23.548133,6.07234375 L23.4510237,6.08609375 L23.3478987,6.10242187 L23.2447737,6.12046875 L23.2267268,6.12046875 L23.218133,6.12046875 L23.142508,6.13421875 L23.0402424,6.15570312 L22.9285237,6.180625 L22.8176643,6.208125 L22.805633,6.208125 L22.7059455,6.23390625 L22.5968049,6.26484375 C22.5538362,6.276875 22.5108674,6.28976562 22.4696174,6.30351562 L22.4180549,6.31984375 L22.3982893,6.32671875 L22.3441487,6.34476562 L22.2195393,6.38773437 C22.1782893,6.40320312 22.1336018,6.4178125 22.0966487,6.43414062 L22.0373518,6.45734375 L22.0064143,6.47023437 L21.9419612,6.49601562 C21.891258,6.5175 21.8405549,6.53898437 21.7907112,6.5621875 L21.6549299,6.62492187 L21.6471955,6.62492187 L21.6411799,6.62492187 C21.5913362,6.64898437 21.5423518,6.67304687 21.4942268,6.69882812 C21.465008,6.71429687 21.437508,6.73148437 21.4082893,6.7478125 C21.3790705,6.76414062 21.3309455,6.78648437 21.293133,6.80796875 C21.2553205,6.82945312 21.2192268,6.854375 21.1814143,6.87671875 C21.1436018,6.8990625 21.1238362,6.90851562 21.0954768,6.92570312 C21.0671174,6.94289062 21.0542268,6.95492187 21.0327424,6.96867187 C20.9588362,7.01679687 20.8857893,7.06664062 20.8136018,7.11820312 C20.7826643,7.14054687 20.750008,7.15945312 20.7190705,7.18265625 L20.6795393,7.21445312 C20.6021955,7.27289062 20.5282893,7.33390625 20.454383,7.39578125 C20.4251643,7.42070312 20.3942268,7.4421875 20.3684455,7.46710937 L20.3495393,7.48515625 C20.2438362,7.57882812 20.1407112,7.6759375 20.041883,7.77734375 L20.041883,7.77734375 L11.3140705,16.7724219 C11.413758,16.6692969 11.5177424,16.5713281 11.6251643,16.4767969 C11.6603987,16.4458594 11.6973518,16.4175 11.7325862,16.3908594 C11.8073518,16.3289844 11.881258,16.2671094 11.9586018,16.2086719 C12.0032893,16.1760156 12.0488362,16.1442187 12.094383,16.1124219 C12.1665705,16.0608594 12.2396174,16.0101562 12.314383,15.9620312 C12.3633674,15.9302344 12.4132112,15.9001562 12.4639143,15.8700781 C12.5386799,15.8253906 12.6151643,15.7841406 12.692508,15.7403125 C12.7698518,15.6964844 12.850633,15.654375 12.9314143,15.6148437 L12.940008,15.6105469 C13.0545914,15.5532552 13.1723257,15.5016927 13.2932112,15.4558594 L13.3241487,15.4429687 C13.4436018,15.3957031 13.5639143,15.351875 13.6876643,15.3114844 L13.7074299,15.3054687 C13.8354768,15.2642187 13.9652424,15.2264062 14.0975862,15.1928906 L14.101883,15.1928906 C14.2359455,15.159375 14.3717268,15.1292969 14.5100862,15.1069531 L14.5195393,15.1069531 C14.658758,15.0811719 14.7996955,15.0596875 14.9423518,15.0425 L14.9423518,15.0425 C15.085008,15.0261719 15.229383,15.0132812 15.3720393,15.0055469 L15.3823518,15.0055469 C15.5275862,14.9978125 15.6736799,14.994375 15.8214924,14.9952344 L15.8300862,14.9952344 C15.978758,14.9952344 16.1282893,15.0021094 16.2795393,15.0124219 L16.2872737,15.0124219 C16.4385237,15.0227344 16.590633,15.0382031 16.7444612,15.0579687 L16.7530549,15.0579687 C16.9065966,15.0774479 17.0612841,15.1020833 17.2171174,15.131875 L17.2265705,15.131875 C17.3838362,15.1610937 17.5419612,15.1963281 17.7009455,15.2358594 C17.883133,15.2805469 18.0627424,15.3321094 18.240633,15.3888281 L18.2483674,15.3888281 C18.4271174,15.4426823 18.6021435,15.503125 18.7734455,15.5701562 Z" transform="translate(-80.000000, -2451.000000) translate(80.000000, 2451.000000) translate(12.772492, 6.921406)"/>
            <path fill="url(#zncd_svg__c)" d="M64.736258,29.3064063 C64.736258,29.2608594 64.736258,29.2144531 64.736258,29.1680469 C64.736258,29.1216406 64.736258,29.0752344 64.736258,29.0288281 C64.736258,28.9824219 64.736258,28.936875 64.736258,28.8904688 L64.736258,28.8741406 C64.736258,28.83375 64.736258,28.7933594 64.7302424,28.7521094 C64.7242268,28.7108594 64.7302424,28.6601563 64.7233674,28.6146094 C64.7164924,28.5690625 64.7173518,28.5226563 64.7139143,28.4771094 C64.7104768,28.4315625 64.7061799,28.3851563 64.7027424,28.33875 C64.7027424,28.3275781 64.7027424,28.3172656 64.7027424,28.3060938 C64.7027424,28.2949219 64.7027424,28.2975 64.7027424,28.2923438 C64.7027424,28.2614063 64.6967268,28.2304688 64.6941487,28.1995313 C64.6941487,28.153125 64.6846955,28.1058594 64.6795393,28.0594531 C64.674383,28.0130469 64.6692268,27.9666406 64.6632112,27.9202344 L64.6451643,27.7810156 C64.6451643,27.7646875 64.6408674,27.7483594 64.6382893,27.7320313 C64.6378226,27.7265985 64.6378226,27.7211358 64.6382893,27.7157031 C64.6382893,27.6907813 64.6305549,27.6658594 64.6271174,27.6409375 C64.6202424,27.5936719 64.6133674,27.5472656 64.605633,27.5 C64.5978987,27.4527344 64.5910237,27.4071875 64.5824299,27.3599219 C64.5738362,27.3126563 64.5661018,27.2671094 64.557508,27.2198438 C64.557508,27.2009375 64.550633,27.1811719 64.5463362,27.1614063 C64.5420393,27.1416406 64.5463362,27.1485156 64.5463362,27.1416406 L64.5334455,27.0746094 C64.5239924,27.025625 64.5136799,26.9766406 64.5042268,26.9285156 C64.4947737,26.8803906 64.4836018,26.8314063 64.4724299,26.7832813 C64.461258,26.7351563 64.4509455,26.6861719 64.4397737,26.6380469 C64.4397737,26.6225781 64.4320393,26.6071094 64.4286018,26.5916406 L64.4234455,26.571875 C64.4165705,26.5435156 64.4105549,26.5151563 64.4028205,26.4859375 C64.3907893,26.4360938 64.3778987,26.3853906 64.365008,26.3355469 C64.3521174,26.2857031 64.3383674,26.235 64.3246174,26.1851563 C64.3108674,26.1353125 64.2971174,26.0854688 64.282508,26.035625 C64.2814765,26.0303657 64.28004,26.0251941 64.2782112,26.0201563 L64.2782112,26.0107031 L64.2395393,25.8792188 C64.2240705,25.8276563 64.2077424,25.7752344 64.1914143,25.7236719 C64.1750862,25.6721094 64.158758,25.6205469 64.1415705,25.568125 C64.1303987,25.5346094 64.1192268,25.5002344 64.1071955,25.4667188 L64.1071955,25.4564063 C64.1075191,25.4538383 64.1075191,25.4512398 64.1071955,25.4486719 C64.1071955,25.4375 64.0994612,25.4254688 64.0960237,25.4134375 C64.076258,25.3567188 64.0564924,25.3 64.0358674,25.2415625 C64.0152424,25.183125 63.9954768,25.128125 63.9739924,25.0696875 C63.952508,25.01125 63.931883,24.9571094 63.9095393,24.8978125 L63.9095393,24.8978125 L63.9095393,24.8978125 C63.8880549,24.8419531 63.8657112,24.7869531 63.8442268,24.7319531 L63.766883,24.5446094 C63.7402424,24.4827344 63.7136018,24.42 63.6861018,24.358125 L63.6861018,24.358125 L63.6861018,24.3529688 C63.6603205,24.2936719 63.6345393,24.2352344 63.6078987,24.1767969 C63.581258,24.1183594 63.5511799,24.0539063 63.5219612,23.9920313 C63.4927424,23.9301563 63.471258,23.8871875 63.4454768,23.8347656 L63.4325862,23.8072656 L63.4179768,23.7780469 C63.3827424,23.7067188 63.3466487,23.6353906 63.3105549,23.5649219 C63.2744612,23.4944531 63.2366487,23.423125 63.1988362,23.3526563 C63.1902424,23.3363281 63.1807893,23.32 63.1713362,23.3036719 C63.161883,23.2873438 63.1584455,23.27875 63.1515705,23.2658594 C63.1283674,23.2254688 63.106883,23.1842188 63.0836799,23.1429688 C63.0338362,23.0535938 62.983133,22.9650781 62.9315705,22.8774219 L62.8843049,22.7975 C62.8705549,22.7760156 62.8576643,22.7536719 62.8439143,22.7313281 C62.8207112,22.6926563 62.797508,22.653125 62.7734455,22.6144531 C62.7201643,22.5285156 62.6651643,22.4425781 62.6093049,22.3566406 L62.5646174,22.2878906 L62.5233674,22.2251563 C62.495008,22.1830469 62.4683674,22.1392188 62.4374299,22.0988281 C62.4064924,22.0584375 62.364383,21.9957031 62.3282893,21.9432813 C62.2638362,21.8513281 62.199383,21.7585156 62.1332112,21.6674219 C62.0773518,21.5900781 62.0197737,21.5135938 61.9613362,21.4371094 C61.9209455,21.3838281 61.8822737,21.3288281 61.8410237,21.2755469 C61.8135237,21.2403125 61.7834455,21.2059375 61.7550862,21.1698438 C61.7267268,21.13375 61.7052424,21.1036719 61.6794612,21.071875 C61.6536799,21.0400781 61.6089924,20.9859375 61.5746174,20.9464063 C61.5024299,20.8604688 61.4302424,20.7745313 61.3571955,20.6885938 C61.2841487,20.6026563 61.2308674,20.5433594 61.1664143,20.4711719 C61.1019612,20.3989844 61.0151643,20.3035938 60.9378205,20.2202344 C60.9025862,20.1824219 60.8690705,20.14375 60.8338362,20.1059375 L60.7393049,20.0114063 C60.6602424,19.9254688 60.5803205,19.848125 60.4986799,19.7682031 C60.4310757,19.700599 60.3623257,19.6335677 60.2924299,19.5671094 C60.2064924,19.4880469 60.1257112,19.4107031 60.040633,19.3333594 C59.9950862,19.2921094 59.9546955,19.2474219 59.9065705,19.20875 C59.8807893,19.1855469 59.8532893,19.1640625 59.827508,19.1408594 C59.7415705,19.064375 59.655633,18.9904688 59.5636799,18.9157031 C59.490633,18.8546875 59.4184455,18.7936719 59.3445393,18.7335156 C59.2534455,18.6596094 59.160633,18.5882813 59.0678205,18.5169531 C59.0128205,18.4739844 58.9595393,18.4310156 58.9036799,18.3880469 L58.8125862,18.321875 C58.7919612,18.3055469 58.7704768,18.2900781 58.7489924,18.2746094 L58.651883,18.2032813 C58.5659455,18.1422656 58.480008,18.0821094 58.3940705,18.0236719 L58.308133,17.9652344 L58.2771955,17.9428906 L58.2428205,17.9205469 C58.2067268,17.8973438 58.1714924,17.8724219 58.136258,17.8492188 C58.0503205,17.7916406 57.964383,17.7349219 57.8732893,17.6773438 L57.7796174,17.6197656 L57.7400862,17.5948438 L57.668758,17.5510156 C57.600008,17.5097656 57.531258,17.4650781 57.4616487,17.428125 C57.3920393,17.3911719 57.3232893,17.3473438 57.2528205,17.3078125 L57.2339143,17.2975 L57.2132893,17.2863281 C57.1565705,17.2545313 57.0998518,17.2227344 57.0414143,17.1917969 L56.836883,17.0929688 L56.6589924,17.001875 L56.6589924,17.001875 L56.6589924,17.001875 L56.4742268,16.9107813 C56.4132112,16.8798438 56.3504768,16.850625 56.2886018,16.8248438 L56.1167268,16.7466406 L56.1064143,16.7414844 L56.0961018,16.7414844 L55.9465705,16.6744531 L55.7746955,16.6005469 L55.6028205,16.5292188 L55.5426643,16.5051563 L55.5203205,16.4957031 L55.4464143,16.4664844 C55.3939924,16.4458594 55.3424299,16.4252344 55.2891487,16.4054688 C55.2358674,16.3857031 55.1843049,16.3659375 55.131883,16.3461719 L54.9728987,16.2885938 L54.9557112,16.2825781 L54.9445393,16.2825781 L54.8207893,16.2396094 L54.6678205,16.1880469 L54.5139924,16.1390625 L54.3601643,16.0917969 L54.3601643,16.0917969 L54.210633,16.0479688 L54.0611018,16.005 L53.9107112,15.9646094 L53.7594612,15.9250781 L45.2834455,25.0344531 C45.4871174,25.0860156 45.6882112,25.1427344 45.885008,25.2063281 L45.885008,25.2063281 C46.0826643,25.2664844 46.2794612,25.3309375 46.4736799,25.3996875 L46.4848518,25.3996875 C46.6764924,25.4675781 46.8664143,25.5389063 47.0546174,25.6153906 L47.0761018,25.6239844 C47.2643049,25.6996094 47.4499299,25.7795313 47.6346955,25.86375 L47.6432893,25.8680469 C47.8314924,25.9539844 48.0171174,26.0399219 48.201883,26.1361719 L48.201883,26.1361719 C48.3823518,26.2272656 48.5611018,26.3235156 48.7372737,26.4223438 L48.7578987,26.4335156 C48.9297737,26.5297656 49.0999299,26.630026 49.2683674,26.7342969 L49.3078987,26.7583594 C49.4651643,26.8563281 49.6215705,26.956875 49.7753987,27.0608594 L49.8407112,27.1046875 C49.9902424,27.2060938 50.1389143,27.3109375 50.285008,27.4175 L50.3486018,27.4647656 C50.4345393,27.5292188 50.5204768,27.59625 50.6064143,27.6624219 C50.6923518,27.7285938 50.7928987,27.8067969 50.8848518,27.8807031 C50.9596174,27.9408594 51.0326643,28.0027344 51.1065705,28.0646094 C51.192508,28.1402344 51.2844612,28.215 51.3721174,28.2923438 C51.4451643,28.3559375 51.5164924,28.42125 51.5878205,28.4857031 C51.673758,28.5639063 51.7596955,28.6421094 51.845633,28.7220313 C51.9315705,28.8019531 51.9848518,28.8569531 52.0544612,28.9248438 C52.1240705,28.9927344 52.216883,29.0872656 52.2959455,29.1697656 C52.3635497,29.2390885 52.430581,29.3095573 52.4970393,29.3811719 C52.5752424,29.4671094 52.6517268,29.54875 52.7273518,29.6338281 C52.8029768,29.7189063 52.8571174,29.7799219 52.9198518,29.8538281 C52.9825862,29.9277344 53.0668049,30.0257031 53.1389924,30.1116406 C53.2111799,30.1975781 53.261883,30.2620313 53.3220393,30.3376563 C53.392508,30.4235938 53.461258,30.5172656 53.530008,30.6075 C53.5884455,30.6848438 53.6460237,30.7613281 53.701883,30.8386719 C53.7697737,30.930625 53.8342268,31.0242969 53.8995393,31.1179688 C53.9648518,31.2116406 54.0310237,31.3061719 54.093758,31.4015625 L54.135008,31.4642969 C54.231831,31.6132552 54.3263622,31.7633594 54.4186018,31.9146094 L54.458133,31.9807813 C54.5509455,32.1371875 54.6411799,32.2947396 54.7288362,32.4534375 L54.7486018,32.4903906 C54.8405549,32.6622656 54.9282112,32.8272656 55.0124299,32.9982813 L55.0261799,33.0266406 C55.1121174,33.1985156 55.1928987,33.3703906 55.2702424,33.55 L55.2702424,33.55 C55.3501643,33.7313281 55.4266487,33.914375 55.4979768,34.0991406 L55.4979768,34.0991406 C55.5693049,34.2813281 55.6354768,34.464375 55.6982112,34.6491406 L55.7050862,34.6671875 C55.7661018,34.8485156 55.8236799,35.0315625 55.8769612,35.2146094 L55.8769612,35.2240625 C55.9302424,35.4079688 55.9792268,35.5935938 56.0239143,35.7792188 L56.0290705,35.7989844 C56.073758,35.9828906 56.115008,36.1676563 56.149383,36.3532813 C56.149383,36.3592969 56.149383,36.3661719 56.149383,36.3730469 C56.1846174,36.5578125 56.2155549,36.7442969 56.2421955,36.9307813 L56.2421955,36.9479688 C56.2688362,37.1353125 56.2911799,37.3235156 56.3083674,37.5108594 C56.3083674,37.5160156 56.3083674,37.5211719 56.3083674,37.5263281 C56.3255549,37.7165365 56.3381591,37.9067448 56.3461799,38.0969531 L56.3461799,38.1029688 C56.3539143,38.2954688 56.3573518,38.4879688 56.3547737,38.6804688 L56.3547737,38.6847656 C56.3547737,38.878125 56.3453205,39.0714844 56.3324299,39.2639844 C56.3229768,39.4040625 56.3118049,39.5432813 56.2971955,39.6816406 C56.2971955,39.6816406 56.2971955,39.6816406 56.2971955,39.6876563 C56.2825862,39.8242969 56.266258,39.9600781 56.2464924,40.0941406 L56.2464924,40.0941406 C56.2267268,40.2264844 56.2052424,40.3519531 56.1811799,40.4860156 C56.1811799,40.4920313 56.1811799,40.4980469 56.1811799,40.5049219 C56.1571174,40.6303906 56.1313362,40.7558594 56.1029768,40.8796094 C56.1029768,40.885625 56.1029768,40.8916406 56.1029768,40.8985156 C56.0456851,41.1540365 55.977508,41.4035417 55.8984455,41.6470313 C55.8960549,41.6529115 55.8940455,41.6589396 55.8924299,41.6650781 C55.8150862,41.906849 55.7291487,42.1428906 55.6346174,42.3732031 C55.6346174,42.3783594 55.6346174,42.384375 55.6277424,42.3903906 C55.5332112,42.6172656 55.4300862,42.8389844 55.3192268,43.0538281 L55.2994612,43.0907813 C55.1894612,43.3013281 55.0725862,43.5067188 54.9471174,43.7052344 L54.9247737,43.7404688 C54.8010237,43.9346875 54.6703987,44.1228906 54.5328987,44.3050781 L54.5019612,44.3463281 C54.3558674,44.5371094 54.203758,44.721875 54.0430549,44.8989063 L62.4185237,35.6451563 C62.4924299,35.5592188 62.5654768,35.4792969 62.6376643,35.3933594 C62.7098518,35.3074219 62.7786018,35.2214844 62.8473518,35.1355469 L62.8748518,35.0985938 L62.9057893,35.0564844 C62.9530549,34.99375 63.0011799,34.9310156 63.0467268,34.8657031 C63.1120393,34.7746094 63.175633,34.6817969 63.2366487,34.588125 C63.2572737,34.5571875 63.2761799,34.52625 63.2959455,34.4953125 C63.3002424,34.4892969 63.3045393,34.4832813 63.3079768,34.4772656 L63.3182893,34.4600781 L63.3698518,34.3792969 C63.4128205,34.3088281 63.4557893,34.2375 63.4970393,34.1653125 C63.5382893,34.093125 63.5786799,34.0209375 63.6182112,33.9478906 C63.636258,33.9152344 63.6525862,33.8817188 63.6697737,33.8490625 L63.6886799,33.8121094 C63.7041487,33.7828906 63.7196174,33.7545313 63.7342268,33.7261719 C63.7634455,33.6677344 63.7918049,33.6092969 63.8201643,33.55 C63.8485237,33.4907031 63.8760237,33.4314063 63.9061018,33.37125 C63.9361799,33.3110938 63.959383,33.2509375 63.9851643,33.1907813 L64.000633,33.1529688 C64.000633,33.1529688 64.000633,33.1486719 64.000633,33.1460938 C64.000633,33.1435156 64.000633,33.1383594 64.000633,33.1357813 C64.0186799,33.0928125 64.0367268,33.0498438 64.0530549,33.006875 C64.069383,32.9639063 64.0951643,32.9003125 64.1149299,32.8470313 C64.1346955,32.79375 64.1553205,32.73875 64.1742268,32.6846094 C64.193133,32.6304688 64.2120393,32.5754688 64.2309455,32.5204688 L64.2593049,32.4345313 C64.2593049,32.4285156 64.2636018,32.4225 64.2653205,32.415625 L64.2842268,32.3580469 L64.330633,32.2059375 L64.3744612,32.0521094 L64.4157112,31.8974219 L64.454383,31.7410156 L64.4698518,31.673125 L64.4698518,31.66625 L64.4698518,31.6525 L64.4827424,31.5975 L64.5136799,31.4522656 C64.5239924,31.4041406 64.5334455,31.3551563 64.5428987,31.3061719 L64.5480549,31.28125 C64.5480549,31.274375 64.5480549,31.2675 64.5480549,31.260625 C64.5540705,31.2271094 64.5609455,31.1935938 64.5669612,31.1592188 C64.5755549,31.1119531 64.5832893,31.0655469 64.5910237,31.0174219 C64.598758,30.9692969 64.605633,30.9228906 64.6133674,30.875625 L64.6133674,30.8713281 C64.6202424,30.8249219 64.6271174,30.7785156 64.633133,30.73125 C64.6391487,30.6839844 64.6460237,30.6358594 64.6511799,30.586875 C64.6563362,30.5378906 64.660633,30.5069531 64.6649299,30.4674219 L64.6649299,30.4528125 C64.6649299,30.408125 64.674383,30.366875 64.6778205,30.31875 C64.681258,30.270625 64.6864143,30.2285156 64.6898518,30.1829688 L64.7001643,30.0463281 L64.7001643,30.0153906 C64.7001643,29.9689844 64.7061799,29.9225781 64.708758,29.8761719 C64.7113362,29.8297656 64.708758,29.7833594 64.7147737,29.7369531 C64.7207893,29.6905469 64.7147737,29.6441406 64.7147737,29.5977344 L64.7147737,29.4705469 L64.7147737,29.4585156 C64.736258,29.3992188 64.736258,29.3528125 64.736258,29.3064063 Z" transform="translate(-80.000000, -2451.000000) translate(80.000000, 2451.000000) translate(12.772492, 6.921406)"/>
            <path fill="url(#zncd_svg__d)" d="M33.0167268,9.37320312 C34.7973335,9.82054266 36.4867471,10.5736548 38.0096955,11.5989844 C39.5201939,12.6109733 40.8608225,13.8558842 41.9817268,15.2874219 C43.0830788,16.6827837 43.945812,18.2508614 44.5349299,19.9280469 C45.1119269,21.5589119 45.3641677,23.2869367 45.2774299,25.0146875 C46.8949492,25.4331194 48.4281968,26.1273543 49.8097737,27.066875 C51.1775711,27.991601 52.3905217,29.1268206 53.4036799,30.4304687 C54.3974051,31.6992171 55.1733907,33.1242776 55.6999299,34.6474219 C56.2145931,36.126005 56.4324518,37.6916086 56.3410237,39.2545312 C56.2601298,40.7064738 55.8467361,42.1204215 55.1327424,43.3872656 C54.4579572,44.5634501 53.5159102,45.564375 52.3827424,46.3091406 C51.2109468,47.0742213 49.8855762,47.572922 48.5000862,47.7700781 C46.9589165,47.9874165 45.39006,47.8998198 43.8826643,47.5122656 L9.89438304,38.9004687 C8.46322231,38.5236047 7.10725687,37.9041915 5.88539866,37.0691406 C4.67366002,36.2440656 3.59773391,35.235403 2.69625804,34.079375 C1.80956889,32.9502603 1.11292808,31.6841156 0.633758036,30.3307812 C0.163222489,29.0139271 -0.047489715,27.6183235 0.0132892857,26.22125 C0.064024445,24.9835461 0.381497481,23.771403 0.943992411,22.6677344 C1.47270139,21.646676 2.22465078,20.7578483 3.14399241,20.0672656 C4.08308609,19.3677026 5.16115989,18.8774559 6.30563304,18.6295312 C7.56803854,18.3595117 8.87081486,18.3367482 10.141883,18.5625 C10.4149834,17.8946817 10.8137944,17.2855249 11.3166487,16.768125 C11.8162355,16.2566945 12.4074171,15.8436253 13.0594612,15.5503906 C13.7468164,15.2431837 14.482681,15.0587812 15.2336799,15.0055469 C16.0633676,14.9483796 16.896861,15.024099 17.7026643,15.2298437 C17.8854247,15.2756771 18.0664664,15.3269531 18.2457893,15.3836719 C18.4251122,15.4403906 18.6021435,15.503125 18.776883,15.571875 C18.948758,15.6397656 19.120633,15.7136719 19.292508,15.791875 C19.464383,15.8700781 19.6302424,15.9534375 19.7952424,16.0410937 C20.1691386,14.7665105 20.798674,13.5814167 21.6454768,12.5580469 C22.4758376,11.5616247 23.4988958,10.7431781 24.6532893,10.1517969 C25.8659079,9.53475258 27.1840223,9.15194252 28.5385237,9.0234375 C30.040274,8.8827939 31.5550239,9.00110194 33.0167268,9.37320312 Z" transform="translate(-80.000000, -2451.000000) translate(80.000000, 2451.000000) translate(12.772492, 6.921406)"/>
            <path fill="url(#zncd_svg__e)" d="M53.7732112,15.0141406 C53.7732112,14.9625781 53.7732112,14.911875 53.7732112,14.8603125 C53.7732112,14.80875 53.7732112,14.7580469 53.7680549,14.7073438 L53.7680549,14.6420313 L53.7680549,14.623125 C53.7680549,14.6007813 53.7680549,14.5775781 53.7680549,14.554375 C53.7680549,14.5036719 53.7628987,14.4529688 53.7594612,14.4022656 C53.7560237,14.3515625 53.7525862,14.3008594 53.7482893,14.2501563 C53.7439924,14.1994531 53.7405549,14.14875 53.736258,14.0980469 C53.736258,14.06625 53.7302424,14.0353125 53.7276643,14.004375 C53.7272425,13.9986536 53.7272425,13.9929089 53.7276643,13.9871875 C53.7276643,13.9725781 53.7276643,13.9579688 53.7276643,13.9433594 C53.722508,13.8926563 53.7173518,13.8410938 53.7113362,13.7895313 L53.6932893,13.6357031 L53.6726643,13.481875 C53.667508,13.4440625 53.6623518,13.4053906 53.6563362,13.3675781 C53.6563362,13.3632812 53.6563362,13.358125 53.6563362,13.3538281 C53.6563362,13.3495313 53.6563362,13.3357813 53.6563362,13.3271875 C53.6486018,13.275625 53.640008,13.2240625 53.6322737,13.1725 L53.6064924,13.0186719 C53.5970393,12.9671094 53.5884455,12.9155469 53.578133,12.8639844 C53.5678205,12.8124219 53.5618049,12.7780469 53.5540705,12.7342188 L53.5540705,12.7230469 C53.5540705,12.7161719 53.5540705,12.7092969 53.5540705,12.7024219 C53.543758,12.6482813 53.5325862,12.595 53.5214143,12.5408594 C53.5102424,12.4867188 53.4982112,12.4334375 53.4861799,12.3801563 C53.4741487,12.326875 53.4621174,12.2727344 53.4492268,12.2194531 C53.440633,12.1825 53.4320393,12.1455469 53.4225862,12.1094531 C53.4215618,12.1033476 53.4201262,12.0973183 53.4182893,12.0914063 C53.4182893,12.0785156 53.4122737,12.065625 53.4096955,12.0527344 C53.3959455,11.9977344 53.3813362,11.9427344 53.3667268,11.8877344 C53.3521174,11.8327344 53.337508,11.776875 53.3228987,11.721875 L53.2764924,11.556875 L53.2558674,11.488125 L53.248133,11.4632031 C53.241258,11.4374219 53.2335237,11.4107813 53.2257893,11.385 L53.172508,11.213125 C53.1544612,11.1564063 53.1364143,11.0996875 53.117508,11.04125 C53.0986018,10.9828125 53.0796955,10.9278125 53.0599299,10.869375 C53.0599299,10.869375 53.0599299,10.8625 53.0599299,10.8590625 L53.0599299,10.8590625 C53.0596478,10.8570672 53.0596478,10.8550422 53.0599299,10.8530469 C53.0401643,10.7963281 53.0203987,10.7396094 52.9997737,10.6811719 C52.9791487,10.6227344 52.9542268,10.5557031 52.9310237,10.4929688 C52.9078205,10.4302344 52.883758,10.3675 52.8588362,10.3047656 C52.8528205,10.2892969 52.8468049,10.2729688 52.8399299,10.2575 C52.8330549,10.2420313 52.8339143,10.2411719 52.8304768,10.2325781 C52.815008,10.1947656 52.8003987,10.1560938 52.7849299,10.1182813 C52.7574299,10.0486719 52.7282112,9.97992188 52.6989924,9.91117188 C52.6697737,9.84242188 52.6405549,9.77453125 52.6130549,9.70578125 L52.5907112,9.65679688 C52.5907112,9.64648438 52.5821174,9.63703125 52.5769612,9.62671875 C52.5589143,9.58460938 52.540008,9.54078125 52.5211018,9.50125 C52.4901643,9.43335938 52.4583674,9.36546875 52.4265705,9.29757813 C52.3947737,9.2296875 52.3509455,9.1403125 52.3114143,9.06125 L52.3114143,9.05351563 C52.3093548,9.0502593 52.3076274,9.04680449 52.306258,9.04320313 C52.2701643,8.97101563 52.2332112,8.89796875 52.196258,8.82664063 C52.1593049,8.7553125 52.1146174,8.67023438 52.0733674,8.59289063 L52.0166487,8.490625 C52.0089143,8.47515625 52.0003205,8.4596875 51.9917268,8.44421875 L51.9461799,8.35828125 C51.8911799,8.2603125 51.8344612,8.16148438 51.7743049,8.064375 C51.7485237,8.0196875 51.721883,7.9784375 51.6952424,7.93203125 L51.6505549,7.858125 L51.5998518,7.7721875 C51.5396955,7.6759375 51.4795393,7.5796875 51.4176643,7.48429688 C51.3927424,7.44476563 51.3669612,7.40609375 51.3411799,7.36742188 L51.2930549,7.29523438 C51.2724299,7.2634375 51.2518049,7.23078125 51.2303205,7.19898438 C51.1873518,7.13625 51.144383,7.074375 51.0979768,7.01164063 C51.0257893,6.90765625 50.9536018,6.80453125 50.8788362,6.70226563 C50.8178205,6.61632813 50.7550862,6.53554688 50.6923518,6.4521875 C50.6399299,6.38429688 50.5909455,6.3146875 50.5376643,6.24765625 C50.5136018,6.21671875 50.4878205,6.18664063 50.4628987,6.15570313 C50.4379768,6.12476563 50.4190705,6.09640625 50.3958674,6.06976563 C50.3528987,6.01648438 50.3099299,5.96492188 50.2635237,5.9125 C50.1844612,5.81625 50.1053987,5.72085938 50.023758,5.62632813 C49.9541487,5.54640625 49.8836799,5.46734375 49.8132112,5.38828125 C49.7272737,5.29546875 49.6464924,5.20351563 49.5622737,5.11242188 C49.528758,5.0771875 49.4978205,5.04109375 49.4643049,5.00585938 C49.4307893,4.970625 49.3783674,4.91992188 49.3405549,4.88125 C49.2546174,4.7953125 49.1686799,4.70421875 49.0784455,4.6165625 C49.0028205,4.54179688 48.9254768,4.46703125 48.848133,4.393125 C48.7578987,4.3071875 48.6659455,4.22125 48.5739924,4.13960938 C48.5301643,4.10007813 48.4880549,4.05367188 48.4442268,4.01929688 L48.3350862,3.925625 C48.2405549,3.8396875 48.1451643,3.76234375 48.0497737,3.68242188 C47.954383,3.6025 47.885633,3.54578125 47.8022737,3.47875 C47.7043049,3.3996875 47.6046174,3.32234375 47.5049299,3.24585938 C47.4499299,3.20375 47.3966487,3.15992188 47.3407893,3.1178125 C47.2849299,3.07570313 47.2428205,3.045625 47.1938362,3.00953125 L47.1302424,2.963125 L47.0657893,2.91585938 C46.9729768,2.8496875 46.8801643,2.78351563 46.785633,2.7190625 L46.6378205,2.62023438 L46.6008674,2.59359375 L46.572508,2.57640625 C46.5493049,2.56007813 46.5261018,2.54375 46.5020393,2.52828125 C46.4066487,2.46554688 46.3103987,2.40453125 46.2141487,2.34351563 L46.0422737,2.23953125 L46.0147737,2.22320313 L45.9864143,2.20515625 C45.9107893,2.15960938 45.8351643,2.1140625 45.7586799,2.07023438 C45.6821955,2.02640625 45.6065705,1.98429688 45.5300862,1.93875 L45.458758,1.89921875 L45.4149299,1.87515625 L45.2980549,1.81070313 C45.231883,1.77460938 45.1648518,1.739375 45.0978205,1.70414063 L44.8967268,1.60101563 L44.8494612,1.5778125 L44.8211018,1.56320313 L44.6595393,1.50046875 C44.5916487,1.46695313 44.523758,1.43429688 44.455008,1.4025 C44.386258,1.37070313 44.3321174,1.34492188 44.269383,1.3165625 L44.2023518,1.28648438 L44.1748518,1.27445313 L44.0828987,1.23320313 L43.8955549,1.15671875 L43.7064924,1.07851563 L43.5689924,1.02351563 L43.5561018,1.01835938 L43.5354768,1.00976563 L43.3636018,0.94359375 L43.1917268,0.879140625 C43.1341487,0.858515625 43.0765705,0.83703125 43.0198518,0.817265625 L42.9339143,0.788046875 L42.9115705,0.7803125 L42.8505549,0.758828125 L42.6786799,0.70296875 C42.6228205,0.6840625 42.5661018,0.666015625 42.5068049,0.648828125 L42.3349299,0.59640625 L42.2747737,0.57921875 L42.2541487,0.57234375 L42.1682112,0.54828125 C42.1109195,0.532239583 42.0559195,0.516770833 42.0032112,0.501875 L41.8373518,0.4571875 L41.670633,0.41421875 L41.6534455,0.41421875 L41.6353987,0.41421875 L41.6182112,0.41421875 L41.6010237,0.41421875 L41.4566487,0.37984375 L41.313133,0.3471875 L41.1790705,0.29734375 L41.0364143,0.268125 L40.8774299,0.236328125 L40.8052424,0.2234375 L40.7889143,0.2234375 L40.7193049,0.210546875 L40.5620393,0.18390625 C40.509331,0.174166667 40.4569091,0.165572917 40.4047737,0.158125 L40.2509455,0.131484375 L40.0953987,0.11 L40.0094612,0.098828125 L39.9948518,0.098828125 L39.945008,0.0928125 L39.7903205,0.075625 L39.6347737,0.059296875 L39.477508,0.03953125 L39.3228205,0.026640625 L39.216258,0.019765625 L39.2042268,0.019765625 L39.1689924,0.019765625 C39.1165705,0.019765625 39.065008,0.01375 39.0125862,0.01203125 L38.8570393,0.00515625 L38.7014924,0 L38.5476643,0 L38.233133,0 L38.0775862,0 C38.0251643,0 37.9736018,0 37.9220393,0.00515625 L37.7596174,0.01203125 L37.683133,0.01203125 L37.6659455,0.01203125 L37.5989143,0.01203125 L37.4390705,0.0240625 L37.2792268,0.0378125 L37.1073518,0.054140625 L36.9354768,0.07390625 L36.9217268,0.07390625 L36.768758,0.093671875 L36.6028987,0.117734375 L36.425008,0.14609375 C36.3665705,0.155546875 36.3072737,0.165859375 36.253133,0.17703125 L36.2127424,0.184765625 L36.1946955,0.184765625 L36.0778205,0.207109375 L35.9059455,0.243203125 C35.8414924,0.256953125 35.7778987,0.2715625 35.7143049,0.28703125 C35.6507112,0.3025 35.5879768,0.317109375 35.5252424,0.3334375 L35.5063362,0.33859375 L35.5063362,0.33859375 L35.4994612,0.33859375 L35.3413362,0.380703125 L35.1548518,0.433125 L34.940008,0.4984375 L34.8411799,0.53109375 L34.8085237,0.542265625 L34.7286018,0.568046875 L34.5180549,0.641953125 C34.4493049,0.666875 34.3796955,0.693515625 34.3109455,0.72015625 L34.1914924,0.76828125 L34.1416487,0.788046875 L34.0557112,0.82328125 C33.9697737,0.858515625 33.8838362,0.89546875 33.8030549,0.932421875 C33.7222737,0.969375 33.633758,1.02695313 33.5478205,1.07078125 L33.5297737,1.079375 L33.5117268,1.08882813 L33.3028987,1.1928125 C33.2496174,1.22117187 33.1997737,1.25382812 33.1464924,1.27875 C33.070008,1.32 32.9909455,1.3578125 32.9153205,1.40078125 C32.856883,1.43515625 32.801883,1.47296875 32.7434455,1.50820312 C32.7004768,1.53398437 32.657508,1.55632813 32.6111018,1.58296875 C32.5646955,1.60960938 32.533758,1.63710937 32.4942268,1.66289063 C32.3636018,1.74882813 32.2364143,1.83476563 32.1109455,1.92070313 C32.0611018,1.9559375 32.0078205,1.98773438 31.9579768,2.0246875 C31.9321955,2.04359375 31.908133,2.0659375 31.8823518,2.08570312 C31.750008,2.18625 31.6245393,2.29195313 31.4939143,2.399375 C31.4457893,2.440625 31.3942268,2.47671875 31.3461018,2.51882813 C31.3340705,2.53 31.3228987,2.54203125 31.310008,2.55320313 C31.1269612,2.71648438 30.9482112,2.88492188 30.7780549,3.06109375 L22.118133,12.0346875 C22.290008,11.8576563 22.468758,11.6909375 22.6535237,11.5250781 C22.7128205,11.4717969 22.7764143,11.4219531 22.8382893,11.3703906 C22.9654768,11.2629688 23.0961018,11.1564063 23.2284455,11.0558594 C23.3032112,10.9982813 23.3805549,10.9441406 23.4578987,10.89 C23.5845132,10.8000521 23.7128466,10.7141146 23.8428987,10.6321875 C23.9288362,10.5789063 24.0096174,10.5273438 24.0938362,10.4766406 C24.2267528,10.3964323 24.3619612,10.3196615 24.4994612,10.2463281 C24.620633,10.1810156 24.7409455,10.1139844 24.8655549,10.0529687 C24.8721036,10.0503371 24.8784266,10.0471756 24.8844612,10.0435156 C25.0838362,9.94726562 25.2866487,9.85760417 25.4928987,9.77453125 L25.5436018,9.75390625 C25.7464143,9.66796875 25.9535237,9.59664062 26.1632112,9.52789062 L26.1975862,9.51671875 C26.4141487,9.44625 26.6347216,9.38208333 26.8593049,9.32421875 L26.8704768,9.32421875 C27.0990705,9.26578125 27.3302424,9.21507812 27.5657112,9.17125 L27.5828987,9.17125 C27.8192268,9.12742187 28.058133,9.09046875 28.3013362,9.06125 L28.305633,9.06125 C28.5488362,9.03203125 28.7946174,9.0096875 29.0429768,8.9959375 L29.0610237,8.9959375 C29.3085237,8.98132812 29.5586018,8.9753125 29.8103987,8.97617188 L29.8241487,8.97617188 C30.0776643,8.97617188 30.333758,8.98648437 30.5915705,9.00367188 L30.6044612,9.00367188 C30.8622737,9.02085938 31.1226643,9.04606771 31.385633,9.07929687 L31.4002424,9.07929687 C31.6620653,9.11252604 31.9258935,9.1540625 32.1917268,9.20390625 L32.2080549,9.20390625 C32.4761799,9.25432292 32.7460237,9.31304687 33.0175862,9.38007812 C33.2375862,9.43393229 33.4561539,9.49322917 33.6732893,9.55796875 L33.6939143,9.56398437 C33.9070393,9.62757812 34.1193049,9.69546875 34.3289924,9.76851562 L34.3513362,9.77625 C34.5627424,9.84929687 34.7715705,9.9275 34.9786799,10.0091406 L34.9924299,10.0151562 C35.198107,10.0965104 35.401206,10.1824479 35.6017268,10.2729687 L35.6309455,10.2867187 C35.8286018,10.3726562 36.0253987,10.4689062 36.2196174,10.5660156 L36.2488362,10.580625 C36.4413362,10.676875 36.6303987,10.7774219 36.8186018,10.8805469 C36.8332112,10.8891406 36.8478205,10.8977344 36.8632893,10.9054687 C37.0523518,11.0111719 37.2388362,11.1194531 37.4236018,11.2328906 L37.4511018,11.2492187 C37.6298518,11.3592187 37.8065966,11.4738021 37.9813362,11.5929687 C38.0045393,11.6075781 38.026883,11.6230469 38.0492268,11.6385156 C38.2170914,11.753099 38.3820914,11.8676823 38.5442268,11.9822656 L38.6086799,12.0295312 C38.714383,12.106875 38.8183674,12.1876562 38.9223518,12.2675781 C39.0263362,12.3475 39.1243049,12.4239844 39.223133,12.5030469 C39.3090705,12.5709375 39.3889924,12.6388281 39.470633,12.7075781 C39.5686018,12.7935156 39.6648518,12.8708594 39.7602424,12.9542187 C39.8410237,13.0255469 39.9209455,13.096875 40.0008674,13.1699219 C40.0807893,13.2429687 40.1864924,13.3417969 40.2775862,13.4277344 C40.3686799,13.5136719 40.433133,13.5764062 40.5096174,13.6520312 C40.5861018,13.7276563 40.687508,13.8290625 40.7751643,13.9192969 C40.8628205,14.0095313 40.9238362,14.0739844 40.9977424,14.1521875 C41.0836799,14.2438542 41.1696174,14.3366667 41.2555549,14.430625 C41.326883,14.5096875 41.3982112,14.5896094 41.4678205,14.6703906 C41.553758,14.7657813 41.6311018,14.8628906 41.7110237,14.96 C41.7780549,15.0407813 41.8459455,15.1224219 41.911258,15.2057813 C41.9903205,15.3046094 42.0668049,15.4051563 42.1432893,15.5065625 C42.206883,15.5890625 42.2696174,15.6724219 42.3314924,15.7566406 C42.4071174,15.8597656 42.4801643,15.9646094 42.5532112,16.0694531 C42.626258,16.1742969 42.6855549,16.2585156 42.750008,16.3547656 L42.798133,16.4278125 C42.9055549,16.5910938 43.0095393,16.7552344 43.1109455,16.9219531 C43.1264143,16.9460156 43.1410237,16.9709375 43.155633,16.995 C43.2576122,17.166875 43.3567268,17.33875 43.4529768,17.510625 L43.478758,17.55875 C43.5801643,17.7426563 43.6775601,17.9279948 43.7709455,18.1147656 L43.7761018,18.1250781 C43.870633,18.3158594 43.9614403,18.5083594 44.0485237,18.7025781 L44.0622737,18.7335156 C44.1476382,18.9254427 44.2289924,19.1185156 44.3063362,19.3127344 L44.3166487,19.3376563 C44.3951382,19.5358854 44.4690445,19.7364063 44.5383674,19.9392188 L44.5383674,19.9469531 C44.6071174,20.1480469 44.6724299,20.35 44.7325862,20.5536719 L44.7403205,20.5777344 C44.7996174,20.7796875 44.8546174,20.9816406 44.9053205,21.1853125 C44.9053205,21.1913281 44.9053205,21.1973438 44.9096174,21.2033594 C44.9603205,21.40875 45.0058674,21.6141406 45.0471174,21.82125 L45.0471174,21.8332813 C45.0883674,22.0403906 45.1236018,22.2483594 45.1553987,22.4571875 C45.1550314,22.4617635 45.1550314,22.4663615 45.1553987,22.4709375 C45.1863362,22.6777604 45.2121174,22.8857292 45.2327424,23.0948438 C45.23236,23.1005665 45.23236,23.1063085 45.2327424,23.1120313 C45.2527945,23.3194271 45.2679768,23.5271094 45.2782893,23.7350781 C45.277862,23.7410862 45.277862,23.747117 45.2782893,23.753125 C45.2877424,23.9610938 45.2920393,24.1699219 45.2911799,24.3778906 L45.2911799,24.3942188 C45.2911799,24.6064844 45.2843049,24.8178906 45.2722737,25.0301563 L53.7482893,15.9207813 L53.7560237,15.7738281 C53.7560237,15.7248438 53.7560237,15.6758594 53.7620393,15.6260156 C53.7680549,15.5761719 53.7620393,15.5280469 53.7663362,15.4790625 L53.7663362,15.33125 L53.7663362,15.1645313 C53.7740705,15.1164063 53.7740705,15.0648438 53.7732112,15.0141406 Z" transform="translate(-80.000000, -2451.000000) translate(80.000000, 2451.000000) translate(12.772492, 6.921406)"/>
            <path fill="url(#zncd_svg__f)" d="M45.2774299,25.83625 C46.8949492,26.2546819 48.4281968,26.9489168 49.8097737,27.8884375 C51.1775711,28.8131635 52.3905217,29.9483831 53.4036799,31.2520312 C54.3304882,32.4384194 55.0685097,33.7608286 55.5916487,35.1725 C55.5400862,35.000625 55.4850862,34.821875 55.4257893,34.6482812 C54.8995573,33.1251745 54.1238601,31.7001105 53.1303987,30.4313281 C52.1168033,29.1280788 50.9039208,27.9929229 49.5364924,27.0677344 C48.2376908,26.1868657 46.8053492,25.5211867 45.2946174,25.0963281 C45.2954768,25.3429687 45.2911799,25.5896094 45.2774299,25.83625 Z" transform="translate(-80.000000, -2451.000000) translate(80.000000, 2451.000000) translate(12.772492, 6.921406)"/>
            <path fill="url(#zncd_svg__g)" d="M0.282273661,27.0419531 C0.333302873,25.804189 0.65106845,24.5920482 1.21383616,23.4884375 C1.74195265,22.4672364 2.49366222,21.578345 3.41297679,20.8879688 C4.35415625,20.1876101 5.43464297,19.6973323 6.58149241,19.4502344 C7.84360819,19.1802184 9.14610277,19.1574546 10.416883,19.3832031 C10.690305,18.7155539 11.089078,18.1064552 11.5916487,17.5888281 C12.0909385,17.0761658 12.6821394,16.661917 13.3344612,16.3676563 C14.0220844,16.0603522 14.7582483,15.8759476 15.5095393,15.8228125 C16.3389425,15.7656783 17.1721478,15.8413978 17.9776643,16.0471094 C18.1604247,16.0923698 18.3414664,16.1436458 18.5207893,16.2009375 C18.7001122,16.2582292 18.8771435,16.3209635 19.051883,16.3891406 C19.223758,16.4570313 19.3999299,16.5309375 19.567508,16.6091406 C19.7350862,16.6873438 19.904383,16.7707031 20.069383,16.8583594 C20.4432792,15.5837761 21.0728146,14.3986823 21.9196174,13.3753125 C22.7501774,12.3790935 23.7731909,11.5606827 24.9274299,10.9690625 C26.1400485,10.3520182 27.4581629,9.96920815 28.8126643,9.84070313 C30.314327,9.7012462 31.8287863,9.82071698 33.290008,10.1939063 C35.0706718,10.6410806 36.7601131,11.394205 38.2829768,12.4196875 C39.7936854,13.4324091 41.1345732,14.6778714 42.2558674,16.1098438 C43.3115473,17.4502823 44.1480733,18.9495899 44.7343049,20.5519531 C44.6732893,20.3439844 44.606258,20.136875 44.5349299,19.930625 C43.945812,18.2534396 43.0830788,16.6853618 41.9817268,15.29 C40.8608225,13.8584623 39.5201939,12.6135514 38.0096955,11.6015625 C36.4867471,10.5762329 34.7973335,9.82312079 33.0167268,9.37578125 C31.556405,9.00417229 30.043151,8.88586757 28.5428205,9.02601563 C27.1883192,9.15452065 25.8702047,9.5373307 24.6575862,10.154375 C23.5031926,10.7457563 22.4801345,11.5642028 21.6497737,12.560625 C20.8026639,13.5830847 20.1725535,14.7672829 19.7978205,16.0410938 C19.6328205,15.9534375 19.4652424,15.8703646 19.2950862,15.791875 C19.1232112,15.7136719 18.9513362,15.6397656 18.7794612,15.571875 C18.6075862,15.5039844 18.4279768,15.44125 18.2483674,15.3836719 C18.068758,15.3260938 17.8882893,15.2753906 17.7052424,15.2298438 C16.8994392,15.024099 16.0659457,14.9483796 15.236258,15.0055469 C14.4852591,15.0587812 13.7493945,15.2431837 13.0620393,15.5503906 C12.4099952,15.8436253 11.8188136,16.2566945 11.3192268,16.768125 C10.8163725,17.2855249 10.4175616,17.8946817 10.1444612,18.5625 C8.87339298,18.3367482 7.57061667,18.3595117 6.30821116,18.6295313 C5.16162927,18.8766434 4.08142593,19.3669256 3.14055491,20.0672656 C2.22121328,20.7578483 1.46926389,21.646676 0.940554911,22.6677344 C0.378059981,23.771403 0.060586945,24.9835461 0.00985178574,26.22125 C-0.0498261649,27.6185476 0.162054407,29.0141576 0.633758036,30.3307813 C0.660398661,30.4089844 0.691336161,30.4854688 0.719695536,30.5628125 C0.378657932,29.4217783 0.230812135,28.2317503 0.282273661,27.0419531 L0.282273661,27.0419531 Z" transform="translate(-80.000000, -2451.000000) translate(80.000000, 2451.000000) translate(12.772492, 6.921406)"/>
        </g>
        <path fill="url(#zncd_svg__h)" fill-rule="nonzero" d="M56.7909375,45.9903125 L24.220625,37.5486719 C23.0432813,37.2470312 22.0936719,35.7611719 22.4932812,34.1971094 L22.4932812,34.1971094 C22.8928906,32.635625 24.1716406,31.6189844 25.3498438,31.9163281 L57.9201562,40.3571094 C59.0983594,40.65875 60.0471094,42.1446094 59.6483594,43.7086719 L59.6483594,43.7086719 C59.2478906,45.2701562 57.9682812,46.2910937 56.7909375,45.9903125 Z" transform="translate(-80.000000, -2451.000000) translate(80.000000, 2451.000000)"/>
        <path stroke="url(#zncd_svg__i)" stroke-width="2" d="M56.7909375,45.9903125 L24.220625,37.5486719 C23.0432813,37.2470312 22.0936719,35.7611719 22.4932812,34.1971094 L22.4932812,34.1971094 C22.8928906,32.635625 24.1716406,31.6189844 25.3498438,31.9163281 L57.9201562,40.3571094 C59.0983594,40.65875 60.0471094,42.1446094 59.6483594,43.7086719 L59.6483594,43.7086719 C59.2478906,45.2701562 57.9682812,46.2910937 56.7909375,45.9903125 Z" opacity=".4" transform="translate(-80.000000, -2451.000000) translate(80.000000, 2451.000000)"/>
        <g fill-rule="nonzero" opacity=".3">
            <path fill="url(#zncd_svg__j)" d="M49.2739844 10.1432031 35.9605469 23.5726563 0 13.1690625 13.5471875 0z" transform="translate(-80.000000, -2451.000000) translate(80.000000, 2451.000000) translate(9.930938, 57.717344)"/>
            <path fill="url(#zncd_svg__k)" d="M13.3134375-1.57772181e-30 13.3701563.9040625.062734375 14.3386719 0 13.4294531z" transform="translate(-80.000000, -2451.000000) translate(80.000000, 2451.000000) translate(9.930938, 57.717344) translate(35.960547, 10.143203)"/>
            <path fill="url(#zncd_svg__l)" d="M35.9605469 10.4035937 36.0232812 11.3128125.074765625.90234375 0 0z" transform="translate(-80.000000, -2451.000000) translate(80.000000, 2451.000000) translate(9.930938, 57.717344) translate(0.000000, 13.169063)"/>
        </g>
        <g fill-rule="nonzero">
            <path fill="url(#zncd_svg__m)" d="M49.2739844 10.1440625 35.9605469 23.5735156 0 13.1690625 13.5471875 0z" opacity=".4" transform="translate(-80.000000, -2451.000000) translate(80.000000, 2451.000000) translate(9.930938, 47.125547)"/>
            <path fill="url(#zncd_svg__n)" d="M13.3134375 1.57772181e-30 13.3701563.9040625.062734375 14.3386719 0 13.4294531z" opacity=".5" transform="translate(-80.000000, -2451.000000) translate(80.000000, 2451.000000) translate(9.930938, 47.125547) translate(35.960547, 10.144063)"/>
            <path fill="url(#zncd_svg__o)" d="M35.9605469 10.4044531 36.0232812 11.3136719.074765625.90234375 0 0z" opacity=".5" transform="translate(-80.000000, -2451.000000) translate(80.000000, 2451.000000) translate(9.930938, 47.125547) translate(0.000000, 13.169063)"/>
        </g>
        <g fill-rule="nonzero">
            <path fill="url(#zncd_svg__p)" d="M49.1734375 9.16695313 36.23125 22.9539063 0 13.5325781 13.1836719-4.4408921e-16z" opacity=".5" transform="translate(-80.000000, -2451.000000) translate(80.000000, 2451.000000) translate(10.006562, 34.576094)"/>
            <path fill="url(#zncd_svg__q)" d="M12.9421875 0 13.0238281.90234375.086796875 14.6935937 0 13.7869531z" opacity=".7" transform="translate(-80.000000, -2451.000000) translate(80.000000, 2451.000000) translate(10.006562, 34.576094) translate(36.231250, 9.166953)"/>
            <path fill="url(#zncd_svg__r)" d="M36.23125 9.42132813 36.3180469 10.3279688.0996875.900625 0 0z" opacity=".7" transform="translate(-80.000000, -2451.000000) translate(80.000000, 2451.000000) translate(10.006562, 34.576094) translate(0.000000, 13.532578)"/>
        </g>
        <g fill-rule="nonzero" stroke-width=".5">
            <path fill="url(#zncd_svg__t)" stroke="url(#zncd_svg__s)" d="M28.0534375 7.32617187 26.6758594 8.73898437 0 1.3921875 1.39648438 0z" transform="translate(-80.000000, -2451.000000) translate(80.000000, 2451.000000) translate(17.178047, 42.885391)"/>
            <path fill="url(#zncd_svg__v)" stroke="url(#zncd_svg__u)" d="M26.6758594 8.73898438 26.7824219 10.0959375.1203125 2.743125 0 1.3921875z" transform="translate(-80.000000, -2451.000000) translate(80.000000, 2451.000000) translate(17.178047, 42.885391)"/>
            <path fill="url(#zncd_svg__x)" stroke="url(#zncd_svg__w)" d="M28.0534375 7.32617188 28.16 8.683125 26.7824219 10.0959375 26.6758594 8.73898438z" transform="translate(-80.000000, -2451.000000) translate(80.000000, 2451.000000) translate(17.178047, 42.885391)"/>
        </g>
        <g fill-rule="nonzero" stroke-width=".5">
            <path fill="url(#zncd_svg__z)" stroke="url(#zncd_svg__y)" d="M17.1496875 4.2109375 15.7789844 5.62890625 0 1.40679687 1.381875 0z" transform="translate(-80.000000, -2451.000000) translate(80.000000, 2451.000000) translate(21.837578, 37.998984)"/>
            <path fill="url(#zncd_svg__B)" stroke="url(#zncd_svg__A)" d="M17.1496875 4.2109375 17.2691406 5.5653125 15.8984375 6.98414063 15.7789844 5.62890625z" transform="translate(-80.000000, -2451.000000) translate(80.000000, 2451.000000) translate(21.837578, 37.998984)"/>
            <path fill="url(#zncd_svg__D)" stroke="url(#zncd_svg__C)" d="M15.7789844 5.62890625 15.8984375 6.98414062.1271875 2.756875 0 1.40679687z" transform="translate(-80.000000, -2451.000000) translate(80.000000, 2451.000000) translate(21.837578, 37.998984)"/>
        </g>
        <path fill="#A5521C" fill-rule="nonzero" d="M42.9120312 23.010625 46.7207812 34.753125 44.8834375 34.2933594 43.9140625 31.1609375 38.9975781 29.9320313 37.7016406 32.4955469 35.8703125 32.0366406 40.90625 22.515625 42.9120312 23.010625ZM39.5063281 28.7460938 43.5582812 29.7575781C43.3291146 29.016224 43.1263021 28.3648177 42.9498437 27.8033594 42.7733854 27.241901 42.6261458 26.7706771 42.508125 26.3896875 42.3889583 26.0086979 42.2972917 25.7185156 42.233125 25.5191406 42.1695312 25.3189063 42.1334375 25.2089062 42.1257031 25.1891406 42.1264301 25.1779806 42.1264301 25.166785 42.1257031 25.155625 42.1257031 25.141875 42.1214062 25.1255469 42.1179687 25.1075 42.1145312 25.0894531 42.109375 25.0671094 42.1042187 25.0439063 42.0990625 25.0207031 42.0921875 24.9949219 42.0844531 24.9665625 42.0457812 24.8514063 42.0114062 24.7491406 41.9821875 24.6580469 41.9529687 24.5669531 41.9289062 24.4861719 41.91 24.4234375 41.8910937 24.3607031 41.8764844 24.303125 41.8678906 24.2610156 41.8605806 24.2329294 41.8565434 24.204092 41.8558594 24.1750781L41.8025781 24.1613281C41.7716406 24.2335156 41.7398437 24.3048438 41.7080469 24.3761719L41.6126562 24.5892969 41.5172656 24.8032813C41.4854687 24.8746094 41.4536719 24.9459375 41.4227344 25.0172656 41.4124219 25.0327344 41.3651562 25.12125 41.2800781 25.2845313 41.195 25.4478125 41.0729687 25.685 40.913125 25.9960938 40.7532812 26.3071875 40.5564844 26.6921875 40.3227344 27.1510938 40.0889844 27.61 39.8165625 28.1428125 39.5080469 28.7495313M50.4814062 24.8900781 49.836875 35.5334375 48.1576563 35.1123438 48.7978906 24.4724219z" transform="translate(-80.000000, -2451.000000) translate(80.000000, 2451.000000)"/>
    </g>
</svg>
