<svg xmlns="http://www.w3.org/2000/svg" width="60" height="38" viewBox="0 0 60 38">
    <defs>
        <clipPath id="zwsj_svg__a">
            <path d="M4418,0 L4418,833 L0,833 L0,0 L4418,0 Z"/>
        </clipPath>
        <clipPath id="zwsj_svg__b">
            <path d="M30.0319693,0.000865742632 C46.1218524,0.0579315611 59.0856186,2.9288859 59.0856186,6.46156863 C59.0856186,10.0311731 45.8599175,12.9256281 29.5434503,12.9256281 C13.2269831,12.9256281 0,10.0311878 0,6.46156863 C0,2.89320224 13.2269831,0 29.5434503,0 Z"/>
        </clipPath>
        <clipPath id="zwsj_svg__c">
            <path d="M31.7577082,0 C32.5891616,0 33.4206113,0.462611259 33.9732481,1.38533561 L43.390528,12.0941894 L43.390528,21.2339311 L0,21.2339311 L0,12.0941967 L9.50980734,1.29281556 C9.96866769,0.462614922 10.8013702,0 11.6315744,0 L31.7577082,0 Z"/>
        </clipPath>
        <clipPath id="zwsj_svg__d">
            <path d="M30.8349765,0 C31.3888624,0 31.8514736,0.367589376 32.3115867,1.01274624 L41.545094,11.5403181 L41.545094,19.4797607 L0,19.4784933 L0,11.6315781 L9.32350716,0.922724352 C9.6935947,0.368838459 10.1549569,0 10.7088428,0 Z"/>
        </clipPath>
        <clipPath id="zwsj_svg__e">
            <path d="M10.3400263,0 C11.4016374,0 12.2933038,1.10235136 12.3657663,2.4938318 L12.3705188,2.67690208 C12.3705188,4.15351233 13.2932431,5.35380417 14.4010112,5.35380417 L28.0655763,5.35380417 C29.1733445,5.44632679 30.0960688,4.15351233 30.0960688,2.67690208 C30.0961274,1.20029184 31.0188518,0 32.1278726,0 L42.4678989,0 L42.4678989,16.710313 C42.4678989,18.6482854 41.2676071,20.3111885 39.697224,20.3111885 L2.76942214,20.3111885 C1.29156281,20.3111885 0,18.7408054 0,16.710313 L0,0 L10.3400263,0 Z"/>
        </clipPath>
        <clipPath id="zwsj_svg__f">
            <path d="M10.8026266,0 C12.1867131,0 13.2944812,1.38408653 13.2944812,3.13826426 C13.2944812,4.3385561 14.0321618,5.35380417 14.8636115,5.35380417 L28.5281766,5.35380417 C29.3583772,5.35380417 30.0973069,4.3385561 30.0973069,3.13826426 C30.0973069,1.38408653 31.205075,0 32.5904143,0 L43.3917954,0 L43.3917954,17.1716678 C43.3917954,19.3872077 42.0064598,21.2338982 40.1597584,21.2338982 L3.23203706,21.2326528 C1.47785933,21.2326528 0,19.385955 0,17.169177 L0,0 L10.8026266,0 Z M10.8027255,0.828944226 L0.923980761,0.828944226 L0.923980761,17.1704224 C0.923980761,18.9246001 1.93922883,20.3086867 3.23204072,20.3086867 L40.1598426,20.3086867 C41.4526582,20.3086867 42.4679026,18.9246001 42.4679026,17.1704224 L42.4679026,0.92146428 L32.5905132,0.92146428 C31.7590598,0.92146428 31.0201302,1.93671235 31.0201302,3.13700419 C31.0201302,4.89118192 29.912362,6.27526845 28.5282755,6.27526845 L14.8637104,6.27526845 C13.4796239,6.27526845 12.3718558,4.89118192 12.3718558,3.13700419 C12.3718558,1.93671235 11.6341752,0.828944226 10.8027255,0.828944226 Z"/>
        </clipPath>
    </defs>
    <g clip-path="url(#zwsj_svg__a)" transform="translate(-2846.0 -129.0)">
        <g clip-path="url(#zwsj_svg__b)" transform="translate(2546.0 50.0) translate(300.0 66.0) translate(0.0 13.0) translate(0.0 24.465979196999804)">
            <path fill="#F5F5F5" d="M0 0 59.0856186 0 59.0856186 12.9256281 0 12.9256281 0 0z"/>
        </g>
        <g clip-path="url(#zwsj_svg__c)" transform="translate(2546.0 50.0) translate(300.0 66.0) translate(0.0 13.0) translate(7.847977499999615 0.0)">
            <path fill="#D9D9D9" d="M0 0 43.390528 0 43.390528 21.2339311 0 21.2339311 0 0z"/>
        </g>
        <g clip-path="url(#zwsj_svg__d)" transform="translate(2546.0 50.0) translate(300.0 66.0) translate(0.0 13.0) translate(8.770972913998776 0.8326951380004175)">
            <path fill="#FFF" d="M0 0 41.545094 0 41.545094 19.4797607 0 19.4797607 0 0z"/>
        </g>
        <g clip-path="url(#zwsj_svg__e)" transform="translate(2546.0 50.0) translate(300.0 66.0) translate(0.0 13.0) translate(8.309328686999834 12.46432453199941)">
            <path fill="#FAFAFA" d="M0 0 42.4678989 0 42.4678989 20.3111885 0 20.3111885 0 0z"/>
        </g>
        <g clip-path="url(#zwsj_svg__f)" transform="translate(2546.0 50.0) translate(300.0 66.0) translate(0.0 13.0) translate(7.846706439000172 12.004196786999271)">
            <path fill="#D9D9D9" d="M0 0 43.3917954 0 43.3917954 21.2338982 0 21.2338982 0 0z"/>
        </g>
    </g>
</svg>
