<svg xmlns="http://www.w3.org/2000/svg" xmlns:xlink="http://www.w3.org/1999/xlink" width="96" height="95" viewBox="0 0 96 95">
    <defs>
        <linearGradient id="wlzd_svg__a" x1="81.638%" x2="8.047%" y1="86.499%" y2="14.573%">
            <stop offset="0%" stop-color="#EDEDF5"/>
            <stop offset="100%" stop-color="#F5F5FA"/>
        </linearGradient>
        <linearGradient id="wlzd_svg__e" x1="50%" x2="50%" y1="0%" y2="100%">
            <stop offset="0%" stop-color="#FFF"/>
            <stop offset="100%" stop-color="#F5F5FB"/>
        </linearGradient>
        <linearGradient id="wlzd_svg__f" x1="100%" x2="0%" y1="50.781%" y2="49.219%">
            <stop offset="0%" stop-color="#EBEBF5"/>
            <stop offset="100%" stop-color="#EDEEF2"/>
        </linearGradient>
        <linearGradient id="wlzd_svg__g" x1="100%" x2="0%" y1="52.14%" y2="47.86%">
            <stop offset="0%" stop-color="#EBEBF5"/>
            <stop offset="100%" stop-color="#EDEEF2"/>
        </linearGradient>
        <linearGradient id="wlzd_svg__h" x1="100%" x2="0%" y1="55.556%" y2="44.444%">
            <stop offset="0%" stop-color="#EBEBF5"/>
            <stop offset="100%" stop-color="#EDEEF2"/>
        </linearGradient>
        <linearGradient id="wlzd_svg__k" x1="51.296%" x2="51.296%" y1="0%" y2="169.731%">
            <stop offset="0%" stop-color="#FFF"/>
            <stop offset="48.993%" stop-color="#F4F4FA"/>
            <stop offset="100%" stop-color="#E8E9F5"/>
        </linearGradient>
        <linearGradient id="wlzd_svg__l" x1="0%" x2="80.917%" y1="-10.016%" y2="104.63%">
            <stop offset="0%" stop-color="#DCDDE3"/>
            <stop offset="100%" stop-color="#FDFDFE"/>
        </linearGradient>
        <linearGradient id="wlzd_svg__q" x1="50%" x2="63.342%" y1="87.682%" y2="18.961%">
            <stop offset="0%" stop-color="#D9D9E4"/>
            <stop offset="100%" stop-color="#EAEBF2"/>
        </linearGradient>
        <filter id="wlzd_svg__c" width="132.6%" height="127.7%" x="-16.3%" y="-9.2%" filterUnits="objectBoundingBox">
            <feOffset dy="3" in="SourceAlpha" result="shadowOffsetOuter1"/>
            <feGaussianBlur in="shadowOffsetOuter1" result="shadowBlurOuter1" stdDeviation="2.5"/>
            <feColorMatrix in="shadowBlurOuter1" values="0 0 0 0 0.8295808 0 0 0 0 0.8295808 0 0 0 0 0.89713807 0 0 0 0.426336969 0"/>
        </filter>
        <filter id="wlzd_svg__i" width="145.9%" height="349.7%" x="-22.9%" y="-103.2%" filterUnits="objectBoundingBox">
            <feOffset dy="2" in="SourceAlpha" result="shadowOffsetOuter1"/>
            <feGaussianBlur in="shadowOffsetOuter1" result="shadowBlurOuter1" stdDeviation="3.5"/>
            <feColorMatrix in="shadowBlurOuter1" values="0 0 0 0 0.890196078 0 0 0 0 0.890196078 0 0 0 0 0.949019608 0 0 0 0.370110358 0"/>
        </filter>
        <filter id="wlzd_svg__m" width="154.9%" height="173.8%" x="-27.4%" y="-33%" filterUnits="objectBoundingBox">
            <feOffset dy="1" in="SourceAlpha" result="shadowOffsetOuter1"/>
            <feGaussianBlur in="shadowOffsetOuter1" result="shadowBlurOuter1" stdDeviation="3"/>
            <feColorMatrix in="shadowBlurOuter1" values="0 0 0 0 0.8832 0 0 0 0 0.8878 0 0 0 0 0.92 0 0 0 0.365432419 0"/>
        </filter>
        <filter id="wlzd_svg__o" width="154.9%" height="173.8%" x="-27.4%" y="-33%" filterUnits="objectBoundingBox">
            <feOffset dy="1" in="SourceAlpha" result="shadowOffsetOuter1"/>
            <feGaussianBlur in="shadowOffsetOuter1" result="shadowBlurOuter1" stdDeviation="3"/>
            <feColorMatrix in="shadowBlurOuter1" values="0 0 0 0 0.8832 0 0 0 0 0.8878 0 0 0 0 0.92 0 0 0 0.365432419 0"/>
        </filter>
        <path id="wlzd_svg__d" d="M56.2790698,56.7906977 C56.2790698,61.3117263 52.6140519,64.9767442 48.0930233,64.9767442 L8.18604651,64.9767442 L8.18604651,8.18604651 C8.18604651,3.66501786 11.8510644,3.13469303e-13 16.372093,3.12638804e-13 L63.4418605,3.12638804e-13 L63.4418605,9.20930233 L56.2790698,9.20930233 L56.2790698,56.7906977 Z"/>
        <path id="wlzd_svg__j" d="M44,55.7674419 L44,58.8372093 C44,62.2279808 46.7487634,64.9767442 50.1395349,64.9767442 L50.1395349,64.9767442 L6.13953488,64.9767442 C2.7487634,64.9767442 3.32778513e-14,62.2279808 2.84217094e-14,58.8372093 L2.84217094e-14,55.7674419 L44,55.7674419 Z"/>
        <path id="wlzd_svg__n" d="M20.2697566,30.4699222 C22.4353864,30.4699222 24.1909763,28.7420749 24.1909763,26.6106673 C24.1909763,24.4792596 22.4353864,22.7514123 20.2697566,22.7514123 C18.1041268,22.7514123 16.348537,24.4792596 16.348537,26.6106673 C16.348537,28.7420749 18.1041268,30.4699222 20.2697566,30.4699222 Z M19.9429883,13.7464841 C23.7531942,13.7464841 27.3303235,15.2251946 29.9711089,17.8061346 C30.9780868,18.7902923 30.9780868,20.3859272 29.9711089,21.3700849 C28.9899511,22.3290078 27.4148109,22.3535955 26.4031924,21.4438482 L26.3245196,21.3700849 C24.6412824,19.7249931 22.3713994,18.7866709 19.9429883,18.7866709 C17.58021,18.7866709 15.3675065,19.6749584 13.6992129,21.2382524 L13.561457,21.3700849 C12.5544792,22.3542426 10.9218456,22.3542426 9.91486773,21.3700849 C8.9078899,20.3859272 8.9078899,18.7902923 9.91486773,17.8061346 C12.5556532,15.2251946 16.1327825,13.7464841 19.9429883,13.7464841 Z M19.9429883,4.74155581 C26.2402936,4.74155581 32.1483523,7.17524889 36.5129621,11.4259707 C37.5112905,12.3982492 37.5112905,13.9746241 36.5129621,14.9469026 C35.5146336,15.9191812 33.8960235,15.9191812 32.8976951,14.9469026 C29.4824086,11.620733 24.8703678,9.72090559 19.9429883,9.72090559 C15.0156089,9.72090559 10.403568,11.620733 6.98828161,14.9469026 C5.9899532,15.9191812 4.37134303,15.9191812 3.37301462,14.9469026 C2.3746862,13.9746241 2.3746862,12.3982492 3.37301462,11.4259707 C7.73762436,7.17524889 13.645683,4.74155581 19.9429883,4.74155581 Z"/>
        <path id="wlzd_svg__p" d="M19.61622,28.5402948 C21.7818498,28.5402948 23.5374397,26.8124475 23.5374397,24.6810398 C23.5374397,22.5496321 21.7818498,20.8217848 19.61622,20.8217848 C17.4505902,20.8217848 15.6950004,22.5496321 15.6950004,24.6810398 C15.6950004,26.8124475 17.4505902,28.5402948 19.61622,28.5402948 Z M19.2894517,11.8168566 C23.0996576,11.8168566 26.6767869,13.2955671 29.3175723,15.8765071 C30.3245502,16.8606648 30.3245502,18.4562997 29.3175723,19.4404574 C28.3364145,20.3993803 26.7612743,20.423968 25.7496558,19.5142207 L25.670983,19.4404574 C23.9877458,17.7953657 21.7178628,16.8570434 19.2894517,16.8570434 C16.9266734,16.8570434 14.7139699,17.7453309 13.0456762,19.3086249 L12.9079204,19.4404574 C11.9009426,20.4246151 10.268309,20.4246151 9.26133113,19.4404574 C8.25435329,18.4562997 8.25435329,16.8606648 9.26133113,15.8765071 C11.9021166,13.2955671 15.4792459,11.8168566 19.2894517,11.8168566 Z M19.2894517,2.81192832 C25.586757,2.81192832 31.4948157,5.2456214 35.8594255,9.49634317 C36.8577539,10.4686217 36.8577539,12.0449966 35.8594255,13.0172752 C34.861097,13.9895537 33.2424869,13.9895537 32.2441585,13.0172752 C28.828872,9.69110554 24.2168312,7.7912781 19.2894517,7.7912781 C14.3620723,7.7912781 9.75003143,9.69110554 6.334745,13.0172752 C5.33641659,13.9895537 3.71780642,13.9895537 2.71947801,13.0172752 C1.7211496,12.0449966 1.7211496,10.4686217 2.71947801,9.49634317 C7.08408776,5.2456214 12.9921464,2.81192832 19.2894517,2.81192832 Z"/>
        <circle id="wlzd_svg__b" cx="40.333" cy="40.333" r="40.333"/>
    </defs>
    <g fill="none" fill-rule="evenodd">
        <use xlink:href="#wlzd_svg__b" fill="url(#wlzd_svg__a)" transform="translate(-840.000000, -2450.000000) translate(848.000000, 2451.000000) translate(1.743864, 3.845921) translate(1.769314, 0.400590)"/>
        <g transform="translate(-840.000000, -2450.000000) translate(848.000000, 2451.000000) translate(1.743864, 3.845921) translate(41.906166, 40.678420) rotate(16.000000) translate(-41.906166, -40.678420) translate(7.627096, 8.190048)">
            <use xlink:href="#wlzd_svg__d" fill="#000" filter="url(#wlzd_svg__c)"/>
            <use xlink:href="#wlzd_svg__d" fill="url(#wlzd_svg__e)"/>
        </g>
        <path fill="url(#wlzd_svg__f)" d="M15.345 12.623H50.545V17.023H15.345z" transform="translate(-840.000000, -2450.000000) translate(848.000000, 2451.000000) translate(1.743864, 3.845921) translate(41.906166, 40.678420) rotate(16.000000) translate(-41.906166, -40.678420) translate(7.627096, 8.190048)"/>
        <path fill="url(#wlzd_svg__g)" d="M15.459 26.323H36.726V30.723H15.459z" transform="translate(-840.000000, -2450.000000) translate(848.000000, 2451.000000) translate(1.743864, 3.845921) translate(41.906166, 40.678420) rotate(16.000000) translate(-41.906166, -40.678420) translate(7.627096, 8.190048)"/>
        <path fill="url(#wlzd_svg__h)" d="M15.016 40.124H28.216V44.524H15.016z" transform="translate(-840.000000, -2450.000000) translate(848.000000, 2451.000000) translate(1.743864, 3.845921) translate(41.906166, 40.678420) rotate(16.000000) translate(-41.906166, -40.678420) translate(7.627096, 8.190048)"/>
        <g transform="translate(-840.000000, -2450.000000) translate(848.000000, 2451.000000) translate(1.743864, 3.845921) translate(41.906166, 40.678420) rotate(16.000000) translate(-41.906166, -40.678420) translate(7.627096, 8.190048)">
            <use xlink:href="#wlzd_svg__j" fill="#000" filter="url(#wlzd_svg__i)"/>
            <use xlink:href="#wlzd_svg__j" fill="url(#wlzd_svg__k)"/>
        </g>
        <path fill="url(#wlzd_svg__l)" d="M62.4186047,-7.10542736e-15 C65.8093761,-7.72830197e-15 68.5581395,2.7487634 68.5581395,6.13953488 L68.5581395,9.20930233 L68.5581395,9.20930233 L56.2790698,9.20930233 L56.2790698,6.13953488 C56.2790698,2.7487634 59.0278332,-6.48255274e-15 62.4186047,-7.10542736e-15 Z" transform="translate(-840.000000, -2450.000000) translate(848.000000, 2451.000000) translate(1.743864, 3.845921) translate(41.906166, 40.678420) rotate(16.000000) translate(-41.906166, -40.678420) translate(7.627096, 8.190048)"/>
        <g transform="translate(-840.000000, -2450.000000) translate(848.000000, 2451.000000) translate(38.152508, 44.707738) translate(19.942988, 17.605739) rotate(12.000000) translate(-19.942988, -17.605739)">
            <use xlink:href="#wlzd_svg__n" fill="#000" filter="url(#wlzd_svg__m)"/>
            <use xlink:href="#wlzd_svg__n" fill="#FFF"/>
        </g>
        <g transform="translate(-840.000000, -2450.000000) translate(848.000000, 2451.000000) translate(38.152508, 44.707738) translate(19.289452, 15.676112) rotate(10.000000) translate(-19.289452, -15.676112)">
            <use xlink:href="#wlzd_svg__p" fill="#000" filter="url(#wlzd_svg__o)"/>
            <use xlink:href="#wlzd_svg__p" fill="url(#wlzd_svg__q)"/>
        </g>
        <path fill="#FFF" fill-rule="nonzero" d="M17.9867319,21.9114131 C18.1653766,21.9114131 18.3101968,22.0577122 18.3101968,22.2381814 L18.3099223,24.3644131 L20.4382152,24.3652303 C20.6186843,24.3652303 20.7649835,24.5100504 20.7649835,24.6886952 C20.7649835,24.8673399 20.6186843,25.0121601 20.4382152,25.0121601 L18.3099223,25.0114131 L18.3101968,27.1397059 C18.3101968,27.320175 18.1653766,27.4664742 17.9867319,27.4664742 C17.8080871,27.4664742 17.663267,27.320175 17.663267,27.1397059 L17.6629223,25.0114131 L15.5366906,25.0121601 C15.3562215,25.0121601 15.2099223,24.8673399 15.2099223,24.6886952 C15.2099223,24.5100504 15.3562215,24.3652303 15.5366906,24.3652303 L17.6629223,24.3644131 L17.663267,22.2381814 C17.663267,22.0577122 17.8080871,21.9114131 17.9867319,21.9114131 Z" transform="translate(-840.000000, -2450.000000) translate(848.000000, 2451.000000) translate(38.152508, 44.707738) translate(17.987453, 24.688944) rotate(55.000000) translate(-17.987453, -24.688944)"/>
    </g>
</svg>
