<svg xmlns="http://www.w3.org/2000/svg" width="36" height="31" viewBox="0 0 36 31">
    <path fill="#BFBFBF" d="M31.350595,11.0705765 C31.736505,11.7763716 30.891178,9.8075749 29.421045,9.8075749 L6.6156,9.8075749 C5.770274,9.8075749 5.18222,10.2347666 4.68605,11.0148559 C4.171504,11.8135187 0,18.3142626 0,19.6887056 L0,28.5111438 C0,29.8855868 1.120977,31 2.48085,31 L33.519042,31 C34.878915,31 36,29.8855868 36,28.5111438 L36,19.670132 C36.018269,18.3142626 31.350595,11.0705765 31.350595,11.0705765 C31.350595,11.0705765 30.670658,9.8075749 31.350595,11.0705765 L31.350595,11.0705765 Z M23.191355,19.0014841 C22.640055,18.9829105 22.162261,19.3358081 22.015248,19.8744411 L22.015248,20.0601767 C22.015248,22.3075767 20.214335,24.1463586 17.972381,24.1463586 C15.730428,24.1463586 13.929514,22.3261503 13.929514,20.0601767 C13.929514,19.9858825 13.929514,19.8930147 13.947891,19.8187205 C13.653864,19.0014841 12.808537,19.0014841 12.808537,19.0014841 L2.15007,19.0014841 L5.751897,12.2778575 C5.751897,12.2778575 6.413457,11.0705765 7.350667,11.1077236 L28.851368,11.1077236 C29.604812,11.1077236 29.733448,11.3863269 30.266372,12.2778575 L33.941705,19.0014841 L23.191355,19.0014841 L23.191355,19.0014841 Z M10.235804,6.2785996 L7.49768,3.6411549 C7.203654,3.3625516 7.185277,2.8796392 7.479304,2.5824623 C7.754954,2.2852855 8.232747,2.2667119 8.526774,2.5638888 L11.264897,5.2013335 C11.558924,5.4799368 11.577301,5.9442756 11.283274,6.2414525 C10.989247,6.5386293 10.529831,6.5572029 10.235804,6.2785996 M17.788614,5.1084657 C17.641601,4.9784508 17.568094,4.7927153 17.568094,4.5884062 L17.476211,0.762254 C17.457834,0.3536359 17.788614,0.0193119 18.192901,0.0007383 C18.597188,-0.0178352 18.927968,0.3164887 18.946344,0.7251069 L19.038228,4.5512591 C19.056604,4.9598773 18.725824,5.2942012 18.321538,5.3127748 C18.119394,5.3127748 17.935628,5.2384806 17.788614,5.1084657 M24.918761,6.1300112 C24.624735,5.8514078 24.606358,5.387069 24.900385,5.0898921 L27.509872,2.3224326 C27.785522,2.0252557 28.263315,2.0066822 28.557342,2.303859 C28.851368,2.6010359 28.869745,3.0653747 28.575718,3.3625516 L25.966231,6.1300112 C25.672205,6.4086145 25.212788,6.4086145 24.918761,6.1300112"/>
</svg>
