<svg xmlns="http://www.w3.org/2000/svg" width="15" height="16" viewBox="0 0 15 16">
    <path fill="#B89785" d="M403.025673,9.98904719 C405.726676,7.33698427 410.10536,7.33698427 412.805965,9.98904719 L412.805965,9.9890474 C415.400838,12.5172113 415.517832,16.6488579 413.070193,19.3197302 L415.953903,22.151378 L415.953903,22.151378 C416.014706,22.2112431 416.015455,22.3090526 415.955576,22.3698415 C415.955022,22.3704034 415.954465,22.370961 415.953903,22.3715143 L415.359004,22.9558403 L415.359004,22.9558403 C415.29892,23.0147199 415.202761,23.0147199 415.142676,22.9558403 L412.233072,20.0979246 C409.517402,22.2336268 405.542774,22.065628 403.025655,19.5939284 L403.025655,19.5939279 C400.372692,17.0083223 400.318604,12.7621359 402.904838,10.1098195 C402.944596,10.0690454 402.984872,10.0287793 403.025656,9.9890308 L403.025673,9.98904719 Z M403.840762,10.7896481 L403.840762,10.7896481 C401.630062,12.944232 401.584992,16.4825426 403.740102,18.6927037 C403.773227,18.7266744 403.806783,18.7602222 403.840762,18.7933385 C406.091335,21.0035901 409.740314,21.0035901 411.990887,18.7933385 L411.990887,18.7933384 C414.201587,16.6387545 414.246657,13.1004439 412.091546,10.8902828 C412.058422,10.8563122 412.024866,10.8227644 411.990887,10.789648 C409.740314,8.57939641 406.091335,8.57939641 403.840762,10.789648 L403.840762,10.7896481 Z" transform="translate(-724.000000, -481.000000) translate(203.000000, 242.000000) translate(24.000000, 76.000000) translate(0.000000, 155.898277) translate(96.000000, 0.000000)"/>
</svg>
