<svg xmlns="http://www.w3.org/2000/svg" width="48" height="48" viewBox="0 0 48 48">
    <defs>
        <linearGradient id="Container-hl_svg__a" x1="80.867%" x2="19.133%" y1="100%" y2="0%">
            <stop offset="0%" stop-color="#E19C5D"/>
            <stop offset="100%" stop-color="#F4CEA9"/>
        </linearGradient>
    </defs>
    <path fill="url(#Container-hl_svg__a)" fill-rule="evenodd" d="M39,3 L9,3 C8.1703125,3 7.5,3.6703125 7.5,4.5 L7.5,43.5 C7.5,44.3296875 8.1703125,45 9,45 L39,45 C39.8296875,45 40.5,44.3296875 40.5,43.5 L40.5,4.5 C40.5,3.6703125 39.8296875,3 39,3 Z M37.125,41.625 L10.875,41.625 L10.875,32.203125 L15.4640625,32.203125 C16.0078125,33.740625 16.9640625,35.1234375 18.234375,36.1734375 C19.8515625,37.509375 21.9,38.25 24,38.25 C26.1,38.25 28.1484375,37.5140625 29.765625,36.1734375 C31.0359375,35.1234375 31.9921875,33.740625 32.5359375,32.203125 L37.125,32.203125 L37.125,29.25 L30.16875,29.25 L29.925,30.4078125 C29.3625,33.2109375 26.86875,35.25 24,35.25 C21.13125,35.25 18.6375,33.2109375 18.0703125,30.4078125 L17.8265625,29.25 L10.875,29.25 L10.875,6.375 L37.125,6.375 L37.125,41.625 Z M15,15.984375 L33,15.984375 C33.20625,15.984375 33.375,15.815625 33.375,15.609375 L33.375,13.359375 C33.375,13.153125 33.20625,12.984375 33,12.984375 L15,12.984375 C14.79375,12.984375 14.625,13.153125 14.625,13.359375 L14.625,15.609375 C14.625,15.815625 14.79375,15.984375 15,15.984375 Z M15,23.484375 L33,23.484375 C33.20625,23.484375 33.375,23.315625 33.375,23.109375 L33.375,20.859375 C33.375,20.653125 33.20625,20.484375 33,20.484375 L15,20.484375 C14.79375,20.484375 14.625,20.653125 14.625,20.859375 L14.625,23.109375 C14.625,23.315625 14.79375,23.484375 15,23.484375 Z"/>
</svg>
