<svg xmlns="http://www.w3.org/2000/svg" width="9" height="8" viewBox="0 0 9 8">
    <path fill="#FFF" d="M4.268242,3.0994603 C4.396288,2.9668466 4.603721,2.9668466 4.731768,3.0994603 L4.731768,3.0994603 L8.903965,7.4204804 C9.032012,7.5530942 9.032012,7.7679259 8.903965,7.9005397 C8.775918,8.0331534 8.568485,8.0331534 8.440439,7.9005397 L8.440439,7.9005397 L4.49999975,3.819447 L0.559561,7.9005397 C0.431515,8.0331534 0.224082,8.0331534 0.096035,7.9005397 C-0.032012,7.7679259 -0.032012,7.5530942 0.096035,7.4203636 L0.096035,7.4203636 L4.268242,3.0994603 Z M4.268242,0.0994603 C4.396288,-0.0331534 4.603721,-0.0331534 4.731768,0.0994603 L4.731768,0.0994603 L8.903965,4.4204804 C9.032012,4.5530942 9.032012,4.7679259 8.903965,4.9005397 C8.775918,5.0331534 8.568485,5.0331534 8.440439,4.9005397 L8.440439,4.9005397 L4.49999975,0.819447 L0.559561,4.9005397 C0.431515,5.0331534 0.224082,5.0331534 0.096035,4.9005397 C-0.032012,4.7679259 -0.032012,4.5530942 0.096035,4.4203636 L0.096035,4.4203636 L4.268242,0.0994603 Z" transform="translate(4.500000, 4.000000) scale(-1, 1) rotate(-180.000000) translate(-4.500000, -4.000000)"/>
</svg>
