<svg xmlns="http://www.w3.org/2000/svg" width="16" height="10" viewBox="0 0 16 10">
    <path fill="#B3B3B3" fill-rule="evenodd" d="M8,3.11111111 C12.8888889,3.11111111 15.1111111,8 15.1111111,8 C15.1111111,8 12.8888889,12.8888889 8,12.8888889 C3.11111111,12.8888889 0.888888889,8 0.888888889,8 C0.888888889,8 3.11111111,3.11111111 8,3.11111111 Z M8,4.44444444 C4.90177778,4.44444444 3.08088889,6.87377778 2.40311111,8 C3.07911111,9.124 4.90044444,11.5555556 8,11.5555556 C11.0982222,11.5555556 12.9191111,9.12622222 13.5968889,8 C12.9208889,6.876 11.0995556,4.44444444 8,4.44444444 Z M8,5.77777778 L8,8 L10.2222222,8 C10.2222222,9.22711111 9.22711111,10.2222222 8,10.2222222 C6.77288889,10.2222222 5.77777778,9.22711111 5.77777778,8 C5.77777778,6.77288889 6.77288889,5.77777778 8,5.77777778 L8,5.77777778 Z" transform="translate(0.000000, -3.000000)"/>
</svg>
