<svg xmlns="http://www.w3.org/2000/svg" width="12" height="10" viewBox="0 0 12 10">
    <path fill="#B3B3B3" fill-rule="evenodd" d="M11.407394,8.69135734 C11.7333199,8.69135734 11.9125795,8.83802438 11.9451722,9.1313577 L11.9506043,9.23456756 C11.9506043,9.59670736 11.7695339,9.77777778 11.407394,9.77777778 L0.543210219,9.77777778 C0.217284396,9.77777778 0.038024777,9.63111074 0.00543211144,9.33777742 L0,9.23456756 C0,8.87242776 0.181070416,8.69135734 0.543210219,8.69135734 L11.407394,8.69135734 Z M11.407394,4.34567353 C11.7333199,4.34567353 11.9125795,4.49234057 11.9451722,4.78567389 L11.9506043,4.88888375 C11.9506043,5.25102355 11.7695339,5.43209397 11.407394,5.43209397 L0.543210219,5.43209397 C0.217284396,5.43209397 0.038024777,5.28542693 0.00543211144,4.99209361 L0,4.88888375 C0,4.52674395 0.181070416,4.34567353 0.543210219,4.34567353 L11.407394,4.34567353 Z M11.407394,0 C11.7333199,0 11.9125795,0.148500281 11.9451722,0.445500084 L11.9506043,0.55 C11.9506043,0.91666632 11.7695339,1.1 11.407394,1.1 L0.543210219,1.1 C0.217284396,1.1 0.038024777,0.951499719 0.00543211144,0.654499916 L0,0.55 C0,0.18333368 0.181070416,0 0.543210219,0 L11.407394,0 Z" transform="translate(-2.000000, -3.000000) translate(2.024698, 3.111111)"/>
</svg>
