<svg xmlns="http://www.w3.org/2000/svg" width="400" height="45" viewBox="0 0 400 45">
    <g fill="none" fill-rule="evenodd">
        <path fill="#EFCEB4" d="M0,14.9004053 C18.4794775,2.9467531 41.9370508,-1.8146551 70.3727201,0.616180716 C126.314157,5.39835931 151.399755,30.2275762 195.325109,30.2275762 C239.250463,30.2275762 273.875143,15.2925259 326.43098,14.9004053 C350.105273,14.7237708 374.628279,19.8328277 400,30.2275762 L400,45 L0,45 L0,14.9004053 Z" opacity=".263" transform="translate(-1432.000000, -587.000000) translate(1432.000000, 199.000000) translate(0.000000, 388.000000)"/>
        <path fill="#DFB491" d="M0,14.8579832 C20.6066874,22.6562366 45.1278658,27.7724943 73.563535,30.2067561 C129.504972,34.9956746 156.074646,6 200,6 C243.925354,6 271.740838,25.8926732 324.296675,25.5 C347.970968,25.3231165 373.20541,26.8920352 400,30.2067561 L400,45 L0,45 L0,14.8579832 Z" opacity=".139" transform="translate(-1432.000000, -587.000000) translate(1432.000000, 199.000000) translate(0.000000, 388.000000) translate(200.000000, 25.500000) scale(-1, 1) translate(-200.000000, -25.500000)"/>
    </g>
</svg>
