<svg xmlns="http://www.w3.org/2000/svg" width="134" height="26" viewBox="0 0 134 26">
    <path fill="#AA7F59" d="M1460.49916,55.0168139 C1462.11092,54.9471699 1463.65263,55.0864552 1465.12425,55.5739549 C1465.12425,55.5739549 1465.19433,55.5739549 1465.2644,55.6435978 C1465.05417,55.6435978 1464.91402,55.7132407 1464.77386,55.7132407 C1461.97079,56.061447 1459.58817,57.245373 1457.48585,59.125728 C1455.38353,61.006102 1453.98199,63.2346578 1452.93083,65.8114417 C1452.7206,66.3685827 1452.58045,66.9257265 1452.37021,67.4828675 C1452.23006,68.0400112 1452.08991,68.6667962 1452.01983,69.2935811 C1451.87967,70.547162 1451.87967,71.8703732 1452.08991,73.054302 C1452.23006,73.6810869 1452.37021,74.2382307 1452.58045,74.7953717 C1453.07099,75.9792949 1453.77176,76.9542944 1454.82291,77.7203646 C1455.03314,77.7900086 1455.1733,77.9989362 1455.38353,78.0685791 C1456.50477,78.6953649 1457.76616,78.9739362 1459.02755,78.9042933 C1460.7094,78.7650081 1462.25111,78.1382231 1463.58257,77.0239384 C1464.84396,75.9792922 1465.75496,74.6560864 1466.38565,73.1935872 C1466.94627,71.8703651 1467.29665,70.4078713 1467.50689,68.9453721 C1467.50689,68.6668005 1467.57696,68.5971576 1467.85727,68.5971576 L1467.85727,68.5971576 L1468.23074,68.5975933 C1468.55739,68.5982878 1468.91894,68.599732 1469.28784,68.6013341 L1469.95384,68.6042606 C1471.05722,68.6089958 1472.07794,68.6119554 1472.27214,68.5971576 C1472.5958,68.5724947 1472.76829,68.5724947 1473.05738,68.5079811 C1473.34647,68.4434675 1473.74376,68.3185869 1474.09411,68.0400144 C1474.09411,68.5275142 1474.01806,68.7403518 1473.92107,69.225934 C1473.57069,72.011639 1472.41227,74.4471414 1470.45011,76.4667816 C1468.41787,78.6257207 1465.96517,79.9489346 1463.02194,80.3667904 C1462.67155,80.3667904 1462.25109,80.4364333 1461.9007,80.4364333 C1461.41016,80.5060762 1460.91962,80.5060762 1460.42908,80.4364333 C1459.448,80.4364333 1458.46691,80.227504 1457.55591,79.9489335 C1456.50476,79.670363 1455.52368,79.2525046 1454.61268,78.6953636 C1453.42137,77.9989346 1452.44029,77.1632204 1451.52929,76.1185796 C1450.5482,75.0739307 1449.84743,73.8203608 1449.28682,72.4971468 C1449.00651,71.9400058 1448.86635,71.3828621 1448.7262,70.8257211 C1448.51597,69.9900096 1448.37581,69.0846514 1448.37581,68.1792959 C1448.30572,64.2096567 1449.70726,60.866808 1452.72059,58.2203828 C1454.893,56.2703839 1457.48583,55.2257423 1460.49916,55.0168139 Z M1512.93029,67.8054422 L1512.93029,70.4173283 C1512.32035,71.4300442 1511.60593,72.3411382 1510.78599,73.1506101 C1509.96632,73.9605826 1509.07258,74.6994698 1508.10581,75.3675219 C1508.8626,75.7121858 1509.63523,76.0410807 1510.42346,76.3547072 C1511.21194,76.6688344 1512.04747,76.9877173 1512.93029,77.3113559 L1512.93029,77.3113559 L1512.93029,80.2571429 C1511.62672,79.8524069 1510.30781,79.4021162 1508.97305,78.9057703 C1507.63776,78.4099249 1506.3399,77.8379882 1505.07869,77.1899601 C1503.81747,77.8379882 1502.5191,78.4099249 1501.18459,78.9057703 C1499.84931,79.4021162 1498.52001,79.8524069 1497.19564,80.2571429 L1497.19564,80.2571429 L1497.19564,77.3113559 C1498.07846,76.9671926 1498.91893,76.6433037 1499.71807,76.3394389 C1500.51695,76.0358243 1501.28387,75.7121858 1502.02012,75.3675219 C1501.20019,74.7808175 1500.42755,74.1528134 1499.70248,73.4847613 C1498.97714,72.8164589 1498.33081,72.06781 1497.76322,71.2373128 L1497.76322,71.2373128 L1501.73633,71.2373128 C1502.2826,71.7436708 1502.82914,72.2044741 1503.37593,72.6192221 C1503.92247,73.0344706 1504.47966,73.4141765 1505.04724,73.7580895 C1505.78271,73.3130551 1506.4922,72.8217152 1507.17569,72.2850708 C1507.8584,71.7489271 1508.53644,71.1264297 1509.20954,70.4173283 L1509.20954,70.4173283 L1497.22708,70.4173283 L1497.22708,67.8054422 L1512.93029,67.8054422 Z M1546.09504,57.6176871 L1546.09504,63.5127891 C1546.09504,64.0144065 1546.00324,64.4798433 1545.81911,64.9080658 C1545.63499,65.3368052 1545.38941,65.7130828 1545.08237,66.0368986 C1544.77558,66.3612313 1544.41746,66.6170794 1544.00849,66.8052182 C1543.59902,66.993357 1543.16932,67.0874264 1542.71963,67.0874264 L1542.71963,67.0874264 L1526.30213,67.0874264 L1525.65745,68.6866063 L1546.64741,68.6866063 L1546.64741,76.8081037 C1546.64741,77.2890464 1546.5556,77.7384604 1546.37148,78.1563457 C1546.18736,78.5747478 1545.94178,78.9401712 1545.63499,79.2536497 C1545.32795,79.5673867 1544.96982,79.8131559 1544.56086,79.990699 C1544.15139,80.1685005 1543.72168,80.2571429 1543.272,80.2571429 L1543.272,80.2571429 L1537.1651,80.2571429 L1538.51542,77.1528526 L1541.06253,77.1528526 C1541.34883,77.1528526 1541.58404,77.0587832 1541.76817,76.8706444 C1541.95229,76.6825055 1542.0446,76.4527591 1542.0446,76.1808882 L1542.0446,76.1808882 L1542.0446,71.7908966 L1519.67372,71.7908966 L1521.63761,67.0874264 L1520.25669,67.0874264 L1520.25669,57.6176871 L1546.09504,57.6176871 Z M1527.54104,72.3333333 L1524.13963,80.2571429 L1519.67372,80.2571429 L1523.04539,72.3333333 L1527.54104,72.3333333 Z M1537.65618,72.3333333 L1534.25476,80.2571429 L1529.78885,80.2571429 L1533.16053,72.3333333 L1537.65618,72.3333333 Z M1494.25233,56.5671482 L1494.25233,58.5421606 L1497.83532,58.5421606 L1497.83532,61.7146678 L1494.25233,61.7146678 L1494.25233,64.4989497 L1498.17631,64.4979991 L1498.17698,57.6176871 L1511.2207,57.6176871 L1511.2207,63.3973395 C1511.2207,63.6862075 1511.31568,63.9228551 1511.50563,64.1083012 C1511.69559,64.2937474 1511.93799,64.3864704 1512.23388,64.3864704 L1512.23388,64.3864704 L1512.93029,64.3864704 L1511.75873,66.6734694 L1510.93577,66.6734694 C1510.44993,66.6734694 1509.99644,66.5863505 1509.57452,66.410839 C1509.15182,66.2360917 1508.78287,65.9935852 1508.46636,65.6845932 C1508.14986,65.3756013 1507.90146,65.0199931 1507.7222,64.6182781 C1507.54268,64.2163083 1507.45318,63.7789306 1507.45318,63.3046165 L1507.45318,63.3046165 L1507.45318,60.2139327 L1501.9445,60.2139327 L1501.9445,64.6646396 L1500.96316,66.6734694 L1497.19564,66.6734694 L1497.49831,66.0519991 L1494.25233,70.2292074 L1494.25233,76.5744886 C1494.25233,77.0713101 1494.15549,77.5350458 1493.96182,77.966763 C1493.76814,78.3987469 1493.50982,78.7760325 1493.18712,79.0996869 C1492.86442,79.4236081 1492.48744,79.6773553 1492.05752,79.8606617 C1491.62654,80.0442349 1491.17481,80.1357546 1490.70153,80.1357546 L1490.70153,80.1357546 L1487.34468,80.1357546 L1488.57137,77.3514727 L1489.11994,77.3514727 C1489.39928,77.3514727 1489.63632,77.2492801 1489.83,77.0440944 C1490.02367,76.8391755 1490.12051,76.5963679 1490.12051,76.3156718 L1490.12051,76.3156718 L1490.12051,74.4054969 L1485.95649,74.4054969 L1490.12051,69.0637313 L1490.12051,61.7146678 L1486.699,61.7146678 L1486.699,58.5421606 L1490.12051,58.5421606 L1490.12051,56.5671482 L1494.25233,56.5671482 Z M1560.26752,62.2958509 L1558.02799,68.9425288 L1559.76994,68.9425288 L1558.49456,74.034462 L1560.60976,76.6871022 L1580.51662,76.6871022 L1580.51662,79.4312127 L1558.40125,79.4312127 L1557.43709,78.2725045 L1557.12613,79.4312127 L1553.51791,79.4312127 L1555.72642,71.6866393 L1553.51791,71.6866393 L1553.54893,71.595169 L1555.81948,65.0703678 L1553.51791,65.0703678 L1553.51791,62.2958509 L1560.26752,62.2958509 Z M1473.88389,62.956099 C1474.23427,62.8864561 1474.51458,62.8168132 1474.79489,62.8864561 C1475.28543,65.1846668 1473.60357,67.4132371 1471.29103,67.6221655 C1470.23987,67.6918084 1469.25879,67.6221655 1468.20764,67.6221655 L1468.20764,67.6221655 L1462.47561,67.6225716 C1462.37264,67.6250081 1462.32115,67.6420634 1462.32115,67.761451 C1462.25108,68.5275213 1461.97077,69.2935915 1461.83061,70.0596617 C1461.76054,70.4775175 1461.62038,70.8953759 1461.55031,71.3132317 C1461.48023,71.6614462 1461.41015,72.0793019 1461.27,72.4275164 C1461.19992,72.7757309 1461.12985,73.1935867 1460.98969,73.5418011 C1460.56922,75.422167 1459.37792,76.2578812 1457.76614,76.5364517 C1456.85515,76.6757367 1455.87407,76.6757367 1454.96306,76.3971662 C1454.89299,76.3971662 1454.82291,76.3275233 1454.75283,76.3275233 L1454.75283,76.3275233 L1454.68275,76.2578804 C1455.31345,75.4221743 1455.52368,74.4471749 1455.87407,73.4721754 C1455.94415,73.0543196 1456.0843,72.6364612 1456.22445,72.2186054 C1456.29453,71.800747 1456.36461,71.3828912 1456.50476,71.0346767 C1456.57484,70.477533 1456.71499,69.9900333 1456.85515,69.4328923 C1457.13546,68.1096674 1457.34569,66.7864535 1457.9063,65.5328835 C1458.18661,64.9060985 1458.60708,64.3489548 1459.16769,63.931099 C1459.93854,63.304314 1460.84954,63.0953864 1461.76055,63.0257435 L1461.76055,63.0257435 L1469.81943,63.0257435 C1471.15089,63.0257435 1472.55243,63.0953862 1473.88389,62.9561006 Z M1580.45089,57.6176871 L1576.88457,62.3236829 L1578.50594,62.3236829 C1578.9161,62.3236829 1579.30514,62.4009977 1579.67281,62.5558825 C1580.04021,62.7107672 1580.35871,62.9225536 1580.62938,63.1904762 C1580.89926,63.4589091 1581.11008,63.774037 1581.26131,64.1348394 C1581.41255,64.4961521 1581.48843,64.8730298 1581.48843,65.2647071 L1581.48843,65.2647071 L1581.48843,72.8811074 C1581.48843,73.273295 1581.4072,73.6448142 1581.24528,73.9956652 C1581.08309,74.3467713 1580.86693,74.6511824 1580.59679,74.9088984 C1580.32638,75.1671247 1580.00788,75.3684493 1579.64048,75.5126172 C1579.27281,75.6572954 1578.88376,75.7292517 1578.47334,75.7292517 L1578.47334,75.7292517 L1576.69032,75.7292517 L1575.39333,73.1906217 L1576.59279,73.1906217 C1576.8306,73.1906217 1577.03046,73.1184102 1577.19292,72.973732 C1577.35484,72.8295642 1577.43581,72.6438045 1577.43581,72.4167083 L1577.43581,72.4167083 L1577.43581,71.8903043 L1573.44811,71.8903043 L1573.44811,75.4814871 L1569.26616,75.4814871 L1569.26616,71.8903043 L1565.21353,71.8903043 L1565.21353,75.4814871 L1561.25816,75.4814871 L1561.25816,62.3236829 L1564.92175,62.3236829 L1563.91654,60.806731 L1568.29328,60.806731 L1569.29849,62.3236829 L1572.02153,62.3236829 L1573.99908,59.9705574 L1561.25816,59.9705574 L1561.25816,57.6176871 L1580.45089,57.6176871 Z M1577.43581,68.2988662 L1573.44811,68.2988662 L1573.44811,69.6920635 L1577.43581,69.6920635 L1577.43581,68.2988662 Z M1569.26616,68.2988662 L1565.21353,68.2988662 L1565.21353,69.6920635 L1569.26616,69.6920635 L1569.26616,68.2988662 Z M1576.59279,64.6765533 L1573.44811,64.6765533 L1573.44811,66.0697506 L1577.43581,66.0697506 L1577.43581,65.4195918 L1577.4684,65.4195918 C1577.42485,65.1927507 1577.32732,65.0123496 1577.17635,64.8778779 C1577.02512,64.7439167 1576.8306,64.6765533 1576.59279,64.6765533 L1576.59279,64.6765533 Z M1569.26616,64.6765533 L1565.21353,64.6765533 L1565.21353,66.0697506 L1569.26616,66.0697506 L1569.26616,64.6765533 Z M1541.82962,63.4187197 L1524.52211,63.4187197 L1524.52211,64.5788229 L1540.87841,64.5788229 C1541.14397,64.5788229 1541.36932,64.4847535 1541.55344,64.2966147 C1541.73756,64.1084759 1541.82962,63.8683922 1541.82962,63.5753298 L1541.82962,63.5753298 L1541.82962,63.4187197 Z M1476.05629,56.2704032 C1475.98621,57.523965 1475.7059,58.707891 1474.86497,59.6828905 C1474.1642,60.3793167 1473.32328,60.7275312 1472.3422,60.7275312 C1470.8005,60.7971741 1469.18873,60.7275312 1467.57695,60.7275312 L1467.57695,60.7275312 L1463.02192,60.7275429 C1462.74161,60.7971858 1462.39123,60.8668284 1462.04084,60.9364713 C1461.69046,61.0061153 1461.34007,61.1454006 1460.98969,61.4239711 C1461.26999,59.8918306 1461.69046,58.4989727 1462.74161,57.4543319 C1462.81169,57.384689 1462.95184,57.3150464 1463.02192,57.2454035 C1463.65262,56.7579029 1464.35339,56.5489745 1465.12424,56.5489745 L1465.12424,56.5489745 L1465.19431,56.5489745 C1466.10532,56.5489745 1466.94624,56.4793316 1467.85724,56.5489745 L1467.85724,56.5489745 L1471.78158,56.5489745 C1472.97289,56.5489745 1474.1642,56.68826 1475.28544,56.4793316 C1475.56575,56.4096887 1475.77598,56.4096887 1476.05629,56.2704032 Z M1541.82962,60.1262906 L1524.52211,60.1262906 L1524.52211,61.2866522 L1541.82962,61.2866522 L1541.82962,60.1262906 Z M1557.08034,56.4857143 L1559.01035,61.0136054 L1555.32085,61.0136054 L1553.39084,56.4857143 L1557.08034,56.4857143 Z" transform="translate(-1448.000000, -55.000000)"/>
</svg>
