<svg xmlns="http://www.w3.org/2000/svg" width="60" height="38" viewBox="0 0 60 38">
    <g fill="none">
        <path fill="#F5F5F5" d="M0,30.9275478 C0,34.497167 13.2269831,37.3916073 29.5434503,37.3916073 C45.8599175,37.3916073 59.0856186,34.4971523 59.0856186,30.9275478 C59.0856186,27.3591814 45.8586355,24.4659792 29.5434503,24.4659792 C13.2269831,24.4659792 0,27.3591814 0,30.9275478 Z" transform="translate(-1008.000000, -723.000000) translate(643.000000, 559.000000) translate(346.000000, 164.000000) translate(19.000000, 0.000000)"/>
        <path fill="#D9D9D9" d="M51.2373114,21.2339311 L7.8479775,21.2339311 L7.8479775,12.0941967 L17.3577848,1.29281556 C17.8166452,0.462614922 18.6493477,0 19.4795519,0 L39.6056857,0 C40.437139,0 41.2685888,0.462611259 41.8212256,1.38533561 L51.2385055,12.0941894 L51.2385055,21.2339311 L51.2373114,21.2339311 Z M8.7721524,20.3124559 L50.3160669,20.3124559 L50.3160669,12.3730133 L41.0825596,1.84544138 C40.6224466,1.20028451 40.1598353,0.832695138 39.6059494,0.832695138 L19.4798157,0.832695138 C18.9259298,0.832695138 18.4645676,1.2015336 18.0944801,1.75541949 L8.77097291,12.4642732 L8.77097291,20.3111885 L8.7721524,20.3124559 Z" transform="translate(-1008.000000, -723.000000) translate(643.000000, 559.000000) translate(346.000000, 164.000000) translate(19.000000, 0.000000)"/>
        <path fill="#FAFAFA" d="M38.4054561,15.1412266 C38.4054561,13.6646164 39.3281805,12.4643245 40.4372013,12.4643245 L50.7772276,12.4643245 L50.7772276,29.1746375 C50.7772276,31.1126099 49.5769358,32.775513 48.0065527,32.775513 L11.0787508,32.775513 C9.6008915,32.775513 8.30932869,31.20513 8.30932869,29.1746375 L8.30932869,12.4643245 L18.649355,12.4643245 C19.7571231,12.4643245 20.6798475,13.6646164 20.6798475,15.1412266 C20.6798475,16.6178369 21.6025718,17.8181287 22.7103399,17.8181287 L36.374905,17.8181287 C37.4826731,17.9106513 38.4053975,16.6178369 38.4053975,15.1412266 L38.4054561,15.1412266 Z" transform="translate(-1008.000000, -723.000000) translate(643.000000, 559.000000) translate(346.000000, 164.000000) translate(19.000000, 0.000000)"/>
        <path fill="#D9D9D9" d="M48.0065454,33.2368495 L11.0787435,33.2368495 C9.32456577,33.2368495 7.84670644,31.3901518 7.84670644,29.1733738 L7.84670644,12.0041968 L18.649333,12.0041968 C20.0334195,12.0041968 21.1411877,13.3882833 21.1411877,15.142461 C21.1411877,16.3427529 21.8788682,17.358001 22.7103179,17.358001 L36.374883,17.358001 C37.2050837,17.358001 37.9440133,16.3427529 37.9440133,15.142461 C37.9440133,13.3882833 39.0517815,12.0041968 40.4371207,12.0041968 L51.2385019,12.0041968 L51.2385019,29.1758646 C51.2385019,31.3914045 49.8531663,33.238095 48.0064648,33.238095 L48.0065454,33.2368495 Z M8.7706872,12.9256611 L8.7706872,29.1746192 C8.7706872,30.9287969 9.78593527,32.3128834 11.0787472,32.3128834 L48.0065491,32.3128834 C49.2993646,32.3128834 50.314609,30.9287969 50.314609,29.1746192 L50.314609,12.9256611 L40.4372196,12.9256611 C39.6057663,12.9256611 38.8668366,13.9409091 38.8668366,15.141201 C38.8668366,16.8953787 37.7590685,18.2794652 36.3749819,18.2794652 L22.7104168,18.2794652 C21.3263303,18.2794652 20.2185622,16.8953787 20.2185622,15.141201 C20.2185622,13.9409091 19.4808816,12.833141 18.6494319,12.833141 L8.7706872,12.833141 L8.7706872,12.9256636 L8.7706872,12.9256611 Z" transform="translate(-1008.000000, -723.000000) translate(643.000000, 559.000000) translate(346.000000, 164.000000) translate(19.000000, 0.000000)"/>
    </g>
</svg>
