<svg xmlns="http://www.w3.org/2000/svg" width="16" height="16" viewBox="0 0 16 16">
    <path fill="#B3B3B3" fill-rule="evenodd" d="M2.07862869,2.04154292 C4.85024171,-0.680514305 9.3433939,-0.680514305 12.1145981,2.04154292 L12.1145984,2.04154312 C14.7773075,4.63643128 14.89736,8.87712202 12.3857338,11.618485 L15.3448301,14.5248668 L15.3448301,14.5248668 C15.4072234,14.5863119 15.4079921,14.6867028 15.346547,14.7490961 C15.3459791,14.7496727 15.3454068,14.7502451 15.3448302,14.750813 L14.7343796,15.3505608 L14.7343796,15.3505608 C14.6727251,15.4109943 14.5740518,15.4109943 14.5123967,15.3505608 L11.5267294,12.4172178 C8.74006571,14.6092863 4.66153225,14.4368536 2.07861032,11.8999199 L2.07860983,11.8999195 C-0.643707523,9.24607347 -0.699209277,4.88782009 1.95463412,2.16550273 C1.99543171,2.12365251 2.03676055,2.08232368 2.07861076,2.04152608 L2.07862869,2.04154292 Z M2.91502544,2.8632736 L2.91502542,2.86327362 C0.646532917,5.07472214 0.600284552,8.70641724 2.81173456,10.9749097 C2.84572497,11.009777 2.88015817,11.0442102 2.91502542,11.0782006 C5.22443351,13.346786 8.96880443,13.346786 11.2782125,11.0782006 L11.2782127,11.0782005 C13.5467052,8.86675195 13.5929535,5.23505684 11.3815033,2.96656434 C11.3475129,2.93169708 11.3130797,2.89726389 11.2782125,2.86327347 C8.96880439,0.594688065 5.22443348,0.594688065 2.91502538,2.86327347 L2.91502544,2.8632736 Z" transform="translate(0.251928, 0.252149)"/>
</svg>
