<svg xmlns="http://www.w3.org/2000/svg" width="20" height="20" viewBox="0 0 20 20">
    <path fill="#999" d="M18.69375,17.4023438 L14.6070312,13.315625 C15.5515625,12.0945312 16.0625,10.6015625 16.0625,9.03125 C16.0625,7.1515625 15.3289062,5.3890625 14.0023437,4.06015625 C12.6757812,2.73125 10.9085937,2 9.03125,2 C7.15390625,2 5.38671875,2.73359375 4.06015625,4.06015625 C2.73125,5.38671875 2,7.1515625 2,9.03125 C2,10.9085937 2.73359375,12.6757812 4.06015625,14.0023437 C5.38671875,15.33125 7.1515625,16.0625 9.03125,16.0625 C10.6015625,16.0625 12.0921875,15.5515625 13.3132813,14.609375 L17.4,18.69375 C17.475,18.76875 17.596875,18.76875 17.671875,18.69375 L18.69375,17.6742188 C18.76875,17.5992187 18.76875,17.4773437 18.69375,17.4023438 Z M12.74375,12.74375 C11.75,13.7351563 10.4328125,14.28125 9.03125,14.28125 C7.6296875,14.28125 6.3125,13.7351563 5.31875,12.74375 C4.32734375,11.75 3.78125,10.4328125 3.78125,9.03125 C3.78125,7.6296875 4.32734375,6.31015625 5.31875,5.31875 C6.3125,4.32734375 7.6296875,3.78125 9.03125,3.78125 C10.4328125,3.78125 11.7523438,4.325 12.74375,5.31875 C13.7351562,6.3125 14.28125,7.6296875 14.28125,9.03125 C14.28125,10.4328125 13.7351563,11.7523438 12.74375,12.74375 Z"/>
</svg>
