<svg xmlns="http://www.w3.org/2000/svg" width="10" height="10" viewBox="0 0 10 10">
    <path fill="#CF7E34" d="M6.27223403,7.60111683 C5.75325171,7.69072045 5.22500184,7.51756751 4.85314174,7.13735756 C4.48128164,6.75714762 4.31330745,6.21468248 4.40134909,5.68432593 C4.51024271,4.99655762 5.05239388,4.44077302 5.72429064,4.32695221 C6.24443141,4.23492687 6.77499816,4.40807981 7.1480167,4.78950061 C7.52103525,5.17213228 7.68900944,5.71580828 7.59865091,6.24737569 C7.48628197,6.93635485 6.94413079,7.48971774 6.27223403,7.60111683 M10.0777183,6.53071686 L10.8422904,6.04152954 C10.9639269,5.96403452 11.0230075,5.81630963 10.9917295,5.67342819 L10.6175525,3.99154407 C10.5862746,3.84866263 10.4692719,3.74210697 10.3267834,3.7263658 L9.42899035,3.62465358 C9.33979026,3.6149667 9.25869927,3.56895404 9.20309403,3.49751331 L9.05249648,3.30377576 C8.99689123,3.23233504 8.97140549,3.1403097 8.98183147,3.04949523 L9.08493287,2.13287443 C9.10115107,1.98757127 9.02585229,1.84711155 8.89726516,1.78293598 L7.37970524,1.03462469 C7.2511181,0.971659985 7.09704522,0.998298898 6.99510227,1.10122197 L6.35795879,1.75508621 C6.29540288,1.81926177 6.20967813,1.85679842 6.1193196,1.85679842 L5.87952196,1.85679842 C5.79032187,1.85679842 5.70459712,1.82047263 5.64088277,1.75508621 L5.00373929,1.10122197 C4.90295478,0.997088038 4.7488819,0.970449125 4.61913632,1.03462469 L3.10273484,1.78293598 C2.97414771,1.84711155 2.89884893,1.98636041 2.91506713,2.13287443 L3.01816853,3.05070609 C3.02859451,3.14152056 3.00310877,3.23233504 2.94750352,3.30498662 L2.79806442,3.49630245 C2.74245917,3.56774318 2.66136818,3.61375584 2.57216809,3.62344272 L1.67437501,3.7263658 C1.53188656,3.74210697 1.41604229,3.84866263 1.3836059,3.99154407 L1.00827047,5.67221733 C0.976992516,5.81509877 1.03607309,5.96282366 1.15770957,6.04031868 L1.92228175,6.53071686 C1.99758052,6.57915124 2.05202733,6.65664626 2.07172085,6.74624988 L2.12500922,6.98721096 C2.14470274,7.07681458 2.12964299,7.17005078 2.08214684,7.2475458 L1.60023468,8.0285503 C1.52377746,8.15205799 1.533045,8.31189147 1.62224509,8.42692314 L2.67295261,9.77460999 C2.76215269,9.88964166 2.91275024,9.93323261 3.04712959,9.88479822 L3.89858497,9.57845072 C3.98315128,9.54817922 4.0758267,9.55302266 4.15575924,9.59298103 L4.37238803,9.69953668 C4.45347901,9.73949505 4.51487648,9.80972492 4.54383754,9.89690682 L4.84039887,10.7687258 C4.88789502,10.9067638 5.01532372,11 5.15781217,11 L6.84102939,11 C6.98467628,11 7.11210498,10.9067638 7.15844269,10.7687258 L7.45500401,9.89690682 C7.48396508,9.81093578 7.54652099,9.73949505 7.62645353,9.69953668 L7.84308231,9.59298103 C7.92301486,9.55302266 8.01569027,9.54817922 8.10025659,9.57845072 L8.95171196,9.88479822 C9.08724976,9.93323261 9.23668886,9.88964166 9.32588895,9.77460999 L10.3765965,8.42692314 C10.4657966,8.31189147 10.4739057,8.15205799 10.3986069,8.0285503 L9.91669472,7.2475458 C9.86919857,7.17005078 9.85298037,7.07681458 9.8726739,6.98721096 L9.92596226,6.74746074 C9.94797267,6.65664626 10.001261,6.57915124 10.0777183,6.53071686" transform="translate(-1.000000, -1.000000)"/>
</svg>
