<svg xmlns="http://www.w3.org/2000/svg" xmlns:xlink="http://www.w3.org/1999/xlink" width="12" height="12" viewBox="0 0 12 12">
    <defs>
        <filter id="tips@icon_svg__a" width="102.2%" height="102.7%" x="-1.1%" y="-1.4%" filterUnits="objectBoundingBox">
            <feOffset in="SourceAlpha" result="shadowOffsetOuter1"/>
            <feGaussianBlur in="shadowOffsetOuter1" result="shadowBlurOuter1" stdDeviation="4"/>
            <feColorMatrix in="shadowBlurOuter1" values="0 0 0 0 0 0 0 0 0 0 0 0 0 0 0 0 0 0 0.2 0"/>
        </filter>
        <path id="tips@icon_svg__b" d="M0 0H1100V887H0z"/>
    </defs>
    <g fill="none" fill-rule="evenodd">
        <path fill="#000" d="M0 0H1920V1080H0z" transform="translate(-1288.000000, -325.000000)"/>
        <path fill="#FFF" stroke="#979797" d="M49 31.795H1920V1043.795H49z" transform="translate(-1288.000000, -325.000000)"/>
        <g transform="translate(-1288.000000, -325.000000) translate(410.000000, 137.379399) translate(0.000000, 0.564939)">
            <use xlink:href="#tips@icon_svg__b" fill="#000" filter="url(#tips@icon_svg__a)"/>
            <use xlink:href="#tips@icon_svg__b" fill="#FFF"/>
        </g>
        <g fill-rule="nonzero">
            <path fill="#FFF" stroke="#EC8D18" d="M5.92600299,0.5 C7.4804704,0.5 8.87473813,1.11498252 9.87988479,2.12012918 C10.8850314,3.12527583 11.500014,4.51954356 11.500014,6.07401097 C11.500014,7.56352481 10.878319,8.92436338 9.86786558,9.91019469 C8.86310389,10.8904729 7.47399217,11.500014 5.92600299,11.500014 C4.44271035,11.500014 3.08700233,10.8838346 2.10160312,9.89843543 C1.11617307,8.91300539 0.5,7.55725914 0.5,6.07401097 C0.5,4.52604631 1.10957052,3.13695605 2.08984417,2.13219906 C3.07570164,1.12171879 4.43655734,0.5 5.92600299,0.5 Z" transform="translate(-1288.000000, -325.000000) translate(430.000000, 260.000000) translate(0.000000, 52.000000) translate(858.000000, 13.000000)"/>
            <path fill="#EC8D18" d="M5.64700266 3.05878362 5.64700267 3.05878362C5.52440448 3.05731446 5.42380827 3.15548898 5.42231413 3.27808741 5.42225517 3.28292613 5.42235444 3.28776548 5.42261177 3.2925977L5.60220182 7.17420378C5.60540104 7.24041479 5.66180345 7.29420392 5.72700665 7.29420392L6.27300729 7.29420392 6.27300729 7.29420392C6.33977436 7.29344739 6.39443594 7.24088975 6.39781212 7.17420378L6.57740217 3.2925977 6.57740217 3.2925977C6.58425706 3.17051279 6.49084457 3.0659861 6.36876013 3.0591318 6.36351618 3.05883736 6.35826341 3.05872961 6.35301175 3.05878362L5.64700312 3.05878362 5.64700266 3.05878362ZM6.00000698 9.17641302 6.00000697 9.17641302C6.32486047 9.17641302 6.58820687 8.91306662 6.58820687 8.58821312 6.58820687 8.26335962 6.32486047 8.00001322 6.00000697 8.00001322 6.00000696 8.00001322 6.00000695 8.00001322 6.00000694 8.00001322L6.00000693 8.00001322C5.67515343 8.00001322 5.41180703 8.26335962 5.41180703 8.58821312 5.41180703 8.91306662 5.67515343 9.17641302 6.00000693 9.17641302L6.00000698 9.17641302Z" transform="translate(-1288.000000, -325.000000) translate(430.000000, 260.000000) translate(0.000000, 52.000000) translate(858.000000, 13.000000)"/>
        </g>
    </g>
</svg>
