<svg xmlns="http://www.w3.org/2000/svg" width="14" height="14" viewBox="0 0 14 14">
    <g fill="none" fill-rule="evenodd">
        <path fill="#242836" d="M0 0H6282V5488H0z" transform="translate(-1130.000000, -1575.000000)"/>
        <g transform="translate(-1130.000000, -1575.000000) translate(135.000000, 1375.000000) translate(970.000000, 51.000000)">
            <rect width="900" height="600" fill="#FFF" fill-rule="nonzero" rx="4"/>
            <path fill="#CC3D3D" d="M8,1 C11.8659932,1 15,4.13400675 15,8 C15,11.8659932 11.8659932,15 8,15 C4.13400675,15 1,11.8659932 1,8 C1,4.13400675 4.13400675,1 8,1 Z M8.58333333,10.3333333 L7.41666667,10.3333333 L7.41666667,11.5 L8.58333333,11.5 L8.58333333,10.3333333 Z M8.58333333,4.5 L7.41666667,4.5 L7.41666667,9.16666667 L8.58333333,9.16666667 L8.58333333,4.5 Z" transform="translate(24.000000, 146.000000) translate(0.000000, 2.000000)"/>
        </g>
    </g>
</svg>
