<svg xmlns="http://www.w3.org/2000/svg" width="9" height="8" viewBox="0 0 9 8">
    <path fill="#FFF" d="M4.2682416,3.0994603 C4.3962882,2.9668466 4.6037212,2.9668466 4.7317678,3.0994603 L4.7317678,3.0994603 L8.903965,7.4204804 C9.0320117,7.5530942 9.0320117,7.7679259 8.903965,7.9005397 C8.7759184,8.0331534 8.5684854,8.0331534 8.4404387,7.9005397 L8.4404387,7.9005397 L4.49999997,3.819447 L0.5595613,7.9005397 C0.4315146,8.0331534 0.2240816,8.0331534 0.096035,7.9005397 C-0.0320117,7.7679259 -0.0320117,7.5530942 0.096035,7.4203636 L0.096035,7.4203636 L4.2682416,3.0994603 Z M4.2682416,0.09946032 C4.3962882,-0.03315344 4.6037212,-0.03315344 4.7317678,0.09946032 L4.7317678,0.09946032 L8.903965,4.4204804 C9.0320117,4.5530942 9.0320117,4.7679259 8.903965,4.9005397 C8.7759184,5.0331534 8.5684854,5.0331534 8.4404387,4.9005397 L8.4404387,4.9005397 L4.49999997,0.819447 L0.5595613,4.9005397 C0.4315146,5.0331534 0.2240816,5.0331534 0.096035,4.9005397 C-0.0320117,4.7679259 -0.0320117,4.5530942 0.096035,4.4203636 L0.096035,4.4203636 L4.2682416,0.09946032 Z"/>
</svg>
