<svg xmlns="http://www.w3.org/2000/svg" width="200" height="200" class="about-active_svg__icon" viewBox="0 0 1024 1024">
    <path fill="#011111" d="M512 981.333333a42.666667 42.666667 0 0 1-32.213333-14.72L363.733333 832H42.666667a42.666667 42.666667 0 0 1-42.666667-42.666667V128a42.666667 42.666667 0 0 1 42.666667-42.666667h775.68a85.333333 85.333333 0 0 1-85.333334 85.333334H85.333333v576h298.666667a42.666667 42.666667 0 0 1 32.426667 14.72L512 873.173333l95.573333-111.573333A42.666667 42.666667 0 0 1 640 746.666667h298.666667V170.666667a85.333333 85.333333 0 0 1 85.333333-85.333334v704a42.666667 42.666667 0 0 1-42.666667 42.666667H659.626667l-115.2 134.4A42.666667 42.666667 0 0 1 512 981.333333z"/>
    <path fill="#E19C5D" d="M448 426.666667h85.333333v234.666666h-85.333333zM448 277.333333h85.333333v85.333334h-85.333333z"/>
</svg>
