<svg xmlns="http://www.w3.org/2000/svg" width="200" height="200" class="about_svg__icon" viewBox="0 0 1024 1024">
    <path d="M938.496 170.496v576H640c-12.288 0-24.064 5.632-32.256 14.848L512 872.96l-95.744-111.616c-8.192-9.216-19.968-14.848-32.256-14.848H85.504V170.496h647.68c47.104 0 85.504-38.4 85.504-85.504H42.496C18.944 85.504 0 104.448 0 128v661.504c0 23.552 18.944 42.496 42.496 42.496H363.52l116.224 134.656c8.192 9.216 19.968 14.848 32.256 14.848s24.064-5.632 32.256-14.848l115.2-134.144h321.536c23.552 0 42.496-18.944 42.496-42.496V85.504c-46.592 0-84.992 37.888-84.992 84.992z"/>
    <path d="M448 277.504h85.504v85.504H448zM448 426.496h85.504v234.496H448z"/>
</svg>
