<svg xmlns="http://www.w3.org/2000/svg" width="14" height="14" fill="#ccd0d7" class="address_svg__icon" viewBox="0 0 1024 1024">
    <path d="M512 64c51.712 0 101.888 9.664 149.12 28.8a383.744 383.744 0 0 1 122.048 78.336 364.864 364.864 0 0 1 82.496 116.48A350.08 350.08 0 0 1 896 430.592c0 71.168-17.472 141.888-51.904 210.048-27.52 54.848-66.112 108.416-114.56 159.168a918.72 918.72 0 0 1-194.56 154.048 46.208 46.208 0 0 1-46.272 0A918.72 918.72 0 0 1 294.4 799.808c-48.512-50.816-87.04-104.32-114.56-159.168C145.472 572.352 128 501.568 128 430.464c0-49.536 10.24-97.664 30.336-142.912a366.016 366.016 0 0 1 82.496-116.48 385.472 385.472 0 0 1 121.984-78.4A397.568 397.568 0 0 1 512 64z m0 197.312c-100.352 0-181.696 79.36-181.696 177.28C330.304 536.384 411.648 615.68 512 615.68s181.696-79.36 181.696-177.216c0-97.856-81.344-177.216-181.696-177.216z"/>
</svg>
