<svg xmlns="http://www.w3.org/2000/svg" width="200" height="200" class="address-outlined_svg__icon" viewBox="0 0 1024 1024">
    <path d="M854.5792 289.0752a362.496 362.496 0 0 0-79.872-115.712 370.8416 370.8416 0 0 0-118.2208-77.7728A375.0912 375.0912 0 0 0 512 67.072a376.832 376.832 0 0 0-144.4864 28.4672c-44.288 18.3296-83.968 44.544-118.2208 77.824a363.5712 363.5712 0 0 0-79.872 115.712 355.1744 355.1744 0 0 0-29.44 141.9776c0 70.6048 16.896 140.9024 50.1248 208.6912 26.6752 54.528 64 107.6224 111.0016 158.1056a893.1328 893.1328 0 0 0 188.416 152.9856 43.8784 43.8784 0 0 0 44.8 0 893.1328 893.1328 0 0 0 188.416-152.9856c46.9504-50.3808 84.2752-103.5776 110.9504-158.1056 33.4336-67.6864 50.3296-137.8816 50.3296-208.5888 0-49.2032-9.9328-97.024-29.44-142.0288zM512 880.1792c-65.8944-41.8816-300.032-207.7696-300.032-449.0752 0-77.9264 31.1296-151.0912 87.6544-206.336A302.2336 302.2336 0 0 1 512 139.0592c80.2816 0 155.6992 30.5152 212.3776 85.9136A286.0544 286.0544 0 0 1 812.032 431.104c0 241.3056-234.0864 407.1936-299.9808 449.0752z m0-617.1648a176.0256 176.0256 0 1 0 0 352 176.0256 176.0256 0 0 0 0-352z m79.2064 255.1808a111.616 111.616 0 0 1-79.2064 32.768 111.616 111.616 0 0 1-79.2064-32.768 111.616 111.616 0 0 1-32.768-79.2064c0-29.9008 11.6736-58.0096 32.768-79.2064 21.1968-21.1968 49.3056-32.768 79.2064-32.768s58.0096 11.5712 79.2064 32.768c21.1968 21.1968 32.768 49.3056 32.768 79.2064s-11.5712 58.0096-32.768 79.2064z"/>
</svg>
