<svg xmlns="http://www.w3.org/2000/svg" width="20" height="20" viewBox="0 0 20 20">
    <path fill="#C8CBD8" d="M17.1875,3.59375 L13.90625,3.59375 L13.90625,2.34375 C13.90625,2.2578125 13.8359375,2.1875 13.75,2.1875 L12.65625,2.1875 C12.5703125,2.1875 12.5,2.2578125 12.5,2.34375 L12.5,3.59375 L7.5,3.59375 L7.5,2.34375 C7.5,2.2578125 7.4296875,2.1875 7.34375,2.1875 L6.25,2.1875 C6.1640625,2.1875 6.09375,2.2578125 6.09375,2.34375 L6.09375,3.59375 L2.8125,3.59375 C2.46679688,3.59375 2.1875,3.87304688 2.1875,4.21875 L2.1875,17.1875 C2.1875,17.5332031 2.46679688,17.8125 2.8125,17.8125 L17.1875,17.8125 C17.5332031,17.8125 17.8125,17.5332031 17.8125,17.1875 L17.8125,4.21875 C17.8125,3.87304688 17.5332031,3.59375 17.1875,3.59375 Z M16.40625,16.40625 L3.59375,16.40625 L3.59375,8.984375 L16.40625,8.984375 L16.40625,16.40625 Z M3.59375,7.65625 L3.59375,5 L6.09375,5 L6.09375,5.9375 C6.09375,6.0234375 6.1640625,6.09375 6.25,6.09375 L7.34375,6.09375 C7.4296875,6.09375 7.5,6.0234375 7.5,5.9375 L7.5,5 L12.5,5 L12.5,5.9375 C12.5,6.0234375 12.5703125,6.09375 12.65625,6.09375 L13.75,6.09375 C13.8359375,6.09375 13.90625,6.0234375 13.90625,5.9375 L13.90625,5 L16.40625,5 L16.40625,7.65625 L3.59375,7.65625 Z"/>
</svg>
