<svg xmlns="http://www.w3.org/2000/svg" width="14" height="15" viewBox="0 0 14 15">
    <path fill="#6483C4" d="M14.7398413,3.87102649 C14.516442,3.57798013 14.1852485,3.41076159 13.8306216,3.41076159 L7.75040982,3.41076159 C7.42858977,3.41076159 7.16769682,3.68725166 7.16769682,4.02831126 C7.16769682,4.36937086 7.42858977,4.64586093 7.75040982,4.64586093 L13.8353083,4.65248344 L12.627702,10.5945364 L5.8647943,10.5895695 L5.52891416,8.22533113 L10.2515452,8.22533113 C10.5733653,8.22533113 10.8342582,7.94884106 10.8342582,7.60778146 C10.8342582,7.26672185 10.5733653,6.99023179 10.2515452,6.99023179 L5.35394403,6.99023179 L4.64781461,2.02996689 C4.56032955,1.41903974 4.07447501,0.973675497 3.49019978,0.973675497 L1.582713,0.973675497 C1.26089295,0.973675497 1,1.25016556 1,1.59122517 C1,1.93228477 1.26089295,2.20877483 1.582713,2.20877483 L3.49644871,2.21374172 L4.71342841,10.7716887 C4.79935123,11.3726821 5.2961414,11.8279801 5.869481,11.8279801 L12.6261398,11.8279801 C13.1744836,11.8279801 13.6556515,11.4157285 13.7696945,10.8478477 L14.9726141,4.91076159 C15.0491635,4.54321192 14.9632407,4.16407285 14.7398413,3.87102649 L14.7398413,3.87102649 Z M5.33687898,12.4965232 C4.67917878,12.4965232 4.14333278,13.064404 4.14333278,13.7614238 C4.14333278,14.4584437 4.67917878,15.0263245 5.33687898,15.0263245 C5.99457917,15.0263245 6.53042517,14.4584437 6.53042517,13.7614238 C6.53042517,13.064404 5.99457917,12.4965232 5.33687898,12.4965232 Z M12.1449719,12.4438742 C11.4872717,12.4438742 10.9514257,13.011755 10.9514257,13.7087748 C10.9514257,14.4057947 11.4872717,14.9736755 12.1449719,14.9736755 C12.8026721,14.9736755 13.3385181,14.4057947 13.3385181,13.7087748 C13.3385181,13.011755 12.8026721,12.4438742 12.1449719,12.4438742 Z" transform="translate(-1.000000, 0.000000)"/>
</svg>
