<svg xmlns="http://www.w3.org/2000/svg" width="200" height="200" class="collection-active_svg__icon" viewBox="0 0 1024 1024">
    <path fill="#E19C5D" d="M384 469.333333h85.333333v170.666667h-85.333333z"/>
    <path fill="#011111" d="M219.306667 1002.666667a42.666667 42.666667 0 0 1-23.68-7.466667 42.666667 42.666667 0 0 1-18.346667-37.76c5.333333-91.733333 14.72-193.066667 27.52-294.186667A2986.666667 2986.666667 0 0 1 8.96 432.426667a42.666667 42.666667 0 0 1-6.826667-39.253334 42.666667 42.666667 0 0 1 28.16-27.946666 2810.88 2810.88 0 0 1 286.293334-64 2335.146667 2335.146667 0 0 1 155.093333-261.973334A42.666667 42.666667 0 0 1 506.026667 21.333333a42.666667 42.666667 0 0 1 34.346666 18.346667 2621.44 2621.44 0 0 1 152.96 261.973333c44.16 7.68 85.333333 15.36 125.44 23.253334a85.333333 85.333333 0 0 1-98.346666 68.053333l-61.653334-10.666667a42.666667 42.666667 0 0 1-30.72-22.613333c-42.666667-82.56-85.333333-158.08-122.453333-218.88-38.4 60.373333-81.28 136.533333-123.733333 219.52A42.666667 42.666667 0 0 1 351.36 384c-91.733333 15.786667-171.946667 32-236.16 47.786667 53.973333 67.413333 109.013333 130.56 164.266667 188.16a42.666667 42.666667 0 0 1 11.52 35.2c-10.453333 80.426667-18.986667 161.493333-24.746667 238.08l59.946667-26.453334c51.413333-21.333333 104.533333-45.653333 161.066666-72.32a42.666667 42.666667 0 0 1 35.84 0c61.44 29.013333 119.253333 54.186667 175.146667 78.506667l47.573333 21.333333c-5.973333-74.24-14.72-155.093333-25.6-237.653333A42.666667 42.666667 0 0 1 731.733333 618.666667c58.026667-59.946667 115.2-124.373333 173.44-195.626667a85.333333 85.333333 0 0 1 118.826667-12.586667c-73.813333 94.506667-145.066667 177.706667-217.6 253.653334 13.44 104.32 23.253333 205.226667 28.373333 293.333333a42.666667 42.666667 0 0 1-18.133333 37.76 42.666667 42.666667 0 0 1-41.386667 3.626667c-35.626667-16.213333-72.32-32-110.293333-48.64-51.2-21.333333-103.893333-45.013333-160-71.253334-50.773333 23.68-98.773333 44.8-145.493333 64-42.666667 18.773333-82.986667 36.48-122.453334 54.826667a42.666667 42.666667 0 0 1-17.706666 4.906667z"/>
</svg>
