<svg xmlns="http://www.w3.org/2000/svg" width="200" height="200" class="collection_svg__icon" viewBox="0 0 1024 1024">
    <path d="M384 469.333333h85.333333v170.666667h-85.333333z"/>
    <path d="M1024 410.453333a85.333333 85.333333 0 0 0-118.826667 13.226667C846.933333 494.933333 789.333333 559.36 731.733333 618.666667a42.666667 42.666667 0 0 0-11.52 35.626666c10.88 82.56 19.626667 163.413333 25.6 237.653334l-47.573333-21.333334c-55.893333-24.32-113.706667-49.493333-175.146667-78.506666a42.666667 42.666667 0 0 0-35.84 0c-56.533333 26.666667-109.653333 49.92-161.066666 72.32l-59.946667 26.453333c5.76-76.586667 14.293333-157.653333 24.746667-238.08a42.666667 42.666667 0 0 0-11.52-34.133333c-55.253333-57.6-110.293333-120.746667-164.266667-188.16 64-15.786667 144.426667-32 236.16-47.786667a42.666667 42.666667 0 0 0 30.506667-22.613333c42.666667-83.413333 85.333333-159.146667 123.733333-219.52 37.973333 60.8 80.213333 136.32 122.453333 218.88a42.666667 42.666667 0 0 0 30.72 22.613333l61.653334 10.666667a85.333333 85.333333 0 0 0 98.346666-68.053334c-39.04-7.893333-81.28-15.573333-125.44-23.253333a2621.44 2621.44 0 0 0-152.746666-261.76A42.666667 42.666667 0 0 0 506.24 21.333333a42.666667 42.666667 0 0 0-34.346667 17.92 2335.146667 2335.146667 0 0 0-155.093333 263.04 2810.88 2810.88 0 0 0-286.293333 64A42.666667 42.666667 0 0 0 2.133333 393.173333a42.666667 42.666667 0 0 0 6.826667 39.253334A2986.666667 2986.666667 0 0 0 204.8 663.253333c-12.8 101.12-21.333333 202.453333-27.52 294.186667a42.666667 42.666667 0 0 0 18.346667 37.76 42.666667 42.666667 0 0 0 23.68 7.466667 42.666667 42.666667 0 0 0 17.706666-3.84c39.466667-18.346667 79.786667-36.053333 122.453334-54.826667 46.72-21.333333 94.72-41.386667 145.493333-64 56.106667 26.24 108.8 49.066667 160 71.253333 37.973333 16.64 74.666667 32.426667 110.293333 48.64a42.666667 42.666667 0 0 0 41.386667-3.626666 42.666667 42.666667 0 0 0 18.133333-37.76c-5.12-88.106667-14.933333-189.013333-28.373333-293.333334 72.533333-77.013333 143.786667-160.213333 217.6-254.72z"/>
</svg>
