<svg xmlns="http://www.w3.org/2000/svg" width="200" height="200" class="direction_svg__icon" viewBox="0 0 1024 1024">
    <path d="M146.285714 146.285714a73.142857 73.142857 0 0 0-73.142857 73.142857v585.142858a73.142857 73.142857 0 0 0 73.142857 73.142857h731.428572a73.142857 73.142857 0 0 0 73.142857-73.142857V219.428571a73.142857 73.142857 0 0 0-73.142857-73.142857H146.285714z m0 73.142857h731.428572v585.142858H146.285714V219.428571z m238.299429 162.230858l-5.12 4.242285-177.737143 177.810286 51.638857 51.712 152.064-151.990857 180.955429 181.028571a36.571429 36.571429 0 0 0 46.665143 4.242286l5.12-4.242286 184.173714-184.173714-51.712-51.712L612.205714 566.857143 431.250286 385.901714a36.571429 36.571429 0 0 0-46.665143-4.242285z"/>
</svg>
