<svg xmlns="http://www.w3.org/2000/svg" width="200" height="200" class="doctor_svg__icon" viewBox="0 0 1024 1024">
    <path d="M493.275429 77.238857a36.571429 36.571429 0 0 1 37.449142 0l409.6 244.662857a36.571429 36.571429 0 0 1 0 62.829715l-99.254857 59.245714 0.073143 316.708571a36.571429 36.571429 0 0 1-17.334857 31.085715l-5.632 2.925714-292.571429 117.028571a36.571429 36.571429 0 0 1-20.48 1.901715l-6.729142-1.974858-292.571429-117.028571a36.571429 36.571429 0 0 1-22.454857-27.648L182.857143 760.685714V443.977143l-99.181714-59.245714a36.571429 36.571429 0 0 1-5.485715-58.88l5.485715-3.949715z m-237.348572 410.331429l0.073143 248.32 256 102.4 256-102.4V487.643429L530.651429 629.394286a36.571429 36.571429 0 0 1-31.451429 2.852571l-5.997714-2.925714-237.348572-141.750857zM950.857143 438.857143v219.428571h-73.142857V438.857143h73.142857zM512 151.186286L173.787429 353.28 512 555.300571l338.212571-202.093714L512 151.186286z"/>
</svg>
