<svg xmlns="http://www.w3.org/2000/svg" width="200" height="200" class="esc_svg__icon" viewBox="0 0 1024 1024">
    <path d="M299.008 681.472a43.52 43.52 0 0 1 43.52 43.52v262.656H256v-156.672L61.952 1024 0 962.048 193.024 768H36.352v-86.528z m688.64 0V768h-156.672L1024 962.048 962.048 1024 768 830.976v156.672h-86.528v-262.656a43.52 43.52 0 0 1 43.52-43.52h262.656zM61.952 0L256 193.024V36.352h86.528v262.656a43.52 43.52 0 0 1-43.52 43.52H36.352V256h156.672L0 61.952z m900.096 0L1024 61.952 830.976 256h156.672v86.528h-262.656a43.52 43.52 0 0 1-43.52-43.52V36.352H768v156.672z"/>
</svg>
