<svg xmlns="http://www.w3.org/2000/svg" width="200" height="200" class="exp_svg__icon" viewBox="0 0 1024 1024">
    <path d="M633.929143 109.714286c29.257143 0 56.393143 18.651429 60.416 47.469714l0.512 7.387429V292.571429H877.714286a73.142857 73.142857 0 0 1 73.142857 73.142857v512a73.142857 73.142857 0 0 1-73.142857 73.142857H146.285714a73.142857 73.142857 0 0 1-73.142857-73.142857V365.714286a73.142857 73.142857 0 0 1 73.142857-73.142857h182.857143V164.571429c0-30.427429 24.868571-51.419429 53.686857-54.491429l7.314286-0.365714h243.785143zM877.714286 365.714286H146.285714v512h731.428572V365.714286zM402.285714 475.428571v219.428572h-73.142857v-219.428572h73.142857z m292.571429 0v219.428572h-73.142857v-219.428572h73.142857z m-73.142857-292.571428h-219.428572V292.571429h219.428572V182.857143z"/>
</svg>
