<svg xmlns="http://www.w3.org/2000/svg" width="200" height="200" class="eye-open_svg__icon" viewBox="0 0 1024 1024">
    <path fill="#999" d="M512 170.666667C199.111111 170.666667 56.888889 512 56.888889 512s142.222222 341.333333 455.111111 341.333333 455.111111-341.333333 455.111111-341.333333S824.888889 170.666667 512 170.666667z m0 597.333333c-199.111111 0-318.577778-180.337778-359.822222-256C193.422222 436.053333 312.888889 256 512 256s318.577778 180.337778 359.822222 256C830.577778 587.946667 711.111111 768 512 768z"/>
    <path fill="#999" d="M512 369.777778c-78.506667 0-142.222222 63.715556-142.222222 142.222222s63.715556 142.222222 142.222222 142.222222 142.222222-63.715556 142.222222-142.222222h-142.222222v-142.222222z"/>
</svg>
