<svg xmlns="http://www.w3.org/2000/svg" width="200" height="200" class="eye-close_svg__icon" viewBox="0 0 1024 1024">
    <path fill="#999" d="M964.266667 302.364444l-78.222223-34.417777c-1.137778 2.56-122.026667 267.946667-374.044444 267.946666S139.093333 270.791111 137.955556 268.231111l-78.222223 34.133333c2.844444 6.542222 40.96 90.453333 118.613334 170.382223L89.315556 534.755556l48.64 69.973333 106.382222-73.955556c34.702222 25.884444 74.524444 48.64 120.035555 64.853334l-50.631111 129.137777 79.36 31.288889 54.044445-137.955555-6.826667-2.56c22.755556 3.697778 46.648889 5.973333 71.395556 5.973333s48.64-2.275556 71.395555-5.973333l-6.826667 2.56 54.044445 137.955555 79.36-31.288889-50.631111-129.137777c45.226667-16.213333 85.333333-38.968889 120.035555-64.853334l106.382223 73.955556 48.64-69.973333-89.031112-61.724445c78.222222-80.213333 116.337778-163.84 119.182223-170.666667z"/>
</svg>
