<svg xmlns="http://www.w3.org/2000/svg" width="16" height="16" viewBox="0 0 16 16">
    <path fill="#6483C4" fill-rule="evenodd" d="M8,1 C11.8678477,1 15,4.13215228 15,8 C15,11.8678477 11.8678477,15 8,15 C4.13215228,15 1,11.8678477 1,8 C1,4.13215228 4.13215228,1 8,1 Z M8.73532314,5.48461538 L7.34034624,5.48461538 L7.34,5.485 L6,5.4855895 L6,6.8855895 L7.34,6.885 L7.34,10.5 L6.01435171,10.5 L6.01435171,11.9 L10,11.9 L10,10.5 L8.735,10.5 L8.73532314,5.48461538 Z M8.70466431,3.5 L7.30968741,3.5 L7.30968741,4.9 L8.70466431,4.9 L8.70466431,3.5 Z"/>
</svg>
