<svg xmlns="http://www.w3.org/2000/svg" width="20" height="20" viewBox="0 0 20 20">
    <path fill="#FFF" d="M16.015625,8.515625 L15.234375,8.515625 C15.1484375,8.515625 15.078125,8.5859375 15.078125,8.671875 L15.078125,9.453125 C15.078125,9.5390625 15.1484375,9.609375 15.234375,9.609375 L16.015625,9.609375 C16.1015625,9.609375 16.171875,9.5390625 16.171875,9.453125 L16.171875,8.671875 C16.171875,8.5859375 16.1015625,8.515625 16.015625,8.515625 Z M16.640625,6.484375 L14.296875,6.484375 L14.296875,2.34375 C14.296875,2.2578125 14.2265625,2.1875 14.140625,2.1875 L5.859375,2.1875 C5.7734375,2.1875 5.703125,2.2578125 5.703125,2.34375 L5.703125,6.484375 L3.359375,6.484375 C2.49609375,6.484375 1.796875,7.18359375 1.796875,8.046875 L1.796875,14.453125 C1.796875,14.7988281 2.07617188,15.078125 2.421875,15.078125 L5.703125,15.078125 L5.703125,17.65625 C5.703125,17.7421875 5.7734375,17.8125 5.859375,17.8125 L14.140625,17.8125 C14.2265625,17.8125 14.296875,17.7421875 14.296875,17.65625 L14.296875,15.078125 L17.578125,15.078125 C17.9238281,15.078125 18.203125,14.7988281 18.203125,14.453125 L18.203125,8.046875 C18.203125,7.18359375 17.5039062,6.484375 16.640625,6.484375 Z M7.03125,3.515625 L12.96875,3.515625 L12.96875,6.484375 L7.03125,6.484375 L7.03125,3.515625 Z M12.96875,16.484375 L7.03125,16.484375 L7.03125,11.09375 L12.96875,11.09375 L12.96875,16.484375 Z M16.875,13.75 L14.296875,13.75 L14.296875,9.765625 L5.703125,9.765625 L5.703125,13.75 L3.125,13.75 L3.125,8.046875 C3.125,7.91796875 3.23046875,7.8125 3.359375,7.8125 L16.640625,7.8125 C16.7695312,7.8125 16.875,7.91796875 16.875,8.046875 L16.875,13.75 Z"/>
</svg>
