<svg xmlns="http://www.w3.org/2000/svg" width="16" height="17" viewBox="0 0 16 17">
    <g fill="none" fill-rule="evenodd">
        <path d="M0 .2H16V16.2H0z" transform="translate(-846.000000, -855.000000) translate(675.000000, 400.500000) translate(48.000000, 452.000000) translate(123.000000, 3.000000)"/>
        <path fill="#CF7E34" fill-rule="nonzero" d="M5.53797397,15.0057725 L1.93412564,15.0057725 C0.976117714,15.0057725 0.195585739,14.2252405 0.195585739,13.2672326 L0.195585739,1.7385399 C0.195585739,0.780531975 0.976117714,0 1.93412564,0 L9.93322015,0 C10.0907753,0 10.2410866,0.0633842671 10.3497453,0.177475948 L13.3088851,3.24708546 C13.4121109,3.3557442 13.4718732,3.49881154 13.4718732,3.64912281 L13.4718732,5.01822298 C13.4718732,5.33876627 13.2129032,5.59773628 12.8923599,5.59773628 C12.5718166,5.59773628 12.3128466,5.33876627 12.3128466,5.01822298 L12.3128466,3.88273911 L9.68692699,1.1590266 L1.93412564,1.1590266 C1.61539332,1.1590266 1.35461234,1.41980758 1.35461234,1.7385399 L1.35461234,13.2672326 C1.35461234,13.5859649 1.61539332,13.8467459 1.93412564,13.8467459 L5.53797397,13.8467459 C5.85851726,13.8467459 6.11748727,14.1057159 6.11748727,14.4262592 C6.11748727,14.7468025 5.85851726,15.0057725 5.53797397,15.0057725 Z M6.34567063,7.32178834 L3.09858517,7.32178834 C2.77804188,7.32178834 2.51907187,7.06281834 2.51907187,6.74227504 C2.51907187,6.42173175 2.77804188,6.16276174 3.09858517,6.16276174 L6.34567063,6.16276174 C6.66621392,6.16276174 6.92518393,6.42173175 6.92518393,6.74227504 C6.92518393,7.06281834 6.66621392,7.32178834 6.34567063,7.32178834 Z M6.77668364,4.95121675 L3.09858517,4.95121675 C2.77804188,4.95121675 2.51907187,4.69224675 2.51907187,4.37170345 C2.51907187,4.05116016 2.77804188,3.79219015 3.09858517,3.79219015 L6.77668364,3.79219015 C7.09722694,3.79219015 7.35619694,4.05116016 7.35619694,4.37170345 C7.35619694,4.69224675 7.09722694,4.95121675 6.77668364,4.95121675 Z M10.5706848,4.95121675 L9.09111488,4.95121675 C8.77057159,4.95121675 8.51160158,4.69224675 8.51160158,4.37170345 C8.51160158,4.05116016 8.77057159,3.79219015 9.09111488,3.79219015 L10.5706848,3.79219015 C10.8912281,3.79219015 11.1501981,4.05116016 11.1501981,4.37170345 C11.1501981,4.69224675 10.8912281,4.95121675 10.5706848,4.95121675 Z M9.09111488,4.88964346 C8.77057159,4.88964346 8.51160158,4.63067346 8.51160158,4.31013016 L8.51160158,2.90299943 C8.51160158,2.58245614 8.77057159,2.32348613 9.09111488,2.32348613 C9.41165818,2.32348613 9.67062818,2.58245614 9.67062818,2.90299943 L9.67062818,4.31013016 C9.67062818,4.63067346 9.41165818,4.88964346 9.09111488,4.88964346 Z M4.70854556,9.90424448 L3.09858517,9.90424448 C2.77804188,9.90424448 2.51907187,9.64527448 2.51907187,9.32473118 C2.51907187,9.00418789 2.77804188,8.74521788 3.09858517,8.74521788 L4.70854556,8.74521788 C5.02908885,8.74521788 5.28805886,9.00418789 5.28805886,9.32473118 C5.28805886,9.64527448 5.02908885,9.90424448 4.70854556,9.90424448 Z M10.9310696,16 C9.62897566,16 8.40475382,15.4929259 7.48477646,14.5729485 C6.56479909,13.6529711 6.05772496,12.4287493 6.05772496,11.1266553 C6.05772496,9.8245614 6.56479909,8.60033956 7.48477646,7.6803622 C8.40475382,6.76038483 9.62897566,6.2533107 10.9310696,6.2533107 C12.2331636,6.2533107 13.4573854,6.76038483 14.3773628,7.6803622 C15.2973401,8.60033956 15.8044143,9.8245614 15.8044143,11.1266553 C15.8044143,12.4287493 15.2973401,13.6529711 14.3773628,14.5729485 C13.4573854,15.4929259 12.2331636,16 10.9310696,16 L10.9310696,16 Z M10.9310696,7.40871534 C8.88285229,7.40871534 7.21494058,9.07481607 7.21494058,11.1248444 C7.21494058,13.1730617 8.88285229,14.8409734 10.9310696,14.8409734 C12.9792869,14.8409734 14.6471986,13.1748727 14.6471986,11.1248444 C14.6471986,9.07662705 12.9792869,7.40871534 10.9310696,7.40871534 Z M11.0161856,11.4236559 C10.5724958,11.4236559 10.1523486,11.2823995 9.83542728,11.0270515 C9.49858517,10.7572156 9.31205433,10.3913978 9.31205433,9.99841539 C9.31205433,9.60543294 9.49858517,9.24142615 9.83542728,8.96977929 C10.1541596,8.71443124 10.5743067,8.57317487 11.0161856,8.57317487 C11.4580645,8.57317487 11.8800226,8.71443124 12.196944,8.96977929 C12.5337861,9.23961517 12.7203169,9.60543294 12.7203169,9.99841539 C12.7203169,10.1577816 12.5899264,10.288172 12.4305603,10.288172 C12.2711941,10.288172 12.1408036,10.1577816 12.1408036,9.99841539 C12.1408036,9.78471986 12.0321449,9.58007923 11.8347482,9.42252405 C11.6192417,9.24867006 11.327674,9.15449915 11.0161856,9.15449915 C10.7046972,9.15449915 10.4131296,9.25048104 10.1976231,9.42252405 C10.0002264,9.58007923 9.89156763,9.78471986 9.89156763,9.99841539 C9.89156763,10.2121109 10.0002264,10.4167516 10.1976231,10.5743067 C10.4131296,10.7481607 10.7046972,10.8423316 11.0161856,10.8423316 C11.1755518,10.8423316 11.3059423,10.9727221 11.3059423,11.1320883 C11.3059423,11.2914544 11.1755518,11.4236559 11.0161856,11.4236559 Z M11.0161856,13.6910017 C10.5724958,13.6910017 10.1523486,13.5497453 9.83542728,13.2943973 C9.49858517,13.0245614 9.31205433,12.6587436 9.31205433,12.2657612 C9.31205433,12.106395 9.44244482,11.9760045 9.60181098,11.9760045 C9.76117714,11.9760045 9.89156763,12.106395 9.89156763,12.2657612 C9.89156763,12.4794567 10.0002264,12.6840973 10.1976231,12.8416525 C10.4131296,13.0155065 10.7046972,13.1096774 11.0161856,13.1096774 C11.327674,13.1096774 11.6192417,13.0136955 11.8347482,12.8416525 C12.0321449,12.6840973 12.1408036,12.4794567 12.1408036,12.2657612 C12.1408036,12.0520656 12.0321449,11.847425 11.8347482,11.6898698 C11.6192417,11.5160158 11.327674,11.4218449 11.0161856,11.4218449 C10.8568195,11.4218449 10.726429,11.2914544 10.726429,11.1320883 C10.726429,10.9727221 10.8568195,10.8423316 11.0161856,10.8423316 C11.4598755,10.8423316 11.8800226,10.983588 12.196944,11.238936 C12.5337861,11.5087719 12.7203169,11.8745897 12.7203169,12.2675722 C12.7203169,12.6605546 12.5337861,13.0245614 12.196944,13.2962083 C11.8782117,13.5515563 11.4598755,13.6910017 11.0161856,13.6910017 Z M10.9926429,14.0296548 C10.8332767,14.0296548 10.7028862,13.8992643 10.7028862,13.7398981 L10.7028862,8.50254669 C10.7028862,8.34318053 10.8332767,8.21279004 10.9926429,8.21279004 C11.1520091,8.21279004 11.2823995,8.34318053 11.2823995,8.50254669 L11.2823995,13.7398981 C11.2823995,13.8992643 11.15382,14.0296548 10.9926429,14.0296548 Z" transform="translate(-846.000000, -855.000000) translate(675.000000, 400.500000) translate(48.000000, 452.000000) translate(123.000000, 3.000000)"/>
    </g>
</svg>
