<?xml version="1.0" encoding="UTF-8"?><svg version="1.1" width="15px" height="15px" viewBox="0 0 15.0 15.0" xmlns="http://www.w3.org/2000/svg" xmlns:xlink="http://www.w3.org/1999/xlink"><defs><clipPath id="i0"><path d="M1440,0 L1440,6524 L0,6524 L0,0 L1440,0 Z"></path></clipPath><clipPath id="i1"><path d="M7,0 C10.8678477,0 14,3.13215228 14,7 C14,10.8678477 10.8678477,14 7,14 C3.13215228,14 0,10.8678477 0,7 C0,3.13215228 3.13215228,0 7,0 Z"></path></clipPath><clipPath id="i2"><path d="M2.66666667,2.66666667 L2.666,8 L4,8 L4,9.33333333 L0,9.33333333 L0,8 L1.333,8 L1.333,3.999 L0,4 L0,2.66666667 L2.66666667,2.66666667 Z M2.66666667,0 L2.66666667,1.33333333 L1.33333333,1.33333333 L1.33333333,0 L2.66666667,0 Z"></path></clipPath></defs><g clip-path="url(#i0)" transform="translate(-233.0 -1142.0)"><g transform="translate(233.5599999999999 1142.56)"><g clip-path="url(#i1)"><polygon points="0,0 14,0 14,14 0,14 0,0" stroke="none" fill="#E8E8E8"></polygon></g><g transform="translate(5.0 2.3333333333335577)"><g clip-path="url(#i2)"><polygon points="0,0 4,0 4,9.33333333 0,9.33333333 0,0" stroke="none" fill="#B3B3B3"></polygon></g></g></g></g></svg>