<svg xmlns="http://www.w3.org/2000/svg" width="32" height="32" viewBox="0 0 32 32">
    <path fill="#E6B073" fill-rule="evenodd" d="M16,0 C24.836556,0 32,7.163444 32,16 C32,24.836556 24.836556,32 16,32 C7.163444,32 0,24.836556 0,16 C0,7.163444 7.163444,0 16,0 Z M23,13.2608696 L18.7391304,9 L9,18.7391304 L9,23 L13.2608696,23 L23,13.2608696 Z M22.8083771,22 L15.8083771,22 L15.8083771,23 L22.8083771,23 L22.8083771,22 Z M18.7397175,10.4196812 L21.5802972,13.2602609 L12.8455146,21.9950435 L10.0042247,21.9957536 L10.0042247,19.1551739 L16.608,12.55 L18.7391304,14.6811594 L19.4492754,13.9710145 L17.318,11.84 L18.7397175,10.4196812 Z"/>
</svg>
