<svg xmlns="http://www.w3.org/2000/svg" width="200" height="200" class="focus-active_svg__icon" viewBox="0 0 1024 1024">
    <path fill="#E19C5D" d="M320 341.333333h85.333333v170.666667h-85.333333z"/>
    <path fill="#011111" d="M536.96 981.333333a42.666667 42.666667 0 0 1-28.16-10.666666l-410.026667-362.666667C-26.88 490.666667-33.706667 268.16 85.333333 142.08A314.666667 314.666667 0 0 1 528.64 128l2.346667 2.346667L768 387.413333a85.333333 85.333333 0 0 1-120.746667-5.12L469.333333 188.8a229.12 229.12 0 0 0-322.773333 11.733333c-85.333333 91.733333-80.64 259.413333 10.666667 344.96l377.813333 334.506667L877.866667 533.333333c85.333333-91.093333 80.213333-258.773333-11.093334-344.32A227.626667 227.626667 0 0 0 715.946667 128a72.96 72.96 0 0 1-71.04-55.893333l-5.12-21.333334A318.506667 318.506667 0 0 1 697.813333 42.666667a312.746667 312.746667 0 0 1 227.413334 85.333333c125.653333 117.76 132.48 339.626667 14.506666 465.493333L567.466667 968.746667a42.666667 42.666667 0 0 1-30.506667 12.586666z"/>
</svg>
