<svg xmlns="http://www.w3.org/2000/svg" width="200" height="200" class="focus_svg__icon" viewBox="0 0 1024 1024">
    <path d="M320 341.333333h85.333333v170.666667h-85.333333z"/>
    <path d="M925.226667 128a312.746667 312.746667 0 0 0-227.413334-85.333333 318.506667 318.506667 0 0 0-57.813333 8.106666l5.12 21.333334A72.96 72.96 0 0 0 715.733333 128a227.626667 227.626667 0 0 1 151.04 61.866667c91.306667 85.333333 96.426667 253.226667 11.093334 344.32L535.04 880 157.226667 545.493333c-91.306667-85.333333-96.426667-253.226667-10.666667-344.96A229.12 229.12 0 0 1 469.333333 188.8l177.706667 193.493333a85.333333 85.333333 0 0 0 120.746667 5.12L530.986667 129.92 528.64 128A314.666667 314.666667 0 0 0 85.333333 142.08c-119.04 126.08-112.213333 348.586667 13.44 465.706667l410.026667 362.666666a42.666667 42.666667 0 0 0 58.666667-1.92l372.266666-375.466666c117.973333-125.866667 111.146667-347.733333-14.506666-465.066667z"/>
</svg>
