<svg xmlns="http://www.w3.org/2000/svg" width="200" height="200" class="fullscreen_svg__icon" viewBox="0 0 1024 1024">
    <path d="M345.088 618.496l60.416 60.416-208.384 208.384h153.6V972.8h-256a42.496 42.496 0 0 1-43.52-42.496v-256h85.504v153.6z m333.824 0l208.384 208.384v-153.6H972.8v256a42.496 42.496 0 0 1-42.496 42.496h-256v-84.48h153.6l-208.896-208.384zM349.696 51.2v85.504h-153.6l209.408 208.384-60.416 60.416-208.384-208.384v153.6H51.2v-256A42.496 42.496 0 0 1 93.696 51.2h256z m580.608 0a42.496 42.496 0 0 1 42.496 42.496v256h-85.504v-153.6l-208.384 209.408-60.416-60.416 208.896-208.384h-153.6V51.2z"/>
</svg>
