<svg xmlns="http://www.w3.org/2000/svg" width="24" height="24" viewBox="0 0 24 24">
    <defs>
        <linearGradient id="link_svg__a" x1="4.064%" x2="90.562%" y1="0%" y2="91.95%">
            <stop offset="0%" stop-color="#F4CEA9"/>
            <stop offset="100%" stop-color="#E19C5D"/>
        </linearGradient>
    </defs>
    <g fill="none" fill-rule="evenodd" transform="translate(-173.000000, -1493.000000) translate(173.000000, 1493.000000)">
        <rect width="24" height="24" fill="#D8D8D8" opacity=".01" rx="1"/>
        <path fill="url(#link_svg__a)" d="M13.4121094,6.28320312 C14.359375,5.40039062 15.4355469,4.95703125 16.6425781,4.95703125 C17.8496094,4.95703125 18.9179688,5.3984375 19.8496094,6.28320312 C20.7324219,7.23046875 21.1757812,8.30664062 21.1757812,9.51367188 C21.1757812,10.7207031 20.734375,11.7910156 19.8496094,12.7226562 L12.3476563,20.2246094 C11.1015625,21.4082031 9.67382812,22 8.06445312,22 C6.45507813,22 5.02734375,21.4082031 3.78125,20.2246094 C2.59765625,18.9785156 2.00585938,17.5507812 2.00585938,15.9414062 C2.00585938,14.3320312 2.59765625,12.9042969 3.78125,11.6582031 L13.4121094,2 L14.5019531,3.08984375 L4.84570312,12.7226562 C3.96289062,13.6542969 3.51953125,14.7226562 3.51953125,15.9296875 C3.51953125,17.1367188 3.9609375,18.2128906 4.84570312,19.1601562 C5.79296875,20.0429688 6.86914062,20.4863281 8.07617188,20.4863281 C9.28320313,20.4863281 10.3515625,20.0449219 11.2832031,19.1601562 L18.7851563,11.6582031 C19.3691406,11.0273438 19.6601563,10.3085938 19.6601563,9.50390625 C19.6601563,8.69921875 19.3691406,7.98828125 18.7851563,7.37304688 C18.1542969,6.7734375 17.4355469,6.47265625 16.6308594,6.47265625 C15.8261719,6.47265625 15.1152344,6.7734375 14.5,7.37304688 L7.54296875,14.3320312 C7.33789063,14.5371094 7.27148438,14.78125 7.34179688,15.0664062 C7.41210938,15.3515625 7.58984375,15.5273438 7.875,15.5996094 C8.16015625,15.6699219 8.40429688,15.6035156 8.609375,15.3984375 L15.5683594,8.43945312 L16.6328125,9.50390625 L9.671875,16.4609375 C9.38671875,16.7617188 9.04882813,16.9667969 8.65429688,17.0761719 C8.25976562,17.1875 7.86132813,17.1914062 7.45898438,17.0878906 C7.05664063,16.9863281 6.71289063,16.7929688 6.4296875,16.5078125 C6.14648438,16.2226562 5.953125,15.8769531 5.84960938,15.4667969 C5.74609375,15.0566406 5.75,14.6582031 5.86132813,14.2714844 C5.97265625,13.8847656 6.16992188,13.5488281 6.453125,13.265625 L13.4121094,6.28320312 Z"/>
    </g>
</svg>
