<svg xmlns="http://www.w3.org/2000/svg" width="200" height="200" class="my-active_svg__icon" viewBox="0 0 1024 1024">
    <path fill="#011111" d="M896 85.333333v853.333334H128V85.333333h533.333333c46.933333 0 85.333333-38.4 85.333334-85.333333H85.333333C61.866667 0 42.666667 19.2 42.666667 42.666667v938.666666c0 23.466667 19.2 42.666667 42.666666 42.666667h853.333334c23.466667 0 42.666667-19.2 42.666666-42.666667V0c-46.933333 0-85.333333 38.4-85.333333 85.333333z"/>
    <path fill="#011111" d="M192 810.666667h85.333333c0-130.133333 104.533333-234.666667 234.666667-234.666667s234.666667 104.533333 234.666667 234.666667h85.333333c0-121.6-70.4-234.666667-179.2-288 89.6-76.8 98.133333-211.2 21.333333-300.8-76.8-89.6-211.2-98.133333-300.8-21.333334-89.6 76.8-98.133333 211.2-21.333333 300.8 6.4 8.533333 12.8 14.933333 21.333333 21.333334C262.4 576 192 689.066667 192 810.666667z m320-576c70.4 0 128 57.6 128 128s-57.6 128-128 128-128-57.6-128-128 57.6-128 128-128z"/>
    <path fill="#E19C5D" d="M469.333333 661.333333h85.333334v128h-85.333334z"/>
</svg>
