<svg xmlns="http://www.w3.org/2000/svg" width="200" height="200" class="my_svg__icon" viewBox="0 0 1024 1024">
    <path d="M896 85.333333v853.333334H128V85.333333h533.333333a85.333333 85.333333 0 0 0 85.333334-85.333333H85.333333a42.666667 42.666667 0 0 0-42.666666 42.666667v938.666666a42.666667 42.666667 0 0 0 42.666666 42.666667h853.333334a42.666667 42.666667 0 0 0 42.666666-42.666667V0a85.333333 85.333333 0 0 0-85.333333 85.333333z"/>
    <path d="M746.666667 810.666667h85.333333a320 320 0 0 0-180.053333-287.36 213.333333 213.333333 0 1 0-279.893334 0A320 320 0 0 0 192 810.666667h85.333333a234.666667 234.666667 0 0 1 469.333334 0zM384 362.666667a128 128 0 1 1 128 128 128 128 0 0 1-128-128z"/>
    <path d="M469.333333 661.333333h85.333334v128h-85.333334z"/>
</svg>
