<svg xmlns="http://www.w3.org/2000/svg" width="200" height="200" class="my_collection_svg__icon" viewBox="0 0 1024 1024">
    <path d="M511.936 32l189.76 273.024 186.112 54.08c-27.008 34.56-72.32 49.216-114.368 36.992l-114.304-33.28L512 151.04 364.672 362.88 114.816 435.52l158.848 203.52-7.168 256.64 245.44-85.952 245.312 85.952-7.104-256.64 90.944-116.608 0.256 0.192 67.84-86.848c24.96-32 65.6-46.912 104.832-39.36l9.792 2.304-204.8 262.4 9.28 330.944-316.352-110.912L195.52 992l9.216-331.008L0 398.72l322.048-93.632L512 32z m-48.192 335.36l44.416 46.08-144.64 139.52-44.416-46.016 144.64-139.52z"/>
</svg>
