<svg xmlns="http://www.w3.org/2000/svg" width="200" height="200" class="my_focus_svg__icon" viewBox="0 0 1024 1024">
    <path d="M530.752 166.656l11.52 11.2 180.032 153.472a69.44 69.44 0 0 1-96.128 5.76L494.784 224.896c-105.28-107.136-265.92-128.448-353.856-39.04C50.176 278.4 44.288 410.24 123.84 508.16l14.592 16.832 380.736 379.648 363.392-376.768 9.088-9.728c88.512-99.392 85.184-236.8-8.512-332.16-44.608-45.376-102.976-63.104-165.76-53.888l-0.96 0.192a76.032 76.032 0 0 1-78.592-38.336l-3.456-7.168c108.8-42.432 219.968-25.6 298.368 54.208 113.92 115.904 121.6 283.712 20.672 408.128l-10.432 12.288-12.224 12.8L520 992 90.88 571.776l-8.896-9.472c-112.576-124.8-108.8-301.056 9.408-421.376C206.016 24.192 402.56 46.4 530.752 166.656zM282.88 382.976L452.096 552.32l-45.248 45.248-169.216-169.216 45.248-45.248z"/>
</svg>
