<svg xmlns="http://www.w3.org/2000/svg" width="200" height="200" class="my_service_svg__icon" viewBox="0 0 1024 1024">
    <path d="M424.96 32a238.592 238.592 0 0 1 238.336 238.848c0 98.112-59.072 182.4-143.552 219.2l228.736 117.76c39.296 20.288 65.152 57.408 68.928 99.008l0.448 10.432V928H32v-210.752c0-42.24 22.848-81.024 59.84-104l9.6-5.376 100.8-51.968a64.64 64.64 0 0 1-27.904 86.976l-43.52 22.4c-19.2 9.92-31.424 26.752-33.92 45.056l-0.512 6.912v146.176h657.088v-146.176c0-18.56-10.112-36.416-27.584-48l-6.912-3.968L416.64 509.568a238.592 238.592 0 0 1-229.952-238.72A238.592 238.592 0 0 1 424.96 32z m267.008 64c104.576 0 193.664 89.024 193.664 188.928 0 71.04-31.36 126.272-90.624 162.816l164.672 87.04c35.968 16.32 60.352 47.168 63.872 82.56l0.448 8.96V832l-173.952-0.064v-64.576h109.44l0.128-140.928c0-10.688-7.168-21.76-21.632-30.208l-221.568-116.928-45.44-25.984a12.8 12.8 0 0 1 1.728-23.04l68.928-26.88c54.08-25.344 79.552-63.36 79.552-118.4 0-64.192-60.16-124.352-129.28-124.352-8.32 0-16.512 0.768-24.576 2.24a267.136 267.136 0 0 0-26.88-43.52l-10.688-13.248 6.272-2.048c17.984-5.248 36.8-8 55.936-8zM452.416 638.848v162.688H386.304V638.848h66.112z m-27.52-542.272a174.08 174.08 0 0 0-173.888 174.272A174.08 174.08 0 0 0 424.96 445.12a174.08 174.08 0 0 0 173.888-174.272A174.08 174.08 0 0 0 424.96 96.576z"/>
</svg>
