<svg xmlns="http://www.w3.org/2000/svg" width="20" height="20" viewBox="0 0 20 20">
    <path fill="#FFF" d="M16.6914062,5.63671875 L12.4882812,1.43359375 C12.3710937,1.31640625 12.2128906,1.25 12.046875,1.25 L3.75,1.25 C3.40429688,1.25 3.125,1.52929688 3.125,1.875 L3.125,18.125 C3.125,18.4707031 3.40429688,18.75 3.75,18.75 L16.25,18.75 C16.5957031,18.75 16.875,18.4707031 16.875,18.125 L16.875,6.08007812 C16.875,5.9140625 16.8085938,5.75390625 16.6914062,5.63671875 Z M15.4335938,6.3671875 L11.7578125,6.3671875 L11.7578125,2.69140625 L15.4335938,6.3671875 Z M15.46875,17.34375 L4.53125,17.34375 L4.53125,2.65625 L10.4296875,2.65625 L10.4296875,6.875 C10.4296875,7.328125 10.796875,7.6953125 11.25,7.6953125 L15.46875,7.6953125 L15.46875,17.34375 Z M9.84375,12.0703125 L6.25,12.0703125 C6.1640625,12.0703125 6.09375,12.140625 6.09375,12.2265625 L6.09375,13.1640625 C6.09375,13.25 6.1640625,13.3203125 6.25,13.3203125 L9.84375,13.3203125 C9.9296875,13.3203125 10,13.25 10,13.1640625 L10,12.2265625 C10,12.140625 9.9296875,12.0703125 9.84375,12.0703125 Z M6.09375,9.5703125 L6.09375,10.5078125 C6.09375,10.59375 6.1640625,10.6640625 6.25,10.6640625 L13.75,10.6640625 C13.8359375,10.6640625 13.90625,10.59375 13.90625,10.5078125 L13.90625,9.5703125 C13.90625,9.484375 13.8359375,9.4140625 13.75,9.4140625 L6.25,9.4140625 C6.1640625,9.4140625 6.09375,9.484375 6.09375,9.5703125 Z"/>
</svg>
