<?xml version="1.0" encoding="UTF-8"?><svg version="1.1" width="16px" height="16px" viewBox="0 0 16.0 16.0" xmlns="http://www.w3.org/2000/svg" xmlns:xlink="http://www.w3.org/1999/xlink"><defs><clipPath id="i0"><path d="M2234,0 L2234,7387 L0,7387 L0,0 L2234,0 Z"></path></clipPath><clipPath id="i1"><path d="M12.8044143,0 C12.8732315,0.0724391624 12.8732315,1.74518015 12.8044143,5.01822298 C12.8044143,5.33876627 11.9190847,5.33876627 11.9190847,5.01822298 L11.9190847,1.1590266 L1.7385399,1.1590266 C1.41980758,1.1590266 1.1590266,1.41980758 1.1590266,1.7385399 L1.1590266,13.2672326 C1.1590266,13.5859649 1.41980758,13.8467459 1.7385399,13.8467459 L5.34238823,13.8467459 C5.66293152,13.8467459 5.92190153,14.1057159 5.92190153,14.4262592 C5.92190153,14.7468025 5.66293152,15.0057725 5.34238823,15.0057725 L1.7385399,15.0057725 C0.780531975,15.0057725 0,14.2252405 0,13.2672326 L0,1.7385399 C0,0.780531975 0.780531975,0 1.7385399,0 L12.8044143,0 Z"></path></clipPath><clipPath id="i2"><path d="M3.82659875,0 C4.14714205,0 4.40611205,0.258970006 4.40611205,0.579513299 C4.40611205,0.900056593 4.14714205,1.1590266 3.82659875,1.1590266 L0.579513299,1.1590266 C0.258970006,1.1590266 0,0.900056593 0,0.579513299 C0,0.258970006 0.258970006,0 0.579513299,0 L3.82659875,0 Z"></path></clipPath><clipPath id="i3"><path d="M4.25761177,0 C4.57815507,0 4.83712507,0.258970006 4.83712507,0.579513299 C4.83712507,0.900056593 4.57815507,1.1590266 4.25761177,1.1590266 L0.579513299,1.1590266 C0.258970006,1.1590266 0,0.900056593 0,0.579513299 C0,0.258970006 0.258970006,0 0.579513299,0 L4.25761177,0 Z"></path></clipPath><clipPath id="i4"><path d="M2.05908319,0 C2.37962649,0 2.63859649,0.258970006 2.63859649,0.579513299 C2.63859649,0.900056593 2.37962649,1.1590266 2.05908319,1.1590266 L0.579513299,1.1590266 C0.258970006,1.1590266 0,0.900056593 0,0.579513299 C0,0.258970006 0.258970006,0 0.579513299,0 L2.05908319,0 Z"></path></clipPath><clipPath id="i5"><path d="M0.579513299,0 C0.900056593,0 1.1590266,0.258970006 1.1590266,0.579513299 L1.1590266,1.98664403 C1.1590266,2.30718732 0.900056593,2.56615733 0.579513299,2.56615733 C0.258970006,2.56615733 0,2.30718732 0,1.98664403 L0,0.579513299 C0,0.258970006 0.258970006,0 0.579513299,0 Z"></path></clipPath><clipPath id="i6"><path d="M2.18947368,0 C2.51001698,0 2.76898698,0.258970006 2.76898698,0.579513299 C2.76898698,0.900056593 2.51001698,1.1590266 2.18947368,1.1590266 L0.579513299,1.1590266 C0.258970006,1.1590266 0,0.900056593 0,0.579513299 C0,0.258970006 0.258970006,0 0.579513299,0 L2.18947368,0 Z"></path></clipPath><clipPath id="i7"><path d="M4.87334465,0 C6.1754386,0 7.39966044,0.507074137 8.3196378,1.4270515 C9.23961517,2.34702886 9.7466893,3.57125071 9.7466893,4.87334465 C9.7466893,6.1754386 9.23961517,7.39966044 8.3196378,8.3196378 C7.39966044,9.23961517 6.1754386,9.7466893 4.87334465,9.7466893 C3.57125071,9.7466893 2.34702886,9.23961517 1.4270515,8.3196378 C0.507074137,7.39966044 0,6.1754386 0,4.87334465 C0,3.57125071 0.507074137,2.34702886 1.4270515,1.4270515 C2.34702886,0.507074137 3.57125071,0 4.87334465,0 Z"></path></clipPath><clipPath id="i8"><path d="M0.5,0 C0.776142375,0 1,0.179086098 1,0.399999996 L1,3 L0,3 L0,0.399999996 C0,0.179086098 0.223857625,0 0.5,0 Z"></path></clipPath><clipPath id="i9"><path d="M0.5,0 C0.678632772,0 0.843696293,0.0952994508 0.933012697,0.249999997 C1.0223291,0.404700543 1.0223291,0.595299479 0.933012697,0.750000025 C0.843696293,0.904700572 0.678632772,1 0.5,1 C0.223857607,1 0,0.776142381 0,0.5 C0,0.223857642 0.223857607,0 0.5,0 Z"></path></clipPath></defs><g transform="translate(-1736.0 -2855.0)"><g clip-path="url(#i0)"><g transform="translate(50.0 2396.0)"><g transform="translate(401.0 204.0)"><g transform="translate(1258.0 0.0)"><g transform="translate(0.0 220.0)"><g transform="translate(27.0 35.0)"><g transform="translate(0.1955857385401032 0.0)"><g clip-path="url(#i1)"><polygon points="0,0 12.8560272,0 12.8560272,15.0057725 0,15.0057725 0,0" stroke="none" fill="#CF7E34"></polygon></g></g><g transform="translate(2.519071873231667 6.162761743067328)"><g clip-path="url(#i2)"><polygon points="0,0 4.40611205,0 4.40611205,1.1590266 0,1.1590266 0,0" stroke="none" fill="#CF7E34"></polygon></g></g><g transform="translate(2.519071873231667 3.7921901528013455)"><g clip-path="url(#i3)"><polygon points="0,0 4.83712507,0 4.83712507,1.1590266 0,1.1590266 0,0" stroke="none" fill="#CF7E34"></polygon></g></g><g transform="translate(8.511601584606893 3.7921901528013455)"><g clip-path="url(#i4)"><polygon points="0,0 2.63859649,0 2.63859649,1.1590266 0,1.1590266 0,0" stroke="none" fill="#CF7E34"></polygon></g></g><g transform="translate(8.511601584606893 2.323486134691546)"><g clip-path="url(#i5)"><polygon points="0,0 1.1590266,0 1.1590266,2.56615733 0,2.56615733 0,0" stroke="none" fill="#CF7E34"></polygon></g></g><g transform="translate(2.519071873231667 8.745217883418231)"><g clip-path="url(#i6)"><polygon points="0,0 2.76898698,0 2.76898698,1.1590266 0,1.1590266 0,0" stroke="none" fill="#CF7E34"></polygon></g></g><g transform="translate(6.057724957555358 6.2533106960951)"><g clip-path="url(#i7)"><path d="M4.87334465,9.7466893 C3.57125071,9.7466893 2.34702886,9.23961517 1.4270515,8.3196378 C0.507074137,7.39966044 0,6.1754386 0,4.87334465 C0,3.57125071 0.507074137,2.34702886 1.4270515,1.4270515 C2.34702886,0.507074137 3.57125071,0 4.87334465,0 C6.1754386,0 7.39966044,0.507074137 8.3196378,1.4270515 C9.23961517,2.34702886 9.7466893,3.57125071 9.7466893,4.87334465 C9.7466893,6.1754386 9.23961517,7.39966044 8.3196378,8.3196378 C7.39966044,9.23961517 6.1754386,9.7466893 4.87334465,9.7466893 L4.87334465,9.7466893 Z" stroke="#CF7E34" stroke-width="2" fill="none" stroke-miterlimit="5"></path></g></g><g transform="translate(10.5 11.0)"><g clip-path="url(#i8)"><polygon points="0,0 1,0 1,3 0,3 0,0" stroke="none" fill="#CF7E34"></polygon></g></g><g transform="translate(10.5 8.500000000000028)"><g clip-path="url(#i9)"><polygon points="0,0 1,0 1,1 0,1 0,0" stroke="none" fill="#CF7E34"></polygon></g></g></g></g></g></g></g></g></g></svg>