<svg xmlns="http://www.w3.org/2000/svg" width="200" height="200" class="service_svg__icon" viewBox="0 0 1024 1024">
    <path d="M298.666667 576h85.333333v170.666667h-85.333333z"/>
    <path d="M987.946667 512l-98.56-42.666667A192 192 0 1 0 768 512h7.466667l152.533333 68.48V768H682.666667v-134.826667a125.013333 125.013333 0 0 0-64-108.8l-155.306667-85.333333a218.88 218.88 0 0 0 87.253333-175.573333 215.68 215.68 0 0 0-213.333333-217.813334 215.893333 215.893333 0 0 0-213.333333 217.813334 215.893333 215.893333 0 0 0 213.333333 218.026666 187.733333 187.733333 0 0 0 24.746667-1.706666L576 597.333333a40.533333 40.533333 0 0 1 21.333333 34.986667v253.866667H85.333333V633.173333A40.533333 40.533333 0 0 1 106.666667 597.333333l31.786666-17.493333A85.333333 85.333333 0 0 0 170.666667 465.493333l-106.666667 58.88a125.013333 125.013333 0 0 0-64 108.8v295.253334a42.666667 42.666667 0 0 0 42.666667 42.666666h597.333333a42.666667 42.666667 0 0 0 42.666667-42.666666V853.333333h288a42.666667 42.666667 0 0 0 42.666666-42.666666V552.106667A42.666667 42.666667 0 0 0 987.946667 512zM661.333333 320a106.666667 106.666667 0 1 1 106.666667 106.666667 106.666667 106.666667 0 0 1-106.666667-106.666667zM208.426667 262.826667a130.56 130.56 0 0 1 128-132.48 130.56 130.56 0 0 1 128 132.48 130.56 130.56 0 0 1-128 132.693333 130.773333 130.773333 0 0 1-128-132.693333z"/>
</svg>
