<svg xmlns="http://www.w3.org/2000/svg" width="200" height="200" class="share_svg__icon" viewBox="0 0 1024 1024">
    <path d="M813.738667 646.087111c-45.169778 0-86.072889 17.976889-116.224 47.047111L376.547556 532.650667a157.013333 157.013333 0 0 0 0-41.301334l320.967111-160.426666a167.651556 167.651556 0 1 0-51.427556-120.604445c0 6.997333 0.682667 13.824 1.365333 20.593778L326.485333 391.395556a167.025778 167.025778 0 0 0-116.224-46.990223 167.651556 167.651556 0 0 0 0 335.189334c45.169778 0 86.072889-17.92 116.224-46.990223l320.967111 160.426667a167.651556 167.651556 0 1 0 166.286223-146.944"/>
</svg>
