<svg xmlns="http://www.w3.org/2000/svg" width="12" height="12" viewBox="0 0 12 12">
    <path d="M2.72727273,10.9064231 C2.72727273,11.5072134 3.21780502,11.997735 3.81775527,11.997735 C4.41855861,11.997735 4.90909091,11.5072134 4.90909091,10.9064231 C4.90909091,10.3072126 4.4185586,9.81591682 3.81775527,9.81591682 C3.21778925,9.81591682 2.72727273,10.3072126 2.72727273,10.9064231 Z M0,-0.002265 L0,1.16196009 L1.20049529,1.16196009 L3.36077509,5.58354481 L2.51968633,6.97956329 C2.46084243,7.15343362 2.40022593,7.38696287 2.40022593,7.56170954 C2.40022593,8.2017283 2.93983099,8.72500773 3.59980016,8.72500773 L10.7994873,8.72500773 L10.7994873,7.56170954 L3.83974627,7.56170954 C3.77907763,7.56170954 3.72025113,7.50289327 3.72025113,7.44491964 L3.72025113,7.38696287 L4.26070774,6.39834395 L8.69987616,6.39834395 C9.17882998,6.39834395 9.53915757,6.16479786 9.71935612,5.81621455 L11.8787322,2.03469916 C12,1.91706663 12,1.85995249 12,1.74321315 C12,1.3937872 11.7591849,1.16196009 11.3997263,1.16196009 L2.51966897,1.16196009 L1.97912546,-0.002265 L0,-0.002265 Z M8.72727273,10.9064231 C8.72727273,11.5072134 9.21798428,11.997735 9.81813441,11.997735 C10.4183952,11.997735 10.9090909,11.5072134 10.9090909,10.9064231 C10.9090909,10.3072126 10.4183952,9.81591682 9.81813441,9.81591682 C9.21796848,9.81591682 8.72727273,10.3072126 8.72727273,10.9064231 Z"/>
</svg>
