<svg xmlns="http://www.w3.org/2000/svg" width="200" height="200" class="starred_svg__icon" viewBox="0 0 1024 1024">
    <path d="M328.533333 281.770667l-259.2 76.373333-4.48 1.664A37.205333 37.205333 0 0 0 50.346667 416.426667l164.778666 214.186666-7.424 270.122667 0.170667 4.522667a37.205333 37.205333 0 0 0 49.493333 31.573333l254.549334-90.624 254.677333 90.581333 4.352 1.28a37.205333 37.205333 0 0 0 45.226667-37.333333l-7.424-270.08 164.821333-214.186667 2.688-4.010666a37.205333 37.205333 0 0 0-21.632-54.357334l-259.285333-76.373333-152.746667-222.933333a37.162667 37.162667 0 0 0-61.312 0l-152.746667 222.933333z"/>
</svg>
