<svg xmlns="http://www.w3.org/2000/svg" width="200" height="200" class="star_svg__icon" viewBox="0 0 1024 1024">
    <path d="M328.533333 289.621333l-259.2 78.933334-4.48 1.706666c-21.674667 9.770667-29.397333 38.485333-14.464 58.538667l164.778667 221.226667-7.424 279.04 0.170667 4.650666c2.133333 24.448 26.282667 41.088 49.493333 32.554667l254.549333-93.568 254.677334 93.568 4.352 1.28c23.168 5.461333 45.909333-13.141333 45.226666-38.528l-7.424-278.997333 164.821334-221.226667 2.688-4.138667c11.946667-21.077333 1.834667-48.981333-21.632-56.106666l-259.285334-78.933334-152.746666-230.272a36.522667 36.522667 0 0 0-61.312 0l-152.746667 230.272zM512 148.992l129.578667 195.285333 3.157333 4.138667c4.565333 5.162667 10.453333 8.96 16.981333 11.008l219.861334 66.901333-139.776 187.690667-2.816 4.352a39.424 39.424 0 0 0-4.864 20.096l6.272 236.672-215.936-79.317333-4.906667-1.408a36.053333 36.053333 0 0 0-20.010667 1.408l-215.978666 79.317333 6.314666-236.672-0.213333-5.248a39.125333 39.125333 0 0 0-7.466667-19.2L142.378667 426.325333l219.904-66.901333a37.248 37.248 0 0 0 20.138666-15.146667L512 148.992z"/>
</svg>
