<svg xmlns="http://www.w3.org/2000/svg" width="200" height="200" class="telephone_svg__icon" viewBox="0 0 1024 1024">
    <path d="M146.944 238.6944l106.496-106.3936a68.8128 68.8128 0 0 1 97.536 0l114.688 114.4832a69.0176 69.0176 0 0 1 0 97.792l-89.6 89.7024a405.504 405.504 0 0 0 86.4256 127.3344 406.2208 406.2208 0 0 0 127.232 86.5792l89.6-89.7024a68.8128 68.8128 0 0 1 97.5872 0l114.7904 114.5344a69.0176 69.0176 0 0 1 0 97.792l-106.3936 106.3936a119.7568 119.7568 0 0 1-103.424 33.28c-132.4032-21.8112-263.7824-92.3136-369.8688-198.2976-105.984-106.1888-176.4352-237.568-198.4-370.0736a119.1936 119.1936 0 0 1 33.28-103.424z m37.5808 91.4944c19.456 117.9136 82.8928 235.52 178.3808 331.008 95.488 95.488 212.992 158.9248 330.9056 178.3808a47.0528 47.0528 0 0 0 40.8064-13.1584l104.448-104.4992-110.7456-110.8992-119.808 119.9616-0.9216 0.9216-21.6064-7.9872a481.28 481.28 0 0 1-285.696-285.7984l-7.9872-21.6064 120.832-120.7296-110.848-110.8992-104.448 104.4992a46.7968 46.7968 0 0 0-13.312 40.8064z"/>
</svg>
