<svg xmlns="http://www.w3.org/2000/svg" width="16" height="16" viewBox="0 0 16 16">
    <path fill="#999" d="M8,2 C11.3137085,2 14,4.6862915 14,8 C14,11.3137085 11.3137085,14 8,14 C4.6862915,14 2,11.3137085 2,8 C2,4.6862915 4.6862915,2 8,2 Z M8,3 C5.23857625,3 3,5.23857625 3,8 C3,10.7614237 5.23857625,13 8,13 C10.7614237,13 13,10.7614237 13,8 C13,5.23857625 10.7614237,3 8,3 Z M8,4.15333767 C8.24545989,4.15333767 8.44960837,4.33021283 8.49194433,4.56346203 L8.5,4.65333767 L8.5,7.717 L10.6709478,9.04122133 C10.881094,9.16806416 10.964471,9.42498771 10.8801833,9.64655737 L10.8406362,9.72766566 C10.7137934,9.93781192 10.4568699,10.0211889 10.2353002,9.93690118 L10.1541919,9.89735414 L7.74162207,8.42806641 C7.61665425,8.35263669 7.53217303,8.22729467 7.50748395,8.08624273 L7.5,8 L7.5,4.65333767 C7.5,4.37719529 7.72385763,4.15333767 8,4.15333767 Z"/>
</svg>
