<svg xmlns="http://www.w3.org/2000/svg" xmlns:xlink="http://www.w3.org/1999/xlink" width="24" height="24" viewBox="0 0 24 24">
    <defs>
        <linearGradient id="title_svg__c" x1="100%" x2="0%" y1="100%" y2="0%">
            <stop offset="0%" stop-color="#F5D7BC"/>
            <stop offset="100%" stop-color="#E0B794"/>
        </linearGradient>
        <path id="title_svg__a" d="M0 0H24V24H0z"/>
    </defs>
    <g fill="none" fill-rule="evenodd" transform="translate(-149.000000, -1206.000000) translate(149.000000, 1206.000000)">
        <mask id="title_svg__b" fill="#fff">
            <use xlink:href="#title_svg__a"/>
        </mask>
        <use xlink:href="#title_svg__a" fill="#FFF" opacity=".01"/>
        <g mask="url(#title_svg__b)">
            <path fill="#F3D4B9" fill-opacity=".4" d="M5.16332949,2.54131213 L15.1631329,3.66978718 C15.4238409,3.69920801 15.6295866,3.90495364 15.6590074,4.1656617 L16.7874825,14.1654651 C16.8223192,14.4741658 16.6003087,14.752658 16.2916079,14.7874948 C16.2567201,14.7914319 16.2215404,14.792094 16.1865292,14.7894724 L5.83346512,14.014258 C5.55593172,13.9934769 5.33531765,13.7728629 5.31453657,13.4953295 L4.53932217,3.14226542 C4.51612557,2.83247248 4.7484578,2.56253113 5.05825073,2.53933453 C5.09326194,2.53671296 5.12844171,2.53737505 5.16332949,2.54131213 Z" transform="translate(11.664403, 13.164403) rotate(90.000000) translate(-11.664403, -13.164403) translate(1.000000, 4.500000) translate(10.664403, 8.664403) rotate(45.000000) translate(-10.664403, -8.664403)"/>
            <path fill="#F3D4B9" fill-opacity=".2" d="M7.16332949,2.54131213 L17.1631329,3.66978718 C17.4238409,3.69920801 17.6295866,3.90495364 17.6590074,4.1656617 L18.7874825,14.1654651 C18.8223192,14.4741658 18.6003087,14.752658 18.2916079,14.7874948 C18.2567201,14.7914319 18.2215404,14.792094 18.1865292,14.7894724 L7.83346512,14.014258 C7.55593172,13.9934769 7.33531765,13.7728629 7.31453657,13.4953295 L6.53932217,3.14226542 C6.51612557,2.83247248 6.7484578,2.56253113 7.05825073,2.53933453 C7.09326194,2.53671296 7.12844171,2.53737505 7.16332949,2.54131213 Z" transform="translate(11.664403, 13.164403) rotate(90.000000) translate(-11.664403, -13.164403) translate(1.000000, 4.500000) translate(12.664403, 8.664403) rotate(45.000000) translate(-12.664403, -8.664403)"/>
            <path fill="url(#title_svg__c)" d="M3.16332949,2.54131213 L13.1631329,3.66978718 C13.4238409,3.69920801 13.6295866,3.90495364 13.6590074,4.1656617 L14.7874825,14.1654651 C14.8223192,14.4741658 14.6003087,14.752658 14.2916079,14.7874948 C14.2567201,14.7914319 14.2215404,14.792094 14.1865292,14.7894724 L3.83346512,14.014258 C3.55593172,13.9934769 3.33531765,13.7728629 3.31453657,13.4953295 L2.53932217,3.14226542 C2.51612557,2.83247248 2.7484578,2.56253113 3.05825073,2.53933453 C3.09326194,2.53671296 3.12844171,2.53737505 3.16332949,2.54131213 Z" transform="translate(11.664403, 13.164403) rotate(90.000000) translate(-11.664403, -13.164403) translate(1.000000, 4.500000) translate(8.664403, 8.664403) rotate(45.000000) translate(-8.664403, -8.664403)"/>
        </g>
    </g>
</svg>
