<svg xmlns="http://www.w3.org/2000/svg" width="200" height="200" class="union_address_svg__icon" viewBox="0 0 1024 1024">
    <path d="M512 0c249.6 0 448 198.4 448 448 0 140.8-108.8 294.4-320 473.6l-38.4 32c-25.6 25.6-57.6 44.8-89.6 70.4-32-25.6-64-44.8-89.6-70.4l-38.4-32C172.8 742.4 64 588.8 64 448c0-249.6 198.4-448 448-448z m0 96C320 96 160 256 160 448c0 115.2 108.8 268.8 345.6 448l6.4 6.4 6.4-6.4c224-172.8 339.2-326.4 345.6-441.6v-12.8C864 256 704 96 512 96z m0 172.8c96 0 179.2 76.8 179.2 179.2S608 627.2 512 627.2 332.8 544 332.8 448 416 268.8 512 268.8z m0 102.4c-44.8 0-76.8 32-76.8 76.8S467.2 524.8 512 524.8 588.8 492.8 588.8 448 556.8 371.2 512 371.2z"/>
</svg>
