<svg xmlns="http://www.w3.org/2000/svg" width="200" height="200" class="user_svg__icon" viewBox="0 0 1024 1024">
    <path d="M983.04 773.12c-25.6-61.44-61.44-117.76-112.64-163.84-20.48-20.48-46.08-20.48-66.56 0s-20.48 46.08 0 66.56c81.92 81.92 122.88 189.44 122.88 302.08 0 25.6 20.48 46.08 46.08 46.08s46.08-20.48 46.08-46.08c5.12-71.68-10.24-138.24-35.84-204.8z m-476.16-189.44c-133.12 0-245.76-112.64-245.76-245.76s107.52-245.76 245.76-245.76 245.76 112.64 245.76 245.76-112.64 245.76-245.76 245.76z m240.64-486.4C680.96 35.84 599.04 0 506.88 0 419.84 0 332.8 35.84 271.36 97.28c-66.56 66.56-102.4 153.6-102.4 240.64 0 71.68 20.48 143.36 66.56 199.68-66.56 46.08-122.88 102.4-163.84 174.08C25.6 793.6 0 885.76 0 977.92c0 25.6 20.48 46.08 46.08 46.08s46.08-20.48 46.08-46.08c0-76.8 20.48-148.48 56.32-215.04 35.84-61.44 87.04-117.76 148.48-153.6 56.32 46.08 128 71.68 204.8 71.68 92.16 0 174.08-35.84 240.64-97.28s97.28-148.48 97.28-240.64-30.72-179.2-92.16-245.76z"/>
</svg>
