<svg xmlns="http://www.w3.org/2000/svg" width="200" height="200" class="warn_svg__icon" viewBox="0 0 1024 1024">
    <path d="M512 0c282.784 0 512 229.216 512 512s-229.216 512-512 512S0 794.784 0 512 229.216 0 512 0z m51.456 425.984a29.248 29.248 0 0 0-36.992-18.528l-87.616 29.12v26.24l73.152-24.32-62.048 217.504a29.248 29.248 0 0 0 37.376 35.808l92.8-30.912v-26.208l-78.368 26.08 62.08-217.536a29.248 29.248 0 0 0-0.384-17.248z m-6.912-111.2h-1.28a28.608 28.608 0 1 0 0 57.216h1.28a28.608 28.608 0 0 0 0-57.216z"/>
</svg>
