<svg xmlns="http://www.w3.org/2000/svg" width="200" height="200" class="xiangji_svg__icon" viewBox="0 0 1024 1024">
    <path d="M512.6 437.6C450 437.6 399 488.5 399 551.2c0 62.6 50.9 113.6 113.6 113.6 62.6 0 113.6-50.9 113.6-113.6-0.1-62.6-51-113.6-113.6-113.6z"/>
    <path d="M853.8 286.9c-38.2 0-71.7-27.1-79.7-64.4-9.5-44.3-49.3-76.5-94.6-76.5H345.6c-45.3 0-85.1 32.2-94.6 76.5-8 37.3-41.5 64.4-79.7 64.4-58.2 0-105.5 47.3-105.5 105.5v362.1c0 58.2 47.3 105.5 105.5 105.5h682.5c58.2 0 105.5-47.3 105.5-105.5V392.4c0-58.2-47.3-105.5-105.5-105.5z m-341.2 451c-103 0-186.7-83.8-186.7-186.7s83.8-186.7 186.7-186.7 186.7 83.8 186.7 186.7-83.8 186.7-186.7 186.7z"/>
</svg>
