<svg xmlns="http://www.w3.org/2000/svg" width="36" height="14" viewBox="0 0 36 14">
    <path fill="#CC3D3D" d="M16.786,6.206 L13.222,0.518 L10.504,0.518 L14.068,6.206 L16.786,6.206 Z M3.718,6.206 L7.066,0.518 L4.348,0.518 L1,6.206 L3.718,6.206 Z M16.822,13.46 L13.924,7.574 L11.08,7.574 L12.988,11.408 L4.834,11.408 L8.614,5.306 L5.68,5.306 L1.054,13.154 L13.852,13.154 L13.996,13.46 L16.822,13.46 Z M23.824,2.624 L23.626,2.21 L28.756,2.21 L28.576,2.624 L31.204,2.624 L31.384,2.21 L34.12,2.21 L34.12,0.914 L31.96,0.914 L32.14,0.5 L29.512,0.5 L29.368,0.914 L23.068,0.914 L22.87,0.5 L20.26,0.5 L20.44,0.914 L18.262,0.914 L18.262,2.21 L21.016,2.21 L21.196,2.624 L23.824,2.624 Z M21.502,9.896 L22.366,9.032 L30.142,9.032 L30.916,9.896 L34.138,9.896 L33.364,9.032 L34.12,9.032 L34.12,7.718 L23.698,7.718 L24.112,7.322 L32.068,7.322 C32.44,7.322 32.77,7.178 33.058,6.89 C33.334,6.626 33.472,6.296 33.472,5.9 L33.472,5.9 L33.472,2.93 L18.946,2.93 L18.946,7.322 L20.89,7.322 L20.494,7.718 L18.262,7.718 L18.262,9.032 L19.162,9.032 L18.28,9.896 L21.502,9.896 Z M30.952,4.532 L21.448,4.532 L21.448,4.28 L30.952,4.28 L30.952,4.532 Z M30.682,6.008 L21.448,6.008 L21.448,5.738 L30.952,5.738 C30.952,5.786 30.928,5.846 30.88,5.918 C30.796,5.978 30.73,6.008 30.682,6.008 L30.682,6.008 Z M21.772,13.478 L23.464,11.606 L30.88,11.606 L30.88,11.93 C30.88,11.978 30.856,12.044 30.808,12.128 C30.748,12.176 30.682,12.2 30.61,12.2 L30.61,12.2 L27.442,12.2 L26.722,13.478 L31.96,13.478 C32.344,13.478 32.686,13.352 32.986,13.1 C33.25,12.848 33.382,12.524 33.382,12.128 L33.382,12.128 L33.382,10.274 L24.634,10.274 L25.066,9.77 L22.06,9.77 L21.61,10.274 L18.946,10.274 L18.946,11.606 L20.458,11.606 L18.748,13.478 L21.772,13.478 Z"/>
</svg>
