<svg xmlns="http://www.w3.org/2000/svg" width="36" height="14" viewBox="0 0 36 14">
    <path fill="#CC3D3D" d="M5.878,13.478 L5.878,4.784 L8.632,4.784 L8.632,3.326 L5.878,3.326 L5.878,2.21 L8.632,1.976 L8.632,0.5 L1,1.148 L1,2.624 L3.754,2.39 L3.754,3.326 L1,3.326 L1,4.784 L3.754,4.784 L3.754,13.478 L5.878,13.478 Z M16.768,13.478 L15.544,4.316 L13.438,4.316 L14.392,11.606 L11.368,11.606 L12.52,0.5 L10.414,0.5 L9.082,13.082 L14.59,13.082 L14.644,13.478 L16.768,13.478 Z M2.8,13.478 L3.214,5.45 L1.45,5.45 L1.018,13.478 L2.8,13.478 Z M8.704,13.478 L8.29,5.45 L6.526,5.45 L6.94,13.478 L8.704,13.478 Z M23.788,2.624 L23.59,2.21 L28.72,2.21 L28.54,2.624 L31.168,2.624 L31.348,2.21 L34.084,2.21 L34.084,0.914 L31.924,0.914 L32.104,0.5 L29.476,0.5 L29.332,0.914 L23.032,0.914 L22.834,0.5 L20.224,0.5 L20.404,0.914 L18.226,0.914 L18.226,2.21 L20.98,2.21 L21.16,2.624 L23.788,2.624 Z M21.466,9.896 L22.33,9.032 L30.106,9.032 L30.88,9.896 L34.102,9.896 L33.328,9.032 L34.084,9.032 L34.084,7.718 L23.662,7.718 L24.076,7.322 L32.032,7.322 C32.404,7.322 32.734,7.178 33.022,6.89 C33.298,6.626 33.436,6.296 33.436,5.9 L33.436,5.9 L33.436,2.93 L18.91,2.93 L18.91,7.322 L20.854,7.322 L20.458,7.718 L18.226,7.718 L18.226,9.032 L19.126,9.032 L18.244,9.896 L21.466,9.896 Z M30.916,4.532 L21.412,4.532 L21.412,4.28 L30.916,4.28 L30.916,4.532 Z M30.646,6.008 L21.412,6.008 L21.412,5.738 L30.916,5.738 C30.916,5.786 30.892,5.846 30.844,5.918 C30.76,5.978 30.694,6.008 30.646,6.008 L30.646,6.008 Z M21.736,13.478 L23.428,11.606 L30.844,11.606 L30.844,11.93 C30.844,11.978 30.82,12.044 30.772,12.128 C30.712,12.176 30.646,12.2 30.574,12.2 L30.574,12.2 L27.406,12.2 L26.686,13.478 L31.924,13.478 C32.308,13.478 32.65,13.352 32.95,13.1 C33.214,12.848 33.346,12.524 33.346,12.128 L33.346,12.128 L33.346,10.274 L24.598,10.274 L25.03,9.77 L22.024,9.77 L21.574,10.274 L18.91,10.274 L18.91,11.606 L20.422,11.606 L18.712,13.478 L21.736,13.478 Z"/>
</svg>
