<svg xmlns="http://www.w3.org/2000/svg" width="20" height="20" viewBox="0 0 20 20">
    <g fill="none">
        <path fill="#E19C5D" d="M10.144286,3.68137903 C12.5498841,3.68137903 14.500197,5.71200173 14.500197,8.21664296 L14.500197,10.0536565 C14.5007346,11.6748128 13.6702978,13.1724969 12.3220473,13.9824469 L12.3220473,14.1344516 L15.9909015,16.1764377 L15.105232,17.2337494 C15.0547077,17.2034827 15.0259124,17.1863821 15.0188463,17.1824476 C14.1488229,16.6980138 12.8437878,15.9713632 11.1037411,15.0024956 C11.0472721,14.9707597 11.0120735,14.9093306 11.0120743,14.8425182 L11.0138204,13.2995527 C11.0140392,13.2348351 11.0472886,13.175117 11.1011209,13.1427574 L11.6668358,12.8018962 C12.5741141,12.2573427 13.1488668,11.2654752 13.1885045,10.1759019 L13.1906871,10.0536463 L13.1906871,8.21663275 C13.1906871,6.46488091 11.8267714,5.04480804 10.1443015,5.04480804 C8.50249408,5.04502167 7.15609333,6.39963093 7.09964051,8.10802055 L7.09789446,10.0536553 C7.09717063,11.1449136 7.63565707,12.1596423 8.52322878,12.7397198 L8.62187962,12.8019838 L9.18759457,13.142845 C9.24142712,13.1752044 9.27467699,13.234922 9.27489634,13.2996411 L9.27707887,14.8421506 C9.27707887,14.9092911 9.24150438,14.9709883 9.18456479,15.0025684 L4.91420882,17.3790522 L4,16.3409461 L7.96655223,14.134439 L7.96611571,13.9821876 C6.61794915,13.1720992 5.78765893,11.6743234 5.78837508,10.0536565 L5.78837508,8.21664296 C5.7883751,5.71199534 7.73869413,3.68137903 10.144286,3.68137903 Z" transform="translate(-146.000000, -2657.000000) translate(146.000000, 2657.000000)"/>
        <path fill="#45474D" d="M10,0 C15.5228475,0 20,4.4771525 20,10 C20,15.5228475 15.5228475,20 10,20 C4.4771525,20 0,15.5228475 0,10 C0,4.4771525 4.4771525,0 10,0 Z M10,1.5 C5.30557963,1.5 1.5,5.30557963 1.5,10 C1.5,14.6944204 5.30557963,18.5 10,18.5 C14.6944204,18.5 18.5,14.6944204 18.5,10 C18.5,5.30557963 14.6944204,1.5 10,1.5 Z" transform="translate(-146.000000, -2657.000000) translate(146.000000, 2657.000000)"/>
    </g>
</svg>
