<svg xmlns="http://www.w3.org/2000/svg" width="20" height="20" viewBox="0 0 20 20">
    <g fill="none" fill-rule="evenodd">
        <path d="M0 .005H20V20.005H0z" transform="translate(-278.000000, -2657.000000) translate(278.000000, 2657.000000)"/>
        <path fill="#45474D" fill-rule="nonzero" d="M9.71492044,0 C12.3737525,0 14.529362,2.22994737 14.529362,4.98044264 L14.529362,6.9983184 C14.5299557,8.77806426 13.6121044,10.4227602 12.1219329,11.3122144 L12.1219329,11.4791397 L13.5700933,12.28 L10.6755518,12.2809936 C10.6745654,12.2728364 10.6740601,12.2645629 10.6740588,12.2562122 L10.6764711,10.5622924 C10.676713,10.4912206 10.7134622,10.4256407 10.7729611,10.3901046 L11.3982253,10.0157846 C12.4010063,9.4177782 13.0362593,8.32854954 13.0800693,7.13202442 L13.0824816,6.99776829 L13.0824816,4.98043411 C13.0824816,3.05673186 11.5749959,1.49727089 9.71542383,1.49727089 L9.71493376,1.49727089 C7.90032063,1.49751402 6.41219349,2.98509089 6.34979827,4.86117498 L6.34786843,4.98045832 L6.3478683,6.99797208 C6.3470684,8.1961676 6.94223762,9.31050143 7.92323794,9.94751896 L8.03227308,10.0158948 L8.65753698,10.3902147 C8.7170361,10.4257505 8.75378596,10.4913299 8.75402839,10.5624018 L8.75644067,12.2562899 C8.75644067,12.3300541 8.7171215,12.3978074 8.65418826,12.4324874 L2.69518461,15.7274146 C2.05393407,16.0821411 1.68596509,16.8049153 1.765973,17.5525982 C1.81904331,18.0467004 2.20500784,18.4270094 2.6768505,18.4634424 L2.75211374,18.4664369 L11.6660933,18.466 L11.6660933,19.963 L2.75162968,19.9637072 C1.56227374,19.9637072 0.554964651,19.0785517 0.349762038,17.8827268 L0.32680981,17.7177879 C0.181487745,16.3613978 0.849084266,15.0501273 2.01251428,14.4068118 L7.30746904,11.4791392 L7.30746904,11.311943 C5.81739021,10.4223367 4.89970102,8.77754019 4.90049255,6.99778965 L4.90049255,4.98045596 C4.90049255,2.22995367 7.05610834,0 9.71492044,0 Z" transform="translate(-278.000000, -2657.000000) translate(278.000000, 2657.000000)"/>
        <path fill="#E19C5D" fill-rule="nonzero" d="M19.0117358,18.455943 C19.3784025,18.455943 19.6784024,18.5457798 19.6784024,18.6555802 L19.6784024,19.7535844 C19.6784024,19.8515903 19.4425692,19.9331015 19.13157,19.9500051 L19.0117358,19.9532216 L19.0117358,19.9532216 L13.6784019,19.9532216 C13.3511222,19.9532216 13.0789245,19.8825999 13.0224766,19.7894694 L13.0117358,19.7535843 L13.0117358,19.7535843 L13.0117358,18.6555802 C13.0117358,18.5457798 13.3117357,18.455943 13.6784019,18.455943 L19.0117358,18.455943 Z M19.2974509,15.4613842 C19.5069742,15.4613842 19.6784024,15.551221 19.6784024,15.6610214 L19.6784024,16.7590255 C19.6784024,16.8535312 19.5530948,16.9326994 19.3847997,16.9533902 L19.2974509,16.9586627 L19.2974509,16.9586627 L13.3926871,16.9586627 C13.2123497,16.9586627 13.0612795,16.8929954 13.0217969,16.8048005 L13.0117358,16.7590255 L13.0117358,16.7590255 L13.0117358,15.6610214 C13.0117358,15.5512209 13.1831639,15.4613842 13.3926871,15.4613842 L19.2974509,15.4613842 Z M19.2974509,12.4668253 C19.5069742,12.4668253 19.6784024,12.5566621 19.6784024,12.6664625 L19.6784024,13.7644667 C19.6784024,13.8589724 19.5530948,13.9381405 19.3847997,13.9588313 L19.2974509,13.9641039 L19.2974509,13.9641039 L13.3926871,13.9641039 C13.2123497,13.9641039 13.0612795,13.8984365 13.0217969,13.8102417 L13.0117358,13.7644666 L13.0117358,13.7644666 L13.0117358,12.6664625 C13.0117358,12.5566621 13.1831639,12.4668253 13.3926871,12.4668253 L19.2974509,12.4668253 Z" transform="translate(-278.000000, -2657.000000) translate(278.000000, 2657.000000) translate(16.345069, 16.210023) rotate(180.000000) translate(-16.345069, -16.210023)"/>
    </g>
</svg>
