<svg xmlns="http://www.w3.org/2000/svg" xmlns:xlink="http://www.w3.org/1999/xlink" width="20" height="20" viewBox="0 0 20 20">
    <defs>
        <path id="tab_ic_white-list_s_svg__a" d="M0 0H20V20H0z"/>
        <path id="tab_ic_white-list_s_svg__c" d="M0 0H20V20H0z"/>
    </defs>
    <g fill="none" fill-rule="evenodd">
        <g transform="translate(-675.000000, -2657.000000) translate(675.000000, 2657.000000)">
            <mask id="tab_ic_white-list_s_svg__b" fill="#fff">
                <use xlink:href="#tab_ic_white-list_s_svg__a"/>
            </mask>
            <path fill="#45474D" fill-rule="nonzero" d="M17.151944,0.0915966897 C18.6818051,0.0915966897 19.9218927,1.38937299 19.9218927,2.99066552 L19.9218927,17.1967456 C19.9218927,18.7980306 18.6818124,20.0958144 17.151944,20.0958144 L4.64493747,20.0958144 C3.11507631,20.0958144 1.87498869,18.7980381 1.87498869,17.1967456 L1.87412805,15.6655967 L0.534378216,15.6663187 C0.420469341,15.6663187 0.328128047,15.5707932 0.328128047,15.4529565 L0.328128047,14.2794645 C0.328128047,14.1621153 0.420940655,14.0661023 0.534378207,14.0661023 L1.87412805,14.0655967 L1.87412805,10.6765967 L0.53437824,10.677097 C0.420469366,10.677097 0.328128047,10.5815715 0.328128047,10.4637348 L0.328128047,9.29024287 C0.328128047,9.17289368 0.42094068,9.07688064 0.534378231,9.07688064 L1.87412805,9.07659669 L1.87412805,5.68759669 L0.53437824,5.687875 C0.420469366,5.687875 0.328128047,5.59234952 0.328128047,5.47451277 L0.328128047,4.30102085 C0.328128047,4.18367166 0.42094068,4.08765862 0.534378231,4.08765862 L1.87412805,4.08759669 L1.87498869,2.99066552 C1.87498869,1.38938049 3.11506906,0.0915966897 4.64493747,0.0915966897 L17.151944,0.0915966897 Z M17.0400685,1.69179657 L4.83985119,1.69179657 C4.08909388,1.69179657 3.46827904,2.51644109 3.42445167,3.29201395 L3.42445167,17.02868 C3.42445167,17.805318 4.22212528,18.4502055 4.97132847,18.4955467 L16.5275375,18.4955467 C17.2782875,18.4955467 18.3311958,17.8042529 18.3750232,17.02868 L18.3750232,3.29201395 C18.3750232,2.51537594 17.7897889,1.73713523 17.0400685,1.69179657 Z" mask="url(#tab_ic_white-list_s_svg__b)"/>
        </g>
        <g transform="translate(-675.000000, -2657.000000) translate(675.000000, 2657.000000)">
            <mask id="tab_ic_white-list_s_svg__d" fill="#fff">
                <use xlink:href="#tab_ic_white-list_s_svg__c"/>
            </mask>
            <path fill="#E19C5D" fill-rule="nonzero" d="M14.1506241,6.67271598 L14.1506241,8.00363049 C14.1511781,9.19248586 13.5381999,10.2913127 12.5428148,10.8856858 L12.5424932,10.9981482 L12.943576,11.2194134 C12.9855353,11.2425262 13.0117553,11.2876904 13.0117633,11.3368667 L13.0117633,12.1663595 C13.0117633,12.2398417 12.9541625,12.2994288 12.8831083,12.2994288 C12.862027,12.2994288 12.8412687,12.2940698 12.8226593,12.2838231 L11.6441789,11.6340038 C11.6020152,11.6107791 11.5757611,11.5653001 11.5759916,11.5158852 L11.579208,10.3852723 C11.5793693,10.3378921 11.6038688,10.2941722 11.6435347,10.2704815 L12.0597335,10.0216009 C12.7301689,9.621715 13.154874,8.89344141 13.1841787,8.09343254 L13.1857869,8.00359577 L13.1857869,6.67268125 C13.1863941,5.38635475 12.1788711,4.34307072 10.9354279,4.34244686 C9.72117036,4.34183351 8.72518825,5.33742178 8.68414928,6.59282663 L8.68286273,6.67268153 L8.68286273,8.00359605 C8.68226471,8.80479616 9.08021561,9.54998433 9.7361954,9.97598996 L9.80920723,10.0215738 L10.2266936,10.2714526 C10.2665584,10.2952622 10.2910891,10.3392905 10.2910212,10.3869096 L10.2910212,11.5171886 C10.2910212,11.5663426 10.2648084,11.6115115 10.222853,11.6346315 L6.24057996,13.8317019 C5.8131475,14.0675499 5.56784842,14.5490952 5.62142674,15.0471605 C5.65680695,15.376562 5.91411664,15.6297691 6.22932219,15.65439 L6.27949768,15.6563864 L12.8830484,15.6563864 C12.9538087,15.6563864 13.0117035,15.7162776 13.0117035,15.7894778 L13.0117035,16.5214806 C13.0117035,16.594985 12.9541027,16.654572 12.8830484,16.654572 L6.27949767,16.654572 C5.45041999,16.654572 4.75390931,16.0097078 4.66230285,15.1572926 C4.56529967,14.2532714 5.01062606,13.3793515 5.78642699,12.9513012 L9.32604596,10.9981782 L9.32604596,10.8857158 C8.33052631,10.29145 7.71738415,9.19262005 7.71785153,8.00362422 L7.71785153,6.6727097 C7.71785153,4.83504876 9.15782346,3.3454273 10.9342245,3.3454273 C12.7106495,3.3454273 14.1506241,4.83505971 14.1506241,6.67271598 Z M15.5848099,13.9927482 L17.0643433,13.9927482 C17.1351036,13.9927482 17.1929984,14.0526393 17.1929984,14.1258396 L17.1929984,14.8578424 C17.1929984,14.9313468 17.1353976,14.9909338 17.0643433,14.9909338 L15.5848099,14.9909338 L15.5848099,16.5214856 C15.5848099,16.59499 15.5272091,16.6545771 15.4561548,16.6545771 L14.7485522,16.6545771 C14.6774979,16.6545771 14.6198971,16.59499 14.6198971,16.5214856 L14.6198971,14.9909338 L13.1403637,14.9909338 C13.0693094,14.9909338 13.0117086,14.9313468 13.0117086,14.8578424 L13.0117086,14.1258396 C13.0117086,14.0526393 13.0696034,13.9927482 13.1403637,13.9927482 L14.6198971,13.9927482 L14.6198971,12.4621964 C14.6198971,12.3889961 14.6777919,12.3291049 14.7485521,12.3291049 L15.4561548,12.3291049 C15.5269151,12.3291049 15.5848099,12.3889961 15.5848099,12.4621964 L15.5848099,13.9927482 Z" mask="url(#tab_ic_white-list_s_svg__d)"/>
        </g>
    </g>
</svg>
