<svg xmlns="http://www.w3.org/2000/svg" width="20" height="20" viewBox="0 0 20 20">
    <g fill="none">
        <path fill="#111" d="M11.4431818,0 C12.1750775,0 12.7920679,0.503814247 12.9296006,1.21389708 L12.9506064,1.35857573 L12.9545455,1.45833333 L12.9545455,2.5 L15.1136364,2.5 C16.512035,2.5 17.6516787,3.56898954 17.7027584,4.90627572 L17.7045455,5 L17.7045455,8.11458333 C17.7045455,8.20663079 17.6299262,8.28125 17.5378788,8.28125 L16.1439394,8.28125 C16.0518919,8.28125 15.9772727,8.20663079 15.9772727,8.11458333 L15.9772727,5 C15.9772727,4.56068259 15.6249619,4.20076453 15.1780906,4.16895239 L15.1136364,4.16666667 L2.59090909,4.16666667 C2.1356165,4.16666667 1.76261052,4.50661575 1.72964157,4.93780736 L1.72727273,5 L1.72727273,17.5 C1.72727273,17.9393174 2.07958359,18.2992355 2.5264549,18.3310476 L2.59090909,18.3333333 L7.68702651,18.3333333 C7.77907397,18.3333333 7.85369318,18.4079525 7.85369318,18.5 L7.85369318,19.8333333 C7.85369318,19.9253808 7.77907397,20 7.68702651,20 L2.59090909,20 C1.19251041,20 0.0528667392,18.9310105 0.00178706748,17.5937243 L0,17.5 L0,5 C0,3.65066794 1.10786188,2.55101177 2.49377666,2.50172436 L2.59090909,2.5 L4.31818182,2.5 L4.31818182,1.66666667 C4.31818182,0.794638114 5.01224756,0.0790293121 5.89641884,0.00611766135 L6.04545455,0 L11.4431818,0 Z M6.31060606,10 C6.40265352,10 6.47727273,10.0746192 6.47727273,10.1666667 L6.47727273,11.5 C6.47727273,11.5920475 6.40265352,11.6666667 6.31060606,11.6666667 L3.18939394,11.6666667 C3.09734648,11.6666667 3.02272727,11.5920475 3.02272727,11.5 L3.02272727,10.1666667 C3.02272727,10.0746192 3.09734648,10 3.18939394,10 L6.31060606,10 Z M9.76515151,6.66666667 C9.85719897,6.66666667 9.93181818,6.74128588 9.93181818,6.83333334 L9.93181818,8.16666666 C9.93181818,8.25871412 9.85719897,8.33333333 9.76515151,8.33333333 L3.18939394,8.33333333 C3.09734648,8.33333333 3.02272727,8.25871412 3.02272727,8.16666666 L3.02272727,6.83333334 C3.02272727,6.74128588 3.09734648,6.66666667 3.18939394,6.66666667 L9.76515151,6.66666667 Z M11.2281364,1.66666667 L6.04545455,1.66666667 L6.04545455,2.5 L11.2272727,2.5 L11.2281364,1.66666667 Z" transform="translate(0.500000, 0.000000)"/>
        <path fill="#E19C5D" d="M13.3863636,8.75 C16.4866894,8.75 19,11.1751243 19,14.1666667 C19,17.1582091 16.4866894,19.5833333 13.3863636,19.5833333 C10.2860379,19.5833333 7.77272727,17.1582091 7.77272727,14.1666667 C7.77272727,11.1751243 10.2860379,8.75 13.3863636,8.75 Z M13.3863636,10.4166667 C11.2399843,10.4166667 9.5,12.0955989 9.5,14.1666667 C9.5,16.2377345 11.2399843,17.9166667 13.3863636,17.9166667 C15.532743,17.9166667 17.2727273,16.2377345 17.2727273,14.1666667 C17.2727273,12.0955989 15.532743,10.4166667 13.3863636,10.4166667 Z M15.7169636,12.2878724 L16.6983045,13.2347803 C16.7645436,13.2986952 16.7664277,13.4042059 16.7025128,13.470445 L16.6983045,13.4746533 L13.1739611,16.8753355 C13.0448159,16.9999493 12.8401935,16.9999493 12.7110483,16.8753355 L10.5437157,14.7840497 C10.4774766,14.7201348 10.4755925,14.6146241 10.5395074,14.548385 L10.5437157,14.5441767 L11.5250529,13.5972724 C11.5896267,13.5349643 11.6919403,13.5349657 11.7565125,13.5972755 L12.9424545,14.7416667 L15.4855079,12.2878717 C15.5500806,12.2255655 15.6523913,12.2255658 15.7169636,12.2878724 Z" transform="translate(0.500000, 0.000000)"/>
    </g>
</svg>
